<svg xmlns="http://www.w3.org/2000/svg" viewBox="0 0 180 180"><defs><style>.cls-1{fill:#b63c41;}.cls-2{fill:#040000;}</style></defs><title>h</title><g id="Layer_2" data-name="Layer 2"><g id="Layer_1-2" data-name="Layer 1"><path class="cls-1" d="M28.07,139C27.36,124,32,110.92,43,101.54c7-2,10.2-4.8,12.25-9a43.79,43.79,0,0,1,7-10.75c-9.55-9.91-19.32-2.4-25.75-.25-4.2,1.7-6.65,2.63-8.89,5.31l-3.48,4L18,86.14l7-5.8-11.23-10L8,74,6.55,60,39.24,38.45c2.59-6.07,18.49-15,30.28-22.42L74,9.87l5.27,11.87c21.35,9.56,29.29,22.69,35.37,37.7,4.73,17.23,3.92,29.2,2.86,40.82S115,123.21,119.14,139Z"/><path class="cls-2" d="M16.43,59.52l2.83-.35,3.17,2.67-3.95,4.71L13.6,64.29ZM65.22,42.45,47,42.29l10-8.57C60.42,30.88,69.08,42.45,65.22,42.45Zm-25-2.57-3.94-5.15c.34-2.22,3.69-5.31,9.95-9.26s12.52-8,18.86-12.26L75,0l8.23,18.61c39.07,19.68,46,46.68,41.13,87.56a67.73,67.73,0,0,0,5.32,36.62H23.11c-1-20.32,3.61-33.19,19-46.22,8.91-1.8,12.52-10,14.57-13.38-13.46-2.4-21.87-.69-25,5.14s-4.8,8.75-4.8,8.75L8.28,86.7l9.86-7-4.37-4.29L3.31,82.79l-1-25.5,34-22.56s3.38-1.15,4-.38,0,5.53,0,5.53L8.8,60.55l.34,10.74,5.49-3.52L26.46,80.1l-6.69,5.58,4,2.4,3.34-3.86A22.89,22.89,0,0,1,36.38,78c6.17-2.06,21.35-5.49,30.53,4a52.9,52.9,0,0,0-7.78,11.33q-3,6-13,8.83c-10.55,9-17.32,19.9-16.64,34.3h87.36c-4-15.17-2.75-26.07-1.63-37.21S117,76.56,112.47,60c-5.83-14.4-13.46-27-34-36.19l-5.06-11.4-4.16,5.93C58,25.47,42.66,34.05,40.18,39.88Z"/><path class="cls-2" d="M62.31,78.39c-.91,1,.88,4.11,4.63,3.6,1.46-.2,2.23-1.29,3.17-1.2a11.19,11.19,0,0,0,2.83-.09c8.92-1.28,15.27-11.06,15.52-21.44l-1.63-5.74c-3.17,13.63-8.49,21-16.12,22-1.2.17-2.49.34-3.86.43A8.72,8.72,0,0,0,62.31,78.39Z"/><path class="cls-1" d="M65.36,141.11a10.34,10.34,0,0,0-.3,1C60,153.5,53.25,154.08,42.8,154.08H19.66c-7.69,0-13.82,8.06-13.82,11.25v2.25H49c9.21,0,26.44-9,26.55-26.34v-.13Z"/><path class="cls-1" d="M138.28,153.9H115.14c-10.78,0-17.19-.58-22.27-12.13-.05-.24-.12-.48-.19-.72H82.42c.19,17.18,17.57,26.54,26.54,26.54h43.11V165.3C152.07,162.18,145.83,153.9,138.28,153.9Z"/><path class="cls-2" d="M138,147.53H113.86c-6.65,0-11.08.39-15.31-6.42H90.74c5.79,13.17,13.84,13.56,24.45,13.56h23.15c6.55,0,11.57,7.33,11.57,9l-40.92,0c-8.19,0-23.17-8.07-24.24-22.47H73.24C72,155.58,57.17,163.64,49,163.64H8.14c0-1.64,4.92-9,11.57-9H42.83c10.4,0,18.62-.38,24.4-13.47H59.35c-4.32,6.74-8.74,6.36-15.27,6.36H20c-9.93,0-20,8.2-20,23.25H47.74c15.74,0,31.25-12.63,31.25-27.3,0,14.62,15.43,27.3,31.24,27.3H158C158,155.73,147.75,147.53,138,147.53Z"/></g></g></svg>