<svg xmlns="http://www.w3.org/2000/svg" viewBox="0 0 173.39 160.52"><defs><style>.cls-1{fill:#b63c41;}.cls-2,.cls-4,.cls-7{fill:#fff;}.cls-2,.cls-3,.cls-6{opacity:0.2;}.cls-2,.cls-6,.cls-7{isolation:isolate;}.cls-5{fill:#1a1a1a;}.cls-6{fill:#040000;}.cls-7{opacity:0.3;}</style></defs><title>资源 1</title><g id="图层_2" data-name="图层 2"><g id="图层_1-2" data-name="图层 1"><path class="cls-1" d="M46.18,18.34h-.83c-2.72,0-5.43,2.48-6.16,5.64l-1.45,6.88c-1.32,3.14-3.54,5.36-7.13,8.32a19.05,19.05,0,0,0-6.06,8.69l-.17.42c-.9,2.29-1.56,4.3-2.16,6.07a43.52,43.52,0,0,1-6.11,12.85L4.48,83.59C.86,88.1,1.26,94.35,5.4,97.86s14.4,6.3,17.9,6.3a3.42,3.42,0,0,0,2.42-.78,24.9,24.9,0,0,0,3.7-4.85c2.31-3.6,4-6.2,9.93-6.23,8.73,0,16.28-8,19.91-11.76h0L61.44,78c1.46,2.33,3.14,6.13,2,10.11a16.42,16.42,0,0,1-2.3,4.79,40.16,40.16,0,0,1-8,8l-.19.16c-7.52,6.08-20,16.15-22.08,30.28C17.54,135,17.57,144.29,17.6,155v3.61H119.21V155c0-10.69.06-20-13.28-23.63.41-1.59,1-3.64,1.64-5.9,2.63-9.24,6.24-21.9,6.24-30.2,0-19.56-6.19-36-17.89-47.47A59,59,0,0,0,59.16,31.3L46.77,18.93Z"/><path class="cls-2" d="M68.82,136.5c43.07,0,47.54,4.75,47.54,4.75H117C115,131.07,92.46,130,92.46,130H45.35s-23.36.81-24.66,11.3h.59S25.75,136.5,68.82,136.5Z"/><g class="cls-3"><path class="cls-4" d="M42.75,38.3c8.06-5,2.6-18,2.6-18a5,5,0,0,0-5,4l-1.46,6.92c-1.41,3.38-3.71,5.7-7.46,8.8a18.07,18.07,0,0,0-5.76,8.26l-.16.42c-.89,2.26-1.52,4.17-2.14,6a44.44,44.44,0,0,1-6.22,13.1L5.53,84.23c-.15.15-.3.31-.44.47a6,6,0,0,0-1,7.74S23.11,69,25.6,65.7C30.11,59.72,27.27,47.93,42.75,38.3Z"/></g><path class="cls-5" d="M43.89,47.86C38.66,50,37.25,59,37.25,59c5.08-4.42,7.53.65,12.59-3.36C54.11,52.25,49,45.76,43.89,47.86Z"/><path class="cls-6" d="M68,64.16c-1.82,3.49-6.33,10.57-6.33,10.57s-.47,1.43-1,3.46c0,0,2.08-.23,2.47,6.39.1,1.72.93,7.76,2,5.18,3-7.44,5.18-16.44,5.14-19.49S69.79,60.67,68,64.16Z"/><path class="cls-6" d="M58.28,33.24s40.83,5.07,40.83,44.11c0,26.14-17.38,33.44-22,51,0,0,19.33.15,27.88,4.19,0,0,9.18-24.84,9.18-39.56C114.16,77.92,102.72,32.09,58.28,33.24Z"/><path class="cls-6" d="M43.23,90.29c-9.11-4.47-11.41-9.79-14.91.72-3.4,10.18-8.55,11.93-5.09,13S31,93.56,34,93.37,46.64,92,43.23,90.29Z"/><path class="cls-5" d="M45.35,20.34l12.93,12.9c25.26,1.71,53.53,20.1,53.53,62,0,11.12-7,31.49-8.29,37.57,14.39,3.05,13.69,11.63,13.69,23.76H19.65c0-12-.68-20.47,13.08-23.63,1.38-14.19,14.38-24.54,21.72-30.52A41.52,41.52,0,0,0,62.86,94a18.33,18.33,0,0,0,2.57-5.37c1.82-6.37-2.3-12.09-3.78-13.88l-3.83,4.43C54,83.21,47.11,90.27,39.34,90.3c-10.05,0-10.29,7.09-15,11.65a1.73,1.73,0,0,1-1,.21c-3.27,0-12.92-2.68-16.61-5.82C3.51,93.6,3.09,88.52,6.11,84.8l11.7-16.46C23,60.74,23.27,56.69,26.29,49a17.46,17.46,0,0,1,5.64-8.3c3.81-3.15,6.28-5.61,7.77-9.27l1.48-7c.5-2.16,2.39-4.09,4.21-4.09m1.66-4h-1.7c-3.68,0-7.16,3.09-8.11,7.19v.08l-1.39,6.64c-1.18,2.68-3.14,4.62-6.49,7.39a20.88,20.88,0,0,0-6.66,9.51l-.16.41c-.92,2.34-1.6,4.37-2.19,6.17a41.79,41.79,0,0,1-5.86,12.34L2.88,82.39c-4.25,5.35-3.77,12.79,1.23,17,4.6,3.91,15.36,6.77,19.2,6.77a5.38,5.38,0,0,0,3.8-1.34,27.34,27.34,0,0,0,4-5.21c2.18-3.41,3.38-5.28,8.25-5.31,9.58,0,17.53-8.37,21.35-12.38l.07-.07.06-.07.27-.29a9.3,9.3,0,0,1,.49,6,14.17,14.17,0,0,1-2,4.21A38.37,38.37,0,0,1,52,99.29l-.19.16c-7.53,6.1-19.83,16.06-22.58,30.27-5.78,1.84-9.58,5-11.57,9.54s-2,9.68-1.94,15.66v5.6H121.21v-5.6c0-6.07,0-11.32-2-15.88-2-4.32-5.44-7.28-10.8-9.1.33-1.2.71-2.56,1.13-4,2.66-9.36,6.31-22.17,6.31-30.75,0-42.1-27.74-63.26-55.74-65.82L48.18,17.51,47,16.34Z"/><path class="cls-5" d="M68.82,130.5a252.74,252.74,0,0,1,31.36,1.65,42.9,42.9,0,0,1,5.17,1l.66-4a45.73,45.73,0,0,0-5.32-1,253.18,253.18,0,0,0-31.87-1.69h0A253.22,253.22,0,0,0,37,128.15a45.93,45.93,0,0,0-5.58,1l.82,3.91a41,41,0,0,1,5.26-1A252.77,252.77,0,0,1,68.82,130.5Z"/><path class="cls-1" d="M165.17,55.21A17.17,17.17,0,0,0,162.79,42a23.6,23.6,0,0,0-9.54-9l5-5,3.36,5.34,8.23-5.18-3.45-5.48,5.48-3.45L166.72,11l-5.49,3.45-3.45-5.49-8.23,5.18,3.35,5.32-6.7,2.36a23.61,23.61,0,0,0-4-12.5,17.11,17.11,0,0,0-10.85-7.85,18.22,18.22,0,0,0-13.52,2.69c-6.22,3.92-7.69,10.38-9.1,16.62C107.86,24.6,107,28.56,105,32c-5.64-5.38-10-2.62-14.87.49l-1.65,1L117.64,80l1.65-1c4.94-3.11,9.27-5.8,6.88-13.19,4-.3,7.94.61,11.78,1.49,6.24,1.43,12.68,2.92,18.92-1A18.32,18.32,0,0,0,165.17,55.21Zm-18.49-1.56c-3.2,1.43-8.52-1.29-14.06-1.86-.82-1.53-1.31-2.48-2-3.74L142,40.87s4.91,2,6.76,5C148.77,45.82,151.94,51.3,146.68,53.65Zm-14-33.34c1.85,2.94,1.54,8.24,1.54,8.24l-11.39,7.16c-.83-1.21-1.47-2.06-2.49-3.46,1.88-5.24,1.72-11.2,4.37-13.45C129.16,15.08,132.73,20.31,132.73,20.31Z"/><polygon class="cls-7" points="168.03 29.28 163.44 21.99 165.78 22.43 169.5 28.35 168.03 29.28"/><polygon class="cls-7" points="168.91 18.52 166.04 13.95 160.55 17.4 157.1 11.91 152.53 14.79 149.55 14.11 157.78 8.93 161.23 14.42 166.71 10.97 171.89 19.2 168.91 18.52"/><path class="cls-2" d="M113.12,50.41c12.38,19.69,11.5,23.1,11.5,23.1l.17.27c4.09-3.81-1.88-14.45-1.88-14.45L109.37,37.8s-7.09-10.45-12.26-8l.17.27S100.74,30.72,113.12,50.41Z"/><path class="cls-2" d="M143.78,14.37S141,2.6,129.94,1.21c-15.31-1.94-19,13.46-19,13.46C118.23,1.59,135.56-.08,143.78,14.37Z"/><path class="cls-6" d="M145.65,64.54l-22.15-5,2.67,6.22a52.21,52.21,0,0,1,12.93,1.59c7.18,1.78,11.81,2.64,19-1.86,5.25-3.3,5.93-7.42,6.35-11C164.43,54.48,157,67.13,145.65,64.54Z"/><path class="cls-5" d="M131.89,20.79a10.43,10.43,0,0,1,1.32,6.78L123,34l-1.55-2.19c.66-2.07,1.15-4,1.59-5.72.91-3.63,1.59-6.28,3.11-7.23,2.43-1.53,4.59,0,5.79,1.88m1.83-1.15c-2-3.2-5.49-4.62-8.77-2.56s-3.41,7.77-6,15.12c0,0,2.6,3.66,3.35,4.75l12.82-8.06a12.78,12.78,0,0,0-1.46-9.25Z"/><path class="cls-5" d="M115.87,48.69a138.15,138.15,0,0,1,8.26,14.81,24.81,24.81,0,0,1,1,2.64l2-.84a23.62,23.62,0,0,0-1.07-2.72,137.59,137.59,0,0,0-8.39-15.06h0a137.86,137.86,0,0,0-9.93-14.08,24.54,24.54,0,0,0-2.06-2.26l-1.55,1.5a22,22,0,0,1,2,2.12A138.29,138.29,0,0,1,115.87,48.69Z"/><path class="cls-5" d="M170.4,18.86l-5.48,3.45,3.45,5.48-6.4,4-3.45-5.49L152,32.83a30.21,30.21,0,0,1,9.88,9.76c5,8,2.84,17.43-5.57,22.72-10,6.26-20.4-2.13-31.61-.5,3.17,7.92-1,10.09-6.72,13.67l-28-44.6c5.69-3.58,9.45-6.42,15.22-.14,6.33-9.39,3.3-22.45,13.22-28.69,8.42-5.29,17.89-3.13,22.9,4.83a31.43,31.43,0,0,1,4.63,13l8.55-3L151,14.44l6.4-4,3.45,5.49,5.49-3.45,4,6.4m3,.68L167,9.47l-5.49,3.45-3.45-5.49L148,13.76l3.16,5L147.67,20a34.89,34.89,0,0,0-4.56-11.31c-5.68-9-16.56-11.35-25.87-5.5-6.6,4.16-8.11,10.85-9.57,17.3a44,44,0,0,1-3,9.78,9.24,9.24,0,0,0-7.06-2.36c-2.77.29-5.22,1.85-8.08,3.65L87,33.19,117.3,81.45l2.56-1.61c4.83-3,9.44-5.9,7.72-13.08a45,45,0,0,1,10.13,1.52c6.45,1.48,13.13,3,19.73-1.13,9.31-5.85,11.94-16.66,6.26-25.7a33.5,33.5,0,0,0-8.32-9l2.75-2.73,3.17,5,10-6.32L167.9,23l5.49-3.45Z"/><path class="cls-5" d="M148,46.33c1.21,1.91,1.62,4.5-.82,6-1.52,1-4.19.43-7.86-.33-1.73-.35-3.66-.75-5.83-1l-1.29-2.34L142.4,42.2A10.44,10.44,0,0,1,148,46.33m1.83-1.15a12.8,12.8,0,0,0-7.7-5.32l-12.83,8.06c.66,1.15,2.83,5.08,2.83,5.08,7.71.89,12.86,3.29,16.2,1.19S151.8,48.39,149.78,45.18Z"/></g></g></svg>