<svg xmlns="http://www.w3.org/2000/svg" viewBox="0 0 145.3 144.84"><defs><style>.cls-1{fill:#b63c41;}.cls-2,.cls-6{fill:#040000;}.cls-3,.cls-6{opacity:0.2;}.cls-4{fill:#fff;}.cls-5{fill:#1a1a1a;}.cls-6{isolation:isolate;}</style></defs><title>资源 2</title><g id="图层_2" data-name="图层 2"><g id="图层_1-2" data-name="图层 1"><path class="cls-1" d="M63.3,117.69l-1.66,2.12a24.24,24.24,0,0,1-7.83,6.51c-1.46.84-3.43,1.38-7.87,1.24-5.45-.17-15.63-3.94-25.8-3.94a37.9,37.9,0,0,0-18.17,5l7.11,14.61c2.93-1.66,9.87-3.75,12.5-3.75,11,0,19.39,3.75,29.31,3.75A23.14,23.14,0,0,0,64,138.74c3.83-2.78,5.55-4,7.09-10.19l1.52-5.92,1.54,5.89c1.54,6.16,3.26,7.41,7.09,10.19a23.14,23.14,0,0,0,13.14,4.49c9.92,0,18.35-3.75,29.31-3.75,2.63,0,9.56,2.09,12.5,3.75l7.11-14.61a37.9,37.9,0,0,0-18.17-5c-10.18,0-20.35,3.77-25.8,3.94-4.44.14-6.41-.4-7.87-1.24a24.24,24.24,0,0,1-7.83-6.51L82,117.66h-.11"/><path class="cls-2" d="M144.15,126.85a39.36,39.36,0,0,0-19-5.19c-6.23,0-12.52,1.38-17.52,2.49a52.23,52.23,0,0,1-8.33,1.45c-4.38.13-6-.42-7.12-1.07a22.3,22.3,0,0,1-7.34-6.1l.12,0-3.14-1.16v0l-1,.82,1.65,2.11a25.43,25.43,0,0,0,8.26,6.89c2,1.15,4.53,1.57,8.67,1.44a54.4,54.4,0,0,0,8.88-1.52c4.87-1.08,11-2.42,16.87-2.42a37,37,0,0,1,16.2,4.09l-5.82,12c-3.56-1.61-9.32-3.23-11.82-3.23a77.57,77.57,0,0,0-15.69,2,68.58,68.58,0,0,1-13.6,1.85,21.6,21.6,0,0,1-12.26-4.2c-3.72-2.7-5.11-3.72-6.52-9.36l-3-11.45-3,11.47c-1.41,5.62-2.8,6.64-6.49,9.32a21.64,21.64,0,0,1-12.29,4.22,68,68,0,0,1-13.62-1.77,77.57,77.57,0,0,0-15.69-2c-2.5,0-8.26,1.62-11.82,3.23l-5.82-12a36.71,36.71,0,0,1,16.2-4.09c5.87,0,12,1.34,16.87,2.42a54.4,54.4,0,0,0,8.88,1.52c4.15.13,6.63-.29,8.63-1.42a25.41,25.41,0,0,0,8.3-6.91l3.3-4.23-.27,0-5.45,2.43h.05a22.39,22.39,0,0,1-7.34,6.13c-1.08.58-2.71,1.13-7.08,1a53.7,53.7,0,0,1-8.34-1.45c-5-1.11-11.28-2.49-17.51-2.49a39.36,39.36,0,0,0-19,5.19L0,127.57l8.4,17.27L9.79,144c2.7-1.56,9.4-3.56,11.76-3.56a75.86,75.86,0,0,1,15.08,1.94,70.65,70.65,0,0,0,14.27,1.8,24.64,24.64,0,0,0,14-4.77c3.87-2.78,6-4.33,7.66-11l.09-.33.08.32c1.7,6.68,3.8,8.23,7.7,11.06a24.62,24.62,0,0,0,14,4.75,70.81,70.81,0,0,0,14.2-1.83,75.5,75.5,0,0,1,15.12-1.92c2.36,0,9.06,2,11.76,3.56l1.39.79,8.4-17.27Z"/><rect class="cls-1" x="42.23" y="109.97" width="70.15" height="5.69"/><path class="cls-1" d="M115.14,113c.41-1.59,1-3.64,1.64-5.9,2.63-9.24,6.24-21.9,6.24-30.2,0-19.56-6.19-36-17.89-47.47A59,59,0,0,0,68.37,13L56,.59,55.39,0h-.83c-2.72,0-5.43,2.48-6.16,5.64L47,12.52c-1.32,3.14-3.54,5.36-7.13,8.32a19.26,19.26,0,0,0-6.06,8.69l-.17.42c-.9,2.29-1.56,4.3-2.16,6.07a43.28,43.28,0,0,1-6.11,12.85L13.69,65.25c-3.62,4.51-3.22,10.76.92,14.27s14.4,6.3,17.9,6.3A3.33,3.33,0,0,0,34.93,85a24.52,24.52,0,0,0,3.7-4.85c2.31-3.6,4-6.2,9.93-6.23C57.29,74,64.84,66,68.47,62.2h0l2.18-2.52c1.46,2.33,3.14,6.13,2,10.11a16.17,16.17,0,0,1-2.3,4.79,40.16,40.16,0,0,1-8,8l-.19.16c-7.52,6.08-20,16.15-22.08,30.28"/><g class="cls-3"><path class="cls-4" d="M52,20c8.06-5,2.6-18,2.6-18a5,5,0,0,0-5,4L48.1,12.88c-1.41,3.38-3.71,5.7-7.46,8.8a18.07,18.07,0,0,0-5.76,8.26l-.16.42c-.89,2.26-1.52,4.17-2.14,6a44.32,44.32,0,0,1-6.22,13.1L14.74,65.89c-.15.15-.3.31-.44.47a6,6,0,0,0-1,7.74s19-23.45,21.51-26.74C39.32,41.38,36.48,29.59,52,20Z"/></g><path class="cls-5" d="M53.1,29.52c-5.23,2.14-6.64,11.09-6.64,11.09,5.08-4.42,7.53.65,12.59-3.36C63.32,33.91,58.22,27.42,53.1,29.52Z"/><path class="cls-6" d="M77.19,45.82c-1.82,3.49-6.33,10.57-6.33,10.57s-.47,1.43-1,3.46c0,0,2.08-.23,2.47,6.39.1,1.72.93,7.76,2,5.18,3-7.44,5.18-16.44,5.14-19.49S79,42.33,77.19,45.82Z"/><path class="cls-6" d="M67.49,14.9S108.32,20,108.32,59c0,26.14-17.38,33.44-22,51,0,0,19.33.15,27.88,4.19,0,0,9.18-24.84,9.18-39.56C123.37,59.58,111.93,13.75,67.49,14.9Z"/><path class="cls-6" d="M52.44,72c-9.11-4.47-11.41-9.79-14.91.72-3.4,10.18-8.55,11.93-5.09,13S40.18,75.22,43.21,75,55.85,73.62,52.44,72Z"/><path class="cls-5" d="M63.65,86.28a41.78,41.78,0,0,0,8.41-8.44,18.46,18.46,0,0,0,2.57-5.37c1.82-6.37-2.3-12.09-3.78-13.88L67,63c-3.86,4-10.71,11.11-18.48,11.14-10,0-10.29,7.09-15,11.65a1.73,1.73,0,0,1-1,.21c-3.27,0-12.92-2.68-16.61-5.82-3.22-2.74-3.64-7.82-.62-11.54L27,52.2c5.23-7.6,5.46-11.65,8.48-19.32a17.32,17.32,0,0,1,5.64-8.3c3.81-3.15,6.28-5.61,7.77-9.27l1.48-7c.5-2.15,2.38-4.08,4.19-4.09l0,0,0,0h0L67.48,17.1C92.74,18.81,121,37.2,121,79.1c0,10.82-6.62,30.39-8.17,37l4.91-2.29-.14,0c.33-1.2.71-2.56,1.13-4,2.66-9.36,6.31-22.17,6.31-30.75C125,37,97.31,15.79,69.31,13.23L57.38,1.37,56.23.22H54.55c-3.68,0-7.16,3.09-8.11,7.19v.08l-1.39,6.64c-1.18,2.68-3.14,4.62-6.49,7.39A20.74,20.74,0,0,0,31.9,31l-.16.41c-.92,2.34-1.6,4.37-2.19,6.17A41.55,41.55,0,0,1,23.69,50L12.08,66.25C7.83,71.6,8.31,79,13.31,83.25,17.91,87.16,28.67,90,32.51,90a5.4,5.4,0,0,0,3.8-1.34,27.34,27.34,0,0,0,4-5.21c2.18-3.41,3.38-5.28,8.25-5.31,9.58,0,17.53-8.37,21.35-12.38l.07-.07.06-.07.27-.29a9.37,9.37,0,0,1,.49,6,14.05,14.05,0,0,1-2,4.21,38.37,38.37,0,0,1-7.63,7.59l-.19.16c-7.48,6.06-19.65,15.92-22.51,30L42,116.66C43.4,102.54,56.34,92.24,63.65,86.28Z"/><path class="cls-5" d="M75.84,118.66a371.9,371.9,0,0,0,38.2-2.84l4.17-3.63-.15-.06V112l-5.36-.63v0h0a363.75,363.75,0,0,1-36.9,2.74A359.87,359.87,0,0,1,39,111.4l0-.17-1.47,4.56A369.43,369.43,0,0,0,75.84,118.66Z"/></g></g></svg>