<svg xmlns="http://www.w3.org/2000/svg" viewBox="0 0 161.77 152.06"><defs><style>.cls-1{fill:#b63c41;}.cls-2{fill:#040000;}.cls-3{fill:none;}</style></defs><title>资源 9</title><g id="图层_2" data-name="图层 2"><g id="图层_1-2" data-name="图层 1"><path class="cls-1" d="M25.79,148.29c-.71-15,3.89-28.1,14.88-37.48,7-2,10.2-4.8,12.25-9a44.57,44.57,0,0,1,7-10.75c-9.55-9.91-19.32-2.4-25.75-.25-4.2,1.7-6.65,2.63-8.89,5.31l-3.48,4-6.13-4.71,7-5.8-11.23-10L5.72,83.23l-1.45-14L37,47.72c2.59-6.07,18.49-15,30.28-22.42l4.43-6.16L76.94,31c21.35,9.56,29.29,22.69,35.37,37.7,4.73,17.23,3.92,29.2,2.86,40.82s-2.5,22.95,1.69,38.76Z"/><path class="cls-2" d="M14.15,68.79,17,68.44l3.17,2.67L16.2,75.82l-4.88-2.26ZM62.94,51.72l-18.18-.16,10-8.57C58.14,40.15,66.8,51.72,62.94,51.72Zm-25-2.57L34,44c.34-2.22,3.69-5.31,10-9.26s12.52-8,18.86-12.26L72.67,9.27,80.9,27.88c39.07,19.68,46,46.68,41.13,87.56a67.91,67.91,0,0,0,5.32,36.62H20.83c-1-20.32,3.61-33.19,19-46.22,8.91-1.8,12.52-10,14.57-13.38-13.46-2.4-21.87-.69-25,5.14s-4.8,8.75-4.8,8.75L6,96l9.86-7-4.37-4.29L1,92.06,0,66.56,34,44s3.38-1.15,4-.38,0,5.53,0,5.53L6.52,69.82l.34,10.74L12.35,77,24.18,89.37,17.49,95l4,2.4,3.34-3.86a23,23,0,0,1,9.27-6.26c6.17-2.06,21.35-5.49,30.53,4a53.26,53.26,0,0,0-7.78,11.33q-3,6-13,8.83c-10.55,9-17.32,19.9-16.64,34.3h87.36c-4-15.17-2.75-26.07-1.63-37.21s1.8-22.65-2.75-39.2c-5.83-14.4-13.46-27-34-36.19l-5.06-11.4L67,27.62c-11.3,7.12-26.59,15.7-29.07,21.53Z"/><path class="cls-2" d="M60,87.66c-.91,1,.88,4.11,4.63,3.6,1.46-.2,2.23-1.29,3.17-1.2A11.19,11.19,0,0,0,70.66,90c8.92-1.28,15.27-11.06,15.52-21.44l-1.63-5.74c-3.17,13.63-8.49,21-16.12,22-1.2.17-2.49.34-3.86.43A8.72,8.72,0,0,0,60,87.66Z"/><path class="cls-1" d="M155.75,57.9a13.86,13.86,0,0,0,3.91-4.82,17.47,17.47,0,0,0,1.72-6A18.09,18.09,0,0,0,161,41a14.27,14.27,0,0,0-2.47-5.22A12.31,12.31,0,0,0,154,32.29,20.55,20.55,0,0,0,148,30.46l-1.55-.22,1.3-.51c1.33-4.19,1.29-7.25-.13-9.08s-4.43-2.68-8.82-2.38l-.73.64.12-1.06c.49-4.66-.41-8.86-2.49-11.53A16.17,16.17,0,0,0,124.87.61a16.66,16.66,0,0,0-6,.3,13.91,13.91,0,0,0-5.39,2.56,20.71,20.71,0,0,0-6.36,9.16,48.73,48.73,0,0,0-2.74,14.83v.23L91.12,34.85l28.68,37L130,60.72l.22.05a49.65,49.65,0,0,0,15,1A20.58,20.58,0,0,0,155.75,57.9Z"/><path class="cls-2" d="M146.32,19.05a5.71,5.71,0,0,1,2.39,3.08l5-3.89,2.73,3.51,3.11-2.42-2.74-3.53,3.11-2.41-2.37-3.06-3.11,2.42-2.73-3.52-3.11,2.42,2.73,3.51Z"/><polygon class="cls-2" points="111.22 41.45 111.89 48.12 118.22 50.6 117.55 43.93 111.22 41.45"/><path class="cls-3" d="M145.6,29.82l.65,0-1.41-.07c1.15-4,1.3-6.52.51-7.53s-3.27-1.51-7.42-1.38l.11-.58A33.11,33.11,0,0,1,131.53,33,31.92,31.92,0,0,1,145.6,29.82Z"/><path class="cls-3" d="M120,42a49.7,49.7,0,0,0-13.91-12.24l-1.73.93.64,5.75-6.49-2.6L95,35.65l24.86,32,8.49-9.21A49.6,49.6,0,0,0,120,42Z"/><path class="cls-3" d="M121.44,38.86c6.4-5,11-11.52,12.37-15.72,2.29-4.93,2.28-11.8-.49-15.37-3.48-4.48-12.57-6.67-18.5-2.07-4.75,3.69-7.44,12.81-7.69,21.14A51.23,51.23,0,0,1,121.44,38.86Z"/><path class="cls-3" d="M156.39,37.51c-2.82-3.64-9.43-5.33-14.76-4.29-4.43.24-11.87,3.1-18.29,8.08a51.36,51.36,0,0,1,8.08,16.85c8.09,1.75,17.64,1.49,22.39-2.2C159.73,51.35,159.85,42,156.39,37.51Z"/><path class="cls-2" d="M155.88,58.22c6.94-5.39,7.57-16.63,2.82-22.75-2.44-3.15-7.09-5.11-11.88-5.56l1.09.12q2.19-6.66-.15-9.67c-1.57-2-4.69-2.88-9.33-2.56,0,.34-.11.73-.18,1.17.72-4.84,0-9.81-2.41-13C131.06-.15,120-2.33,113.1,3.09c-5.55,4.35-8.63,12.41-9.23,24.29l-13.49,7.3,29.29,37.74,10.4-11.28Q147.51,64.63,155.88,58.22Zm-18-37.34c4.18-.14,6.64.36,7.42,1.38s.63,3.51-.5,7.53l1.4.08-.64,0A31.79,31.79,0,0,0,131.53,33,33.11,33.11,0,0,0,138,20.3ZM114.81,5.7c5.93-4.6,15-2.42,18.5,2.07,2.78,3.57,2.8,10.43.49,15.37-1.36,4.2-6,10.71-12.36,15.71a51.41,51.41,0,0,0-14.32-12C107.38,18.5,110.06,9.38,114.81,5.7Zm-7.36,46L95,35.65l3.45-1.86L105,36.47l-.69-5.83,1.73-.93a49.27,49.27,0,0,1,22.32,28.76L127,59.94l-5.39-2,.92,6.9-2.65,2.89Zm24,6.49a51.23,51.23,0,0,0-8.09-16.86c6.42-5,13.87-7.82,18.29-8.08,5.32-1,11.94.65,14.77,4.29,3.45,4.45,3.34,13.84-2.59,18.44C149.06,59.63,139.5,59.9,131.42,58.15Z"/></g></g></svg>