<svg xmlns="http://www.w3.org/2000/svg" viewBox="0 0 181.72 162.54"><defs><style>.cls-1{fill:#b63c41;}.cls-2{fill:#040000;}</style></defs><title>资源 6</title><g id="图层_2" data-name="图层 2"><g id="图层_1-2" data-name="图层 1"><path class="cls-1" d="M48.27,32.47A65.56,65.56,0,0,0,28.4,20.61a61.74,61.74,0,0,0,3.7,23.16l.33.9-.68.67a30.64,30.64,0,0,0-2.27,2.43l-.28.33a13.76,13.76,0,0,1-1.13,1.27,33.11,33.11,0,0,0-2.43,3.22c-.23.39-.78,1.3-1.59,2.48-1.61,2.51-2.48,6.41-2.48,11.22v.14c-.46,5-5,12.73-11,22.23-5.08,8-9,13-9,17.37a29.22,29.22,0,0,0,1.3,9c1.56,5.3,6.67,9.85,12.61,12.13l4.71-2.58s4.41,3.63,8.71,3.63,10.18-8,11.32-10.18c0,0,1-5.75,4.53-9.36,4-4.11,9.69-4.76,17.28-7.51,7.11-1.94,12.08-9.08,12.08-9.08A44.36,44.36,0,0,1,72.22,107c-2.54,7-8.77,13.17-14.78,19.16-1.17,1.16-2.33,2.32-3.45,3.47-4.17,4.28-5.71,6.66-6.26,7.7-4.21,7.53-5.41,12.33-5.75,14.52a36.6,36.6,0,0,0-.4,9.23H144.47V143.87c0-14.74-.59-33.78-5.17-50.3-3.74-13-10.61-26.3-18.37-35.48-10.93-13-29.45-20.93-43.4-21.66a75.84,75.84,0,0,0-10,0c-1.07-2.78-3.1-9.37-10.79-14.65A28.34,28.34,0,0,0,48.27,32.47Z"/><path class="cls-2" d="M146,162.54H40.24l-.19-1.28a37.83,37.83,0,0,1,.42-9.74c.34-2.23,1.59-7.23,5.91-15,.7-1.33,2.4-3.83,6.49-8,1.13-1.15,2.3-2.32,3.47-3.48,5.91-5.89,12-12,14.43-18.62a39.83,39.83,0,0,0,1.79-10.33,23.61,23.61,0,0,1-10.12,6.43c-2.11.76-4.1,1.38-5.86,1.92-4.56,1.4-8.15,2.51-10.8,5.21-3.15,3.22-4.11,8.51-4.12,8.56v.24l-.11.21c-.76,1.44-7.08,11-12.65,11-3.66,0-7.26-2.23-8.84-3.35l-4.51,2.46-.64-.25C8.19,126,3,120.92,1.39,115.41A30.83,30.83,0,0,1,0,106c0-4,2.67-8,6.37-13.68.9-1.39,1.88-2.88,2.9-4.49C14.48,79.6,19.6,71.14,20,66.28v-.07c0-5,.93-9.19,2.7-12,.8-1.15,1.31-2,1.55-2.41A35.94,35.94,0,0,1,27,48.36c.35-.35.7-.76,1.11-1.25l.27-.32a30.36,30.36,0,0,1,2.33-2.48h0A63.21,63.21,0,0,1,26.9,20.56l.1-2.11,2,.76A66.72,66.72,0,0,1,47.78,30.1a29.91,29.91,0,0,1,8.07-9.51l.87-.66.89.62a28.48,28.48,0,0,1,11,14.31,81.89,81.89,0,0,1,9,.07c13,.68,32.41,7.92,44.46,22.19,7.9,9.33,14.88,22.81,18.67,36,4.63,16.7,5.23,35.87,5.23,50.71Zm-103-3H143V143.87c0-14.65-.58-33.56-5.12-49.89-3.68-12.84-10.43-25.9-18.07-34.92-11.47-13.59-30-20.48-42.33-21.13a76,76,0,0,0-9.78,0L66.58,38l-.64-1.68a25.76,25.76,0,0,0-9.1-12.67,27.15,27.15,0,0,0-7.18,9.44l-.83,1.83-1.52-1.33A63.26,63.26,0,0,0,29.87,22.77a60.49,60.49,0,0,0,3.64,20.45L34.16,45l-1.35,1.34a31.26,31.26,0,0,0-2.15,2.3l-.31.37c-.46.53-.86,1-1.21,1.36a31.64,31.64,0,0,0-2.21,2.93c-.27.44-.83,1.38-1.65,2.56-1.41,2.21-2.21,5.91-2.21,10.37v.21c-.46,5.07-4.46,12.25-11.23,23-1,1.63-2,3.13-2.92,4.53C5.51,99.19,3,103,3,106a27.81,27.81,0,0,0,1.23,8.5c1.3,4.43,5.61,8.65,11.08,10.93l5-2.72.79.64s4.06,3.29,7.76,3.29c3.17,0,8.48-6.69,9.89-9.2.25-1.22,1.47-6.4,4.88-9.89,3.19-3.25,7.3-4.51,12.07-6,1.83-.56,3.72-1.14,5.78-1.89h.11c6.52-1.77,11.2-8.42,11.24-8.49l2.36-3.38L75.56,92a46.08,46.08,0,0,1-2,15.56c-2.66,7.28-9,13.6-15.12,19.7-1.17,1.17-2.33,2.32-3.45,3.47C50.8,135,49.4,137.26,49,138c-4.11,7.36-5.27,12-5.6,14.05a38.71,38.71,0,0,0-.47,7.45Z"/><path class="cls-2" d="M20.15,126a1.5,1.5,0,0,1-.78-2.78,41.67,41.67,0,0,0,9.45-8.42,1.51,1.51,0,0,1,2.32,1.94,44,44,0,0,1-10.22,9.08A1.46,1.46,0,0,1,20.15,126Z"/><path class="cls-2" d="M74.07,93.53a1.51,1.51,0,0,1-1.31-2.24,30.44,30.44,0,0,0,3.09-11.44,1.48,1.48,0,0,1,1.55-1.39h.06a1.49,1.49,0,0,1,1.38,1.59v0a32.86,32.86,0,0,1-3.47,12.69A1.48,1.48,0,0,1,74.07,93.53Z"/><path class="cls-2" d="M12.73,109.77a2,2,0,0,1-2-2,2,2,0,0,1,.27-1c1.31-2.13,4.25-5.5,7-4.64.87.27,2.29,1.16,2.12,4a2,2,0,0,1-1.38,1.79l-5.37,1.75A1.87,1.87,0,0,1,12.73,109.77Z"/><circle class="cls-2" cx="40.32" cy="64.4" r="4.75"/><path class="cls-2" d="M46,42.63h0a1.51,1.51,0,0,1-1.49-1.52A24.87,24.87,0,0,1,47,31.85a1.5,1.5,0,1,1,2.8,1.07,1.42,1.42,0,0,1-.08.18,22.26,22.26,0,0,0-2.18,8A1.52,1.52,0,0,1,46,42.63Z"/><path class="cls-2" d="M69.59,48.16a1.49,1.49,0,0,1-1.47-1.24c-.63-3.64-1.65-9.13-2-10A1.54,1.54,0,1,1,69,35.89c.54,1.4,1.86,9,2.13,10.52a1.5,1.5,0,0,1-1.23,1.73h0A1.08,1.08,0,0,1,69.59,48.16Z"/><path class="cls-2" d="M34.44,70a2.06,2.06,0,0,1-.81-.17,2,2,0,0,1-1-2.64A24.88,24.88,0,0,1,44.93,54.9a2,2,0,1,1,1.67,3.63l-.16.07A21.24,21.24,0,0,0,36.27,68.77,2,2,0,0,1,34.44,70Z"/><path class="cls-1" d="M160.53,34.88s6.21-2.71,15.67,8.24a19,19,0,0,1-2,26.86,18.71,18.71,0,0,1-22.79,1.47l-9,5.22-6.69,10.16c-1.93-.36-4.95-2.22-9-5.55a115.27,115.27,0,0,1-14.23-14.15A115.4,115.4,0,0,1,100.64,51c-2.71-4.48-4.11-7.74-4.18-9.71l11-5.26,6.38-8.15A18.72,18.72,0,0,1,118.54,5.5a19,19,0,0,1,26.86,2h0c9.46,11,5.87,16.71,5.87,16.71"/><path class="cls-2" d="M111.89,67.67a116.6,116.6,0,0,1-12-16.27c-2.82-4.66-4.21-7.95-4.31-10.12l0-.58,11.28-5.42,5.94-7.56A19.52,19.52,0,0,1,118,4.84a20,20,0,0,1,28.1,2.05c9.76,11.31,6.11,17.49,6,17.74l-1.49-.93s3-5.44-5.8-15.66a18.18,18.18,0,0,0-25.61-1.88,17.8,17.8,0,0,0-4.55,21.3l.23.49L108,36.69,97.37,41.78c.23,1.41,1.15,4,4,8.72a114.67,114.67,0,0,0,11.86,16A113.9,113.9,0,0,0,127.37,80.6c4.24,3.49,6.68,4.8,8,5.23l6.44-9.8,9.63-5.6.45.3a17.79,17.79,0,0,0,21.73-1.4,18.19,18.19,0,0,0,1.88-25.62c-8.83-10.23-14.61-8-14.66-8l-.69-1.61c.28-.13,6.92-2.84,16.69,8.47a19.93,19.93,0,0,1-2.06,28.09,19.52,19.52,0,0,1-23.41,1.84l-8.35,4.83-6.88,10.46-.57-.11c-2.11-.39-5.18-2.27-9.39-5.74A115.59,115.59,0,0,1,111.89,67.67Z"/><path class="cls-2" d="M170.07,19.6l-5.79,4.94L162,21.92l5.79-5-2.68-3.1a1.45,1.45,0,0,1,.14-2.34l0,0a1.46,1.46,0,0,1,2.35.19l2.68,3.1L173.49,12a1.57,1.57,0,0,1,2.48.18,1.55,1.55,0,0,1,.16,2.18,2,2,0,0,1-.34.3l-3.17,2.73,2.78,3.21a1.45,1.45,0,0,1,.1,2,1.42,1.42,0,0,1-.3.25l0,0a1.45,1.45,0,0,1-2,.14,1.3,1.3,0,0,1-.26-.31Z"/><path class="cls-2" d="M141.65,77a106.69,106.69,0,0,0-34.73-40.3l.94-1.48A101.81,101.81,0,0,1,128.2,53.58a104.09,104.09,0,0,1,15.05,22.71Z"/><path class="cls-2" d="M150.64,71.82a117.17,117.17,0,0,0-15.78-24c-7-8-16.11-15.77-21.55-19.25l.94-1.48c5.56,3.55,14.88,11.42,21.94,19.59a119.3,119.3,0,0,1,16.05,24.39Z"/><rect class="cls-2" x="134.32" y="43.41" width="8.94" height="1.75" transform="translate(5.38 102.83) rotate(-41.39)"/><path class="cls-2" d="M134.9,86.83c-.05-1.25-.78-3.87-4.06-9.29a113.82,113.82,0,0,0-11.85-16,115.29,115.29,0,0,0-14.14-14.07c-4.89-4-7.38-5.13-8.6-5.36l.32-1.73c2.11.39,5.18,2.27,9.39,5.74A115.59,115.59,0,0,1,120.3,60.34a116.6,116.6,0,0,1,12,16.27c2.81,4.66,4.21,8,4.3,10.12Z"/><path class="cls-1" d="M142.22,41.34c1.1-.53,17.29-6.09,18.31-6.46a8,8,0,0,0,2.39-1.39A7.6,7.6,0,0,0,153,22a7.7,7.7,0,0,0-1.73,2.16C150.76,25.12,142.94,40.3,142.22,41.34Z"/><path class="cls-2" d="M139.61,43.6l1.89-2.76c.48-.7,5-9.37,7.15-13.56,1-1.89,1.7-3.27,1.86-3.54A8.44,8.44,0,1,1,165.22,32a8.31,8.31,0,0,1-1.72,2.15,8.63,8.63,0,0,1-2.68,1.54L157.05,37c-4.45,1.53-13.68,4.74-14.44,5.11Zm23.32-20.15a6.66,6.66,0,0,0-9.36-.78,6.86,6.86,0,0,0-1.52,1.91l-1.84,3.52c-2.33,4.49-4.67,9-6.06,11.57,2.75-1,7.55-2.65,12.31-4.3l3.74-1.3a6.59,6.59,0,0,0,4.06-8.39,6.72,6.72,0,0,0-1.32-2.23Z"/></g></g></svg>