<svg xmlns="http://www.w3.org/2000/svg" viewBox="0 0 126.26 174.61"><defs><style>.cls-1{fill:#b63c41;}.cls-2,.cls-5{opacity:0.2;}.cls-3,.cls-6{fill:#fff;}.cls-4{fill:#1a1a1a;}.cls-5{fill:#040000;}.cls-5,.cls-6{isolation:isolate;}.cls-6{opacity:0.3;}</style></defs><title>资源 3</title><g id="图层_2" data-name="图层 2"><g id="图层_1-2" data-name="图层 1"><rect class="cls-1" x="34.42" y="109.97" width="63.49" height="9.11"/><path class="cls-1" d="M106,113c.41-1.59,1-3.64,1.64-5.9,2.63-9.24,6.24-21.9,6.24-30.2,0-19.56-6.19-36-17.89-47.47A59,59,0,0,0,59.18,13L46.79.59,46.2,0h-.83c-2.72,0-5.43,2.48-6.16,5.64l-1.45,6.88c-1.32,3.14-3.54,5.36-7.13,8.32a19.11,19.11,0,0,0-6.06,8.69L24.4,30c-.9,2.29-1.56,4.3-2.16,6.07a43.77,43.77,0,0,1-6.11,12.85L4.5,65.25C.88,69.76,1.28,76,5.42,79.52s14.4,6.3,17.9,6.3A3.35,3.35,0,0,0,25.74,85a24.9,24.9,0,0,0,3.7-4.85c2.31-3.6,4-6.2,9.93-6.23C48.1,74,55.65,66,59.28,62.2h0l2.18-2.52c1.46,2.33,3.14,6.13,2,10.11a16.42,16.42,0,0,1-2.3,4.79,40.43,40.43,0,0,1-8,8l-.19.16C45.45,88.82,33,98.89,30.89,113"/><g class="cls-2"><path class="cls-3" d="M42.77,20c8.06-5,2.6-18,2.6-18a5,5,0,0,0-5,4l-1.46,6.92c-1.41,3.38-3.71,5.7-7.46,8.8a17.92,17.92,0,0,0-5.76,8.26l-.16.42c-.89,2.26-1.52,4.17-2.14,6a44.82,44.82,0,0,1-6.22,13.1L5.55,65.89c-.15.15-.3.31-.44.47a6,6,0,0,0-1,7.74s19-23.45,21.51-26.74C30.13,41.38,27.29,29.59,42.77,20Z"/></g><path class="cls-4" d="M43.91,29.52c-5.23,2.14-6.64,11.09-6.64,11.09,5.08-4.42,7.53.65,12.59-3.36C54.13,33.91,49,27.42,43.91,29.52Z"/><path class="cls-5" d="M68,45.82c-1.82,3.49-6.33,10.57-6.33,10.57s-.47,1.43-1.05,3.46c0,0,2.08-.23,2.47,6.39.1,1.72.93,7.76,2,5.18,3-7.44,5.18-16.44,5.14-19.49S69.81,42.33,68,45.82Z"/><path class="cls-5" d="M58.3,14.9S99.13,20,99.13,59c0,26.14-17.38,33.44-22,51,0,0,19.33.15,27.88,4.19,0,0,9.18-24.84,9.18-39.56C114.18,59.58,102.74,13.75,58.3,14.9Z"/><path class="cls-5" d="M43.25,72c-9.11-4.47-11.41-9.79-14.91.72-3.4,10.18-8.55,11.93-5.09,13S31,75.22,34,75,46.66,73.62,43.25,72Z"/><path class="cls-4" d="M54.45,86.28a41.52,41.52,0,0,0,8.41-8.44,18.21,18.21,0,0,0,2.57-5.37c1.82-6.37-2.3-12.09-3.78-13.88L57.82,63c-3.86,4-10.71,11.11-18.48,11.14-10.05,0-10.29,7.09-15,11.65a1.73,1.73,0,0,1-1,.21c-3.27,0-12.92-2.68-16.61-5.82-3.22-2.74-3.64-7.82-.62-11.54L17.81,52.2c5.23-7.6,5.46-11.65,8.48-19.32a17.46,17.46,0,0,1,5.64-8.3c3.81-3.15,6.28-5.61,7.77-9.27l1.48-7c.5-2.15,2.38-4.08,4.2-4.09l0,0,0,0h0L58.28,17.1c25.26,1.71,53.53,20.1,53.53,62,0,10.82-6.62,30.39-8.17,37l4.92-2.29-.15,0c.33-1.2.71-2.56,1.13-4,2.66-9.36,6.31-22.17,6.31-30.75,0-42.1-27.74-63.26-55.74-65.82L48.18,1.37,47,.22H45.35c-3.68,0-7.16,3.09-8.11,7.19v.08l-1.39,6.64c-1.18,2.68-3.14,4.62-6.49,7.39A20.88,20.88,0,0,0,22.7,31l-.16.41c-.92,2.34-1.6,4.37-2.19,6.17A41.55,41.55,0,0,1,14.49,50L2.88,66.25C-1.37,71.6-.89,79,4.11,83.25,8.71,87.16,19.47,90,23.31,90a5.38,5.38,0,0,0,3.8-1.34,27.34,27.34,0,0,0,4-5.21c2.18-3.41,3.38-5.28,8.25-5.31,9.58,0,17.53-8.37,21.35-12.38l.07-.07.06-.07.27-.29a9.3,9.3,0,0,1,.49,6,14.05,14.05,0,0,1-2,4.21A38.37,38.37,0,0,1,52,83.15l-.19.16c-7.47,6.06-19.64,15.92-22.51,30l3.48,3.37C34.2,102.54,47.14,92.24,54.45,86.28Z"/><path class="cls-1" d="M29.7,116.56c-9.35,3.38-14.16,9-15.37,18.15v.13l-2.18,25.44L12,161.94l1.48.78a40.69,40.69,0,0,0,19.26,4.7h1.81l.61-1.7,6.59-18.61H48l3.7,21.35.36,1.82,1.86.25a123.62,123.62,0,0,0,13.58,1.08,121.37,121.37,0,0,0,13.6-1.08l1.86-.25.33-1.82L87,147.11h6.27l6.64,18.61.61,1.7h1.76a40.76,40.76,0,0,0,19.16-4.7l1.48-.78-.13-1.66-2.08-25.44v-.13c-1.28-9.1-6-14.77-15.35-18.15"/><path class="cls-6" d="M106.12,167.11c13.84-9.29,8.63-44.05,8.63-44.05,8.82,2.79,8.62,40.05,8.62,40.05S102.16,169.75,106.12,167.11Z"/><path class="cls-6" d="M63.41,169.85c15.45-2.76,21.4-24.79,21.4-24.79-1,16.41-4.54,25.93-4.54,25.93S59,170.65,63.41,169.85Z"/><path class="cls-6" d="M22.26,165.28c10-5.19,17.7-20.19,17.7-20.19.56,5.35-7,24-7,24S18.52,167.21,22.26,165.28Z"/><path class="cls-5" d="M30.43,115.15s-4.71,4.36-6.53,4.33c-13.67-.31-11.23,41.37-11.23,41.37l8.18,5.05c2.27-13.32,5.15-34,11.79-39.67,6.07-5.24,9.78-6.46,10.7-6.69,1.77.21,3.65.42,5.7.59,18.67,1.67,45.83-3.56,45.83-3.56"/><path class="cls-4" d="M103.49,112.31h0a296.52,296.52,0,0,1-35.83,3.17,296,296,0,0,1-35.8-3.15l-.05-.41-5.08,1.19v0c-9.16,3.94-13.92,10.32-15.25,20.19v.28L9.29,160,9,163.45l3,1.62a42.47,42.47,0,0,0,20.55,5.24H36.7l.92-4.08,3.81-17h6.8l2.25,19.66.46,3.93,3.89.64a94,94,0,0,0,12.86,1.19,93,93,0,0,0,12.9-1.15l3.89-.64.46-3.93,2.22-19.71H93.9l3.81,17,.92,4.09h4.1a42.43,42.43,0,0,0,20.54-5.24l3-1.62-.17-3.41-2.16-26.4v-.28c-1.29-9.87-6.07-16.23-15.24-20.19V113l-5.2-.72Zm15.24,21.75h0l2.14,26.4A37.25,37.25,0,0,1,102.73,165l-4.67-21.08H82.48l-2.73,24.34a85.53,85.53,0,0,1-12.06,1.09,85.25,85.25,0,0,1-12-1.09l-2.79-24.34H37.27L32.65,165a37.29,37.29,0,0,1-18.16-4.56l2.15-26.4c1-7.52,4.27-13.1,13.65-16.68a300.52,300.52,0,0,0,37.4,3.34,302.09,302.09,0,0,0,37.38-3.32C114.41,120.93,117.72,126.54,118.73,134.06Z"/></g></g></svg>