<svg xmlns="http://www.w3.org/2000/svg" viewBox="0 0 156.14 152.97"><defs><style>.cls-1{fill:#b63c41;}.cls-2,.cls-4,.cls-7{fill:#fff;}.cls-2,.cls-3,.cls-6{opacity:0.2;}.cls-2,.cls-6,.cls-7{isolation:isolate;}.cls-5{fill:#1a1a1a;}.cls-6{fill:#040000;}.cls-7{opacity:0.3;}</style></defs><title>资源 11</title><g id="图层_2" data-name="图层 2"><g id="图层_1-2" data-name="图层 1"><path class="cls-1" d="M46.18,10.79h-.83c-2.72,0-5.43,2.48-6.16,5.64l-1.45,6.88c-1.32,3.14-3.54,5.36-7.13,8.32a19.11,19.11,0,0,0-6.06,8.69l-.17.42c-.9,2.29-1.56,4.3-2.16,6.07a43.52,43.52,0,0,1-6.11,12.85L4.48,76C.86,80.55,1.26,86.8,5.4,90.31s14.4,6.3,17.9,6.3a3.33,3.33,0,0,0,2.42-.78A24.9,24.9,0,0,0,29.42,91c2.31-3.6,4-6.2,9.93-6.23,8.73,0,16.28-8,19.91-11.76h0l2.18-2.52c1.46,2.33,3.14,6.13,2,10.11a16.42,16.42,0,0,1-2.3,4.79,40.16,40.16,0,0,1-8,8l-.19.16c-7.52,6.08-20,16.15-22.08,30.28-13.33,3.64-13.3,12.93-13.27,23.62V151H119.21v-3.6c0-10.69.06-20-13.28-23.63.41-1.59,1-3.64,1.64-5.9,2.63-9.24,6.24-21.9,6.24-30.2,0-19.56-6.19-36-17.89-47.47A59,59,0,0,0,59.16,23.75L46.77,11.38Z"/><path class="cls-2" d="M68.82,129c43.07,0,47.54,4.75,47.54,4.75H117c-1.93-10.18-24.49-11.3-24.49-11.3H45.35s-23.36.81-24.66,11.3h.59S25.75,129,68.82,129Z"/><g class="cls-3"><path class="cls-4" d="M42.75,30.75c8.06-5,2.6-18,2.6-18a5,5,0,0,0-5,4l-1.46,6.92c-1.41,3.38-3.71,5.7-7.46,8.8a18.07,18.07,0,0,0-5.76,8.26l-.16.42c-.89,2.26-1.52,4.17-2.14,6a44.32,44.32,0,0,1-6.22,13.1L5.53,76.68c-.15.15-.3.31-.44.47a6,6,0,0,0-1,7.74s19-23.45,21.51-26.74C30.11,52.17,27.27,40.38,42.75,30.75Z"/></g><path class="cls-5" d="M43.89,40.31c-5.23,2.14-6.64,11.09-6.64,11.09,5.08-4.42,7.53.65,12.59-3.36C54.11,44.7,49,38.21,43.89,40.31Z"/><path class="cls-6" d="M68,56.61c-1.82,3.49-6.33,10.57-6.33,10.57s-.47,1.43-1,3.46c0,0,2.08-.23,2.47,6.39.1,1.72.93,7.76,2,5.18,3-7.44,5.18-16.44,5.14-19.49S69.79,53.12,68,56.61Z"/><path class="cls-6" d="M58.28,25.69S99.11,30.76,99.11,69.8c0,26.14-17.38,33.44-22,51,0,0,19.33.15,27.88,4.19,0,0,9.18-24.84,9.18-39.56C114.16,70.37,102.72,24.54,58.28,25.69Z"/><path class="cls-6" d="M43.23,82.74c-9.11-4.47-11.41-9.79-14.91.72-3.4,10.18-8.55,11.93-5.09,13S31,86,34,85.82,46.64,84.41,43.23,82.74Z"/><path class="cls-5" d="M45.35,12.79l12.93,12.9c25.26,1.71,53.53,20.1,53.53,62,0,11.12-7,31.49-8.29,37.57,14.39,3,13.69,11.63,13.69,23.76H19.65c0-12-.68-20.47,13.08-23.63,1.38-14.19,14.38-24.54,21.72-30.52a41.52,41.52,0,0,0,8.41-8.44,18.21,18.21,0,0,0,2.57-5.37c1.82-6.37-2.3-12.09-3.78-13.88l-3.83,4.43c-3.86,4-10.71,11.11-18.48,11.14-10.05,0-10.29,7.09-15,11.65a1.73,1.73,0,0,1-1,.21c-3.27,0-12.92-2.68-16.61-5.82C3.51,86.05,3.09,81,6.11,77.25l11.7-16.46c5.23-7.6,5.46-11.65,8.48-19.32a17.46,17.46,0,0,1,5.64-8.3c3.81-3.15,6.28-5.61,7.77-9.27l1.48-7c.5-2.16,2.39-4.09,4.21-4.09m1.66-4h-1.7c-3.68,0-7.16,3.09-8.11,7.19v.08l-1.39,6.64c-1.18,2.68-3.14,4.62-6.49,7.39a20.88,20.88,0,0,0-6.66,9.51l-.16.41c-.92,2.34-1.6,4.37-2.19,6.17a41.55,41.55,0,0,1-5.86,12.34L2.88,74.84c-4.25,5.35-3.77,12.79,1.23,17,4.6,3.91,15.36,6.77,19.2,6.77a5.38,5.38,0,0,0,3.8-1.34,27.34,27.34,0,0,0,4-5.21c2.18-3.41,3.38-5.28,8.25-5.31,9.58,0,17.53-8.37,21.35-12.38l.07-.07.06-.07.27-.29a9.3,9.3,0,0,1,.49,6,14.05,14.05,0,0,1-2,4.21A38.11,38.11,0,0,1,52,91.74l-.19.16C44.25,98,32,108,29.2,122.17c-5.78,1.84-9.58,5-11.57,9.54s-2,9.68-1.94,15.66V153H121.21v-5.6c0-6.07,0-11.32-2-15.88-2-4.32-5.44-7.28-10.8-9.1.33-1.2.71-2.56,1.13-4,2.66-9.36,6.31-22.17,6.31-30.75,0-42.1-27.74-63.26-55.74-65.82L48.18,10,47,8.79Z"/><path class="cls-5" d="M68.82,123a252.74,252.74,0,0,1,31.36,1.65,42.9,42.9,0,0,1,5.17,1l.66-4a45.73,45.73,0,0,0-5.32-1,253.18,253.18,0,0,0-31.87-1.69h0A253.22,253.22,0,0,0,37,120.6a45.93,45.93,0,0,0-5.58,1l.82,3.91a42.78,42.78,0,0,1,5.26-1A252.77,252.77,0,0,1,68.82,123Z"/><path class="cls-1" d="M151,52.06a17.14,17.14,0,0,0-3.4-13,23.59,23.59,0,0,0-10.22-8.25l4.6-5.41,3.77,5.05,7.8-5.8-3.87-5.2,5.2-3.87-5.81-7.8-5.2,3.87L140,6.51l-7.79,5.8,3.75,5-6.49,2.88a23.58,23.58,0,0,0-5-12.15,17.17,17.17,0,0,0-11.43-7A18.22,18.22,0,0,0,99.8,4.87C93.9,9.26,93,15.81,92,22.15c-.56,3.9-1.15,7.92-2.85,11.55L113,65.63c3.94-.62,8,0,11.86.55,6.33.94,12.87,1.92,18.78-2.48A18.29,18.29,0,0,0,151,52.06ZM107.31,36c-.92-1.14-1.63-1.94-2.75-3.25,1.46-5.38.84-11.31,3.3-13.76,4.09-4.06,8.06.88,8.06.88,2.08,2.79,2.19,8.09,2.19,8.09Zm25.14,16c-3.08,1.68-8.59-.62-14.16-.75-.94-1.46-1.5-2.36-2.32-3.57l10.81-8s5.06,1.62,7.13,4.41C133.92,44,137.51,49.2,132.45,52Z"/><polygon class="cls-7" points="151.82 25.99 146.67 19.08 149.03 19.33 153.22 24.95 151.82 25.99"/><polygon class="cls-7" points="151.85 15.19 148.63 10.86 143.43 14.73 139.56 9.53 135.23 12.76 132.21 12.31 140 6.51 143.87 11.7 149.07 7.84 154.87 15.63 151.85 15.19"/><path class="cls-2" d="M126.47,13S122.78,1.51,111.64,1C96.23.27,93.74,15.91,93.74,15.91,100,2.3,117.14-.73,126.47,13Z"/><path class="cls-6" d="M132.29,62.89l-22.48-3.25,3.15,6a52,52,0,0,1,13,.58c7.3,1.21,12,1.69,18.76-3.35,5-3.71,5.32-7.87,5.46-11.45C150.21,51.39,143.81,64.58,132.29,62.89Z"/><path class="cls-5" d="M115.12,20.36A10.41,10.41,0,0,1,117,27l-9.72,7.24-1.72-2c.5-2.12.84-4.07,1.14-5.83.62-3.69,1.1-6.39,2.53-7.45,2.31-1.72,4.57-.4,5.92,1.41m1.73-1.29c-2.25-3-5.83-4.17-8.94-1.86s-2.79,8-4.74,15.54c0,0,2.88,3.45,3.72,4.47l12.14-9a12.79,12.79,0,0,0-2.18-9.1Z"/><path class="cls-5" d="M101.34,49.43a134.17,134.17,0,0,1,9.4,14.12A22.28,22.28,0,0,1,112,66.11l2-1a23.63,23.63,0,0,0-1.28-2.63,137.48,137.48,0,0,0-9.55-14.35h0a138,138,0,0,0-11-13.26,25.89,25.89,0,0,0-2.23-2.09L88.42,34.4a23.11,23.11,0,0,1,2.13,2A136.21,136.21,0,0,1,101.34,49.43Z"/><path class="cls-5" d="M124.4,67.35c6.55,1,13.33,2,19.59-2.68,8.81-6.57,10.58-17.55,4.21-26.11a33.62,33.62,0,0,0-9-8.28l2.52-2.93,3.55,4.76,9.53-7.1-3.87-5.19,5.2-3.87h0L149,6.42l-5.2,3.87-3.87-5.2-9.53,7.1L134,17l-3.41,1.51A35,35,0,0,0,125.1,7.54C118.73-1,107.7-2.47,98.88,4.1c-6.25,4.65-7.23,11.44-8.19,18A44.08,44.08,0,0,1,88.5,32l.74,3.5c5.56-9.86,1.52-22.62,10.91-29.62,8-5.93,17.59-4.53,23.2,3A31.38,31.38,0,0,1,129,21.48l8.29-3.65-3.87-5.2,6.06-4.52,3.88,5.2,5.19-3.87,4.52,6.06h0l-5.2,3.87,3.87,5.2-6.06,4.51-3.88-5.19-6,7a30.34,30.34,0,0,1,10.62,9c5.61,7.54,4.2,17.16-3.77,23.09-9.42,7-20.5-.53-31.55,2h0l3.1,1.71A45,45,0,0,1,124.4,67.35Z"/><path class="cls-5" d="M133.14,44.56c1.36,1.81,2,4.36-.34,6.08-1.44,1.07-4.15.76-7.86.29-1.76-.22-3.71-.46-5.89-.58l-1.48-2.23,9.72-7.23a10.4,10.4,0,0,1,5.85,3.67m1.74-1.29a12.82,12.82,0,0,0-8.1-4.7l-12.15,9c.75,1.09,3.22,4.84,3.22,4.84,7.75.28,13.08,2.27,16.24-.09S137.14,46.31,134.88,43.27Z"/></g></g></svg>