<svg xmlns="http://www.w3.org/2000/svg" viewBox="0 0 183.58 161.29"><defs><style>.cls-1{fill:#b63c41;}.cls-2{fill:#040000;}</style></defs><title>资源 12</title><g id="图层_2" data-name="图层 2"><g id="图层_1-2" data-name="图层 1"><path class="cls-1" d="M48.27,31.22A65.77,65.77,0,0,0,28.4,19.36a61.71,61.71,0,0,0,3.7,23.16l.33.9-.68.67a30.64,30.64,0,0,0-2.27,2.43l-.28.33a13.76,13.76,0,0,1-1.13,1.27,33.11,33.11,0,0,0-2.43,3.22c-.23.39-.78,1.3-1.59,2.48-1.61,2.51-2.48,6.41-2.48,11.22v.14c-.46,5-5,12.73-11,22.23-5.08,8-9,13-9,17.37a29.18,29.18,0,0,0,1.3,9c1.56,5.3,6.67,9.85,12.61,12.13l4.71-2.58S24.6,127,28.9,127s10.18-8,11.32-10.18c0,0,1-5.75,4.53-9.36,4-4.11,9.69-4.76,17.28-7.51,7.11-1.94,12.08-9.08,12.08-9.08a44.36,44.36,0,0,1-1.89,14.93c-2.54,7-8.77,13.17-14.78,19.16-1.17,1.16-2.33,2.32-3.45,3.47-4.17,4.28-5.71,6.66-6.26,7.7-4.21,7.53-5.41,12.33-5.75,14.52a36.6,36.6,0,0,0-.4,9.23H144.47V142.62c0-14.74-.59-33.78-5.17-50.3-3.74-13-10.61-26.3-18.37-35.48-10.93-13-29.45-20.93-43.4-21.66a75.84,75.84,0,0,0-10,0c-1.07-2.78-3.1-9.37-10.79-14.65A28.34,28.34,0,0,0,48.27,31.22Z"/><path class="cls-2" d="M146,161.29H40.24L40.05,160a37.85,37.85,0,0,1,.42-9.74c.34-2.23,1.59-7.23,5.91-15,.7-1.33,2.4-3.83,6.49-8,1.13-1.15,2.3-2.32,3.47-3.48,5.91-5.89,12-12,14.43-18.62a39.83,39.83,0,0,0,1.79-10.33,23.51,23.51,0,0,1-10.12,6.43c-2.11.76-4.1,1.38-5.86,1.92-4.56,1.4-8.15,2.51-10.8,5.21-3.15,3.22-4.11,8.51-4.12,8.56v.24l-.11.21c-.76,1.44-7.08,11-12.65,11-3.66,0-7.26-2.23-8.84-3.35l-4.51,2.46-.64-.25C8.19,124.7,3,119.67,1.39,114.16A30.83,30.83,0,0,1,0,104.77c0-4,2.67-8,6.37-13.68.9-1.39,1.88-2.88,2.9-4.49C14.48,78.35,19.6,69.89,20,65V65c0-5,.93-9.19,2.7-12,.8-1.15,1.31-2,1.55-2.41A35.94,35.94,0,0,1,27,47.11c.35-.35.7-.76,1.11-1.25l.27-.32a32.09,32.09,0,0,1,2.33-2.48h0A63.21,63.21,0,0,1,26.9,19.31L27,17.2,29,18A66.72,66.72,0,0,1,47.78,28.85a29.91,29.91,0,0,1,8.07-9.51l.87-.66.89.62a28.52,28.52,0,0,1,11,14.31,84.44,84.44,0,0,1,9,.07c13,.68,32.41,7.92,44.46,22.19,7.9,9.33,14.88,22.81,18.67,36,4.63,16.7,5.23,35.87,5.23,50.71Zm-103-3H143V142.62c0-14.65-.58-33.56-5.12-49.89-3.68-12.84-10.43-25.9-18.07-34.92-11.47-13.59-30-20.48-42.33-21.13a76,76,0,0,0-9.78,0l-1.12.09-.64-1.68a25.76,25.76,0,0,0-9.1-12.67,27.15,27.15,0,0,0-7.18,9.44l-.83,1.83-1.52-1.33A63.26,63.26,0,0,0,29.87,21.52,60.4,60.4,0,0,0,33.51,42l.65,1.79L32.81,45.1c-.75.73-1.47,1.5-2.15,2.3l-.31.37c-.46.53-.86,1-1.21,1.36a31.64,31.64,0,0,0-2.21,2.93c-.27.44-.83,1.38-1.65,2.56-1.41,2.21-2.21,5.91-2.21,10.37v.21c-.46,5.07-4.46,12.25-11.23,23-1,1.63-2,3.13-2.92,4.53-3.41,5.21-5.88,9-5.88,12a27.81,27.81,0,0,0,1.23,8.5c1.3,4.43,5.61,8.65,11.08,10.93l5-2.72.79.64s4.06,3.29,7.76,3.29c3.17,0,8.48-6.69,9.89-9.2.25-1.22,1.47-6.4,4.88-9.89,3.19-3.25,7.3-4.51,12.07-6,1.83-.56,3.72-1.14,5.78-1.89h.11c6.52-1.77,11.2-8.42,11.24-8.49l2.36-3.38.33,4.19a46,46,0,0,1-2,15.56c-2.66,7.28-9,13.6-15.12,19.7-1.17,1.17-2.33,2.32-3.45,3.47-4.19,4.29-5.59,6.57-6,7.35-4.11,7.36-5.27,12-5.6,14.05a38.71,38.71,0,0,0-.47,7.45Z"/><path class="cls-2" d="M20.15,124.78a1.5,1.5,0,0,1-1.5-1.5,1.52,1.52,0,0,1,.72-1.28,41.2,41.2,0,0,0,9.45-8.42,1.51,1.51,0,0,1,2.32,1.94,43.81,43.81,0,0,1-10.22,9.08A1.46,1.46,0,0,1,20.15,124.78Z"/><path class="cls-2" d="M74.07,92.28A1.51,1.51,0,0,1,72.76,90,30.39,30.39,0,0,0,75.85,78.6a1.47,1.47,0,0,1,1.55-1.38h.06a1.49,1.49,0,0,1,1.38,1.59v0a32.86,32.86,0,0,1-3.47,12.69A1.48,1.48,0,0,1,74.07,92.28Z"/><path class="cls-2" d="M12.73,108.52a2,2,0,0,1-2-2,2.08,2.08,0,0,1,.27-1c1.31-2.13,4.25-5.5,7-4.64.87.27,2.29,1.16,2.12,4a2,2,0,0,1-1.38,1.79l-5.37,1.75A1.87,1.87,0,0,1,12.73,108.52Z"/><circle class="cls-2" cx="40.32" cy="63.15" r="4.75"/><path class="cls-2" d="M46,41.38h0a1.51,1.51,0,0,1-1.49-1.52A24.87,24.87,0,0,1,47,30.6a1.5,1.5,0,0,1,2.8,1.07,1.42,1.42,0,0,1-.08.18,22.32,22.32,0,0,0-2.18,8A1.51,1.51,0,0,1,46,41.38Z"/><path class="cls-2" d="M69.59,46.91a1.48,1.48,0,0,1-1.47-1.24c-.63-3.64-1.65-9.13-2-10A1.54,1.54,0,1,1,69,34.64c.54,1.4,1.86,9,2.13,10.52a1.5,1.5,0,0,1-1.23,1.73h0A1.08,1.08,0,0,1,69.59,46.91Z"/><path class="cls-2" d="M34.44,68.74a2.06,2.06,0,0,1-.81-.17,2,2,0,0,1-1-2.64,24.88,24.88,0,0,1,12.3-12.28,2,2,0,0,1,1.67,3.64l-.16.06A21.29,21.29,0,0,0,36.27,67.52,2,2,0,0,1,34.44,68.74Z"/><path class="cls-1" d="M162.76,35.67s6.26-2.61,15.53,8.5A19,19,0,0,1,175.87,71a18.72,18.72,0,0,1-22.82,1.09L144,77.15l-6.85,10c-1.93-.39-1.49-9.12-5.47-12.52-5.07-4.38-5.57-8-9.8-13.22s-10.76-9-14.16-14.75c-2.63-4.52-9.08-3.77-9.12-5.74l11-5.07,6.52-8a18.71,18.71,0,0,1,5.13-22.27A19,19,0,0,1,148.11,8h0c9.27,11.11,5.58,16.8,5.58,16.8"/><path class="cls-2" d="M176.43,71.38a19.94,19.94,0,0,0,2.53-28c-9.57-11.48-16.26-8.87-16.54-8.76l.67,1.63s5.85-2.11,14.51,8.26a18.2,18.2,0,0,1-2.31,25.59,17.79,17.79,0,0,1-21.75,1l-.45-.31-9.72,5.44-6.48,9.49.56,2.14h.05l7.05-10.35L153,72.82A19.54,19.54,0,0,0,176.43,71.38Z"/><path class="cls-2" d="M110.14,36.29l7-8.61-.23-.5A17.81,17.81,0,0,1,121.82,6,18.19,18.19,0,0,1,147.4,8.28C156.05,18.65,153,24,152.93,24l1.47.95c.17-.25,3.92-6.37-5.65-17.84a19.94,19.94,0,0,0-28.06-2.53,19.53,19.53,0,0,0-5.6,22.78L109,34.87,97.89,40l1.62,1.19Z"/><path class="cls-2" d="M172.56,20.56l-5.87,4.83-2.21-2.66,5.87-4.9-2.62-3.14a1.45,1.45,0,0,1,.17-2.34l0,0a1.45,1.45,0,0,1,2.34.24l2.63,3.14L176.12,13a1.57,1.57,0,0,1,2.47.22,1.55,1.55,0,0,1,.12,2.18,1.43,1.43,0,0,1-.35.3l-3.21,2.67,2.72,3.27a1.45,1.45,0,0,1,.07,2,1.5,1.5,0,0,1-.31.24l0,0a1.44,1.44,0,0,1-2,.1,1.3,1.3,0,0,1-.26-.31Z"/><path class="cls-2" d="M143.17,77.48a102.64,102.64,0,0,0-14.39-22.55A101.36,101.36,0,0,0,109.13,36.6l1-1.47a102.74,102.74,0,0,1,20,18.68,104.92,104.92,0,0,1,14.65,23Z"/><path class="cls-2" d="M152.25,72.43a117.42,117.42,0,0,0-15.38-24.25c-6.8-8.16-15.83-16-21.22-19.62l1-1.46c5.5,3.64,14.69,11.67,21.61,20a119.12,119.12,0,0,1,15.63,24.66Z"/><rect class="cls-2" x="136.39" y="43.82" width="8.94" height="1.75" transform="translate(4.63 101.99) rotate(-40.41)"/><path class="cls-2" d="M136.26,87.17c0-1.24-.72-3.88-3.91-9.35a114.29,114.29,0,0,0-11.58-16.24,113.74,113.74,0,0,0-13.89-14.3c-4.82-4.11-7.29-5.26-8.51-5.51l.35-1.72c2.1.42,5.14,2.35,9.29,5.89a117.07,117.07,0,0,1,14.1,14.5,116.07,116.07,0,0,1,11.73,16.47c2.74,4.71,4.08,8,4.14,10.19Z"/><path class="cls-1" d="M144.35,41.81c1.1-.51,17.39-5.79,18.41-6.14a7.66,7.66,0,0,0,2.41-1.36,7.6,7.6,0,0,0-9.71-11.64,7.71,7.71,0,0,0-1.77,2.13C153.16,25.74,145.09,40.78,144.35,41.81Z"/><path class="cls-2" d="M141.7,44l1.93-2.71c.49-.7,5.16-9.29,7.39-13.44,1-1.88,1.75-3.24,1.91-3.51a8.44,8.44,0,1,1,14.57,8.52A8.33,8.33,0,0,1,165.74,35a8.5,8.5,0,0,1-2.7,1.49l-3.79,1.25c-4.48,1.45-13.76,4.5-14.53,4.86Zm23.66-19.74a6.65,6.65,0,0,0-9.34-.94,6.77,6.77,0,0,0-1.56,1.89c-.15.26-.92,1.68-1.9,3.48-2.41,4.45-4.82,8.91-6.25,11.47,2.77-1,7.59-2.53,12.38-4.09,1.95-.64,3.49-1.14,3.76-1.24a6.59,6.59,0,0,0,2.92-10.57Z"/></g></g></svg>