<svg xmlns="http://www.w3.org/2000/svg" viewBox="0 0 180 180"><defs><style>.cls-1{fill:#b63c41;}.cls-2,.cls-4{fill:#fff;}.cls-2,.cls-3,.cls-6{opacity:0.2;}.cls-2,.cls-6{isolation:isolate;}.cls-5{fill:#1a1a1a;}.cls-6{fill:#040000;}</style></defs><title>a</title><g id="Layer_2" data-name="Layer 2"><g id="Layer_1-2" data-name="Layer 1"><path class="cls-1" d="M46.18,23.2h-.83c-2.72,0-5.43,2.48-6.16,5.64l-1.45,6.88c-1.32,3.14-3.54,5.36-7.13,8.32a19.05,19.05,0,0,0-6.06,8.69l-.17.42c-.9,2.29-1.56,4.3-2.16,6.07a43.64,43.64,0,0,1-6.11,12.85L4.48,88.45C.86,93,1.26,99.21,5.4,102.72S19.8,109,23.3,109a3.42,3.42,0,0,0,2.42-.78,24.9,24.9,0,0,0,3.7-4.85c2.31-3.6,4-6.2,9.93-6.23,8.73,0,16.28-8,19.91-11.76h0l2.18-2.52c1.46,2.33,3.14,6.13,2,10.11a16.54,16.54,0,0,1-2.3,4.79,40.43,40.43,0,0,1-8,8l-.19.16c-7.52,6.08-20,16.15-22.08,30.28-13.33,3.64-13.3,12.93-13.27,23.62v3.61H119.21v-3.6c0-10.69.06-20-13.28-23.63.41-1.59,1-3.64,1.64-5.9,2.63-9.24,6.24-21.9,6.24-30.2,0-19.56-6.19-36-17.89-47.47A59,59,0,0,0,59.16,36.16L46.77,23.79Z"/><path class="cls-2" d="M68.82,141.36c43.07,0,47.54,4.75,47.54,4.75H117c-1.93-10.18-24.49-11.3-24.49-11.3H45.35s-23.36.81-24.66,11.3h.59S25.75,141.36,68.82,141.36Z"/><g class="cls-3"><path class="cls-4" d="M42.75,43.16c8.06-5,2.6-18,2.6-18a5,5,0,0,0-5,4l-1.46,6.92c-1.41,3.38-3.71,5.7-7.46,8.8a18,18,0,0,0-5.76,8.26l-.16.42c-.89,2.26-1.52,4.17-2.14,6a44.44,44.44,0,0,1-6.22,13.1L5.53,89.09c-.15.15-.3.31-.44.47a6,6,0,0,0-1,7.74s19-23.45,21.51-26.74C30.11,64.58,27.27,52.79,42.75,43.16Z"/></g><path class="cls-5" d="M43.89,52.72c-5.23,2.14-6.64,11.09-6.64,11.09,5.08-4.42,7.53.65,12.59-3.36C54.11,57.11,49,50.62,43.89,52.72Z"/><path class="cls-6" d="M68,69c-1.82,3.49-6.33,10.57-6.33,10.57s-.47,1.43-1,3.46c0,0,2.08-.23,2.47,6.39.1,1.72.93,7.76,2,5.18,3-7.44,5.18-16.44,5.14-19.49S69.79,65.53,68,69Z"/><path class="cls-6" d="M58.28,38.1s40.83,5.07,40.83,44.11c0,26.14-17.38,33.44-22,51,0,0,19.33.15,27.88,4.19,0,0,9.18-24.84,9.18-39.56C114.16,82.78,102.72,37,58.28,38.1Z"/><path class="cls-6" d="M43.23,95.15c-9.11-4.47-11.41-9.79-14.91.72-3.4,10.18-8.55,11.93-5.09,13S31,98.42,34,98.23,46.64,96.82,43.23,95.15Z"/><path class="cls-5" d="M45.35,25.2,58.28,38.1c25.26,1.71,53.53,20.1,53.53,62,0,11.12-7,31.49-8.29,37.57,14.39,3.05,13.69,11.63,13.69,23.76H19.65c0-12-.68-20.47,13.08-23.63,1.38-14.19,14.38-24.54,21.72-30.52a41.52,41.52,0,0,0,8.41-8.44,18.33,18.33,0,0,0,2.57-5.37c1.82-6.37-2.3-12.09-3.78-13.88L57.82,84c-3.86,4-10.71,11.11-18.48,11.14-10.05,0-10.29,7.09-15,11.65a1.73,1.73,0,0,1-1,.21c-3.27,0-12.92-2.68-16.61-5.82-3.22-2.74-3.64-7.82-.62-11.54L17.81,73.2c5.23-7.6,5.46-11.65,8.48-19.32a17.41,17.41,0,0,1,5.64-8.3c3.81-3.15,6.28-5.61,7.77-9.27l1.48-7c.5-2.16,2.39-4.09,4.21-4.09m1.66-4h-1.7c-3.68,0-7.16,3.09-8.11,7.19v.08l-1.39,6.64c-1.18,2.68-3.14,4.62-6.49,7.39A20.88,20.88,0,0,0,22.7,52l-.16.41c-.92,2.34-1.6,4.37-2.19,6.17A41.79,41.79,0,0,1,14.49,71L2.88,87.25c-4.25,5.35-3.77,12.79,1.23,17,4.6,3.91,15.36,6.77,19.2,6.77a5.38,5.38,0,0,0,3.8-1.34,27.65,27.65,0,0,0,4-5.21c2.18-3.41,3.38-5.28,8.25-5.31,9.58,0,17.53-8.37,21.35-12.38l.07-.07.06-.07.27-.29a9.3,9.3,0,0,1,.49,6,14.17,14.17,0,0,1-2,4.21A38.37,38.37,0,0,1,52,104.15l-.19.16c-7.53,6.1-19.83,16.06-22.58,30.27-5.78,1.84-9.58,5-11.57,9.54s-2,9.68-1.94,15.66v5.6H121.21v-5.6c0-6.07,0-11.32-2-15.88-2-4.32-5.44-7.28-10.8-9.1.33-1.2.71-2.56,1.13-4,2.66-9.36,6.31-22.17,6.31-30.75,0-42.1-27.74-63.26-55.74-65.82L48.18,22.37,47,21.2Z"/><path class="cls-5" d="M68.82,135.36A250.82,250.82,0,0,1,100.18,137a41,41,0,0,1,5.17,1l.66-4a43.72,43.72,0,0,0-5.32-1,253.18,253.18,0,0,0-31.87-1.69h0A253.22,253.22,0,0,0,37,133a45.93,45.93,0,0,0-5.58,1l.82,3.91a41,41,0,0,1,5.26-1A250.85,250.85,0,0,1,68.82,135.36Z"/><path class="cls-1" d="M108.12,66.37l28.46-12.6a7.42,7.42,0,0,0,9.24-1,7.25,7.25,0,0,0-.26-10.21,7.38,7.38,0,0,0-10.16.31,7.17,7.17,0,0,0-1.63,3.42L121.86,47,135,31.76a7.19,7.19,0,0,0,8.15-1.65A7.49,7.49,0,0,0,143,19.52l-.12-.12a7.58,7.58,0,0,0-10.7.28,7.18,7.18,0,0,0-1.87,6l-16,8.28,7.44-16.41a7.21,7.21,0,0,0,5.94-2.17,7.59,7.59,0,0,0-.26-10.69,7.49,7.49,0,0,0-10.59.13l-.13.13a7.07,7.07,0,0,0-1.23,8.23L101,27.11l.09-11.93a7.08,7.08,0,0,0,3.33-1.81,7.37,7.37,0,0,0-.21-10.16A7.21,7.21,0,0,0,94,3.44l0,0a7.42,7.42,0,0,0-.55,9.27L82.28,41.81"/><path class="cls-6" d="M104.93,6c-.43,4.45-6,3.45-6.07,7.34l1,16.37,1.67-14.86s2.84-1.33,3.8-3.39C107.55,6.83,104.93,6,104.93,6Z"/><path class="cls-2" d="M104.61,5c-2-1.55-6.68-2.17-11.24,1.35C93,6.59,93.09,2.5,98.68,2A5.69,5.69,0,0,1,104.61,5Z"/><path class="cls-2" d="M146.09,44.41c-2-1.55-6.68-2.17-11.25,1.35-.32.26-.27-3.83,5.32-4.38A5.67,5.67,0,0,1,146.09,44.41Z"/><path class="cls-2" d="M127.63,6.43c-2.12-1.64-7.39-2.17-12.2,2.31,0,0,.64-4.66,6.24-5.28A5.71,5.71,0,0,1,127.63,6.43Z"/><path class="cls-2" d="M143,21c-2.12-1.63-7.39-2.17-12.2,2.31,0,0,.65-4.65,6.25-5.28A5.71,5.71,0,0,1,143,21Z"/><path class="cls-6" d="M111.87,55.86c-12,.76-17.68-5-17.68-5L108,66.2l28.43-12.38s2.26,1.7,6.18.62c5.8-1.59,4-8.39,4-8.39-.14,2.86-2.82,5.29-5,5.26s-4.13-1.56-6.31-.65C135.35,50.67,123.31,55.11,111.87,55.86Z"/><path class="cls-6" d="M144.05,22.47c-.89,6.68-7.59,2.8-10.67,6.71l-13.9,19L134.83,32s6,1.31,8.24-1.76C146.65,25.4,144.05,22.47,144.05,22.47Z"/><path class="cls-6" d="M119.58,15l-7.45,21.27,9.51-18.57s3.9-.83,5.85-2.88A6.08,6.08,0,0,0,128.6,7.3C127.76,14.3,121.79,10.29,119.58,15Z"/><path class="cls-5" d="M145.83,41.61a8.43,8.43,0,0,0-11.62.35,7.51,7.51,0,0,0-1.7,3.12l-8.7.5,11.06-12.79a8.26,8.26,0,0,0,8.6-2.17,8.51,8.51,0,0,0-.17-12l-.14-.13a8.62,8.62,0,0,0-12.18.32,8.29,8.29,0,0,0-2.22,6.16l-12.7,6.59,5.9-13a8.28,8.28,0,0,0,6-2.54,8.62,8.62,0,0,0-.29-12.15,8.53,8.53,0,0,0-12,.15l-.14.15a8.15,8.15,0,0,0-1.74,8.72L101.59,24.49l0-8.74a7.53,7.53,0,0,0,3-1.87,8.43,8.43,0,0,0-.24-11.62,8.29,8.29,0,0,0-11.69.31,8.47,8.47,0,0,0-1,10.14L81.31,40.09l0,0-.66,2c.55.33,1.11.7,1.71,1.13l.25.18A132.93,132.93,0,0,1,95,54.06a124.51,124.51,0,0,1,11,11.7c.5.62.93,1.21,1.3,1.77l1.94-.79-.06-.12L136,54.76a8.47,8.47,0,0,0,10.09-1.48A8.29,8.29,0,0,0,145.83,41.61ZM136.3,52.38h0L108.08,64.86l-.25-.31a131.6,131.6,0,0,0-11.37-12A133.4,133.4,0,0,0,83.81,41.7c-.24-.18-.47-.35-.71-.51L94.17,12.33c-2.06-1.95-2.1-6,.1-8.33A6.15,6.15,0,0,1,103,3.74l0,0a6.32,6.32,0,0,1,.17,8.69,6.77,6.77,0,0,1-3.61,1.68l-.1,15.21,16.89-16.16A6,6,0,0,1,117,5.5a6.44,6.44,0,0,1,9.09-.38c0,.06.11.11.17.17a6.53,6.53,0,0,1,.23,9.23h0a6.14,6.14,0,0,1-5.79,1.73l-9,19.84,19.36-10a6.15,6.15,0,0,1,1.44-5.88,6.52,6.52,0,0,1,9.23-.23,6.42,6.42,0,0,1,.39,9.08l-.15.15a6.07,6.07,0,0,1-7.64,1.05L119,48l15.19-.88a6.78,6.78,0,0,1,1.49-3.69,6.33,6.33,0,0,1,8.69-.27,6.16,6.16,0,0,1,.26,8.71l0,0C142.43,54.16,138.36,54.33,136.3,52.38Z"/></g></g></svg>