<svg xmlns="http://www.w3.org/2000/svg" viewBox="0 0 180 180"><defs><style>.cls-1{fill:#b63c41;}.cls-2{fill:#040000;}</style></defs><title>a</title><g id="Layer_2" data-name="Layer 2"><g id="Layer_1-2" data-name="Layer 1"><path class="cls-1" d="M48.27,46.7A65.77,65.77,0,0,0,28.4,34.84,61.71,61.71,0,0,0,32.1,58l.33.9-.68.67A30.64,30.64,0,0,0,29.48,62l-.28.33a13.76,13.76,0,0,1-1.13,1.27,33.11,33.11,0,0,0-2.43,3.22c-.23.39-.78,1.3-1.59,2.48-1.61,2.51-2.48,6.41-2.48,11.22v.14c-.46,5-5,12.73-11,22.23-5.08,8-9,13-9,17.37a29.18,29.18,0,0,0,1.3,9c1.56,5.3,6.67,9.85,12.61,12.13l4.71-2.58s4.41,3.63,8.71,3.63,10.18-8,11.32-10.18c0,0,1-5.75,4.53-9.36,4-4.11,9.69-4.76,17.28-7.51,7.11-1.94,12.08-9.08,12.08-9.08a44.36,44.36,0,0,1-1.89,14.93c-2.54,7-8.77,13.17-14.78,19.16-1.17,1.16-2.33,2.32-3.45,3.47-4.17,4.28-5.71,6.66-6.26,7.7-4.21,7.53-5.41,12.33-5.75,14.52a36.6,36.6,0,0,0-.4,9.23H144.47V158.1c0-14.74-.59-33.78-5.17-50.3-3.74-13-10.61-26.3-18.37-35.48-10.93-13-29.45-20.93-43.4-21.66a75.84,75.84,0,0,0-10,0c-1.07-2.78-3.1-9.37-10.79-14.65A28.34,28.34,0,0,0,48.27,46.7Z"/><path class="cls-2" d="M146,176.77H40.24l-.19-1.28a37.85,37.85,0,0,1,.42-9.74c.34-2.23,1.59-7.23,5.91-15,.7-1.33,2.4-3.83,6.49-8,1.13-1.15,2.3-2.32,3.47-3.48,5.91-5.89,12-12,14.43-18.62a39.83,39.83,0,0,0,1.79-10.33,23.61,23.61,0,0,1-10.12,6.43c-2.11.76-4.1,1.38-5.86,1.92-4.56,1.4-8.15,2.51-10.8,5.21-3.15,3.22-4.11,8.51-4.12,8.56v.24l-.11.21c-.76,1.44-7.08,11-12.65,11-3.66,0-7.26-2.23-8.84-3.35L15.55,143l-.64-.25c-6.72-2.57-11.9-7.6-13.52-13.11A30.83,30.83,0,0,1,0,120.25c0-4,2.67-8,6.37-13.68.9-1.39,1.88-2.88,2.9-4.49C14.48,93.83,19.6,85.37,20,80.51v-.07c0-5,.93-9.19,2.7-12,.8-1.15,1.31-2,1.55-2.41A35.94,35.94,0,0,1,27,62.59c.35-.35.7-.76,1.11-1.25l.27-.32a32.09,32.09,0,0,1,2.33-2.48h0A63.21,63.21,0,0,1,26.9,34.79l.1-2.11,2,.76A66.72,66.72,0,0,1,47.78,44.33a29.91,29.91,0,0,1,8.07-9.51l.87-.66.89.62a28.48,28.48,0,0,1,11,14.31,84.44,84.44,0,0,1,9,.07c13,.68,32.41,7.92,44.46,22.19,7.9,9.33,14.88,22.81,18.67,36,4.63,16.7,5.23,35.87,5.23,50.71Zm-103-3H143V158.1c0-14.65-.58-33.56-5.12-49.89-3.68-12.84-10.43-25.9-18.07-34.92-11.47-13.59-30-20.48-42.33-21.13a76,76,0,0,0-9.78,0l-1.12.09-.64-1.68a25.76,25.76,0,0,0-9.1-12.67,27.15,27.15,0,0,0-7.18,9.44l-.83,1.83-1.52-1.33A63.26,63.26,0,0,0,29.87,37a60.4,60.4,0,0,0,3.64,20.45l.65,1.79-1.35,1.34c-.75.73-1.47,1.5-2.15,2.3l-.31.37c-.46.53-.86,1-1.21,1.36a31.64,31.64,0,0,0-2.21,2.93c-.27.44-.83,1.38-1.65,2.56-1.41,2.21-2.21,5.91-2.21,10.37v.21c-.46,5.07-4.46,12.25-11.23,23-1,1.63-2,3.13-2.92,4.53-3.41,5.21-5.88,9-5.88,12a27.81,27.81,0,0,0,1.23,8.5c1.3,4.43,5.61,8.65,11.08,10.93l5-2.72.79.64s4.06,3.29,7.76,3.29c3.17,0,8.48-6.69,9.89-9.2.25-1.22,1.47-6.4,4.88-9.89,3.19-3.25,7.3-4.51,12.07-6,1.83-.56,3.72-1.14,5.78-1.89h.11c6.52-1.77,11.2-8.42,11.24-8.49L75.23,102l.33,4.19a46,46,0,0,1-2,15.56c-2.66,7.28-9,13.6-15.12,19.7-1.17,1.17-2.33,2.32-3.45,3.47-4.19,4.29-5.59,6.57-6,7.35-4.11,7.36-5.27,12-5.6,14a38.71,38.71,0,0,0-.47,7.45Z"/><path class="cls-2" d="M20.15,140.26a1.5,1.5,0,0,1-1.5-1.5,1.52,1.52,0,0,1,.72-1.28,41.2,41.2,0,0,0,9.45-8.42A1.51,1.51,0,0,1,31.14,131a43.81,43.81,0,0,1-10.22,9.08A1.46,1.46,0,0,1,20.15,140.26Z"/><path class="cls-2" d="M74.07,107.76a1.51,1.51,0,0,1-1.31-2.24,30.39,30.39,0,0,0,3.09-11.44A1.47,1.47,0,0,1,77.4,92.7h.06a1.49,1.49,0,0,1,1.38,1.59v0A32.86,32.86,0,0,1,75.37,107,1.48,1.48,0,0,1,74.07,107.76Z"/><path class="cls-2" d="M12.73,124a2,2,0,0,1-2-2,2.08,2.08,0,0,1,.27-1c1.31-2.13,4.25-5.5,7-4.64.87.27,2.29,1.16,2.12,4a2,2,0,0,1-1.38,1.79l-5.37,1.75A1.87,1.87,0,0,1,12.73,124Z"/><circle class="cls-2" cx="40.32" cy="78.63" r="4.75"/><path class="cls-2" d="M46,56.86h0a1.51,1.51,0,0,1-1.49-1.52A24.87,24.87,0,0,1,47,46.08a1.5,1.5,0,1,1,2.8,1.07,1.42,1.42,0,0,1-.08.18,22.32,22.32,0,0,0-2.18,8A1.52,1.52,0,0,1,46,56.86Z"/><path class="cls-2" d="M69.59,62.39a1.48,1.48,0,0,1-1.47-1.24c-.63-3.64-1.65-9.13-2-9.95A1.54,1.54,0,1,1,69,50.12c.54,1.4,1.86,9,2.13,10.52a1.5,1.5,0,0,1-1.23,1.73h0A1.08,1.08,0,0,1,69.59,62.39Z"/><path class="cls-2" d="M34.44,84.22a2.06,2.06,0,0,1-.81-.17,2,2,0,0,1-1-2.64,24.88,24.88,0,0,1,12.3-12.28,2,2,0,0,1,1.67,3.64l-.16.06A21.29,21.29,0,0,0,36.27,83,2,2,0,0,1,34.44,84.22Z"/><path class="cls-1" d="M173.17,56.39l-25.6,18.53-6.16,1.92-4.34,3.77-3.78,8.9c-1.76-.12-1.94-7.42-5.88-10-5-3.3-6.74-7.11-11.12-11.23s-6.82-4.34-10.53-9.08c-2.87-3.71-12-4.53-12.22-6.27l8.55-4.51,3.4-4.64,1.41-6.33,16.32-27,1.53.66-5,26.18,19.87-20.39,1.4.79L129.63,44.3l23.74-17.59,1.11,1L138.9,52.83l25.59-13.55.91,1.34L146.75,62.13l25.6-7.24Z"/><path class="cls-2" d="M137.56,81l4.07-3.53,6.15-1.92L174,56.5l-1.44-2.65L148.9,60.53l17.35-20-1.69-2.45-23.62,12.5,14.36-23.2-2.07-1.91L131.31,41.77,141.8,17.19l-2.56-1.46L120.79,34.66l4.67-24.15-2.74-1.2L106,37l-1.4,6.29-3.18,4.38-8.84,4.66,1.79.83,8.14-4.26L106.05,44l1.4-6.38,15.91-26.33.34.15-5.47,28.08L139.51,17.7l.29.16L127.57,46.51l25.54-18.93.16.14L136.51,54.77l27.54-14.6.19.28-20,23.06,27.53-7.79.17.33-24.91,18L140.86,76l-4.6,4-3.61,8.51h-.07l1,1.66h0Z"/><circle class="cls-1" cx="126.05" cy="6.03" r="5.25"/><path class="cls-2" d="M122,10.48a6,6,0,1,1,8.53-.36A6,6,0,0,1,122,10.48Zm7.1-7.73a4.46,4.46,0,1,0,.27,6.3A4.45,4.45,0,0,0,129.07,2.75Z"/><circle class="cls-1" cx="157.42" cy="23.39" r="5.25"/><path class="cls-2" d="M153.33,27.83a6,6,0,1,1,8.53-.35A6,6,0,0,1,153.33,27.83Zm7.11-7.72a4.46,4.46,0,1,0,.26,6.3A4.46,4.46,0,0,0,160.44,20.11Z"/><circle class="cls-1" cx="142.82" cy="12.75" r="5.25"/><path class="cls-2" d="M138.73,17.19a6,6,0,1,1,8.53-.36h0A6,6,0,0,1,138.73,17.19Zm7.11-7.72a4.46,4.46,0,1,0,.26,6.3A4.47,4.47,0,0,0,145.84,9.47Z"/><circle class="cls-1" cx="169.24" cy="37.06" r="5.25"/><path class="cls-2" d="M165.16,41.5a6,6,0,1,1,8.52-.36h0A6,6,0,0,1,165.16,41.5Zm7.1-7.73a4.46,4.46,0,1,0,.27,6.31h0A4.48,4.48,0,0,0,172.26,33.77Z"/><circle class="cls-1" cx="177.33" cy="53.2" r="5.25"/><path class="cls-2" d="M173.24,57.64a6,6,0,1,1,8.53-.35A6,6,0,0,1,173.24,57.64Zm7.11-7.72a4.46,4.46,0,1,0,.26,6.3A4.46,4.46,0,0,0,180.35,49.92Z"/><path class="cls-2" d="M105.3,44.57l.37-1.53c.36.09,9,2.28,21.24,13.52s15.13,19.69,15.24,20l-1.49.5c0-.09-2.93-8.44-14.82-19.38S105.38,44.59,105.3,44.57Z"/><path class="cls-2" d="M106.65,38.65a1.75,1.75,0,0,1-.53-1l1.55-.28a.3.3,0,0,0,0,.15c.32.21,2-.48,3.49-1.59l.81-.59.38.92a14.64,14.64,0,0,0,2.17,3.7c2.61,2.4,4.22,2.14,8.12,1.51l.89-.14.1.81a8.2,8.2,0,0,0,9.09,7.2h0l.94-.08-.09.94a7.3,7.3,0,0,0,2.51,6.42,8.39,8.39,0,0,0,5.4,2.18l.83,0-.09.84c-.45,3.8-.65,5.54,2,8a13.17,13.17,0,0,0,4,1.68l1.08.29-.63.92c-.64.91-1.42,2.54-1.2,3.32a.5.5,0,0,0,.33.36l-.64,1.44a2.11,2.11,0,0,1-1.21-1.38,5.64,5.64,0,0,1,.86-3.72,11.18,11.18,0,0,1-3.7-1.75c-3-2.79-3-5.05-2.61-8.53a9.76,9.76,0,0,1-5.53-2.52,8.8,8.8,0,0,1-3-6.78,9.73,9.73,0,0,1-9.77-7.82c-3.51.55-5.77.72-8.75-2a12.43,12.43,0,0,1-2.16-3.37c-1.15.73-3,1.71-4.21,1.23A1.53,1.53,0,0,1,106.65,38.65Z"/><path class="cls-2" d="M136.37,81a77.52,77.52,0,0,0-34.58-31.8l.62-1.45a79.15,79.15,0,0,1,35.36,32.53Z"/><path class="cls-2" d="M132.51,89.63c-.17-1.11-1.1-3.37-4.57-7.86a102.81,102.81,0,0,0-12.21-13.08,102.47,102.47,0,0,0-14-11.06c-4.77-3.09-7.11-3.83-8.22-3.91l.1-1.57c1.93.13,4.85,1.49,9,4.15A103.81,103.81,0,0,1,116.8,67.55a104.34,104.34,0,0,1,12.39,13.26c3,3.87,4.57,6.66,4.87,8.58Z"/></g></g></svg>