<?xml version="1.0" encoding="utf-8"?>
<!-- Generator: Adobe Illustrator 23.1.1, SVG Export Plug-In . SVG Version: 6.00 Build 0)  -->
<svg version="1.1" id="Layer_1" xmlns="http://www.w3.org/2000/svg" xmlns:xlink="http://www.w3.org/1999/xlink" x="0px" y="0px"
	 viewBox="0 0 180 180" style="enable-background:new 0 0 180 180;" xml:space="preserve">
<style type="text/css">
	.st0{fill:#B63C41;}
	.st1{fill:#040000;}
</style>
<title>alpha</title>
<g>
	<g id="Layer_1-2">
		<path class="st0" d="M43.2,147.2h94.2c0.5-6.1-3.6-11.7-12.3-17c-16.5-12.6-23.9-30-25.8-51.2h-18c-1.8,21.2-9.3,38.6-25.8,51.2
			C46.8,135.6,42.7,141.2,43.2,147.2z"/>
		<path class="st1" d="M125.3,122.9c-13.2-10.3-18.7-25.2-21.4-41.1h-5.6c1.7,19.3,8.6,35.1,23.6,46.6c8,4.9,11.7,10,11.3,15.6H46.8
			c-0.5-5.6,3.2-10.7,11.3-15.6c15-11.5,21.8-27.3,23.6-46.6h-5.6c-2.8,15.9-8.1,30.9-21.4,41.1c-9.2,5.9-14.8,11.9-14.3,21v6.3
			h99.2v-6.4C139.9,134.7,134.3,128.7,125.3,122.9z"/>
		<path class="st0" d="M95.3,51.8l20.7-18H61.7l20.8,18c-9,2-11.6,7.4-11.6,16.1c0,9.5,8.2,16.7,18,16.7s17.9-7.2,17.9-16.7
			C106.8,59.1,104.3,53.8,95.3,51.8z"/>
		<path class="st1" d="M104.1,50.3l24.4-20.5h-24.6l0,0h-5.6l0,0H81.8l0,0h-5.6l0,0H51.6l24.4,20.5c-4.8,4-7.5,9.9-7.4,16.1l0,0
			c0,11.8,9.6,21.4,21.4,21.4s21.4-9.6,21.4-21.4C111.6,60.2,108.9,54.3,104.1,50.3z M90,81.6c-8.4,0-15.2-6.8-15.2-15.2l0,0
			c0-8,3.8-12.9,11.5-14.7L67,35.4h46L93.7,51.8c7.6,1.8,11.5,6.7,11.5,14.7C105.2,74.8,98.4,81.6,90,81.6z"/>
	</g>
</g>
</svg>
