<?xml version="1.0" encoding="utf-8"?>
<!-- Generator: Adobe Illustrator 23.1.1, SVG Export Plug-In . SVG Version: 6.00 Build 0)  -->
<svg version="1.1" id="Layer_1" xmlns="http://www.w3.org/2000/svg" xmlns:xlink="http://www.w3.org/1999/xlink" x="0px" y="0px"
	 viewBox="0 0 180 180" style="enable-background:new 0 0 180 180;" xml:space="preserve">
<style type="text/css">
	.st0{fill:#B63C41;}
	.st1{opacity:0.2;fill:#FFFFFF;enable-background:new    ;}
	.st2{opacity:0.2;}
	.st3{fill:#FFFFFF;}
	.st4{fill:#1A1A1A;}
	.st5{opacity:0.2;fill:#040000;enable-background:new    ;}
	.st6{fill:#B63C41;stroke:#040000;stroke-width:2;stroke-miterlimit:10;}
</style>
<title>c</title>
<g id="Layer_2">
	<g id="Layer_1-2">
		<path class="st0" d="M69.2,8.7h-0.8c-2.6,0-5.2,2.4-5.8,5.4l-1.4,6.5c-1.3,3-3.4,5.1-6.8,7.9c-2.6,2.2-4.6,5-5.7,8.2l-0.2,0.4
			c-0.9,2.2-1.5,4.1-2,5.8c-1.3,4.4-3.2,8.5-5.8,12.2L29.6,70.6c-3.4,4.3-3.1,10.2,0.9,13.5c3.9,3.3,13.7,6,17,6
			c0.8,0.1,1.7-0.2,2.3-0.8c1.4-1.4,2.5-2.9,3.5-4.6c2.2-3.4,3.8-5.9,9.4-5.9c8.3,0.1,15.4-7.5,18.9-11.1l0,0l2.1-2.4
			c1.4,2.2,3,5.8,1.9,9.6c-0.5,1.6-1.2,3.2-2.2,4.5c-2.2,2.9-4.7,5.4-7.6,7.6l-0.2,0.2c-7.1,5.8-19,15.3-20.9,28.7
			c-12.6,3.5-12.6,12.3-12.6,22.4v3.4h96.4v-3.4c0-10.1,0.1-19-12.6-22.4c0.4-1.5,0.9-3.5,1.6-5.6c2.5-8.8,5.9-20.8,5.9-28.7
			c0-18.6-5.9-34.2-17-45C107,27.5,94.6,21.9,81.5,21L69.8,9.2L69.2,8.7z"/>
		<path class="st1" d="M90.7,120.8c40.9,0,45.1,4.5,45.1,4.5h0.6c-1.8-9.7-23.2-10.7-23.2-10.7H68.4c0,0-22.2,0.8-23.4,10.7h0.6
			C45.6,125.3,49.8,120.8,90.7,120.8z"/>
		<g class="st2">
			<path class="st3" d="M66,27.6c7.6-4.7,2.5-17.1,2.5-17.1c-2.3,0-4.3,1.6-4.7,3.8l-1.4,6.5c-1.3,3.2-3.5,5.4-7.1,8.3
				c-2.5,2-4.4,4.8-5.5,7.8l-0.2,0.4c-0.8,2.1-1.4,4-2,5.7c-1.3,4.4-3.3,8.6-5.9,12.4l-11,15.6c-0.1,0.1-0.3,0.3-0.4,0.4
				c-2.1,1.9-2.5,5-0.9,7.3c0,0,18-22.2,20.4-25.4C54,47.9,51.3,36.7,66,27.6z"/>
		</g>
		<path class="st4" d="M67,36.7c-5,2-6.3,10.5-6.3,10.5c4.8-4.2,7.1,0.6,11.9-3.2C76.7,40.8,71.9,34.7,67,36.7z"/>
		<path class="st5" d="M89.9,52.1c-1.7,3.3-6,10-6,10s-0.4,1.4-1,3.3c0,0,2-0.2,2.3,6.1c0.1,1.6,0.9,7.4,1.9,4.9
			C90,69.4,92,60.8,92,57.9C92,55,91.6,48.8,89.9,52.1z"/>
		<path class="st5" d="M80.7,22.8c0,0,38.7,4.8,38.7,41.8c0,24.8-16.5,31.7-20.9,48.4c0,0,18.3,0.1,26.5,4c0,0,8.7-23.6,8.7-37.5
			C133.7,65.2,122.8,21.7,80.7,22.8z"/>
		<path class="st5" d="M66.4,77c-8.6-4.2-10.8-9.3-14.1,0.7C49,87.3,44.2,89,47.4,90s7.3-10,10.2-10.2S69.6,78.5,66.4,77z"/>
		<path class="st4" d="M68.4,10.6l12.3,12.2c24,1.6,50.8,19.1,50.8,58.8c0,10.5-6.6,29.9-7.9,35.6c13.7,2.8,13,11,13,22.5H44
			c0-11.4-0.6-19.4,12.4-22.4c1.3-13.5,13.6-23.3,20.6-29c3-2.3,5.7-5,8-8c1.1-1.6,1.9-3.3,2.4-5.1c1.7-6-2.2-11.5-3.6-13.2
			l-3.6,4.2C76.6,70.2,70.1,76.9,62.7,77C53.2,77,53,83.7,48.5,88c-0.3,0.2-0.6,0.2-0.9,0.2c-3.1,0-12.3-2.5-15.8-5.5
			c-3.1-2.6-3.5-7.4-0.6-10.9l11.1-15.7c5-7.2,5.2-11.1,8-18.3c1-3.1,2.8-5.8,5.4-7.9c3.6-3,6-5.3,7.4-8.8l1.4-6.6
			C64.9,12.5,66.8,10.6,68.4,10.6 M70,6.8h-1.6c-3.5,0-6.8,2.9-7.7,6.8v0.1L59.4,20c-1.1,2.5-3,4.4-6.2,7c-2.9,2.3-5.1,5.5-6.3,9
			l-0.2,0.4c-0.9,2.2-1.5,4.1-2.1,5.9c-1.2,4.2-3.1,8.2-5.6,11.7l-11,15.5c-4.1,5.1-3.6,12.1,1.2,16.1c4.4,3.7,14.6,6.4,18.2,6.4
			c1.3,0.1,2.6-0.4,3.6-1.3c1.5-1.5,2.7-3.1,3.8-4.9c2.1-3.2,3.2-5,7.8-5c9.1,0,16.6-7.9,20.3-11.7l0.1-0.1l0.1-0.1l0.3-0.3
			c0.8,1.8,0.9,3.8,0.5,5.7c-0.4,1.4-1.1,2.8-1.9,4c-2.1,2.7-4.5,5.2-7.2,7.2l-0.2,0.2c-7.1,5.8-18.8,15.2-21.4,28.7
			c-5.5,1.7-9.1,4.7-11,9.1c-1.9,4.3-1.9,9.2-1.8,14.9v5.3h100.1v-5.3c0-5.8,0-10.7-1.9-15.1c-1.9-4.1-5.2-6.9-10.2-8.6
			c0.3-1.1,0.7-2.4,1.1-3.8c2.5-8.9,6-21,6-29.2c0-39.9-26.3-60-52.9-62.4L71.1,7.9L70,6.8L70,6.8z"/>
		<path class="st4" d="M90.7,115.1c9.9-0.1,19.9,0.4,29.8,1.6c1.7,0.2,3.3,0.5,4.9,0.9l0.6-3.8c-1.7-0.4-3.3-0.7-5-0.9
			c-10-1.2-20.1-1.7-30.2-1.6l0,0c-10.1-0.1-20.2,0.4-30.2,1.6c-1.8,0.2-3.6,0.5-5.3,0.9l0.8,3.7c1.6-0.4,3.3-0.7,5-0.9
			C70.8,115.4,80.7,114.9,90.7,115.1z"/>
		<rect x="27" y="141.3" class="st6" width="127.1" height="11.8"/>
		<polygon class="st6" points="34.3,173 42.2,153.8 26.4,153.8 		"/>
		<polygon class="st6" points="50.3,173 58.2,153.8 42.4,153.8 		"/>
		<polygon class="st6" points="66.7,173.2 74.6,154 58.8,154 		"/>
		<polygon class="st6" points="82.7,173.2 90.5,154.1 74.8,154.1 		"/>
		<polygon class="st6" points="98.5,173 106.4,153.8 90.7,153.8 		"/>
		<polygon class="st6" points="114.4,173 122.3,153.8 106.5,153.8 		"/>
		<polygon class="st6" points="130.9,173.2 138.7,154 123,154 		"/>
		<polygon class="st6" points="146.7,173.2 154.6,154.1 138.9,154.1 		"/>
	</g>
</g>
</svg>
