<svg xmlns="http://www.w3.org/2000/svg" viewBox="0 0 180 180"><defs><style>.cls-1,.cls-7{fill:#b63c41;}.cls-2,.cls-4{fill:#fff;}.cls-2,.cls-3,.cls-6{opacity:0.2;}.cls-2,.cls-6{isolation:isolate;}.cls-5{fill:#1a1a1a;}.cls-6{fill:#040000;}.cls-7{stroke:#040000;stroke-miterlimit:10;stroke-width:2px;}</style></defs><title>c</title><g id="Layer_2" data-name="Layer 2"><g id="Layer_1-2" data-name="Layer 1"><path class="cls-1" d="M46.18,2h-.83c-2.72,0-5.43,2.48-6.16,5.64l-1.45,6.88c-1.32,3.14-3.54,5.36-7.13,8.32a19.11,19.11,0,0,0-6.06,8.69l-.17.42c-.9,2.29-1.56,4.3-2.16,6.07a43.52,43.52,0,0,1-6.11,12.85L4.48,67.25C.86,71.76,1.26,78,5.4,81.52s14.4,6.3,17.9,6.3A3.33,3.33,0,0,0,25.72,87a24.9,24.9,0,0,0,3.7-4.85c2.31-3.6,4-6.2,9.93-6.23C48.08,76,55.63,68,59.26,64.2h0l2.18-2.52c1.46,2.33,3.14,6.13,2,10.11a16.42,16.42,0,0,1-2.3,4.79,40.16,40.16,0,0,1-8,8l-.19.16C45.43,90.82,33,100.89,30.87,115,17.54,118.66,17.57,128,17.6,138.64v3.61H119.21v-3.6c0-10.69.06-20-13.28-23.63.41-1.59,1-3.64,1.64-5.9,2.63-9.24,6.24-21.9,6.24-30.2,0-19.56-6.19-36-17.89-47.47A59,59,0,0,0,59.16,15L46.77,2.59Z"/><path class="cls-2" d="M68.82,120.16c43.07,0,47.54,4.75,47.54,4.75H117c-1.93-10.18-24.49-11.3-24.49-11.3H45.35s-23.36.81-24.66,11.3h.59S25.75,120.16,68.82,120.16Z"/><g class="cls-3"><path class="cls-4" d="M42.75,22c8.06-5,2.6-18,2.6-18a5,5,0,0,0-5,4l-1.46,6.92c-1.41,3.38-3.71,5.7-7.46,8.8a18.07,18.07,0,0,0-5.76,8.26l-.16.42c-.89,2.26-1.52,4.17-2.14,6a44.32,44.32,0,0,1-6.22,13.1L5.53,67.89c-.15.15-.3.31-.44.47a6,6,0,0,0-1,7.74s19-23.45,21.51-26.74C30.11,43.38,27.27,31.59,42.75,22Z"/></g><path class="cls-5" d="M43.89,31.52c-5.23,2.14-6.64,11.09-6.64,11.09,5.08-4.42,7.53.65,12.59-3.36C54.11,35.91,49,29.42,43.89,31.52Z"/><path class="cls-6" d="M68,47.82c-1.82,3.49-6.33,10.57-6.33,10.57s-.47,1.43-1,3.46c0,0,2.08-.23,2.47,6.39.1,1.72.93,7.76,2,5.18,3-7.44,5.18-16.44,5.14-19.49S69.79,44.33,68,47.82Z"/><path class="cls-6" d="M58.28,16.9S99.11,22,99.11,61c0,26.14-17.38,33.44-22,51,0,0,19.33.15,27.88,4.19,0,0,9.18-24.84,9.18-39.56C114.16,61.58,102.72,15.75,58.28,16.9Z"/><path class="cls-6" d="M43.23,74c-9.11-4.47-11.41-9.79-14.91.72-3.4,10.18-8.55,11.93-5.09,13S31,77.22,34,77,46.64,75.62,43.23,74Z"/><path class="cls-5" d="M45.35,4,58.28,16.9c25.26,1.71,53.53,20.1,53.53,62,0,11.12-7,31.49-8.29,37.57,14.39,3,13.69,11.63,13.69,23.76H19.65c0-12-.68-20.47,13.08-23.63,1.38-14.19,14.38-24.54,21.72-30.52a41.52,41.52,0,0,0,8.41-8.44,18.21,18.21,0,0,0,2.57-5.37c1.82-6.37-2.3-12.09-3.78-13.88l-3.83,4.43C54,66.87,47.11,73.93,39.34,74c-10.05.05-10.29,7.09-15,11.65a1.73,1.73,0,0,1-1,.21c-3.27,0-12.92-2.68-16.61-5.82-3.22-2.74-3.64-7.82-.62-11.54L17.81,52c5.23-7.6,5.46-11.65,8.48-19.32a17.46,17.46,0,0,1,5.64-8.3c3.81-3.15,6.28-5.61,7.77-9.27l1.48-7C41.68,6,43.57,4,45.39,4m1.66-4h-1.7c-3.68,0-7.16,3.09-8.11,7.19v.08l-1.39,6.64c-1.18,2.68-3.14,4.62-6.49,7.39a20.88,20.88,0,0,0-6.66,9.51l-.16.41c-.92,2.34-1.6,4.37-2.19,6.17a41.55,41.55,0,0,1-5.86,12.34L2.88,66.05c-4.25,5.35-3.77,12.79,1.23,17,4.6,3.91,15.36,6.77,19.2,6.77a5.38,5.38,0,0,0,3.8-1.34,27.34,27.34,0,0,0,4-5.21C33.29,79.86,34.49,78,39.36,78c9.58,0,17.53-8.37,21.35-12.38l.07-.07.06-.07.27-.29a9.3,9.3,0,0,1,.49,6,14.05,14.05,0,0,1-2,4.21A38.11,38.11,0,0,1,52,83l-.19.16C44.25,89.21,32,99.17,29.2,113.38c-5.78,1.84-9.58,5-11.57,9.54s-2,9.68-1.94,15.66v5.6H121.21v-5.6c0-6.07,0-11.32-2-15.88-2-4.32-5.44-7.28-10.8-9.1.33-1.2.71-2.56,1.13-4,2.66-9.36,6.31-22.17,6.31-30.75,0-42.1-27.74-63.26-55.74-65.82L48.18,1.17,47,0Z"/><path class="cls-5" d="M68.82,114.16a252.74,252.74,0,0,1,31.36,1.65,42.9,42.9,0,0,1,5.17,1l.66-4a45.73,45.73,0,0,0-5.32-1,255.07,255.07,0,0,0-31.87-1.69h0A255.12,255.12,0,0,0,37,111.81a45.93,45.93,0,0,0-5.58,1l.82,3.91a42.78,42.78,0,0,1,5.26-1A252.77,252.77,0,0,1,68.82,114.16Z"/><polygon class="cls-7" points="25.3 161.21 33.8 144.38 16.81 144.38 25.3 161.21"/><polygon class="cls-7" points="42.56 161.24 51.06 144.41 34.07 144.41 42.56 161.24"/><polygon class="cls-7" points="60.25 161.41 68.74 144.58 51.75 144.58 60.25 161.41"/><polygon class="cls-7" points="77.5 161.44 86 144.61 69.01 144.61 77.5 161.44"/><polygon class="cls-7" points="94.63 161.22 103.12 144.4 86.13 144.4 94.63 161.22"/><polygon class="cls-7" points="111.75 161.25 120.25 144.43 103.26 144.43 111.75 161.25"/></g></g></svg>