<?xml version="1.0" encoding="utf-8"?>
<!-- Generator: Adobe Illustrator 23.1.1, SVG Export Plug-In . SVG Version: 6.00 Build 0)  -->
<svg version="1.1" id="Layer_1" xmlns="http://www.w3.org/2000/svg" xmlns:xlink="http://www.w3.org/1999/xlink" x="0px" y="0px"
	 viewBox="0 0 180 180" style="enable-background:new 0 0 180 180;" xml:space="preserve">
<style type="text/css">
	.st0{fill:#B63C41;}
	.st1{fill:#040000;}
	.st2{fill:#B63C41;stroke:#040000;stroke-width:2;stroke-miterlimit:10;}
</style>
<title>c</title>
<g id="Layer_2">
	<g id="Layer_1-2">
		<path class="st0" d="M59.4,20.2c-5.5-4.8-11.8-8.5-18.6-11.1c-0.2,7.4,0.9,14.8,3.5,21.7l0.3,0.8l-0.6,0.6
			c-0.8,0.7-1.5,1.5-2.1,2.3l-0.3,0.3c-0.3,0.4-0.7,0.8-1.1,1.2c-0.8,1-1.6,2-2.3,3c-0.2,0.4-0.7,1.2-1.5,2.3
			c-1.5,2.4-2.3,6-2.3,10.5v0.2c-0.4,4.7-4.7,11.9-10.3,20.8c-4.8,7.5-8.4,12.2-8.4,16.3c0,2.9,0.4,5.7,1.2,8.4
			c1.5,5,6.3,9.2,11.8,11.4l4.4-2.4c0,0,4.1,3.4,8.2,3.4s9.5-7.5,10.6-9.5c0,0,0.9-5.4,4.2-8.8c3.8-3.9,9.1-4.5,16.2-7
			c6.7-1.8,11.3-8.5,11.3-8.5c0.2,4.7-0.4,9.5-1.8,14c-2.4,6.6-8.2,12.4-13.9,18c-1.1,1.1-2.2,2.2-3.2,3.3c-3.9,4-5.4,6.2-5.9,7.2
			c-3.9,7.1-5.1,11.6-5.4,13.6c-0.5,2.9-0.6,5.8-0.4,8.7h96.5v-16.2c0-13.8-0.6-31.7-4.8-47.2c-3.5-12.2-10-24.7-17.2-33.3
			C117.3,32,99.9,24.6,86.9,23.9c-3.1-0.2-6.3-0.2-9.4,0c-1-2.6-2.9-8.8-10.1-13.7C63.9,12.8,61.2,16.3,59.4,20.2z"/>
		<path class="st1" d="M151.1,142.2H51.9l-0.2-1.2c-0.3-3-0.1-6.1,0.4-9.1c0.3-2.1,1.5-6.8,5.5-14.1c0.7-1.2,2.3-3.6,6.1-7.5
			c1.1-1.1,2.2-2.2,3.3-3.3c5.5-5.5,11.3-11.3,13.5-17.5c1-3.1,1.5-6.4,1.7-9.7c-2.6,2.8-5.9,4.9-9.5,6c-2,0.7-3.8,1.3-5.5,1.8
			c-4.3,1.3-7.6,2.4-10.1,4.9c-3,3-3.9,8-3.9,8v0.2l-0.1,0.2c-0.7,1.4-6.6,10.3-11.9,10.3c-3.4,0-6.8-2.1-8.3-3.1l-4.2,2.3l-0.6-0.2
			c-6.3-2.4-11.2-7.1-12.7-12.3c-0.9-2.9-1.3-5.8-1.3-8.8c0-3.8,2.5-7.5,6-12.8c0.8-1.3,1.8-2.7,2.7-4.2c4.9-7.7,9.7-15.7,10.1-20.2
			v-0.1c0-4.7,0.9-8.6,2.5-11.3c0.8-1.1,1.2-1.9,1.5-2.3c0.8-1.1,1.7-2.2,2.6-3.2c0.3-0.3,0.7-0.7,1-1.2l0.3-0.3
			c0.7-0.8,1.4-1.6,2.2-2.3l0,0c-2.6-7.1-3.8-14.7-3.6-22.3l0.1-2l1.9,0.7C47.7,10.2,53.7,13.6,59,18c1.9-3.5,4.4-6.5,7.6-8.9
			l0.8-0.6L68.2,9c4.8,3.2,8.4,7.9,10.3,13.4c2.8-0.1,5.6-0.1,8.4,0.1c12.2,0.6,30.4,7.4,41.7,20.8c7.4,8.7,14,21.4,17.5,33.8
			c4.3,15.7,4.9,33.6,4.9,47.6L151.1,142.2z M54.5,139.4h93.8v-14.7c0-13.7-0.5-31.5-4.8-46.8c-3.5-12-9.8-24.3-16.9-32.7
			c-10.8-12.8-28.1-19.2-39.7-19.8c-3.1-0.2-6.1-0.2-9.2,0l-1.1,0.1L76,23.8c-1.5-4.7-4.5-8.9-8.5-11.9c-2.9,2.4-5.2,5.4-6.7,8.9
			l-0.8,1.7l-1.4-1.2c-4.9-4.3-10.4-7.7-16.4-10.2c0,6.5,1.2,13,3.4,19.2l0.6,1.7l-1.3,1.3c-0.7,0.7-1.4,1.4-2,2.2l-0.3,0.3
			c-0.4,0.5-0.8,0.9-1.1,1.3c-0.7,0.9-1.4,1.8-2.1,2.7c-0.3,0.4-0.8,1.3-1.5,2.4c-1.3,2.1-2.1,5.5-2.1,9.7v0.2
			c-0.4,4.8-4.2,11.5-10.5,21.6c-0.9,1.5-1.9,2.9-2.7,4.2c-3.2,4.9-5.5,8.4-5.5,11.3c0,2.7,0.4,5.4,1.2,7.9
			c1.2,4.2,5.3,8.1,10.4,10.3l4.7-2.6l0.7,0.6c0,0,3.8,3.1,7.3,3.1c3,0,8-6.3,9.3-8.6c0.2-1.1,1.4-6,4.6-9.3c3-3,6.8-4.2,11.3-5.6
			c1.7-0.5,3.5-1.1,5.4-1.8h0.1c6.1-1.7,10.5-7.9,10.5-8l2.2-3.2L85,76c0.2,4.9-0.4,9.9-1.9,14.6c-2.5,6.8-8.4,12.8-14.2,18.5
			c-1.1,1.1-2.2,2.2-3.2,3.3c-3.9,4-5.2,6.2-5.6,6.9c-3.9,6.9-4.9,11.3-5.3,13.1C54.5,134.6,54.3,137,54.5,139.4L54.5,139.4z"/>
		<path class="st1" d="M33,108c-0.8,0-1.4-0.6-1.4-1.4c0-0.5,0.3-0.9,0.7-1.2c3.3-2.2,6.3-4.8,8.9-7.9c0.5-0.6,1.4-0.7,2-0.2
			c0.6,0.5,0.7,1.4,0.2,2c-2.7,3.3-6,6.2-9.6,8.5C33.5,107.9,33.3,108,33,108z"/>
		<path class="st1" d="M83.6,77.5c-0.8,0-1.4-0.6-1.4-1.4c0-0.2,0.1-0.5,0.2-0.7c1.7-3.4,2.6-7,2.9-10.7c0-0.8,0.7-1.3,1.4-1.3
			c0,0,0,0,0,0h0.1c0.8,0.1,1.3,0.7,1.3,1.5l0,0c-0.3,4.1-1.4,8.2-3.3,11.9C84.6,77.2,84.1,77.5,83.6,77.5z"/>
		<path class="st1" d="M26.1,92.7c-1,0-1.9-0.8-1.9-1.9c0-0.3,0.1-0.7,0.3-0.9c1.2-2,4-5.2,6.6-4.4c0.8,0.3,2.1,1.1,2,3.8
			c0,0.8-0.6,1.4-1.3,1.7l-5,1.6C26.5,92.7,26.3,92.7,26.1,92.7z"/>
		<circle class="st1" cx="52" cy="50.2" r="4.5"/>
		<path class="st1" d="M57.3,29.7L57.3,29.7c-0.8,0-1.4-0.6-1.4-1.4c0.2-3,1-6,2.3-8.7c0.2-0.7,1-1.1,1.8-0.9c0.7,0.2,1.1,1,0.9,1.8
			c0,0,0,0.1,0,0.1c0,0.1,0,0.1-0.1,0.2c-1.1,2.4-1.8,4.9-2,7.5C58.7,29.1,58.1,29.7,57.3,29.7C57.3,29.7,57.3,29.7,57.3,29.7z"/>
		<path class="st1" d="M79.4,34.9c-0.7,0-1.3-0.5-1.4-1.2c-0.6-3.4-1.5-8.6-1.9-9.3c-0.2-0.8,0.2-1.6,0.9-1.8
			c0.7-0.2,1.5,0.1,1.8,0.8c0.5,1.3,1.7,8.4,2,9.9c0.1,0.8-0.4,1.5-1.2,1.6c0,0,0,0,0,0l0,0C79.6,34.9,79.5,34.9,79.4,34.9z"/>
		<path class="st1" d="M46.4,55.4c-0.3,0-0.5-0.1-0.8-0.2c-0.9-0.4-1.4-1.5-0.9-2.5c2.3-5.1,6.4-9.2,11.5-11.5c1-0.4,2.1,0.1,2.4,1
			c0.4,0.9,0,1.9-0.9,2.4l-0.2,0.1c-4.2,2-7.6,5.3-9.5,9.5C47.9,54.9,47.2,55.4,46.4,55.4z"/>
		<rect x="39.7" y="141.4" class="st2" width="125.6" height="11.7"/>
		<polygon class="st2" points="46.9,172.7 54.7,153.7 39.1,153.7 		"/>
		<polygon class="st2" points="62.7,172.7 70.5,153.7 54.9,153.7 		"/>
		<polygon class="st2" points="78.9,172.9 86.7,153.9 71.1,153.9 		"/>
		<polygon class="st2" points="94.7,172.9 102.5,154 86.9,154 		"/>
		<polygon class="st2" points="110.4,172.7 118.2,153.7 102.6,153.7 		"/>
		<polygon class="st2" points="126.1,172.7 133.9,153.8 118.3,153.8 		"/>
		<polygon class="st2" points="142.4,172.9 150.2,153.9 134.6,153.9 		"/>
		<polygon class="st2" points="158.1,172.9 165.9,154 150.3,154 		"/>
	</g>
</g>
</svg>
