<svg xmlns="http://www.w3.org/2000/svg" viewBox="0 0 146.46 163.42"><defs><style>.cls-1,.cls-3{fill:#b63c41;}.cls-2{fill:#040000;}.cls-3{stroke:#040000;stroke-miterlimit:10;stroke-width:2px;}</style></defs><title>资源 23</title><g id="图层_2" data-name="图层 2"><g id="图层_1-2" data-name="图层 1"><path class="cls-1" d="M48.27,14A65.77,65.77,0,0,0,28.4,2.16a61.71,61.71,0,0,0,3.7,23.16l.33.9-.68.67a30.64,30.64,0,0,0-2.27,2.43l-.28.33a13.76,13.76,0,0,1-1.13,1.27,33.11,33.11,0,0,0-2.43,3.22c-.23.39-.78,1.3-1.59,2.48-1.61,2.51-2.48,6.41-2.48,11.22V48c-.46,5-5,12.73-11,22.23-5.08,8-9,13-9,17.37a29.18,29.18,0,0,0,1.3,9c1.56,5.3,6.67,9.85,12.61,12.13l4.71-2.58s4.41,3.63,8.71,3.63,10.18-8,11.32-10.18c0,0,1-5.75,4.53-9.36,4-4.11,9.69-4.76,17.28-7.51,7.11-1.94,12.08-9.08,12.08-9.08a44.36,44.36,0,0,1-1.89,14.93c-2.54,7-8.77,13.17-14.78,19.16-1.17,1.16-2.33,2.32-3.45,3.47-4.17,4.28-5.71,6.66-6.26,7.7-4.21,7.53-5.41,12.33-5.75,14.52a36.6,36.6,0,0,0-.4,9.23H144.47V125.42c0-14.74-.59-33.78-5.17-50.3-3.74-13-10.61-26.3-18.37-35.48C110,26.64,91.48,18.71,77.53,18a75.84,75.84,0,0,0-10,0c-1.07-2.78-3.1-9.37-10.79-14.65A28.34,28.34,0,0,0,48.27,14Z"/><path class="cls-2" d="M146,144.09H40.24l-.19-1.28a37.85,37.85,0,0,1,.42-9.74c.34-2.23,1.59-7.23,5.91-15,.7-1.33,2.4-3.83,6.49-8,1.13-1.15,2.3-2.32,3.47-3.48,5.91-5.89,12-12,14.43-18.62a39.83,39.83,0,0,0,1.79-10.33,23.61,23.61,0,0,1-10.12,6.43c-2.11.76-4.1,1.38-5.86,1.92-4.56,1.4-8.15,2.51-10.8,5.21-3.15,3.22-4.11,8.51-4.12,8.56V100l-.11.21c-.76,1.44-7.08,11-12.65,11-3.66,0-7.26-2.23-8.84-3.35l-4.51,2.46-.64-.25C8.19,107.5,3,102.47,1.39,97A30.83,30.83,0,0,1,0,87.57c0-4,2.67-8,6.37-13.68.9-1.39,1.88-2.88,2.9-4.49C14.48,61.15,19.6,52.69,20,47.83v-.07c0-5,.93-9.19,2.7-12,.8-1.15,1.31-2,1.55-2.41A35.94,35.94,0,0,1,27,29.91c.35-.35.7-.76,1.11-1.25l.27-.32a32.09,32.09,0,0,1,2.33-2.48h0A63.21,63.21,0,0,1,26.9,2.11L27,0l2,.76A66.72,66.72,0,0,1,47.78,11.65a29.91,29.91,0,0,1,8.07-9.51l.87-.66.89.62a28.48,28.48,0,0,1,11,14.31,84.44,84.44,0,0,1,9,.07c13,.68,32.41,7.92,44.46,22.19C130,48,137,61.48,140.74,74.67c4.63,16.7,5.23,35.87,5.23,50.71Zm-103-3H143V125.42c0-14.65-.58-33.56-5.12-49.89-3.68-12.84-10.43-25.9-18.07-34.92C108.34,27,89.81,20.13,77.48,19.48a76,76,0,0,0-9.78,0l-1.12.09-.64-1.68a25.76,25.76,0,0,0-9.1-12.67,27.15,27.15,0,0,0-7.18,9.44l-.83,1.83-1.52-1.33A63.26,63.26,0,0,0,29.87,4.32a60.45,60.45,0,0,0,3.64,20.45l.65,1.79L32.81,27.9c-.75.73-1.47,1.5-2.15,2.3l-.31.37c-.46.53-.86,1-1.21,1.36a31.64,31.64,0,0,0-2.21,2.93c-.27.44-.83,1.38-1.65,2.56-1.41,2.21-2.21,5.91-2.21,10.37V48c-.46,5.07-4.46,12.25-11.23,23-1,1.63-2,3.13-2.92,4.53-3.41,5.21-5.88,9-5.88,12A27.81,27.81,0,0,0,4.27,96c1.3,4.43,5.61,8.65,11.08,10.93l5-2.72.79.64s4.06,3.29,7.76,3.29c3.17,0,8.48-6.69,9.89-9.2.25-1.22,1.47-6.4,4.88-9.89,3.19-3.25,7.3-4.51,12.07-6,1.83-.56,3.72-1.14,5.78-1.89h.11c6.52-1.77,11.2-8.42,11.24-8.49l2.36-3.38.33,4.19a46,46,0,0,1-2,15.56c-2.66,7.28-9,13.6-15.12,19.7-1.17,1.17-2.33,2.32-3.45,3.47-4.19,4.29-5.59,6.57-6,7.35-4.11,7.36-5.27,12-5.6,14a38.71,38.71,0,0,0-.47,7.45Z"/><path class="cls-2" d="M20.15,107.58a1.5,1.5,0,0,1-1.5-1.5,1.52,1.52,0,0,1,.72-1.28,41.2,41.2,0,0,0,9.45-8.42,1.51,1.51,0,0,1,2.32,1.94,43.81,43.81,0,0,1-10.22,9.08A1.46,1.46,0,0,1,20.15,107.58Z"/><path class="cls-2" d="M74.07,75.08a1.51,1.51,0,0,1-1.31-2.24A30.39,30.39,0,0,0,75.85,61.4,1.47,1.47,0,0,1,77.4,60h.06a1.49,1.49,0,0,1,1.38,1.59v0a32.86,32.86,0,0,1-3.47,12.69A1.48,1.48,0,0,1,74.07,75.08Z"/><path class="cls-2" d="M12.73,91.32a2,2,0,0,1-2-2,2,2,0,0,1,.27-1c1.31-2.13,4.25-5.5,7-4.64.87.27,2.29,1.16,2.12,4a2,2,0,0,1-1.38,1.79l-5.37,1.75A1.87,1.87,0,0,1,12.73,91.32Z"/><circle class="cls-2" cx="40.32" cy="45.95" r="4.75"/><path class="cls-2" d="M46,24.18h0a1.51,1.51,0,0,1-1.49-1.52A24.87,24.87,0,0,1,47,13.4a1.5,1.5,0,1,1,2.8,1.07,1.42,1.42,0,0,1-.08.18,22.32,22.32,0,0,0-2.18,8A1.52,1.52,0,0,1,46,24.18Z"/><path class="cls-2" d="M69.59,29.71a1.48,1.48,0,0,1-1.47-1.24c-.63-3.64-1.65-9.13-2-9.95A1.54,1.54,0,0,1,69,17.44c.54,1.4,1.86,9,2.13,10.52a1.5,1.5,0,0,1-1.23,1.73h0A1.08,1.08,0,0,1,69.59,29.71Z"/><path class="cls-2" d="M34.44,51.54a2.06,2.06,0,0,1-.81-.17,2,2,0,0,1-1-2.64,24.88,24.88,0,0,1,12.3-12.28,2,2,0,0,1,1.67,3.63l-.16.07A21.29,21.29,0,0,0,36.27,50.32,2,2,0,0,1,34.44,51.54Z"/><polygon class="cls-3" points="49.89 160.97 58.39 144.15 41.4 144.15 49.89 160.97"/><polygon class="cls-3" points="67.15 161 75.65 144.18 58.66 144.18 67.15 161"/><polygon class="cls-3" points="84.83 161.17 93.33 144.35 76.34 144.35 84.83 161.17"/><polygon class="cls-3" points="102.09 161.2 110.59 144.38 93.6 144.38 102.09 161.2"/><polygon class="cls-3" points="119.22 160.99 127.71 144.16 110.72 144.16 119.22 160.99"/><polygon class="cls-3" points="136.34 161.02 144.83 144.19 127.84 144.19 136.34 161.02"/></g></g></svg>