<?xml version="1.0" encoding="utf-8"?>
<!-- Generator: Adobe Illustrator 23.1.1, SVG Export Plug-In . SVG Version: 6.00 Build 0)  -->
<svg version="1.1" id="Layer_1" xmlns="http://www.w3.org/2000/svg" xmlns:xlink="http://www.w3.org/1999/xlink" x="0px" y="0px"
	 viewBox="0 0 180 180" style="enable-background:new 0 0 180 180;" xml:space="preserve">
<style type="text/css">
	.st0{fill:#B63C41;}
	.st1{fill:#040000;}
	.st2{fill:#B63C41;stroke:#040000;stroke-width:3;stroke-miterlimit:10;}
</style>
<title>c</title>
<g id="Layer_2">
	<g id="Layer_1-2">
		<path class="st0" d="M48.6,139.5c-0.7-14,3.6-26.2,13.9-35c6.5-1.9,9.5-4.5,11.4-8.4c1.7-3.6,3.9-7,6.5-10c-8.9-9.3-18-2.2-24-0.2
			c-3.9,1.6-6.2,2.5-8.3,5l-3.2,3.7l-5.7-4.4l6.5-5.4l-10.5-9.3l-5.3,3.4l-1.4-13.1l30.6-20.1c2.4-5.7,17.3-14,28.3-20.9l4.1-5.8
			L96.4,30c19.9,8.9,27.4,21.2,33,35.2c4.4,16.1,3.7,27.3,2.7,38.1c-1,10.9-2.3,21.4,1.6,36.2L48.6,139.5z"/>
		<path class="st1" d="M37.7,64.4l2.7-0.3l3,2.5l-3.7,4.4l-4.6-2.1L37.7,64.4z M83.3,48.4l-17-0.1l9.3-8
			C78.8,37.6,86.9,48.4,83.3,48.4z M59.9,46l-3.7-4.8c0.3-2.1,3.4-5,9.3-8.6c5.9-3.7,11.7-7.5,17.6-11.4l9.2-12.3l7.7,17.4
			c36.5,18.4,43,43.6,38.4,81.8c-1.5,11.6,0.2,23.5,5,34.2H44c-0.9-19,3.4-31,17.7-43.2c8.3-1.7,11.7-9.3,13.6-12.5
			c-12.6-2.2-20.4-0.6-23.3,4.8c-2.9,5.4-4.5,8.2-4.5,8.2l-17.4-9.7l9.2-6.5l-4.1-4l-9.8,6.9l-0.9-23.8l31.8-21.1
			c0,0,3.2-1.1,3.7-0.4S60,46,59.9,46L30.6,65.3l0.3,10l5.1-3.3l11,11.5l-6.2,5.2l3.7,2.2l3.1-3.6c2.4-2.6,5.3-4.6,8.7-5.8
			c5.8-1.9,19.9-5.1,28.5,3.7c-2.9,3.2-5.3,6.8-7.3,10.6c-1.9,3.7-5.9,6.5-12.1,8.2c-9.9,8.4-16.2,18.6-15.5,32h81.6
			c-3.7-14.2-2.6-24.3-1.5-34.7c1-10.4,1.7-21.2-2.6-36.6c-5.4-13.4-12.6-25.2-31.8-33.8l-4.7-10.6l-3.9,5.5
			C76.5,32.6,62.2,40.6,59.9,46L59.9,46z"/>
		<path class="st1" d="M80.5,82.9c-0.8,0.9,0.8,3.8,4.3,3.4c1.4-0.2,2.1-1.2,3-1.1c0.9,0.1,1.8,0.1,2.6-0.1
			c8.3-1.2,14.3-10.3,14.5-20l-1.5-5.4c-3,12.7-7.9,19.6-15.1,20.5c-1.1,0.2-2.3,0.3-3.6,0.4C83.2,81,81.7,81.8,80.5,82.9z"/>
		<rect x="29.9" y="139.8" class="st2" width="125.1" height="11.7"/>
		<polygon class="st2" points="37.1,170.9 44.8,152.1 29.3,152.1 		"/>
		<polygon class="st2" points="52.8,171 60.6,152.1 45.1,152.1 		"/>
		<polygon class="st2" points="68.9,171.2 76.7,152.3 61.2,152.3 		"/>
		<polygon class="st2" points="84.7,171.2 92.4,152.3 76.9,152.3 		"/>
		<polygon class="st2" points="100.3,171 108,152.1 92.5,152.1 		"/>
		<polygon class="st2" points="115.9,171 123.7,152.1 108.2,152.1 		"/>
		<polygon class="st2" points="132.1,171.2 139.9,152.3 124.4,152.3 		"/>
		<polygon class="st2" points="147.7,171.2 155.5,152.3 140,152.3 		"/>
	</g>
</g>
</svg>
