<svg xmlns="http://www.w3.org/2000/svg" viewBox="0 0 128.28 163.42"><defs><style>.cls-1,.cls-2{fill:#b63c41;}.cls-1{stroke:#040000;stroke-miterlimit:10;stroke-width:3px;}.cls-3{fill:#040000;}</style></defs><title>资源 24</title><g id="图层_2" data-name="图层 2"><g id="图层_1-2" data-name="图层 1"><polygon class="cls-1" points="30.91 159.87 39.4 143.04 22.41 143.04 30.91 159.87"/><polygon class="cls-1" points="48.16 159.9 56.66 143.07 39.67 143.07 48.16 159.9"/><polygon class="cls-1" points="65.85 160.06 74.34 143.24 57.35 143.24 65.85 160.06"/><polygon class="cls-1" points="83.1 160.09 91.6 143.27 74.61 143.27 83.1 160.09"/><polygon class="cls-1" points="100.23 159.88 108.72 143.05 91.73 143.05 100.23 159.88"/><polygon class="cls-1" points="117.35 159.91 125.85 143.08 108.86 143.08 117.35 159.91"/><path class="cls-2" d="M25.79,140c-.71-15,3.89-28.1,14.88-37.48,7-2,10.2-4.8,12.25-9a44.38,44.38,0,0,1,7-10.75c-9.55-9.91-19.32-2.4-25.75-.25-4.2,1.7-6.65,2.63-8.89,5.31l-3.48,4-6.13-4.71,7-5.8-11.23-10L5.72,75,4.27,61,37,39.45c2.59-6.07,18.49-15,30.28-22.42l4.43-6.16,5.27,11.87c21.35,9.56,29.29,22.69,35.37,37.7,4.73,17.23,3.92,29.2,2.86,40.82s-2.5,22.95,1.69,38.76Z"/><path class="cls-3" d="M14.15,59.52,17,59.17l3.17,2.67L16.2,66.55l-4.88-2.26ZM62.94,42.45l-18.18-.16,10-8.57C58.14,30.88,66.8,42.45,62.94,42.45Zm-25-2.57L34,34.73c.34-2.22,3.69-5.31,10-9.26s12.52-8,18.86-12.26L72.67,0,80.9,18.61c39.07,19.68,46,46.68,41.13,87.56a67.91,67.91,0,0,0,5.32,36.62H20.83c-1-20.32,3.61-33.19,19-46.22,8.91-1.8,12.52-10,14.57-13.38-13.46-2.4-21.87-.69-25,5.14s-4.8,8.75-4.8,8.75L6,86.7l9.86-7-4.37-4.29L1,82.79,0,57.29,34,34.73s3.38-1.15,4-.38,0,5.53,0,5.53L6.52,60.55l.34,10.74,5.49-3.52L24.18,80.1l-6.69,5.58,4,2.4,3.34-3.86A23,23,0,0,1,34.1,78c6.17-2.06,21.35-5.49,30.53,4a53.26,53.26,0,0,0-7.78,11.33q-3,6-13,8.83c-10.55,9-17.32,19.9-16.64,34.3h87.36c-4-15.17-2.75-26.07-1.63-37.21s1.8-22.65-2.75-39.2c-5.83-14.4-13.46-27-34-36.19l-5.06-11.4L67,18.35c-11.3,7.12-26.59,15.7-29.07,21.53Z"/><path class="cls-3" d="M60,79.39c-.91,1,.88,4.11,4.63,3.6,1.46-.2,2.23-1.29,3.17-1.2a11.19,11.19,0,0,0,2.83-.09c8.92-1.28,15.27-11.06,15.52-21.44l-1.63-5.74c-3.17,13.63-8.49,21-16.12,22-1.2.17-2.49.34-3.86.43A8.72,8.72,0,0,0,60,79.39Z"/></g></g></svg>