<?xml version="1.0" encoding="utf-8"?>
<!-- Generator: Adobe Illustrator 23.1.1, SVG Export Plug-In . SVG Version: 6.00 Build 0)  -->
<svg version="1.1" id="Layer_1" xmlns="http://www.w3.org/2000/svg" xmlns:xlink="http://www.w3.org/1999/xlink" x="0px" y="0px"
	 viewBox="0 0 180 180" style="enable-background:new 0 0 180 180;" xml:space="preserve">
<style type="text/css">
	.st0{fill:#B63C41;}
	.st1{opacity:0.2;fill:#040000;enable-background:new    ;}
	.st2{opacity:0.2;fill:#FFFFFF;enable-background:new    ;}
	.st3{fill:#1A1A1A;}
</style>
<title>j</title>
<g id="Layer_2">
	<g id="Layer_1-2">
		<path class="st0" d="M114.9,145.5c7-5.8,16.4-18.4,16.4-39.2c0-20.5-13.5-35.9-22.1-44.5l-1.8-1.8l-1.3,2.2
			c-1.5,2.5-8.8,14.5-9.1,44.6H83.2c0.5-45,18-62,18.2-62.2l0.7-0.6l-0.1-0.9c-0.5-6.7-6.1-12-12.9-12V31c-7.1,0-12.9,5.8-12.9,12.9
			c0,3.3,1.2,6.4,3.4,8.8C74.3,57,69.4,61.8,65,67c-10.8,12.9-16.5,26.5-16.5,39.3c0,20.8,9.4,33.3,16.4,39.2"/>
		<path class="st1" d="M116.9,71.7c22.7,55.1-27.1,71.8-27.1,71.8l25.1,2c-2.4,1.8,16-5.2,16-41.4C131,91.8,125.9,80,116.9,71.7z"/>
		<path class="st2" d="M82.6,52.8C80,51.6,54,73.5,49.7,95.8c-4,20.8,3.2,26.6,2.8,26.4c0-0.1,2.8-45.8,32.8-68.1
			C85.3,54.1,84.2,53.5,82.6,52.8z"/>
		<path class="st2" d="M90.8,32.9c-4.3,0.4-11.8,6.7-12.4,15.3c0,0-6-5.6,0.1-12.5C83.2,30.3,90.8,32.9,90.8,32.9z"/>
		<path class="st1" d="M87.9,71.1c1.8-5.1,14.1-29,14.1-29l-5.6-9.2l-2.9,0.1c9.2,11.3-18,37-18,56.4c0,5.7,1.4,17.2,5.5,19.3
			C81.2,108.7,84.1,81.6,87.9,71.1z"/>
		<path class="st3" d="M69.8,147.5c-5-2.3-20.3-14.5-20.3-40.7c0-30.1,32.1-53.4,32.1-53.4c-4.9-3.5-6-10.4-2.5-15.3
			c3.5-4.9,10.4-6,15.3-2.5c2.6,1.9,4.3,4.9,4.5,8.1c0,0-18.7,17.7-18.7,65.6h17.7c0-29.9,7-42.4,8.9-45.6
			c9.5,9.4,21.5,24,21.5,43.1c0,26.1-15.1,38.3-20.2,40.7l10.6-3.4c6.6-7,13.6-19.2,13.6-37.4c0-15.7-7.4-30.7-22.7-46l-3.7-3.6
			l-2.6,4.5c-5.8,9.8-9,24.8-9.4,43.6h-9.7c0.5-21.5,5-36,8.8-44.6c4.3-9.8,8.7-14.1,8.7-14.1l1.3-1.3l-0.1-1.9
			c-0.6-7.8-7.1-13.8-14.9-13.9l0,0c-8.2,0-14.9,6.7-14.9,14.9c0,3.1,0.9,6,2.7,8.5c-4.8,4-9.2,8.5-13.2,13.3
			c-11.1,13.3-17,27.3-17,40.6c0,17.8,6.8,29.8,13.3,37L69.8,147.5L69.8,147.5z"/>
		<path class="st3" d="M88.8,148.1c9,0,17.1,0.3,24.6,0.9l1.9-3.8c-7.7-0.7-16.4-1.1-26.5-1.1l0,0c-10.2,0-19,0.4-26.7,1.1l1.2,3.9
			C70.9,148.4,79.4,148.1,88.8,148.1z"/>
		
			<rect x="59.7" y="139.5" transform="matrix(0.7506 -0.6608 0.6608 0.7506 -80.0303 76.5924)" class="st3" width="3.5" height="9.7"/>
		
			<rect x="110.7" y="142.7" transform="matrix(0.7071 -0.7071 0.7071 0.7071 -68.308 124.027)" class="st3" width="9.7" height="3.5"/>
		<path class="st0" d="M124.4,148.3c4.1-3.4,9.7-10.9,9.7-23.2c0-12.1-8-21.2-13.1-26.3l-1.1-1.1l-0.8,1.3
			c-0.9,1.5-5.2,8.5-5.4,26.4h-8.1c0.3-26.6,10.6-36.6,10.7-36.7l0.4-0.4v-0.5c-0.3-4-3.6-7.1-7.6-7.1l0,0c-4.2,0-7.6,3.4-7.6,7.7
			c0,1.9,0.7,3.8,2,5.2c-3.1,2.5-6,5.3-8.6,8.4c-6.4,7.6-9.8,15.7-9.8,23.2c0,12.3,5.6,19.7,9.7,23.2"/>
		<path class="st1" d="M125.6,104.8c13.4,32.6-16,42.4-16,42.4l14.8,1.1c-1.4,1.1,9.5-3.1,9.5-24.4
			C133.9,116.6,130.9,109.7,125.6,104.8z"/>
		<path class="st2" d="M105.4,93.6c-1.6-0.7-16.9,12.2-19.4,25.4c-2.4,12.3,1.9,15.7,1.6,15.6c0-0.1,1.6-27.1,19.4-40.2
			C107,94.4,106.3,94,105.4,93.6z"/>
		<path class="st2" d="M110.2,81.9c-2.6,0.2-7,3.9-7.3,9.1c0,0-3.5-3.3,0-7.4C105.7,80.3,110.2,81.9,110.2,81.9z"/>
		<path class="st1" d="M108.5,104.4c1.1-3,8.3-17.1,8.3-17.1l-3.3-5.4h-1.7c5.4,6.7-10.6,21.9-10.6,33.3c0,3.4,0.8,10.2,3.3,11.4
			C104.5,126.6,106.2,110.6,108.5,104.4z"/>
		<path class="st3" d="M97.8,149.6c-3-1.4-12-8.6-12-24.1c0-17.8,19-31.6,19-31.6c-2.9-2.1-3.6-6.1-1.5-9c2.1-2.9,6.1-3.6,9-1.5
			c1.6,1.1,2.5,2.9,2.7,4.8c0,0-11.1,10.5-11.1,38.8h10.5c0-17.7,4.1-25,5.2-26.9c5.6,5.6,12.7,14.2,12.7,25.5
			c0,15.4-8.9,22.6-12,24.1l6.3-2c3.9-4.2,8-11.4,8-22.1c0-9.3-4.4-18.2-13.4-27.2l-2.2-2.2l-1.4,2.7c-3.4,5.8-5.3,14.7-5.6,25.8
			h-5.7c0.3-12.7,2.9-21.3,5.2-26.3c2.6-5.8,5.1-8.3,5.2-8.3l0.8-0.8l-0.1-1.1c-0.3-4.6-4.2-8.2-8.8-8.2l0,0c-4.9,0-8.8,3.9-8.9,8.8
			c0,1.8,0.5,3.6,1.6,5.1c-2.8,2.4-5.4,5-7.8,7.8c-6.6,7.8-10,16.1-10,24c0,10.5,4,17.6,7.8,21.8L97.8,149.6L97.8,149.6z"/>
		<path class="st3" d="M109,149.9c5.3,0,10.1,0.2,14.5,0.5l1.1-2.3c-4.5-0.4-9.7-0.6-15.7-0.6l0,0c-6,0-11.2,0.2-15.8,0.7l0.7,2.3
			C98.4,150.1,103.4,149.9,109,149.9z"/>
		
			<rect x="91.8" y="144.8" transform="matrix(0.7506 -0.6608 0.6608 0.7506 -74.43 98.1865)" class="st3" width="2.1" height="5.7"/>
		
			<rect x="122" y="146.7" transform="matrix(0.7071 -0.7071 0.7071 0.7071 -67.9292 131.5432)" class="st3" width="5.7" height="2.1"/>
	</g>
</g>
</svg>
