<?xml version="1.0" encoding="utf-8"?>
<!-- Generator: Adobe Illustrator 23.1.1, SVG Export Plug-In . SVG Version: 6.00 Build 0)  -->
<svg version="1.1" id="Layer_1" xmlns="http://www.w3.org/2000/svg" xmlns:xlink="http://www.w3.org/1999/xlink" x="0px" y="0px"
	 viewBox="0 0 180 180" style="enable-background:new 0 0 180 180;" xml:space="preserve">
<style type="text/css">
	.st0{fill:#040000;stroke:#040000;stroke-miterlimit:10;}
	.st1{fill:#040000;stroke:#040000;stroke-width:4;stroke-miterlimit:10;}
	.st2{fill:#B63C41;}
	.st3{fill:#040000;}
</style>
<title>j</title>
<g id="Layer_2">
	<g id="Layer_1-2">
		<path class="st0" d="M87.2,149c-3.4,0-7.6-0.1-12.5-0.4l0.2-3.7c7.5,0.6,15,0.6,22.5,0l0.4,3.7C97.6,148.6,93.8,149,87.2,149z"/>
		<path class="st1" d="M73.9,144L73.9,144c-4.9-0.6-9.7-1.7-14.4-3.3l8.9-22.1l-2.2-1.3c-8.8-5-10.9-7.2-12.7-10.8
			c-2.2-4-3.3-8.5-3.1-13c0-8.1,3.8-15.8,10.4-20.6c7.3-5.6,14.5-11.3,21.6-19.5l1.3-1.4l0.8-1.1L82,49l-0.8,1l-1.2,1.4
			c-7,8-14,13.6-21.2,19.1c-7.2,5.4-11.5,13.9-11.5,22.9c-0.2,5.1,1,10.1,3.5,14.5c2,4.1,4.5,6.6,13.9,12l-9.1,22.6L57,143
			c5.3,1.9,10.7,3.2,16.3,3.9L73.9,144L73.9,144z"/>
		<path class="st1" d="M114,143l1.5-0.5l-9.1-22.6c9-5.3,11.5-7.7,13.9-11.9c2.4-4.5,3.5-9.5,3.4-14.6c-0.3-6.7-2.4-16-11.5-22.9
			c-8-5.9-14.7-11.4-21.2-19.1l-1.2-1.4l-0.7-1l-2.4,1.7l0.8,1.1l1.3,1.5c6.7,7.9,13.5,13.5,21.6,19.5c8.1,6.2,10.1,14.6,10.3,20.6
			c0.1,4.5-0.9,9-3,13.1c-2.1,3.7-4.3,5.9-12.8,10.8l-2.2,1.3l8.9,22.1c-4.7,1.5-9.4,2.6-14.3,3.3l0.4,2.7l0.6,0.2
			C103.7,146,108.9,144.7,114,143z"/>
		<path class="st2" d="M95.4,145.9L95.4,145.9l2.5-0.3c5.6-0.8,11-2.1,16.3-3.9l-9.1-22.5l1.1-0.7c8.8-5.1,11.2-7.5,13.4-11.5
			c2.3-4.3,3.4-9.1,3.3-14c-0.2-6.4-2.3-15.4-11-22c-8.2-6-15-11.6-21.7-19.5l-1.2-1.4L88.3,49h-4.7l-0.8,1.1l-1.3,1.5
			C74.4,59.8,67.3,65.4,59.9,71c-7,5.2-11.1,13.3-11.1,22c-0.2,4.9,0.9,9.7,3.3,13.9c2,3.9,4.3,6.2,13.4,11.5l1.1,0.7l-9.1,22.6
			c5.3,1.9,10.8,3.2,16.4,3.9l2.7,0.3L95.4,145.9L95.4,145.9z"/>
		<path class="st3" d="M113.7,143.1c-5.2-1.9-10.5-3.3-15.9-4.2l-2.6-0.4c-6.1-0.6-12.2-0.7-18.4-0.4l-2.6,0.2
			c-5.5,0.6-10.9,1.7-16.1,3.4l-0.9-2.9c5.4-1.8,11.1-3,16.8-3.6l2.7-0.2c6.3-0.3,12.7-0.2,19,0.4l2.6,0.4
			c5.6,0.9,11.2,2.4,16.5,4.4L113.7,143.1z"/>
		<path class="st3" d="M106.2,121.6c-6.7-1.6-13.5-2.3-20.3-2.2c-6.8-0.1-13.7,0.6-20.3,2.2l-0.8-3.1c6.9-1.7,14.1-2.4,21.2-2.3
			c7.1-0.1,14.3,0.7,21.2,2.3L106.2,121.6z"/>
		<circle class="st2" cx="86" cy="39.3" r="10"/>
		<path class="st3" d="M86,50.8c-6.4,0-11.5-5.1-11.5-11.5S79.7,27.8,86,27.8c6.4,0,11.5,5.1,11.5,11.5S92.4,50.8,86,50.8z M86,30.8
			c-4.7,0-8.5,3.8-8.5,8.5s3.8,8.5,8.5,8.5s8.5-3.8,8.5-8.5l0,0C94.5,34.6,90.7,30.8,86,30.8z"/>
		<path class="st3" d="M82.8,99.3v-7.1l-7.3-0.1c-1.4,0.2-2.8-0.8-3-2.2c0-0.3,0-0.5,0-0.8c-0.2-1.4,0.8-2.8,2.2-3
			c0.3,0,0.5,0,0.8,0h7.3v-7.7c0-2,1.1-3.1,3.2-3.1c1.5-0.2,2.9,0.9,3.1,2.4c0,0.2,0,0.5,0,0.7V86h7.6c2,0,2.9,1,2.9,3s-1,3-2.9,3
			h-7.6v7.3c0,2.1-1.1,3.2-3.1,3.2c-1.6,0.2-3-0.9-3.2-2.4C82.8,99.8,82.8,99.5,82.8,99.3z"/>
		<path class="st0" d="M109.6,152.2c-2.2,0-4.8-0.1-7.9-0.3l0.2-2.3c4.7,0.4,9.5,0.4,14.2,0l0.2,2.3
			C116.2,152,113.8,152.2,109.6,152.2z"/>
		<path class="st1" d="M101.3,149.1L101.3,149.1c-3.1-0.4-6.1-1.1-9.1-2.1l5.6-14l-1.4-0.8c-5.5-3.2-6.9-4.6-8-6.8
			c-1.4-2.5-2.1-5.3-2-8.2c0-5.1,2.4-9.9,6.6-13c5-3.6,9.5-7.7,13.6-12.3l0.8-0.9l0.5-0.7l-1.5-1.1l-0.5,0.6l-0.8,0.9
			c-4,4.5-8.5,8.5-13.4,12.1c-4.6,3.4-7.3,8.8-7.3,14.5c-0.1,3.2,0.6,6.4,2.2,9.1c1.3,2.6,2.8,4.1,8.7,7.6l-5.8,14.3l0.9,0.3
			c3.3,1.2,6.8,2,10.3,2.5L101.3,149.1L101.3,149.1z"/>
		<path class="st1" d="M126.6,148.4l0.9-0.3l-5.8-14.3c5.7-3.3,7.2-4.9,8.7-7.5c1.5-2.8,2.2-6,2.1-9.2c-0.1-5.7-2.7-11-7.3-14.4
			c-4.9-3.4-9.4-7.5-13.4-12l-0.7-0.9l-0.4-0.6l-1.6,1.1l0.5,0.7l0.8,1c4,4.6,8.6,8.7,13.6,12.3c4,3.1,6.4,7.9,6.5,13
			c0.1,2.9-0.6,5.7-1.9,8.3c-1.3,2.3-2.7,3.7-8,6.8l-1.4,0.8l5.6,13.9c-2.9,1-5.9,1.7-9,2.1l0.2,1.7l0.4,0.2
			C120.1,150.4,123.4,149.5,126.6,148.4z"/>
		<path class="st2" d="M114.9,150.3L114.9,150.3l1.6-0.2c3.5-0.5,7-1.3,10.3-2.5l-5.7-14.2l0.7-0.4c5.6-3.2,7-4.7,8.5-7.2
			c1.4-2.7,2.1-5.8,2.1-8.8c-0.1-5.4-2.6-10.6-6.9-13.9c-5.1-3.5-9.7-7.7-13.7-12.3l-0.8-0.9l-0.5-0.7h-2.9l-0.5,0.7l-0.8,0.9
			c-4.1,4.6-8.7,8.7-13.7,12.3c-4.4,3.3-7,8.4-7,13.9c-0.1,3.1,0.6,6.1,2.1,8.8c1.2,2.5,2.7,3.9,8.5,7.2l0.7,0.4L91,147.6
			c3.3,1.2,6.8,2,10.3,2.5l1.7,0.2L114.9,150.3L114.9,150.3z"/>
		<path class="st3" d="M126.4,148.5c-3.2-1.2-6.6-2.1-10-2.7l-1.6-0.2c-3.9-0.4-7.7-0.5-11.6-0.3l-1.6,0.1
			c-3.5,0.3-6.9,1.1-10.2,2.2l-0.6-1.8c3.4-1.1,7-1.9,10.6-2.3l1.7-0.2c4-0.2,8-0.1,12,0.3l1.6,0.2c3.6,0.6,7,1.5,10.4,2.8
			L126.4,148.5z"/>
		<path class="st3" d="M121.7,134.9c-4.2-1-8.5-1.5-12.8-1.4c-4.3-0.1-8.6,0.4-12.8,1.4l-0.5-2c4.4-1,8.9-1.5,13.4-1.5
			c4.5-0.1,9,0.4,13.4,1.5L121.7,134.9z"/>
		<circle class="st2" cx="108.9" cy="83" r="6.3"/>
		<path class="st3" d="M108.9,90.2c-4,0-7.3-3.3-7.3-7.3c0-4,3.3-7.3,7.3-7.3c4,0,7.3,3.3,7.3,7.3C116.2,87,112.9,90.2,108.9,90.2
			L108.9,90.2z M108.9,77.6c-3,0-5.4,2.4-5.3,5.4c0,3,2.4,5.4,5.4,5.3c3,0,5.3-2.4,5.3-5.4l0,0C114.3,80,111.9,77.6,108.9,77.6
			C109,77.6,108.9,77.6,108.9,77.6z"/>
		<path class="st3" d="M106.9,120.9v-4.5h-4.6c-1-0.1-1.8-1-1.8-2c0.1-0.9,0.8-1.7,1.8-1.8h4.6v-4.9c-0.1-1,0.6-1.8,1.6-2
			c0.1,0,0.3,0,0.4,0c1-0.1,1.8,0.5,1.9,1.5c0,0.1,0,0.3,0,0.4v4.8h4.8c0.9-0.1,1.7,0.5,1.9,1.4c0,0.2,0,0.3,0,0.5
			c0.1,0.9-0.5,1.8-1.4,1.9c-0.1,0-0.3,0-0.5,0h-4.8v4.6c0.1,1-0.5,1.9-1.5,2c-0.2,0-0.3,0-0.5,0c-1,0.1-1.9-0.6-2-1.5
			C106.9,121.2,106.9,121,106.9,120.9z"/>
	</g>
</g>
</svg>
