<?xml version="1.0" encoding="utf-8"?>
<!-- Generator: Adobe Illustrator 23.1.1, SVG Export Plug-In . SVG Version: 6.00 Build 0)  -->
<svg version="1.1" id="Layer_1" xmlns="http://www.w3.org/2000/svg" xmlns:xlink="http://www.w3.org/1999/xlink" x="0px" y="0px"
	 viewBox="0 0 180 180" style="enable-background:new 0 0 180 180;" xml:space="preserve">
<style type="text/css">
	.st0{fill:#B63C41;}
	.st1{fill:#040000;}
</style>
<title>j</title>
<g id="Layer_2">
	<g id="Layer_1-2">
		<path class="st0" d="M58.3,122.4l0.9,0.8l1.1-0.4c7.7-2.5,15.7-3.7,23.8-3.5c8.1-0.2,16.1,1,23.8,3.5l1.2,0.4l0.9-0.8
			c11.3-10.8,15.6-21.4,12.7-31.7c-3.6-11.6-15.8-24-37.4-38L84.1,52L83,52.7C61.3,66.8,49.1,79.2,45.5,90.7l0,0
			C42.6,101,46.9,111.7,58.3,122.4z"/>
		<path class="st0" d="M107.9,125.6l-1.3-0.4c-7.2-2.4-14.8-3.6-22.4-3.3c-7.6-0.2-15.2,0.9-22.5,3.4l-1.3,0.5v1.4
			c-0.2,4.3-1,8.6-2.5,12.6l-0.8,2.6h54.1l-0.9-2.6c-1.4-4.1-2.2-8.3-2.4-12.6V125.6z"/>
		<path class="st0" d="M84.1,36.4c3.7,0,5.6,1.5,5.5,4.7c0.1,3.8-1.7,5.7-5.5,5.7s-5.7-1.9-5.5-5.7C78.5,38,80.3,36.4,84.1,36.4z"/>
		<polygon class="st1" points="88.1,108.2 88.1,94 96.3,94 96.3,86.4 88.1,86.4 88.1,77.5 80,77.5 80,86.4 71.9,86.4 71.9,94 80,94 
			80,108.2 		"/>
		<path class="st1" d="M116.4,71.7c-4.9-5.3-13.7-12.3-26.7-21.1c1.8-1.3,6.4-3.7,6.4-9.9c0-6.6-5.5-11.5-12.1-11.5
			c-6.8,0-12.1,4.9-12.1,11.5c0,6.2,4.5,8.6,6.4,9.9c-12.9,8.8-21.9,15.8-26.8,21.1c-4.4,4.7-7.9,10.2-10.1,16.3
			c-4.8,13.6,1.4,24.7,14.4,38.3c-0.4,7-2.5,13.7-6.2,19.6h17.7l0,0H74l0,0h5l0,0h10.1l0,0h5v0h6.5v0h17.8
			c-3.6-5.9-5.8-12.7-6.2-19.6c6.5-6.8,11.2-13.2,13.9-19.2C131.5,95.2,126,82.4,116.4,71.7z M59.8,139.7L59.8,139.7
			c1.5-4.3,2.3-8.7,2.5-13.2c7-2.4,14.4-3.5,21.8-3.2c7.4-0.2,14.8,0.9,21.8,3.3c0.2,4.5,1,9,2.5,13.2L59.8,139.7z M108.5,120.4
			c-7.9-2.6-16.1-3.8-24.4-3.6c-8.3-0.2-16.6,1-24.4,3.6c-10.9-10.3-14.9-20.2-12.2-29.7C50.7,79.7,63,67.4,84,53.7
			c21,13.6,33.2,25.9,36.6,37C123.3,100.3,119.3,110.2,108.5,120.4z"/>
		<path class="st0" d="M93.7,135.2l0.6,0.6l0.8-0.3c5.1-1.7,10.4-2.5,15.8-2.4c5.4-0.1,10.7,0.7,15.8,2.3l0.8,0.3l0.6-0.6
			c7.5-7.1,10.3-14.2,8.4-21c-2.4-7.7-10.5-16-24.9-25.3l-0.7-0.5l-0.7,0.5c-14.4,9.3-22.5,17.6-24.9,25.2l0,0
			C83.3,121,86.1,128,93.7,135.2z"/>
		<path class="st0" d="M126.6,137.3l-0.9-0.3c-4.8-1.6-9.8-2.4-14.9-2.2c-5.1-0.1-10.1,0.6-14.9,2.2l-0.9,0.3v0.9
			c-0.1,2.9-0.7,5.7-1.6,8.4l-0.5,1.7h35.9l-0.6-1.8c-1-2.7-1.5-5.5-1.6-8.4L126.6,137.3z"/>
		<path class="st0" d="M110.9,78.1c2.4,0,3.7,1,3.6,3.1c0.1,2.5-1.1,3.8-3.6,3.8s-3.8-1.2-3.7-3.8C107.2,79.1,108.3,78.1,110.9,78.1
			z"/>
		<polygon class="st1" points="113.5,125.7 113.5,116.4 118.9,116.4 118.9,111.3 113.5,111.3 113.5,105.4 108.2,105.4 108.2,111.3 
			102.8,111.3 102.8,116.4 108.2,116.4 108.2,125.7 		"/>
		<path class="st1" d="M132.3,101.5c-3.2-3.5-9.1-8.2-17.7-14c1.2-0.8,4.3-2.4,4.3-6.5c-0.1-4.3-3.6-7.7-7.9-7.6c0,0-0.1,0-0.1,0
			c-4.5,0-8,3.2-8,7.6c0,4.1,3,5.7,4.3,6.5c-8.6,5.8-14.6,10.5-17.8,14c-2.9,3.1-5.2,6.8-6.7,10.8c-3.2,9,0.9,16.4,9.6,25.4
			c-0.3,4.6-1.7,9.1-4.1,13h16.1l0,0h3.3l0,0h10l0,0h4.4l0,0h11.7c-2.4-3.9-3.8-8.4-4.1-13c3.8-3.7,6.9-8,9.2-12.7
			C142.3,117.1,138.7,108.6,132.3,101.5z M94.7,146.6L94.7,146.6c1-2.8,1.5-5.8,1.7-8.8c4.7-1.6,9.6-2.3,14.5-2.2
			c4.9-0.1,9.8,0.6,14.4,2.2c0.1,3,0.7,5.9,1.7,8.8H94.7z M127,133.9c-5.2-1.7-10.7-2.5-16.2-2.4c-5.5-0.1-11,0.7-16.2,2.4
			c-7.3-6.8-10-13.4-8.1-19.7c2.2-7.3,10.3-15.5,24.3-24.5c13.9,9,22,17.2,24.3,24.6C136.9,120.5,134.2,127.1,127,133.9z"/>
	</g>
</g>
</svg>
