<svg xmlns="http://www.w3.org/2000/svg" viewBox="0 0 180 180"><defs><style>.cls-1{fill:#b63c41;}.cls-2{fill:#fff;}.cls-2,.cls-3{opacity:0.2;isolation:isolate;}.cls-3{fill:#040000;}.cls-4{fill:#1a1a1a;}</style></defs><title>s</title><g id="Layer_2" data-name="Layer 2"><g id="Layer_1-2" data-name="Layer 1"><path class="cls-1" d="M23.92,3.85c-1,8.58-5.74,48.89-7,58.44C2.46,65.71,2.48,75.23,2.51,86.21v3.62H104.09V86.21c0-11,.06-20.5-14.46-23.92-1.2-9.55-5.94-49.86-6.95-58.44"/><path class="cls-2" d="M53.31,67.78c43.07,0,47.54,4.75,47.54,4.75h.59C99.51,62.35,77,61.23,77,61.23H29.84S6.48,62,5.18,72.53h.59S10.24,67.78,53.31,67.78Z"/><path class="cls-3" d="M32.05,3.84s21.37-1.3,32.3,12.42,12,43.37,12,43.37c7.16,1.33,12.49,2.8,12.49,2.8L82.11,5"/><path class="cls-4" d="M103.49,70.76c-2.2-4.67-6.21-7.71-12.51-9.45-1.35-10.88-5.36-45-6.6-55.54l.05,0L81.56,2.54A232.09,232.09,0,0,0,52.84,0,235.35,235.35,0,0,0,24.17,2.52L21,5.67l.22.1C20,16.31,16,50.43,14.65,61.31,8.34,63.05,4.33,66.09,2.14,70.76S0,80.67,0,86.83v5.62H105.62V86.83C105.64,80.68,105.65,75.36,103.49,70.76ZM25.25,6.42h0A230.14,230.14,0,0,1,52.84,4,229.62,229.62,0,0,1,80.43,6.41c1.21,10.31,4.93,41.88,6.41,54-.69-.12-1.4-.23-2.14-.32a253,253,0,0,0-31.86-1.68A255.12,255.12,0,0,0,21,60.1c-.75.09-1.45.2-2.14.32C20.32,48.3,24,16.73,25.25,6.42Zm76.37,82,0,0H4.06c0-11.85-.67-20.31,12.69-23.53l.34-.09,1-.21c1-.22,2.16-.4,3.37-.56a253.14,253.14,0,0,1,31.38-1.62A252.74,252.74,0,0,1,84.2,64.06c1.18.15,2.28.34,3.31.54l1.1.24h.23C102.29,68.1,101.62,76.58,101.62,88.45Z"/></g></g></svg>