<svg xmlns="http://www.w3.org/2000/svg" viewBox="0 0 180 180"><defs><style>.cls-1{fill:#b63c41;}.cls-2{fill:#040000;}</style></defs><title>s</title><g id="Layer_2" data-name="Layer 2"><g id="Layer_1-2" data-name="Layer 1"><polyline class="cls-1" points="27.82 1.5 27.82 41.83 13.85 55.8 13.85 73.42 1.35 73.42 1.35 89.94 109.86 89.94 109.86 73.42 97.36 73.42 97.36 55.79 83.48 41.82 83.48 1.5"/><polygon class="cls-2" points="99 72.28 99 55.53 85.12 41.53 85.12 2.76 82.16 0.98 82.12 1.02 82.12 42.67 96 56.67 96 75.18 108.5 75.18 108.5 88.7 3 88.7 3 75.24 15.46 75.24 15.46 56.74 29.46 42.74 29.46 1.05 29.29 0.92 26.41 2.36 26.5 2.43 26.5 41.43 12.5 55.43 12.5 72.18 0 72.18 0 91.7 111.5 91.7 111.5 72.28 99 72.28"/><rect class="cls-2" x="27.82" width="55.65" height="3"/><rect class="cls-2" x="27.82" y="40.33" width="55.65" height="3"/><rect class="cls-2" x="13.86" y="54.3" width="83.51" height="3"/><rect class="cls-2" x="13.86" y="71.92" width="83.51" height="3"/></g></g></svg>