<?xml version="1.0" encoding="utf-8"?>
<!-- Generator: Adobe Illustrator 23.1.1, SVG Export Plug-In . SVG Version: 6.00 Build 0)  -->
<svg version="1.1" id="Layer_1" xmlns="http://www.w3.org/2000/svg" xmlns:xlink="http://www.w3.org/1999/xlink" x="0px" y="0px"
	 viewBox="0 0 180 180" style="enable-background:new 0 0 180 180;" xml:space="preserve">
<style type="text/css">
	.st0{fill:#B63C41;}
	.st1{opacity:0.2;}
	.st2{fill:#FFFFFF;}
	.st3{fill:#1A1A1A;}
	.st4{opacity:0.2;fill:#040000;enable-background:new    ;}
	.st5{opacity:0.2;fill:#FFFFFF;enable-background:new    ;}
	.st6{fill:#B63C41;stroke:#040000;stroke-width:2;stroke-miterlimit:10;}
</style>
<title>v</title>
<g id="Layer_2">
	<g id="Layer_1-2">
		<path class="st0" d="M122,70.3c0.7-0.4,1.7-0.9,2.7-1.4c4.3-2.2,10.2-5.3,13.3-8.2c7.1-6.8,11-14.7,11.2-23
			c0.1-7-2.3-13.8-6.7-19.2l0.2-8.8V9.2l-0.3-0.3c-1.2-1-2.9-1.1-4.2-0.2l-3,1.8c-1.6,0.6-3.2,0.6-5.5,0.3c-1.8-0.2-3.6,0.1-5.3,0.8
			l-0.2,0.1c-1.2,0.5-2.1,0.9-3,1.3c-2.1,1.1-4.4,1.9-6.8,2.2l-10,1.3c-2.8,0.1-5,2.5-4.9,5.3c0.1,2.7,2.7,7.5,3.9,8.7
			c0.3,0.3,0.7,0.6,1.1,0.6c1,0,2.1-0.1,3.1-0.3c2.1-0.4,3.7-0.7,5.7,1.5c3,3.2,8.6,3.2,11.2,3.2l0,0l1.7-0.1
			c-0.4,1.8-1.5,3.3-3,4.2c-0.8,0.4-1.7,0.7-2.6,0.8c-1.9,0.2-3.8,0.2-5.7-0.2h-0.1c-4.8-0.6-12.8-1.7-18.7,2.4"/>
		<g class="st1">
			<path class="st2" d="M134.2,14.9c4.6,1.2,7.5-5.3,7.5-5.3c-0.8-0.9-2.2-1.1-3.2-0.4l-3.1,1.9c-1.7,0.7-3.4,0.6-5.8,0.3
				c-1.7-0.2-3.5,0-5,0.7l-0.2,0.1c-1.1,0.5-2.1,0.9-2.9,1.3c-2.2,1.1-4.5,1.9-7,2.3l-10,1.4h-0.3c-1.5-0.1-2.8,0.9-3.2,2.3
				c0,0,15.2-1.2,17.3-1.4C121.9,17.7,125.3,12.6,134.2,14.9z"/>
		</g>
		<path class="st3" d="M131.1,18.6c-2.6-1.2-6.4,1.4-6.4,1.4c3.4,0.3,2.4,3,5.6,3.5C133,23.9,133.6,19.8,131.1,18.6z"/>
		<path class="st4" d="M133.4,33.1c-1.9,0.5-6.1,1.3-6.1,1.3s-0.7,0.3-1.7,0.8c0,0,0.8,0.7-1.5,3.1c-0.6,0.6-2.5,3-1.2,2.5
			c3.8-1.5,7.8-3.8,8.9-4.9C133.1,35,135.3,32.6,133.4,33.1z"/>
		<path class="st4" d="M141.4,18.9c0,0,12.3,16.7-2,30.3c-9.6,9.1-18.3,5.2-26.3,9.6c0,0,6.6,7.1,8.1,11.7c0,0,12.3-5.3,17.7-10.4
			C144.3,54.9,157.2,34.7,141.4,18.9z"/>
		<path class="st4" d="M115.3,33.1c-1.5-4.9-0.4-7.6-5.4-5.2c-4.9,2.3-7.3,1-6.5,2.6c0.8,1.6,6.5-0.8,7.6,0.3
			C112.1,31.8,115.9,34.9,115.3,33.1z"/>
		<path class="st3" d="M113.9,42.2c2,0.3,4,0.4,6,0.2c1-0.2,2-0.5,2.9-0.9c3-1.5,3.6-5,3.8-6.2l-3,0.1c-2.8,0-7.8-0.1-10.5-2.9
			c-3.5-3.7-6.2-1.3-9.5-1.5c-0.2-0.1-0.3-0.2-0.4-0.3c-1.1-1.2-3.5-5.7-3.6-8.1c-0.1-2.3,1.7-4.2,4-4.2l10.1-1.4
			c4.6-0.7,6.2-2,10-3.6c1.5-0.8,3.3-1,5-0.8c2.5,0.3,4.2,0.4,6.1-0.4l3.1-1.8c0.9-0.6,2.1-0.5,2.9,0.1l0,0l0,0l-0.2,9.2
			c8.1,9.9,11.2,26.6-4.1,41.1c-4,3.8-13.4,8.1-16.4,9.8l2.5,1c0,0,0,0,0-0.1l1.9-1c4.3-2.3,10.3-5.4,13.4-8.3
			c15.4-14.6,13.6-32.1,4.8-43.2l0.1-8.5V9.6L142.3,9c-1.5-1.4-3.7-1.6-5.4-0.5l0,0l-2.9,1.8c-1.4,0.5-2.8,0.4-5,0.2
			c-2-0.3-4,0-5.8,0.8l-0.2,0.1c-1.2,0.6-2.2,1-3,1.4c-2.1,1.1-4.3,1.8-6.6,2.1l-10,1.4c-3.3,0.2-5.9,3-5.8,6.3c0.2,3,2.8,8,4.1,9.4
			c0.5,0.5,1.1,0.9,1.8,0.9c1.1,0,2.2-0.1,3.3-0.3c2-0.4,3.1-0.6,4.8,1.2c3.3,3.5,9.1,3.5,11.9,3.5h0.3c-0.4,1-1.1,1.7-2,2.3
			c-0.7,0.4-1.5,0.6-2.2,0.7c-1.8,0.2-3.6,0.1-5.4-0.2h-0.1c-4.8-0.6-12.6-1.7-18.8,2.1v2.5C100.9,40.4,109.2,41.6,113.9,42.2z"/>
		<path class="st0" d="M68.8,28.5h-0.7c-2.3,0-4.5,2.1-5.1,4.7l-1.2,5.7c-1.1,2.6-2.9,4.4-5.9,6.9c-2.3,1.9-4,4.4-5,7.2l-0.1,0.3
			c-0.7,1.9-1.3,3.6-1.8,5c-1.1,3.8-2.8,7.4-5.1,10.6l-9.7,13.6c-3,3.7-2.7,8.9,0.8,11.8c3.4,2.9,11.9,5.2,14.8,5.2
			c0.7,0.1,1.4-0.2,2-0.6c1.2-1.2,2.2-2.6,3.1-4c1.9-3,3.3-5.1,8.2-5.2c7.2,0,13.5-6.6,16.5-9.7l0,0l1.8-2.1
			c1.2,1.9,2.6,5.1,1.7,8.4c-0.4,1.4-1.1,2.8-1.9,4c-1.9,2.5-4.1,4.7-6.6,6.6L74.4,97c-6.2,5-16.6,13.4-18.3,25.1
			c-11,3-11,10.7-11,19.6v3h84.2v-3c0-8.9,0-16.6-11-19.6c0.3-1.3,0.8-3,1.4-4.9c2.2-7.7,5.2-18.1,5.2-25c0-16.2-5.1-29.8-14.8-39.3
			c-8.2-8-19-12.8-30.4-13.7L69.3,29L68.8,28.5z"/>
		<path class="st5" d="M87.6,126.4c35.7,0,39.4,3.9,39.4,3.9h0.5c-1.6-8.4-20.3-9.4-20.3-9.4h-39c0,0-19.3,0.7-20.4,9.4h0.5
			C48.2,130.3,51.9,126.4,87.6,126.4z"/>
		<g class="st1">
			<path class="st2" d="M66,45c6.7-4.1,2.2-14.9,2.2-14.9c-2,0-3.7,1.4-4.1,3.3l-1.2,5.7c-1.2,2.8-3.1,4.7-6.2,7.3
				c-2.2,1.8-3.9,4.2-4.8,6.8l-0.1,0.3c-0.7,1.9-1.3,3.5-1.8,5c-1.1,3.9-2.9,7.5-5.2,10.8l-9.6,13.6c-0.1,0.1-0.2,0.3-0.4,0.4
				c-1.8,1.6-2.2,4.3-0.8,6.4c0,0,15.8-19.4,17.8-22.1C55.5,62.8,53.2,53,66,45z"/>
		</g>
		<path class="st3" d="M66.9,52.9c-4.3,1.8-5.5,9.2-5.5,9.2c4.2-3.7,6.2,0.5,10.4-2.8C75.4,56.6,71.2,51.2,66.9,52.9z"/>
		<path class="st4" d="M86.9,66.4c-1.5,2.9-5.2,8.8-5.2,8.8s-0.4,1.2-0.9,2.9c0,0,1.7-0.2,2,5.3c0.1,1.4,0.8,6.4,1.7,4.3
			c2.5-6.2,4.3-13.6,4.3-16.1C88.7,69,88.4,63.6,86.9,66.4z"/>
		<path class="st4" d="M78.9,40.8c0,0,33.8,4.2,33.8,36.5c0,21.6-14.4,27.7-18.2,42.2c0,0,16,0.1,23.1,3.5c0,0,7.6-20.6,7.6-32.8
			C125.1,77.8,115.7,39.9,78.9,40.8z"/>
		<path class="st4" d="M66.4,88.1c-7.5-3.7-9.4-8.1-12.3,0.6c-2.8,8.4-7.1,9.9-4.2,10.8c2.9,0.9,6.4-8.7,8.9-8.8
			C61.3,90.6,69.2,89.5,66.4,88.1z"/>
		<path class="st3" d="M68.1,30.2l10.7,10.7c20.9,1.4,44.3,16.6,44.3,51.3c0,9.2-5.8,26.1-6.9,31.1c11.9,2.5,11.3,9.6,11.3,19.7
			H46.9c0-9.9-0.6-17,10.8-19.6c1.1-11.8,11.9-20.3,18-25.3c2.6-2,5-4.3,7-7c0.9-1.4,1.7-2.9,2.1-4.4c1.5-5.3-1.9-10-3.1-11.5
			l-3.2,3.7c-3.2,3.4-8.9,9.2-15.3,9.2c-8.3,0-8.5,5.9-12.4,9.6c-0.2,0.1-0.5,0.2-0.8,0.2c-2.7,0-10.7-2.2-13.8-4.8
			c-2.7-2.3-3-6.5-0.5-9.6l9.7-13.6c4.3-6.3,4.5-9.6,7-16c0.8-2.7,2.5-5.1,4.7-6.9c3.2-2.6,5.2-4.6,6.4-7.7l1.2-5.8
			C65.1,31.8,66.7,30.2,68.1,30.2 M69.5,26.9h-1.4c-3,0-5.9,2.6-6.7,6v0.1l-1.2,5.5c-1,2.2-2.6,3.8-5.4,6.1c-2.5,2-4.5,4.8-5.5,7.9
			l-0.1,0.3c-0.8,1.9-1.3,3.6-1.8,5.1c-1,3.7-2.7,7.1-4.9,10.2L33,81.6c-3.6,4.4-3.1,10.6,1,14.1c3.8,3.2,12.7,5.6,15.9,5.6
			c1.2,0.1,2.3-0.3,3.1-1.1c1.3-1.3,2.4-2.7,3.3-4.3c1.8-2.8,2.8-4.4,6.8-4.4c7.9,0,14.5-6.9,17.7-10.3l0.1-0.1l0-0.1l0.2-0.2
			c0.7,1.6,0.8,3.3,0.4,5c-0.4,1.2-0.9,2.4-1.7,3.5c-1.8,2.4-3.9,4.5-6.3,6.3l-0.2,0.1c-6.2,5.1-16.4,13.3-18.7,25.1
			c-4.8,1.5-7.9,4.1-9.6,7.9c-1.6,3.8-1.7,8-1.6,13v4.6H131v-4.6c0-5,0-9.4-1.7-13.2c-1.7-3.6-4.5-6-8.9-7.5c0.3-1,0.6-2.1,0.9-3.3
			c2.2-7.8,5.2-18.4,5.2-25.5c0-34.9-23-52.4-46.2-54.5l-9.9-9.8L69.5,26.9L69.5,26.9z"/>
		<path class="st3" d="M87.6,121.4c8.7-0.1,17.4,0.4,26,1.4c1.4,0.2,2.9,0.5,4.3,0.8l0.5-3.3c-1.5-0.4-2.9-0.6-4.4-0.8
			c-8.8-1-17.6-1.5-26.4-1.4l0,0c-8.8-0.1-17.6,0.4-26.4,1.4c-1.6,0.2-3.1,0.5-4.6,0.8l0.7,3.2c1.4-0.4,2.9-0.6,4.4-0.8
			C70.2,121.7,78.9,121.3,87.6,121.4z"/>
		<rect x="32" y="144.3" class="st6" width="110.9" height="10.3"/>
		<polygon class="st6" points="38.4,171.9 45.2,155.2 31.5,155.2 		"/>
		<polygon class="st6" points="52.3,172 59.2,155.2 45.4,155.2 		"/>
		<polygon class="st6" points="66.6,172.1 73.5,155.4 59.7,155.4 		"/>
		<polygon class="st6" points="80.6,172.2 87.4,155.4 73.7,155.4 		"/>
		<polygon class="st6" points="94.4,171.9 101.3,155.2 87.6,155.2 		"/>
		<polygon class="st6" points="108.3,172 115.1,155.2 101.4,155.2 		"/>
		<polygon class="st6" points="122.7,172.1 129.5,155.4 115.8,155.4 		"/>
		<polygon class="st6" points="136.5,172.2 143.4,155.4 129.6,155.4 		"/>
	</g>
</g>
</svg>
