<svg xmlns="http://www.w3.org/2000/svg" viewBox="0 0 180 180"><defs><style>.cls-1,.cls-9{fill:#b63c41;}.cls-2,.cls-5{opacity:0.2;}.cls-3,.cls-6{fill:#fff;}.cls-4{fill:#1a1a1a;}.cls-5,.cls-8{fill:#040000;}.cls-5,.cls-6,.cls-8{isolation:isolate;}.cls-6,.cls-7,.cls-8{opacity:0.2;}.cls-9{stroke:#040000;stroke-miterlimit:10;stroke-width:2px;}</style></defs><title>v</title><g id="Layer_2" data-name="Layer 2"><g id="Layer_1-2" data-name="Layer 1"><path class="cls-1" d="M113.37,75.43c.88-.49,2-1.08,3.3-1.75,5.19-2.7,12.3-6.4,16-9.87C141.3,55.62,146,46,146.17,36a36,36,0,0,0-8.09-23.17l.29-10.66V1.69L138,1.32A4.28,4.28,0,0,0,133,1l-3.65,2.23c-1.94.73-3.85.68-6.66.33a11.61,11.61,0,0,0-6.39,1l-.25.1c-1.39.56-2.56,1.11-3.59,1.58a26.42,26.42,0,0,1-8.25,2.67L92.06,10.54a6.21,6.21,0,0,0-5.93,6.38c.18,3.3,3.24,9,4.7,10.56a2.08,2.08,0,0,0,1.36.74,14.79,14.79,0,0,0,3.69-.39c2.56-.48,4.42-.82,6.92,1.79,3.65,3.86,10.33,3.88,13.53,3.89h0l2-.09a7.78,7.78,0,0,1-3.64,5.11,9.91,9.91,0,0,1-3.08,1,24.48,24.48,0,0,1-6.89-.19l-.15,0c-5.84-.78-15.52-2.09-22.64,2.9"/><g class="cls-2"><path class="cls-3" d="M128.11,8.53c5.59,1.47,9.06-6.39,9.06-6.39a3.05,3.05,0,0,0-3.86-.54l-3.68,2.25c-2.08.79-4.07.75-7,.39a10.93,10.93,0,0,0-6.07.9l-.25.11c-1.37.55-2.48,1.07-3.55,1.56a27.41,27.41,0,0,1-8.4,2.73L92.21,11.27h-.39A3.64,3.64,0,0,0,88,14.07s18.33-1.39,20.83-1.67C113.35,11.9,117.38,5.7,128.11,8.53Z"/></g><path class="cls-4" d="M124.36,13c-3.13-1.42-7.69,1.7-7.69,1.7,4.09.4,2.87,3.61,6.76,4.17C126.7,19.39,127.43,14.42,124.36,13Z"/><path class="cls-5" d="M127.23,30.51c-2.31.66-7.33,1.62-7.33,1.62s-.83.39-2,1c0,0,1,.82-1.79,3.76-.72.77-3,3.66-1.46,3.06,4.57-1.77,9.45-4.59,10.78-5.88S129.53,29.85,127.23,30.51Z"/><path class="cls-5" d="M136.85,13.28s14.85,20.19-2.43,36.53c-11.57,10.94-22.07,6.3-31.78,11.6,0,0,8,8.62,9.82,14.1,0,0,14.83-6.34,21.34-12.5C140.46,56.71,156,32.47,136.85,13.28Z"/><path class="cls-5" d="M105.31,30.49c-1.84-5.9-.44-9.14-6.56-6.29-5.93,2.75-8.86,1.21-7.88,3.18s7.86-.94,9.21.32S106,32.7,105.31,30.49Z"/><path class="cls-4" d="M103.66,41.45a25.53,25.53,0,0,0,7.25.19,11.33,11.33,0,0,0,3.45-1.11c3.58-1.86,4.39-6.08,4.56-7.48l-3.56.16c-3.41,0-9.4-.09-12.66-3.52-4.23-4.43-7.45-1.59-11.44-1.76a1,1,0,0,1-.51-.36c-1.37-1.44-4.22-6.84-4.37-9.78a5,5,0,0,1,4.85-5.11L103.41,11c5.55-.86,7.44-2.46,12.09-4.33a10.65,10.65,0,0,1,6-1c3,.37,5.11.44,7.35-.44L132.61,3a3.12,3.12,0,0,1,3.56.14v0h0l-.3,11.1c9.82,11.9,13.51,32.1-5,49.64-4.79,4.53-16.22,9.78-19.81,11.88l3.06,1.22,0-.09,2.24-1.17c5.26-2.74,12.45-6.48,16.25-10.07,18.61-17.64,16.39-38.75,5.8-52.22l.26-10.24,0-1-.71-.74a5.42,5.42,0,0,0-6.57-.58l0,0L127.8,3c-1.68.59-3.36.54-6,.22a12.66,12.66,0,0,0-7,1l-.25.1C113.15,5,112,5.5,110.93,6A25.2,25.2,0,0,1,103,8.56L90.94,10.25a7.39,7.39,0,0,0-7,7.65c.2,3.68,3.43,9.63,5,11.33a3.21,3.21,0,0,0,2.18,1.12,16.12,16.12,0,0,0,4-.41c2.42-.46,3.75-.71,5.81,1.43,4,4.24,11,4.26,14.41,4.27h.36a5.8,5.8,0,0,1-2.45,2.73,8.62,8.62,0,0,1-2.7.87A23.26,23.26,0,0,1,104,39l-.15,0c-5.81-.77-15.27-2-22.68,2.59l0,3C88,39.29,98,40.71,103.66,41.45Z"/><path class="cls-1" d="M46.18,23.43h-.83c-2.72,0-5.43,2.48-6.16,5.64L37.74,36c-1.32,3.14-3.54,5.36-7.13,8.32A19.11,19.11,0,0,0,24.55,53l-.17.42c-.9,2.29-1.56,4.3-2.16,6.07A43.52,43.52,0,0,1,16.11,72.3L4.48,88.68C.86,93.19,1.26,99.44,5.4,103s14.4,6.3,17.9,6.3a3.33,3.33,0,0,0,2.42-.78,24.61,24.61,0,0,0,3.7-4.85c2.31-3.6,4-6.2,9.93-6.23,8.73,0,16.28-8,19.91-11.76h0l2.18-2.52c1.46,2.33,3.14,6.13,2,10.11A16.42,16.42,0,0,1,61.14,98a40.16,40.16,0,0,1-8,8l-.19.16c-7.52,6.08-20,16.15-22.08,30.28-13.33,3.64-13.3,12.93-13.27,23.62v3.61H119.21v-3.6c0-10.69.06-20-13.28-23.63.41-1.59,1-3.64,1.64-5.9,2.63-9.24,6.24-21.9,6.24-30.2,0-19.56-6.19-36-17.89-47.47A59,59,0,0,0,59.16,36.39L46.77,24Z"/><path class="cls-6" d="M68.82,141.59c43.07,0,47.54,4.75,47.54,4.75H117C115,136.16,92.46,135,92.46,135H45.35s-23.36.81-24.66,11.3h.59S25.75,141.59,68.82,141.59Z"/><g class="cls-7"><path class="cls-3" d="M42.75,43.39c8.06-5,2.6-18,2.6-18a5,5,0,0,0-5,4l-1.46,6.92c-1.41,3.38-3.71,5.7-7.46,8.8a18.12,18.12,0,0,0-5.76,8.26l-.16.42c-.89,2.26-1.52,4.17-2.14,6a44.32,44.32,0,0,1-6.22,13.1L5.53,89.32c-.15.15-.3.31-.44.47a6,6,0,0,0-1,7.74s19-23.45,21.51-26.74C30.11,64.81,27.27,53,42.75,43.39Z"/></g><path class="cls-4" d="M43.89,53C38.66,55.09,37.25,64,37.25,64c5.08-4.42,7.53.65,12.59-3.36C54.11,57.34,49,50.85,43.89,53Z"/><path class="cls-8" d="M68,69.25c-1.82,3.49-6.33,10.57-6.33,10.57s-.47,1.43-1,3.46c0,0,2.08-.23,2.47,6.39.1,1.72.93,7.76,2,5.18,3-7.44,5.18-16.44,5.14-19.49S69.79,65.76,68,69.25Z"/><path class="cls-8" d="M58.28,38.33S99.11,43.4,99.11,82.44c0,26.14-17.38,33.44-22,51,0,0,19.33.15,27.88,4.19,0,0,9.18-24.84,9.18-39.56C114.16,83,102.72,37.18,58.28,38.33Z"/><path class="cls-8" d="M43.23,95.38c-9.11-4.47-11.41-9.79-14.91.72-3.4,10.18-8.55,11.93-5.09,13S31,98.65,34,98.46,46.64,97.05,43.23,95.38Z"/><path class="cls-4" d="M45.35,25.43l12.93,12.9c25.26,1.71,53.53,20.1,53.53,62,0,11.12-7,31.49-8.29,37.57,14.39,3,13.69,11.63,13.69,23.76H19.65c0-12-.68-20.47,13.08-23.63,1.38-14.19,14.38-24.54,21.72-30.52a41.27,41.27,0,0,0,8.41-8.44,18.21,18.21,0,0,0,2.57-5.37c1.82-6.37-2.3-12.09-3.78-13.88l-3.83,4.43C54,88.3,47.11,95.36,39.34,95.39c-10.05,0-10.29,7.09-15,11.65a1.65,1.65,0,0,1-1,.21c-3.27,0-12.92-2.68-16.61-5.82-3.22-2.74-3.64-7.82-.62-11.54l11.7-16.46c5.23-7.6,5.46-11.65,8.48-19.32a17.46,17.46,0,0,1,5.64-8.3c3.81-3.15,6.28-5.61,7.77-9.27l1.48-7c.5-2.16,2.39-4.09,4.21-4.09m1.66-4h-1.7c-3.68,0-7.16,3.09-8.11,7.19v.08l-1.39,6.64C34.67,38,32.71,40,29.36,42.75a21,21,0,0,0-6.66,9.51l-.16.41c-.92,2.34-1.6,4.37-2.19,6.17a41.55,41.55,0,0,1-5.86,12.34L2.88,87.48c-4.25,5.35-3.77,12.79,1.23,17,4.6,3.91,15.36,6.77,19.2,6.77a5.29,5.29,0,0,0,3.8-1.34,27.34,27.34,0,0,0,4-5.21c2.18-3.41,3.38-5.28,8.25-5.31C48.94,99.39,56.89,91,60.71,87l.07-.07.06-.07.27-.29a9.3,9.3,0,0,1,.49,6,13.94,13.94,0,0,1-2,4.21A38.11,38.11,0,0,1,52,104.38l-.19.16C44.25,110.64,32,120.6,29.2,134.81c-5.78,1.84-9.58,5-11.57,9.54s-2,9.68-1.94,15.66v5.6H121.21V160c0-6.07,0-11.32-2-15.88-2-4.32-5.44-7.28-10.8-9.1.33-1.2.71-2.56,1.13-4,2.66-9.36,6.31-22.17,6.31-30.75,0-42.1-27.74-63.26-55.74-65.82L48.18,22.6,47,21.43Z"/><path class="cls-4" d="M68.82,135.59a252.74,252.74,0,0,1,31.36,1.65,44.94,44.94,0,0,1,5.17,1l.66-4a47.93,47.93,0,0,0-5.32-1,255.07,255.07,0,0,0-31.87-1.69h0A255.12,255.12,0,0,0,37,133.24a48,48,0,0,0-5.58,1l.82,3.91a44.74,44.74,0,0,1,5.26-1A252.77,252.77,0,0,1,68.82,135.59Z"/><polygon class="cls-9" points="25.3 182.64 33.8 165.82 16.81 165.82 25.3 182.64"/><polygon class="cls-9" points="42.56 182.67 51.06 165.84 34.07 165.84 42.56 182.67"/><polygon class="cls-9" points="60.25 182.84 68.74 166.01 51.75 166.01 60.25 182.84"/><polygon class="cls-9" points="77.5 182.87 86 166.04 69.01 166.04 77.5 182.87"/><polygon class="cls-9" points="94.63 182.66 103.12 165.83 86.13 165.83 94.63 182.66"/><polygon class="cls-9" points="111.75 182.69 120.25 165.86 103.26 165.86 111.75 182.69"/></g></g></svg>