<?xml version="1.0" encoding="utf-8"?>
<!-- Generator: Adobe Illustrator 23.1.1, SVG Export Plug-In . SVG Version: 6.00 Build 0)  -->
<svg version="1.1" id="Layer_1" xmlns="http://www.w3.org/2000/svg" xmlns:xlink="http://www.w3.org/1999/xlink" x="0px" y="0px"
	 viewBox="0 0 180 180" style="enable-background:new 0 0 180 180;" xml:space="preserve">
<style type="text/css">
	.st0{fill:#B63C41;}
	.st1{fill:#040000;}
	.st2{fill:#B63C41;stroke:#040000;stroke-width:2;stroke-miterlimit:10;}
</style>
<title>v</title>
<g id="Layer_2">
	<g id="Layer_1-2">
		<path class="st0" d="M140,17.4c-0.1-2.4-0.6-4.7-1.5-6.9c-1.8,1.6-3.3,3.6-4.4,5.7l-0.1,0.3h-0.3c-0.3,0-0.7,0-1,0h-0.1
			c-0.2,0-0.3,0-0.5,0c-0.4,0-0.8,0.1-1.2,0.2c-0.1,0-0.5,0.1-0.9,0.2c-1.2,0.3-2.2,1-3,1.9l0,0c-1.2,1-3.9,1.6-7.3,2.3
			c-2.8,0.6-4.8,0.8-5.8,1.7c-0.7,0.6-1.3,1.4-1.7,2.2c-0.8,1.7-0.8,3.6-0.1,5.3l1.6,0.5c0.1,1,0.4,1.9,1,2.7
			c0.9,0.9,3.9,0.5,4.6,0.3c0.9-0.6,2-0.9,3-1c1.8,0,3.1,1.1,5.3,2.2c1.4,0.7,3,0.9,4.5,0.7c-1.1,1.1-2.3,2.1-3.7,2.8
			c-2.1,0.9-4.8,0.9-7.4,0.8h-1.5c-1,0-2,0-3,0.3c-1.6,0.4-3.1,1-4.4,1.8c-0.8,0.5-1.5,1.2-2.1,1.9l21.5,22.6l3.8-3.7
			c3.3-3.1,7.4-7.3,10.1-11.9c2.1-3.6,3.5-7.5,4.1-11.6c0.5-5.1-1.1-10.1-4.3-14.1c-0.7-0.8-1.3-1.5-2.1-2.2c0.9-1.7,1.3-3.6,1-5.5
			C142.7,16.8,141.3,16.9,140,17.4z"/>
		<path class="st1" d="M131.4,66.5l-22.1-23.1l0.2-0.3c0.7-0.8,1.4-1.4,2.3-2c1.4-0.9,3-1.5,4.6-1.9c1-0.2,2.1-0.3,3.1-0.3h1.5
			c2.5,0,5.2,0.1,7.2-0.8c1-0.5,1.9-1.1,2.7-1.8c-1.2,0-2.5-0.3-3.6-0.8c-0.6-0.3-1.2-0.6-1.7-0.8c-1-0.7-2.2-1.1-3.4-1.3
			c-1,0.1-1.9,0.4-2.8,0.9l-0.1,0.1h-0.1c-0.5,0.1-3.9,0.8-5.1-0.4c-0.6-0.8-1-1.7-1.1-2.7l-1.5-0.5l-0.1-0.2
			c-0.8-1.8-0.8-3.9,0.1-5.8c0.5-0.9,1.1-1.6,1.8-2.3c0.9-0.8,2.3-1.1,4.4-1.5c0.5-0.1,1-0.2,1.6-0.3c2.9-0.6,5.9-1.3,7.1-2.2l0,0
			c0.9-0.9,2-1.6,3.3-2c0.4-0.1,0.7-0.1,0.8-0.2c0.5-0.1,0.9-0.1,1.4-0.2c0.2,0,0.3,0,0.5,0h0.1c0.4,0,0.7,0,1,0l0,0
			c1.1-2.2,2.6-4.2,4.5-5.9l0.5-0.5l0.3,0.6c0.8,2.1,1.3,4.2,1.4,6.4c1.2-0.4,2.5-0.4,3.8-0.3l0.3,0.1l0.1,0.3
			c0.3,1.9,0,3.8-0.8,5.5c0.7,0.6,1.3,1.3,1.9,2c3.3,4.1,4.8,9.3,4.4,14.5c-0.6,4.1-2,8.1-4.1,11.7c-2.7,4.6-6.9,8.8-10.2,12
			L131.4,66.5z M110.5,43.3l20.9,21.9l3.5-3.4c3.3-3.1,7.4-7.3,10.1-11.7c2.1-3.5,3.4-7.4,4-11.4c0.4-5-1.1-9.9-4.2-13.8
			c-0.6-0.8-1.3-1.5-2-2.1l-0.3-0.2l0.2-0.5c0.8-1.4,1.1-3.1,0.9-4.7c-1.2-0.1-2.5,0-3.6,0.4l-0.6,0.2v-0.6
			c-0.1-2.1-0.5-4.2-1.2-6.1c-1.5,1.5-2.8,3.2-3.8,5.2l-0.3,0.5h-0.6c-0.3,0-0.6,0-1,0h-0.2H132c-0.4,0-0.8,0.1-1.1,0.1
			c-0.2,0-0.5,0.1-0.9,0.2c-1.1,0.3-2,0.9-2.8,1.7h-0.1c-1.2,1-3.7,1.7-7.5,2.4c-0.6,0.1-1.1,0.2-1.6,0.3c-1.9,0.4-3.2,0.6-3.9,1.3
			c-0.7,0.6-1.2,1.3-1.7,2.1c-0.7,1.5-0.8,3.2-0.1,4.7l1.7,0.5v0.3c0.1,0.9,0.4,1.8,0.9,2.5c0.7,0.7,3.3,0.4,4.1,0.2
			c1-0.6,2.1-1,3.2-1c1.4,0.1,2.7,0.6,3.8,1.4c0.5,0.3,1,0.6,1.6,0.8l0,0c1.3,0.6,2.8,0.9,4.2,0.6l1.2-0.2l-0.8,1
			c-1.1,1.2-2.4,2.1-3.9,2.9c-2.2,1-4.9,0.9-7.5,0.9h-1.5c-1,0-1.9,0-2.9,0.3c-1.5,0.3-3,0.9-4.3,1.8
			C111.6,42.2,111.1,42.7,110.5,43.3L110.5,43.3z"/>
		<path class="st1" d="M113.2,31.2c-0.2-0.2-0.2-0.5,0-0.7c0,0,0,0,0,0c0.1-0.1,0.3-0.2,0.4-0.1c1.3,0.3,2.6,0.4,3.9,0.3
			c0.2,0,0.5,0.2,0.5,0.4c0,0,0,0,0,0c0,0.3-0.2,0.5-0.4,0.5c-1.4,0.1-2.8,0-4.2-0.3C113.3,31.3,113.3,31.2,113.2,31.2z"/>
		<path class="st1" d="M131.8,36c-0.2-0.2-0.2-0.5,0-0.6c0,0,0,0,0,0c0.1-0.1,0.1-0.1,0.2-0.1c1.2-0.4,2.3-1,3.2-1.8
			c0.2-0.2,0.5-0.2,0.6,0c0,0,0,0,0,0l0,0c0.2,0.2,0.1,0.5-0.1,0.6c0,0,0,0,0,0l0,0c-1,0.9-2.3,1.5-3.6,1.9
			C132,36.2,131.9,36.1,131.8,36z"/>
		<path class="st1" d="M115.3,26.1c-0.2-0.2-0.2-0.6,0-0.8c0.1-0.1,0.2-0.1,0.3-0.2c0.8-0.2,2.1-0.2,2.5,0.5
			c0.1,0.3,0.2,0.8-0.5,1.3c-0.2,0.2-0.5,0.2-0.7,0.1l-1.5-0.8C115.4,26.2,115.3,26.1,115.3,26.1z"/>
		<ellipse transform="matrix(0.7226 -0.6913 0.6913 0.7226 20.8687 96.9042)" class="st1" cx="131.2" cy="22.4" rx="1.5" ry="1.4"/>
		<path class="st1" d="M137.2,19L137.2,19c-0.2-0.2-0.2-0.5,0-0.7c0,0,0,0,0,0c0.8-0.6,1.6-1.1,2.6-1.4c0.2-0.1,0.5,0,0.6,0.2
			c0.1,0.2,0,0.5-0.2,0.6h-0.1c-0.8,0.3-1.6,0.7-2.2,1.2C137.7,19.2,137.4,19.2,137.2,19L137.2,19z"/>
		<path class="st1" d="M140.9,25.4c-0.1-0.2-0.1-0.4,0-0.6c0.7-0.9,1.7-2.3,1.8-2.5c0.1-0.2,0.4-0.3,0.6-0.2
			c0.2,0.1,0.3,0.4,0.2,0.6c0,0,0,0,0,0c-0.2,0.4-1.6,2.3-1.9,2.7c-0.2,0.2-0.4,0.2-0.6,0.1l0,0L140.9,25.4z"/>
		<path class="st1" d="M128.7,22.3c-0.1-0.1-0.1-0.1-0.1-0.2c-0.1-0.3,0.1-0.7,0.4-0.8c0,0,0,0,0,0c1.7-0.6,3.6-0.6,5.3,0.1
			c0.3,0.1,0.5,0.5,0.3,0.8c-0.1,0.3-0.5,0.5-0.8,0.4h-0.1c-1.4-0.5-3-0.6-4.4-0.1C129.1,22.6,128.9,22.5,128.7,22.3z"/>
		<path class="st0" d="M62.7,33.9C57.8,29.6,52.1,26.3,46,24c-0.2,6.6,0.8,13.2,3.1,19.4l0.3,0.8l-0.6,0.6c-0.7,0.6-1.3,1.3-1.9,2
			L46.7,47c-0.3,0.4-0.6,0.7-0.9,1.1c-0.7,0.9-1.4,1.8-2,2.7c-0.2,0.3-0.7,1.1-1.3,2.1c-1.3,2.1-2.1,5.4-2.1,9.4v0.1
			C39.9,66.5,36.1,73,31.1,81c-4.3,6.7-7.5,10.9-7.5,14.5c0,2.6,0.3,5.1,1.1,7.5c1.3,4.4,5.6,8.2,10.6,10.2l3.9-2.2c0,0,3.7,3,7.3,3
			s8.5-6.7,9.5-8.5c0,0,0.8-4.8,3.8-7.8c3.4-3.4,8.1-4,14.5-6.3c6-1.6,10.1-7.6,10.1-7.6c0.2,4.2-0.3,8.5-1.6,12.5
			c-2.1,5.9-7.3,11-12.4,16c-1,1-2,1.9-2.9,2.9c-3.5,3.6-4.8,5.6-5.2,6.4c-3.5,6.3-4.5,10.3-4.8,12.1c-0.4,2.6-0.6,5.1-0.3,7.7h86.2
			v-14.4c0-12.3-0.5-28.3-4.3-42.1c-3.1-10.9-8.9-22-15.4-29.7c-9.2-10.9-24.7-17.5-36.3-18.1c-2.8-0.2-5.6-0.2-8.4,0
			c-0.9-2.3-2.6-7.8-9-12.3C66.7,27.3,64.3,30.4,62.7,33.9z"/>
		<path class="st1" d="M144.5,142.8H56l-0.2-1.1c-0.2-2.7-0.1-5.5,0.4-8.2c0.3-1.9,1.3-6.1,4.9-12.6c0.6-1.1,2-3.2,5.4-6.7
			c0.9-1,1.9-1.9,2.9-2.9c4.9-4.9,10.1-10.1,12.1-15.6c0.9-2.8,1.4-5.7,1.5-8.7c-2.3,2.5-5.2,4.4-8.5,5.4c-1.8,0.6-3.4,1.2-4.9,1.6
			c-3.8,1.2-6.8,2.1-9,4.4c-2.6,2.7-3.4,7.1-3.5,7.2v0.2l-0.1,0.2c-0.6,1.2-5.9,9.2-10.6,9.2c-3.1,0-6.1-1.9-7.4-2.8l-3.8,2.1
			l-0.5-0.2c-5.6-2.2-10-6.4-11.3-11c-0.8-2.5-1.2-5.2-1.2-7.9c0-3.4,2.2-6.7,5.3-11.5c0.8-1.2,1.6-2.4,2.4-3.8
			c4.4-6.9,8.7-14,9-18.1v-0.1c0-4.2,0.8-7.7,2.3-10.1c0.7-1,1.1-1.7,1.3-2c0.7-1,1.5-2,2.3-2.9c0.3-0.3,0.6-0.6,0.9-1l0.2-0.3
			c0.6-0.7,1.3-1.4,2-2.1l0,0c-2.3-6.4-3.4-13.1-3.2-19.9l0.1-1.8l1.7,0.6c5.7,2.2,11,5.2,15.7,9.1c1.7-3.1,4-5.8,6.8-8l0.7-0.6
			l0.7,0.5c4.3,2.9,7.5,7.1,9.2,12c2.5-0.1,5-0.1,7.5,0.1c10.9,0.6,27.1,6.6,37.2,18.6c6.6,7.8,12.5,19.1,15.6,30.2
			c3.9,14,4.4,30,4.4,42.5L144.5,142.8z M58.3,140.3H142v-13.1c0-12.3-0.5-28.1-4.3-41.8c-3.1-10.8-8.7-21.7-15.1-29.2
			C113,44.8,97.5,39,87.1,38.4c-2.7-0.2-5.5-0.2-8.2,0L78,38.5l-0.5-1.4c-1.4-4.2-4-8-7.6-10.6c-2.6,2.2-4.6,4.9-6,7.9l-0.7,1.5
			l-1.3-1.1c-4.3-3.8-9.3-6.9-14.6-9.1c0,5.8,1.1,11.6,3,17.1l0.5,1.5l-1.1,1.1c-0.6,0.6-1.2,1.3-1.8,1.9l-0.3,0.3
			c-0.4,0.4-0.7,0.8-1,1.1c-0.7,0.8-1.3,1.6-1.9,2.5c-0.2,0.4-0.7,1.2-1.4,2.1c-1.2,1.9-1.9,4.9-1.9,8.7v0.2
			c-0.4,4.2-3.7,10.3-9.4,19.3c-0.8,1.4-1.7,2.6-2.4,3.8c-2.9,4.4-4.9,7.5-4.9,10.1c0,2.4,0.3,4.8,1,7.1c1.1,3.7,4.7,7.2,9.3,9.2
			l4.2-2.3L40,110c0,0,3.4,2.8,6.5,2.8c2.7,0,7.1-5.6,8.3-7.7c0.2-1,1.2-5.4,4.1-8.3c2.7-2.7,6.1-3.8,10.1-5c1.5-0.5,3.1-1,4.8-1.6
			h0.1c5.5-1.5,9.4-7.1,9.4-7.1l2-2.8l0.3,3.5c0.2,4.4-0.4,8.8-1.7,13c-2.2,6.1-7.5,11.4-12.7,16.5c-1,1-2,1.9-2.9,2.9
			c-3.5,3.6-4.7,5.5-5,6.2c-3.4,6.2-4.4,10.1-4.7,11.8C58.3,136.1,58.1,138.2,58.3,140.3L58.3,140.3z"/>
		<path class="st1" d="M39.1,112.2c-0.7,0-1.3-0.6-1.3-1.3c0-0.4,0.2-0.8,0.6-1.1c3-1.9,5.7-4.3,7.9-7.1c0.4-0.5,1.2-0.6,1.8-0.2
			c0.5,0.4,0.6,1.2,0.2,1.8l0,0c-2.4,3-5.3,5.5-8.6,7.6C39.6,112.2,39.4,112.2,39.1,112.2z"/>
		<path class="st1" d="M84.3,85c-0.7,0-1.3-0.6-1.3-1.3c0-0.2,0.1-0.4,0.2-0.6c1.5-3,2.4-6.2,2.6-9.6c0-0.7,0.6-1.2,1.3-1.2h0.1
			c0.7,0,1.2,0.6,1.2,1.3l0,0c-0.2,3.7-1.2,7.3-2.9,10.6C85.2,84.8,84.7,85,84.3,85z"/>
		<path class="st1" d="M32.9,98.6c-0.9,0-1.7-0.7-1.7-1.7c0-0.3,0.1-0.6,0.2-0.8c1.1-1.8,3.6-4.6,5.9-3.9c0.7,0.2,1.9,1,1.8,3.4
			c0,0.7-0.5,1.3-1.2,1.5l-4.5,1.4C33.3,98.6,33.1,98.6,32.9,98.6z"/>
		<circle class="st1" cx="56" cy="60.6" r="4"/>
		<path class="st1" d="M60.8,42.4L60.8,42.4c-0.7,0-1.3-0.6-1.2-1.3c0.2-2.7,0.9-5.3,2.1-7.8c0.3-0.6,1-0.9,1.7-0.7
			c0.6,0.3,0.9,0.9,0.7,1.6c0,0.1,0,0.1-0.1,0.2c-1,2.1-1.6,4.4-1.8,6.7C62.1,41.8,61.5,42.4,60.8,42.4
			C60.8,42.4,60.8,42.4,60.8,42.4z"/>
		<path class="st1" d="M80.5,47c-0.6,0-1.1-0.4-1.2-1c-0.5-3-1.4-7.6-1.7-8.4c-0.2-0.7,0.3-1.4,1-1.5c0.6-0.1,1.2,0.1,1.4,0.7
			c0.5,1.2,1.6,7.5,1.8,8.8c0.1,0.7-0.3,1.3-1,1.4c0,0,0,0,0,0l0,0C80.7,47,80.6,47,80.5,47z"/>
		<path class="st1" d="M51.1,65.3c-0.2,0-0.5,0-0.7-0.1c-0.8-0.4-1.2-1.4-0.8-2.2c2.1-4.6,5.7-8.2,10.3-10.3c0.8-0.4,1.8,0,2.2,0.8
			c0.4,0.8,0,1.8-0.8,2.2l-0.1,0.1c-3.7,1.8-6.8,4.8-8.5,8.5C52.4,64.9,51.8,65.3,51.1,65.3z"/>
		<rect x="45.1" y="142.1" class="st2" width="112.2" height="10.5"/>
		<polygon class="st2" points="51.5,170 58.5,153.1 44.6,153.1 		"/>
		<polygon class="st2" points="65.6,170.1 72.6,153.1 58.7,153.1 		"/>
		<polygon class="st2" points="80.1,170.2 87.1,153.3 73.2,153.3 		"/>
		<polygon class="st2" points="94.2,170.3 101.2,153.3 87.3,153.3 		"/>
		<polygon class="st2" points="108.2,170 115.2,153.1 101.3,153.1 		"/>
		<polygon class="st2" points="122.2,170.1 129.2,153.1 115.3,153.1 		"/>
		<polygon class="st2" points="136.8,170.2 143.7,153.3 129.8,153.3 		"/>
		<polygon class="st2" points="150.8,170.3 157.7,153.3 143.8,153.3 		"/>
	</g>
</g>
</svg>
