<?xml version="1.0" encoding="utf-8"?>
<!-- Generator: Adobe Illustrator 23.1.1, SVG Export Plug-In . SVG Version: 6.00 Build 0)  -->
<svg version="1.1" id="Layer_1" xmlns="http://www.w3.org/2000/svg" xmlns:xlink="http://www.w3.org/1999/xlink" x="0px" y="0px"
	 viewBox="0 0 180 180" style="enable-background:new 0 0 180 180;" xml:space="preserve">
<style type="text/css">
	.st0{fill:#B63C41;}
	.st1{fill:#040000;}
	.st2{fill:#B63C41;stroke:#040000;stroke-width:3;stroke-miterlimit:10;}
</style>
<title>v</title>
<g id="Layer_2">
	<g id="Layer_1-2">
		<path class="st0" d="M104.9,38.6c4.9-3.6,10.3-5,15.9-3.4c2.2,1.9,3.9,2.3,5.8,2.1c1.7-0.3,3.4-0.3,5.2-0.1c1.2-5.4-3.6-7-5.7-8.7
			c-1.5-1-2.4-1.6-3.8-1.8l-2.1-0.3l0.2-3.1l3.5,1l0.9-6l-2.5-1.1l4.4-3.6l14.5,6.1c2.6-0.5,9.2,2.8,14.3,5.1l3.1,0.1l-2.8,4.4
			c1.6,9.3-1,14.9-4.7,20.3c-3.6,4.2-8.1,7.6-13,10.1c-4.1,2.3-8.2,4.3-12.6,9.3L104.9,38.6z"/>
		<path class="st1" d="M129,16.9l0.8,0.9l-0.2,1.7l-2.5-0.3l-0.3-2.2L129,16.9z M145.6,29.4l-4-6.1l5.1,1.4
			C148.4,25.2,146.5,30.7,145.6,29.4z M140.9,20.5l0.8-2.5c0.8-0.4,2.6,0,5.4,1.3s5.5,2.4,8.3,3.6l6.6,0.3l-4.4,6.9
			c2.2,17.5-5.3,25.9-20.1,33.4c-4.5,2.2-8.4,5.7-11.1,10l-23.9-35.7c6.6-4.9,11.9-6.3,19.7-4c2.6,2.6,6.2,2,7.7,1.9
			c-2.2-5-4.7-7.5-7.3-7.2c-2.7,0.3-4,0.3-4,0.3l-0.7-8.6l4.6,1.7l0.5-2.4l-4.8-1.8l8.3-6.1l15.2,6.3c0,0,1.1,0.9,1,1.3
			S140.9,20.5,140.9,20.5l-14-5.9l-3.5,2.5l2.4,1.1l-1.5,6.7l-3.4-1l0.1,1.9l2,0.3c1.5,0.2,3,0.8,4.2,1.7c2.1,1.6,6.6,5.9,5.5,11.1
			c-1.8-0.3-3.7-0.3-5.5-0.1c-1.8,0.2-3.7-0.6-5.9-2.4c-5.4-1.5-10.5-1.3-15.2,2.1l19.6,29.2c4.2-4.7,8.1-6.8,12.1-8.9
			c4.8-2.4,9-5.7,12.5-9.7c3.5-5.2,6-10.6,4.5-19.5l2.7-4.3l-2.9-0.1C149.7,23.2,143.4,20,140.9,20.5L140.9,20.5z"/>
		<path class="st1" d="M132.9,36.5c-0.5-0.1-1.2,1.2-0.2,2.4c0.4,0.4,0.9,0.5,1.1,0.8c0.2,0.3,0.4,0.6,0.7,0.9
			c2.4,2.7,7.1,2.6,10.7,0.4l1.6-1.8c-5.3,2-8.9,1.9-11-0.5c-0.3-0.4-0.7-0.8-1-1.2C134.3,37,133.6,36.6,132.9,36.5z"/>
		<path class="st0" d="M41,138c-0.6-13.4,3.5-25.1,13.3-33.5c6.3-1.8,9.1-4.3,10.9-8c1.6-3.5,3.7-6.7,6.3-9.6
			c-8.5-8.9-17.3-2.1-23-0.2c-3.8,1.5-5.9,2.4-7.9,4.7L37.4,95L32,90.8l6.3-5.2l-10-8.9l-5.1,3.2l-1.3-12.5L51,48.2
			c2.3-5.4,16.5-13.4,27.1-20l4-5.5l4.7,10.6c19.1,8.5,26.2,20.3,31.6,33.7c4.2,15.4,3.5,26.1,2.6,36.5c-0.9,10.4-2.2,20.6,1.5,34.6
			H41z"/>
		<path class="st1" d="M30.6,66.1l2.5-0.3l2.8,2.4l-3.5,4.2l-4.4-2.1L30.6,66.1z M74.2,50.9L58,50.7l8.9-7.7
			C69.9,40.5,77.7,50.9,74.2,50.9z M51.9,48.6L48.3,44c0.3-2,3.3-4.7,8.9-8.3s11.2-7.1,16.9-11l8.8-11.8l7.4,16.6
			c34.9,17.6,41.1,41.7,36.7,78.3c-1.5,11.1,0.2,22.5,4.8,32.7H36.6c-0.9-18.2,3.2-29.7,17-41.3c8-1.6,11.2-8.9,13-12
			c-12-2.1-19.5-0.6-22.3,4.6c-2.8,5.2-4.3,7.8-4.3,7.8l-16.6-9.3l8.8-6.3l-3.9-3.8l-9.4,6.6L18,64.1L48.3,44c0,0,3-1,3.6-0.3
			S51.9,48.6,51.9,48.6L23.8,67.1l0.3,9.6l4.9-3.1l10.6,11l-6,5l3.6,2.1l3-3.4c2.3-2.5,5.1-4.4,8.3-5.6c5.5-1.8,19.1-4.9,27.3,3.6
			c-2.7,3.1-5.1,6.5-7,10.1c-1.8,3.6-5.7,6.2-11.6,7.9c-9.4,8-15.5,17.8-14.9,30.6h78.1c-3.6-13.6-2.5-23.3-1.5-33.2
			c1-10,1.6-20.2-2.5-35c-5.2-12.9-12-24.1-30.4-32.3L81.5,24l-3.7,5.3C67.7,35.7,54.1,43.4,51.9,48.6L51.9,48.6z"/>
		<path class="st1" d="M71.6,83.9c-0.8,0.9,0.8,3.7,4.1,3.2c1.3-0.2,2-1.2,2.8-1.1c0.8,0.1,1.7,0.1,2.5-0.1
			c8-1.1,13.6-9.9,13.9-19.2l-1.5-5.1c-2.8,12.2-7.6,18.8-14.4,19.7c-1.1,0.2-2.2,0.3-3.4,0.4C74.1,82,72.7,82.8,71.6,83.9z"/>
		<rect x="23.1" y="138.3" class="st2" width="119.7" height="11.2"/>
		<polygon class="st2" points="30,168.1 37.4,150 22.6,150 		"/>
		<polygon class="st2" points="45,168.1 52.5,150 37.6,150 		"/>
		<polygon class="st2" points="60.5,168.3 67.9,150.2 53.1,150.2 		"/>
		<polygon class="st2" points="75.5,168.3 83,150.3 68.1,150.3 		"/>
		<polygon class="st2" points="90.5,168.1 97.9,150 83.1,150 		"/>
		<polygon class="st2" points="105.4,168.1 112.8,150.1 98,150.1 		"/>
		<polygon class="st2" points="121,168.3 128.4,150.2 113.5,150.2 		"/>
		<polygon class="st2" points="135.9,168.3 143.3,150.3 128.5,150.3 		"/>
	</g>
</g>
</svg>
