<?xml version="1.0" encoding="utf-8"?>
<!-- Generator: Adobe Illustrator 23.1.1, SVG Export Plug-In . SVG Version: 6.00 Build 0)  -->
<svg version="1.1" id="Layer_1" xmlns="http://www.w3.org/2000/svg" xmlns:xlink="http://www.w3.org/1999/xlink" x="0px" y="0px"
	 viewBox="0 0 180 180" style="enable-background:new 0 0 180 180;" xml:space="preserve">
<style type="text/css">
	.st0{fill:#B63C41;}
	.st1{fill:#040000;}
	.st2{fill:#B63C41;stroke:#231815;stroke-width:5;stroke-miterlimit:10;}
	.st3{fill:#B63C41;stroke:#231815;stroke-width:4.9965;stroke-miterlimit:9.993;}
</style>
<title>delta</title>
<g>
	<g id="Layer_1-2">
		<path class="st0" d="M43.2,149h94.2c0.5-6.1-3.6-11.7-12.3-17c-16.5-12.6-23.9-30-25.8-51.2h-18C79.5,102,72,119.4,55.6,132
			C46.8,137.4,42.7,142.9,43.2,149z"/>
		<path class="st1" d="M125.3,124.6c-13.2-10.2-18.7-25.2-21.4-41.1h-5.6c1.7,19.3,8.6,35.1,23.6,46.6c8,4.9,11.7,10,11.3,15.6H46.8
			C46.3,140,50,134.9,58.1,130c15-11.4,21.8-27.3,23.6-46.6h-5.6c-2.8,16-8.1,30.9-21.4,41.1c-9.2,5.9-14.8,11.9-14.3,21v6.4h99.2
			v-6.4C139.9,136.4,134.3,130.4,125.3,124.6z"/>
		
			<rect x="92.2" y="45.4" transform="matrix(0.3221 -0.9467 0.9467 0.3221 27.5297 143.4724)" class="st2" width="43.5" height="14.3"/>
		
			<rect x="56.4" y="30.9" transform="matrix(0.9507 -0.3102 0.3102 0.9507 -13.1892 22.3214)" class="st3" width="14.3" height="43.5"/>
		<rect x="74.7" y="28.1" class="st2" width="28.6" height="43.5"/>
		<rect x="58.5" y="71.7" class="st2" width="60" height="12.2"/>
	</g>
</g>
</svg>
