<?xml version="1.0" encoding="utf-8"?>
<!-- Generator: Adobe Illustrator 23.1.1, SVG Export Plug-In . SVG Version: 6.00 Build 0)  -->
<svg version="1.1" id="Layer_1" xmlns="http://www.w3.org/2000/svg" xmlns:xlink="http://www.w3.org/1999/xlink" x="0px" y="0px"
	 viewBox="0 0 180 180" style="enable-background:new 0 0 180 180;" xml:space="preserve">
<style type="text/css">
	.st0{fill:#B63C41;}
	.st1{opacity:0.2;fill:#FFFFFF;enable-background:new    ;}
	.st2{opacity:0.2;}
	.st3{fill:#FFFFFF;}
	.st4{fill:#1A1A1A;}
	.st5{opacity:0.2;fill:#040000;enable-background:new    ;}
	.st6{fill:#B63C41;stroke:#040000;stroke-width:2;stroke-miterlimit:10;}
	.st7{fill:none;stroke:#040000;stroke-width:3.5;stroke-miterlimit:10;}
</style>
<title>l</title>
<g id="Layer_2">
	<g id="Layer_1-2">
		<path class="st0" d="M69.6,10.1h-0.8c-2.6,0-5.1,2.3-5.7,5.3l-1.4,6.4c-1.2,2.9-3.3,5-6.6,7.8c-2.6,2.1-4.5,4.9-5.6,8.1L49.3,38
			c-0.8,2.1-1.5,4-2,5.7c-1.2,4.3-3.2,8.3-5.7,12L30.7,70.9c-3.4,4.2-3,10,0.9,13.3s13.4,5.9,16.7,5.9c0.8,0.1,1.6-0.2,2.3-0.8
			c1.3-1.4,2.5-2.9,3.4-4.5c2.2-3.4,3.7-5.8,9.3-5.8c8.1,0.1,15.1-7.4,18.6-10.9l0,0l2-2.3c1.4,2.2,2.9,5.7,1.9,9.4
			c-0.5,1.6-1.2,3.1-2.1,4.5c-2.1,2.8-4.6,5.3-7.5,7.5l-0.2,0.1c-7,5.7-18.6,15.1-20.6,28.2c-12.4,3.4-12.4,12.1-12.4,22v3.4h94.7
			v-3.4c0-10,0.1-18.6-12.4-22c0.4-1.5,0.9-3.4,1.5-5.5c2.5-8.6,5.8-20.4,5.8-28.2c0-18.2-5.8-33.6-16.7-44.3
			c-9.3-9-21.4-14.4-34.3-15.3L70.1,10.6L69.6,10.1z"/>
		<path class="st1" d="M90.7,120.2c40.2,0,44.3,4.4,44.3,4.4h0.6c-1.8-9.5-22.8-10.5-22.8-10.5H68.8c0,0-21.8,0.8-23,10.5h0.6
			C46.4,124.7,50.5,120.2,90.7,120.2z"/>
		<g class="st2">
			<path class="st3" d="M66.4,28.7c7.5-4.7,2.4-16.8,2.4-16.8c-2.3,0-4.2,1.5-4.7,3.7l-1.4,6.4c-1.3,3.2-3.5,5.3-7,8.2
				c-2.5,2-4.4,4.7-5.4,7.7l-0.1,0.4c-0.8,2.1-1.4,3.9-2,5.6c-1.3,4.4-3.2,8.5-5.8,12.2L31.7,71.5c-0.1,0.1-0.3,0.3-0.4,0.4
				c-2,1.8-2.4,4.9-0.9,7.2c0,0,17.7-21.9,20-24.9C54.6,48.6,51.9,37.7,66.4,28.7z"/>
		</g>
		<path class="st4" d="M67.4,37.6c-4.9,2-6.2,10.3-6.2,10.3c4.7-4.1,7,0.6,11.7-3.1C77,41.7,72.2,35.6,67.4,37.6z"/>
		<path class="st5" d="M89.9,52.8C88.2,56,84,62.6,84,62.6s-0.4,1.3-1,3.2c0,0,1.9-0.2,2.3,6c0.1,1.6,0.9,7.2,1.9,4.8
			C90,69.7,92,61.3,92,58.5C91.9,55.6,91.6,49.5,89.9,52.8z"/>
		<path class="st5" d="M80.8,24c0,0,38.1,4.8,38.1,41.1c0,24.4-16.2,31.2-20.5,47.5c0,0,18,0.1,26,3.9c0,0,8.6-23.2,8.6-36.9
			C132.9,65.6,122.3,22.9,80.8,24z"/>
		<path class="st5" d="M66.8,77.2c-8.5-4.2-10.6-9.1-13.9,0.7c-3.2,9.5-8,11.1-4.7,12.1s7.2-9.8,10-10S70,78.7,66.8,77.2z"/>
		<path class="st4" d="M68.8,11.9l12.1,12c23.6,1.6,49.9,18.7,49.9,57.8c0,10.4-6.5,29.4-7.7,35c13.4,2.8,12.8,10.8,12.8,22.2h-91
			c0-11.2-0.6-19.1,12.2-22c1.3-13.2,13.4-22.9,20.2-28.5c3-2.2,5.6-4.9,7.8-7.9c1.1-1.5,1.9-3.2,2.4-5c1.7-5.9-2.1-11.3-3.5-12.9
			l-3.6,4.1c-3.6,3.8-10,10.4-17.2,10.4c-9.3,0-9.6,6.6-14,10.9c-0.3,0.2-0.6,0.2-0.9,0.2c-3,0-12-2.5-15.5-5.4
			c-3-2.6-3.4-7.3-0.6-10.8l10.9-15.4c4.9-7.1,5.1-10.9,7.9-18c1-3,2.8-5.7,5.3-7.7c3.6-2.9,5.9-5.2,7.2-8.6l1.4-6.5
			C65.4,13.8,67.2,11.9,68.8,11.9 M70.4,8.2h-1.6c-3.4,0-6.7,2.9-7.6,6.7V15l-1.3,6.2c-1.1,2.5-2.9,4.3-6.1,6.9
			c-2.9,2.3-5,5.4-6.2,8.9l-0.1,0.4c-0.9,2.2-1.5,4.1-2,5.8c-1.2,4.1-3,8-5.5,11.5L29.2,69.8c-4,5-3.5,11.9,1.1,15.8
			c4.3,3.6,14.3,6.3,17.9,6.3c1.3,0.1,2.6-0.4,3.5-1.2c1.4-1.5,2.7-3.1,3.7-4.9c2-3.2,3.2-4.9,7.7-4.9c8.9,0,16.3-7.8,19.9-11.5
			l0.1-0.1l0.1-0.1l0.3-0.3c0.8,1.8,0.9,3.7,0.5,5.6c-0.4,1.4-1,2.7-1.9,3.9c-2,2.7-4.4,5.1-7.1,7.1l-0.2,0.1
			c-7,5.7-18.5,15-21.1,28.2c-5.4,1.7-8.9,4.7-10.8,8.9c-1.9,4.2-1.9,9-1.8,14.6v5.2h98.4v-5.2c0-5.7,0-10.6-1.9-14.8
			c-1.9-4-5.1-6.8-10.1-8.5c0.3-1.1,0.7-2.4,1.1-3.7c2.5-8.7,5.9-20.7,5.9-28.7c0-39.3-25.9-59-52-61.4L71.4,9.3L70.4,8.2L70.4,8.2z
			"/>
		<path class="st4" d="M90.7,114.6c9.8-0.1,19.5,0.4,29.2,1.5c1.6,0.2,3.2,0.5,4.8,0.9l0.6-3.7c-1.6-0.4-3.3-0.7-5-0.9
			c-9.9-1.1-19.8-1.7-29.7-1.6l0,0c-9.9-0.1-19.8,0.4-29.7,1.6c-1.8,0.2-3.5,0.5-5.2,0.9l0.8,3.6c1.6-0.4,3.3-0.7,4.9-0.9
			C71.1,115,80.9,114.5,90.7,114.6z"/>
		<rect x="28.1" y="140.4" class="st6" width="124.9" height="11.6"/>
		<polygon class="st6" points="35.3,171.5 43,152.7 27.5,152.7 		"/>
		<polygon class="st6" points="51,171.6 58.7,152.7 43.2,152.7 		"/>
		<polygon class="st6" points="67.1,171.8 74.8,152.9 59.3,152.9 		"/>
		<polygon class="st6" points="82.8,171.8 90.5,153 75.1,153 		"/>
		<polygon class="st6" points="98.4,171.5 106.1,152.7 90.6,152.7 		"/>
		<polygon class="st6" points="114,171.6 121.7,152.7 106.2,152.7 		"/>
		<polygon class="st6" points="130.2,171.8 137.9,152.9 122.4,152.9 		"/>
		<polygon class="st6" points="145.8,171.8 153.5,153 138,153 		"/>
		<path class="st0" d="M124.2,114.2c0.7-1.1,1.7-2.5,2.8-4c4.3-6.2,10.3-14.7,12.4-20.8c5-14.5,4.5-28.4-1.5-39.9
			c-5.1-9.8-13.5-17.5-23.7-21.8l-6.2-12.4l-0.3-0.6l-0.6-0.2c-2.1-0.7-4.7,0.4-6.1,2.6l-2.9,4.7c-1.8,2-4,3.1-7.5,4.3
			C88,27,85.6,28.7,83.9,31l-0.2,0.3c-1.3,1.5-2.3,2.8-3.2,4c-2.2,3.1-4.8,5.8-7.9,8l-13,9.2c-3.9,2.4-5.2,7.2-2.9,10.8
			c2.2,3.7,9.3,8.4,12,9.3c0.6,0.3,1.4,0.3,2,0.1c1.4-0.7,2.8-1.6,4-2.6c2.7-2.1,4.7-3.6,9.1-2c6.6,2.3,14.4-1.7,18.1-3.6l0,0
			l2.3-1.3c0.5,2.1,0.8,5.4-1.1,8c-0.8,1.1-1.8,2.1-3,3c-2.5,1.7-5.2,3-8.1,3.9l-0.2,0.1c-7.2,2.6-19.3,6.8-24.4,16.8"/>
		<g class="st2">
			<path class="st3" d="M100.1,28.6c7.4-1.6,6.5-12.7,6.5-12.7c-1.8-0.7-3.8,0-4.8,1.7L99,22.3c-1.9,2.1-4.3,3.3-7.9,4.6
				c-2.6,0.9-4.8,2.5-6.5,4.7l-0.2,0.3c-1.2,1.4-2.2,2.7-3.2,3.9c-2.2,3.1-4.9,5.9-8,8.1l-13,9.2c-0.1,0.1-0.3,0.1-0.4,0.2
				c-2.2,0.9-3.3,3.2-2.7,5.5c0,0,20.4-12.5,23.1-14.3C85.1,41.2,85.9,31.7,100.1,28.6z"/>
		</g>
		<path class="st4" d="M98.5,36c-4.5,0.2-7.9,6.5-7.9,6.5c5-2,5.5,2.4,10.4,0.8C105.1,41.9,102.9,35.7,98.5,36z"/>
		<path class="st5" d="M112.6,54.3c-2.3,2.1-7.5,6.2-7.5,6.2s-0.7,0.9-1.7,2.3c0,0,1.6,0.4,0.2,5.4c-0.4,1.3-1.3,6,0.2,4.4
			c4.2-4.8,8.1-10.9,8.8-13.1C113.5,57.2,114.9,52.2,112.6,54.3z"/>
		<path class="st5" d="M113.1,28.8c0,0,29.6,14.4,19.7,43.4c-6.7,19.4-21.7,20.3-29.7,32.2c0,0,14.6,5.1,20.1,10.4
			c0,0,13.3-16.1,17-27C144.1,76.6,147.1,39.5,113.1,28.8z"/>
		<path class="st5" d="M87.2,67.3c-5.8-5.7-6.1-10.3-11.5-3.3c-5.2,6.7-9.5,6.7-7.2,8.3c2.3,1.7,8.5-5.8,10.9-5.1
			C81.8,67.9,89.4,69.5,87.2,67.3z"/>
		<path class="st4" d="M92,80.9c3-0.9,5.9-2.3,8.5-4.1c1.3-0.9,2.4-2.1,3.3-3.4c3-4.3,1.3-9.6,0.7-11.3l-4,2.3
			c-4,2-10.9,5.5-16.8,3.5c-7.6-2.6-9.6,2.6-14.3,4.8c-0.3,0-0.6,0-0.8-0.1c-2.5-0.8-9.1-5.4-11.1-8.6c-1.7-3.1-0.6-7,2.4-8.7
			c0,0,0,0,0,0L73,46c5.9-4.3,7.1-7.2,11.4-12.1c1.6-2.2,3.8-3.8,6.4-4.7c3.7-1.4,6.2-2.5,8.3-4.9l2.9-4.8c0.9-1.5,2.8-2.4,4.2-1.9
			l0,0l0,0l0,0l6.5,12.9c18.7,7.8,35.4,28.8,24.7,60c-2.8,8-12.8,20.9-15.6,25.4l4.3-0.4c0,0-0.1-0.1-0.1-0.1
			c0.6-0.8,1.2-1.7,1.9-2.7c4.4-6.3,10.4-14.8,12.6-21.2c10.7-31.3-4.9-54.2-25.5-63.4l-6-12l-0.6-1.2l-1.3-0.4
			c-2.8-0.9-6.2,0.4-8,3.2v0.1l-2.8,4.6c-1.6,1.7-3.6,2.6-6.8,3.8c-2.9,1-5.5,2.9-7.5,5.3l-0.2,0.3c-1.3,1.5-2.3,2.8-3.2,4
			c-2.1,3-4.6,5.5-7.6,7.7l-12.9,9.1c-4.6,2.9-6.1,8.5-3.4,13c2.5,4.1,9.9,9,12.8,10c1,0.4,2.2,0.4,3.2,0c1.6-0.8,3-1.7,4.4-2.8
			c2.5-2,3.9-3,7.6-1.8c7.3,2.5,15.4-1.7,19.3-3.7h0.1h0.1l0.3-0.1c0.1,1.6-0.3,3.2-1.2,4.6c-0.7,1-1.6,1.9-2.6,2.6
			c-2.4,1.6-5,2.8-7.7,3.7l-0.2,0.1c-7.2,2.5-19,6.6-24.7,16.3l1.8,3.4C72.6,87.7,85,83.4,92,80.9z"/>
		<line class="st7" x1="66.1" y1="94.4" x2="125.9" y2="115.4"/>
	</g>
</g>
</svg>
