<?xml version="1.0" encoding="utf-8"?>
<!-- Generator: Adobe Illustrator 23.1.1, SVG Export Plug-In . SVG Version: 6.00 Build 0)  -->
<svg version="1.1" id="Layer_1" xmlns="http://www.w3.org/2000/svg" xmlns:xlink="http://www.w3.org/1999/xlink" x="0px" y="0px"
	 viewBox="0 0 180 180" style="enable-background:new 0 0 180 180;" xml:space="preserve">
<style type="text/css">
	.st0{fill:#B63C41;}
	.st1{fill:#040000;}
	.st2{fill:#B63C41;stroke:#040000;stroke-width:2;stroke-miterlimit:10;}
	.st3{fill:none;stroke:#040000;stroke-width:2.5;stroke-miterlimit:10;}
</style>
<title>l</title>
<g id="Layer_2">
	<g id="Layer_1-2">
		<path class="st0" d="M60,21.5c-5.4-4.7-11.6-8.4-18.3-10.9c-0.2,7.3,0.9,14.5,3.4,21.3l0.3,0.8l-0.6,0.6c-0.7,0.7-1.4,1.5-2.1,2.2
			l-0.3,0.3c-0.3,0.4-0.7,0.8-1,1.2c-0.8,0.9-1.6,1.9-2.2,3c-0.2,0.4-0.7,1.2-1.5,2.3c-1.5,2.3-2.3,5.9-2.3,10.3v0.1
			c-0.4,4.6-4.6,11.7-10.1,20.5c-4.7,7.4-8.3,12-8.3,16c0,2.8,0.4,5.6,1.2,8.3c1.4,4.9,6.1,9.1,11.6,11.2l4.3-2.4c0,0,4.1,3.3,8,3.3
			s9.4-7.4,10.4-9.4c0,0,0.9-5.3,4.2-8.6c3.7-3.8,8.9-4.4,15.9-6.9c6.5-1.8,11.1-8.4,11.1-8.4C84,81,83.4,85.7,82,90.1
			c-2.3,6.4-8.1,12.1-13.6,17.6c-1.1,1.1-2.1,2.1-3.2,3.2c-3.8,3.9-5.3,6.1-5.8,7.1c-3.9,6.9-5,11.4-5.3,13.4
			c-0.5,2.8-0.6,5.7-0.4,8.5h94.7v-15.9c0-13.6-0.5-31.1-4.8-46.3c-3.4-12-9.8-24.2-16.9-32.7c-10.1-12-27.1-19.3-40-19.9
			c-3.1-0.2-6.1-0.2-9.2,0c-1-2.6-2.9-8.6-9.9-13.5C64.4,14.2,61.7,17.6,60,21.5z"/>
		<path class="st1" d="M150,141.2H52.6l-0.2-1.2c-0.3-3-0.1-6,0.4-9c0.3-2.1,1.5-6.7,5.4-13.8c0.6-1.2,2.2-3.5,6-7.4
			c1-1.1,2.1-2.1,3.2-3.2c5.4-5.4,11.1-11.1,13.3-17.1c1-3.1,1.5-6.3,1.6-9.5c-2.5,2.7-5.8,4.8-9.3,5.9c-1.9,0.7-3.8,1.3-5.4,1.8
			c-4.2,1.3-7.5,2.3-9.9,4.8c-2.9,3-3.8,7.8-3.8,7.9v0.2l-0.1,0.2c-0.7,1.3-6.5,10.1-11.6,10.1c-3.4,0-6.7-2.1-8.1-3.1l-4.2,2.3
			l-0.6-0.2c-6.2-2.4-11-7-12.4-12c-0.9-2.8-1.3-5.7-1.3-8.7c0-3.7,2.5-7.4,5.9-12.6c0.8-1.3,1.7-2.7,2.7-4.1
			c4.8-7.6,9.5-15.4,9.9-19.9v-0.1c0-4.6,0.9-8.5,2.5-11.1c0.7-1.1,1.2-1.8,1.4-2.2c0.8-1.1,1.6-2.2,2.5-3.2c0.3-0.3,0.6-0.7,1-1.2
			l0.2-0.3c0.7-0.8,1.4-1.6,2.1-2.3l0,0c-2.6-7-3.7-14.4-3.5-21.9l0.1-1.9l1.8,0.7c6.3,2.4,12.1,5.8,17.3,10
			c1.8-3.4,4.4-6.4,7.4-8.8l0.8-0.6l0.8,0.6c4.7,3.2,8.3,7.8,10.1,13.2c2.8-0.1,5.5-0.1,8.3,0.1c12,0.6,29.8,7.3,40.9,20.4
			c7.3,8.6,13.7,21,17.2,33.2c4.3,15.4,4.8,33,4.8,46.7L150,141.2z M55.1,138.5h92.1v-14.4c0-13.5-0.5-30.9-4.7-45.9
			c-3.4-11.8-9.6-23.8-16.6-32.2c-10.6-12.5-27.6-18.9-39-19.5c-3-0.2-6-0.2-9,0l-1,0.1L76.2,25c-1.5-4.7-4.4-8.7-8.4-11.7
			c-2.8,2.4-5.1,5.3-6.6,8.7l-0.8,1.7l-1.4-1.2c-4.8-4.2-10.2-7.6-16.1-10c0,6.4,1.2,12.8,3.4,18.8L47,33l-1.2,1.2
			c-0.7,0.7-1.4,1.4-2,2.1l-0.3,0.3c-0.4,0.5-0.8,0.9-1.1,1.3c-0.7,0.9-1.4,1.8-2,2.7c-0.2,0.4-0.8,1.3-1.5,2.4c-1.3,2-2,5.4-2,9.5
			v0.2c-0.4,4.7-4.1,11.3-10.3,21.2c-0.9,1.5-1.8,2.9-2.7,4.2c-3.1,4.8-5.4,8.3-5.4,11.1c0,2.6,0.4,5.3,1.1,7.8
			c1.2,4.1,5.2,8,10.2,10.1l4.6-2.5l0.7,0.6c0,0,3.7,3,7.1,3c2.9,0,7.8-6.2,9.1-8.5c0.2-1.1,1.4-5.9,4.5-9.1c2.9-3,6.7-4.2,11.1-5.5
			c1.7-0.5,3.4-1,5.3-1.7h0.1c6-1.6,10.3-7.8,10.4-7.8l2.2-3.1l0.3,3.9c0.2,4.8-0.4,9.7-1.8,14.3c-2.4,6.7-8.3,12.5-13.9,18.1
			c-1.1,1.1-2.1,2.1-3.2,3.2c-3.9,4-5.1,6-5.5,6.8c-3.8,6.8-4.9,11.1-5.2,12.9C55.1,133.8,55,136.1,55.1,138.5L55.1,138.5z"/>
		<path class="st1" d="M34.1,107.6c-0.8,0-1.4-0.6-1.4-1.4c0-0.5,0.3-0.9,0.7-1.2c3.3-2.1,6.2-4.7,8.7-7.8c0.5-0.6,1.4-0.7,2-0.2
			c0.6,0.5,0.7,1.4,0.2,2c-2.7,3.3-5.9,6.1-9.4,8.4C34.6,107.6,34.3,107.6,34.1,107.6z"/>
		<path class="st1" d="M83.7,77.7c-0.8,0-1.4-0.6-1.4-1.4c0-0.2,0.1-0.5,0.2-0.7c1.6-3.3,2.6-6.9,2.8-10.5c0-0.7,0.7-1.3,1.4-1.3
			c0,0,0,0,0,0h0.1c0.8,0.1,1.3,0.7,1.3,1.5l0,0c-0.3,4.1-1.4,8-3.2,11.7C84.7,77.4,84.2,77.7,83.7,77.7z"/>
		<path class="st1" d="M27.2,92.7c-1,0-1.8-0.8-1.8-1.8c0-0.3,0.1-0.6,0.2-0.9c1.2-2,3.9-5.1,6.4-4.3c0.8,0.2,2.1,1.1,2,3.7
			c0,0.8-0.5,1.4-1.3,1.6l-4.9,1.6C27.6,92.6,27.4,92.7,27.2,92.7z"/>
		<circle class="st1" cx="52.6" cy="50.9" r="4.4"/>
		<path class="st1" d="M57.9,30.8L57.9,30.8c-0.8,0-1.4-0.6-1.4-1.4c0.2-3,1-5.9,2.3-8.5c0.2-0.7,1-1.1,1.7-0.9s1.1,1,0.9,1.7
			c0,0,0,0.1,0,0.1c0,0.1,0,0.1-0.1,0.2c-1.1,2.3-1.8,4.8-2,7.4C59.3,30.2,58.7,30.8,57.9,30.8C57.9,30.8,57.9,30.8,57.9,30.8z"/>
		<path class="st1" d="M79.6,35.9c-0.7,0-1.2-0.5-1.4-1.1c-0.6-3.4-1.5-8.4-1.8-9.2c-0.2-0.7,0.2-1.5,0.9-1.8
			c0.7-0.2,1.4,0.1,1.7,0.8c0.5,1.3,1.7,8.3,2,9.7c0.1,0.8-0.4,1.5-1.1,1.6c0,0,0,0,0,0l0,0C79.8,35.9,79.7,35.9,79.6,35.9z"/>
		<path class="st1" d="M47.2,56c-0.3,0-0.5-0.1-0.7-0.2c-0.9-0.4-1.3-1.5-0.9-2.4c2.3-5,6.3-9,11.3-11.3c0.9-0.4,2,0.1,2.4,1
			c0.4,0.9,0,1.9-0.9,2.3l-0.1,0.1c-4.1,1.9-7.4,5.3-9.4,9.4C48.6,55.6,48,56,47.2,56z"/>
		<rect x="40.6" y="140.5" class="st2" width="123.3" height="11.5"/>
		<polygon class="st2" points="47.7,171.2 55.3,152.6 40,152.6 		"/>
		<polygon class="st2" points="63.2,171.2 70.9,152.6 55.6,152.6 		"/>
		<polygon class="st2" points="79.1,171.4 86.8,152.8 71.5,152.8 		"/>
		<polygon class="st2" points="94.6,171.4 102.3,152.8 87,152.8 		"/>
		<polygon class="st2" points="110,171.2 117.7,152.6 102.4,152.6 		"/>
		<polygon class="st2" points="125.4,171.2 133.1,152.6 117.8,152.6 		"/>
		<polygon class="st2" points="141.4,171.4 149.1,152.8 133.8,152.8 		"/>
		<polygon class="st2" points="156.8,171.4 164.5,152.8 149.2,152.8 		"/>
		<path class="st0" d="M117.1,30.3c-2-4.9-4.8-9.3-8.3-13.2c-2.6,4.7-4.2,9.9-4.9,15.3l-0.1,0.7l-0.6,0.2c-0.7,0.2-1.4,0.5-2.1,0.8
			l-0.3,0.1c-0.3,0.2-0.7,0.3-1.1,0.4c-0.8,0.4-1.7,0.8-2.4,1.2c-0.3,0.2-0.9,0.6-1.7,1c-1.7,1-3.5,3.2-4.9,6.1l0,0.1
			c-1.8,2.9-6.9,6.3-13.4,10.3c-5.5,3.4-9.4,5.3-10.7,7.9c-1,1.9-1.6,3.9-2,5.9c-0.7,3.7,1,8,3.9,11.2l3.6-0.2c0,0,1.5,3.5,4.1,4.8
			c2.6,1.3,8.6-1.8,9.9-2.8c1.5-1.9,3.4-3.4,5.6-4.4c3.7-1.3,7.3,0,12.7,0.6c4.9,0.9,10.1-1.9,10.1-1.9c-1.4,3.2-3.3,6.1-5.7,8.6
			c-3.7,3.5-9.3,5.4-14.7,7.3c-1.1,0.4-2.1,0.7-3.1,1.1c-2.2,0.7-4.2,1.6-6.1,2.8c-4.8,3.4-7,5.9-7.9,7.2c-1.2,1.7-2.3,3.6-3.1,5.5
			l61.9,30.9l5.3-10.6c4.5-9,10-20.9,12.3-32.4c1.7-9.1,1.7-19.3-0.2-27.3c-2.6-11.3-11.3-21.7-19.5-26.3c-1.9-1.1-4-2.1-6-3
			c0.7-4.2,0-8.5-2-12.2C122.4,26.9,119.5,28.3,117.1,30.3z"/>
		<path class="st1" d="M154,67.6c-2.9-12.4-12.4-22.6-20-27c-1.7-1-3.5-1.9-5.4-2.8c0.6-4.2-0.2-8.4-2.2-12.1l-0.3-0.6l-0.7,0.1
			c-2.8,0.6-5.4,1.7-7.8,3.4c-2-4.5-4.7-8.7-8-12.3l-0.9-1.1l-0.7,1.3c-2.6,4.9-4.3,10.2-5,15.7c-0.7,0.2-1.5,0.5-2.2,0.8l-0.3,0.1
			c-0.4,0.2-0.7,0.3-1,0.4c-0.9,0.4-1.8,0.8-2.7,1.3c-0.3,0.2-0.8,0.5-1.7,1c-1.9,1.2-3.8,3.5-5.3,6.5l0,0c-1.7,2.8-7.4,6.4-13.1,10
			c-1.1,0.7-2.1,1.3-3.1,1.9c-4,2.4-6.8,4-8,6.4c-1,1.9-1.7,4-2,6.2c-0.7,3.9,0.9,8.5,4.1,12.1l0.3,0.3l3.5-0.1
			c0.6,1.2,2.1,3.6,4.3,4.7c3.3,1.7,10-2.2,10.9-2.9l0.1-0.1l0.1-0.1c1.3-1.7,3.1-3.1,5.1-4c2.4-0.9,4.9-0.5,8.1,0
			c1.2,0.2,2.6,0.4,4.1,0.6c2.7,0.4,5.5,0.1,8.1-0.9c-1.2,2.1-2.6,4.1-4.2,5.8c-3.5,3.3-9,5.2-14.4,7.1l-3.1,1.1
			c-2.2,0.7-4.4,1.7-6.4,3c-5,3.5-7.3,6.2-8.1,7.4c-1.3,1.8-2.4,3.8-3.2,5.8l-0.2,0.7l2.6-0.9h-0.1H75c0.7-1.6,1.6-3,2.6-4.4
			c0.8-1.2,2.9-3.7,7.7-6.9c1.8-1.2,3.8-2.1,5.9-2.7c1-0.4,2.1-0.7,3.1-1.1c5.5-1.9,11.3-3.9,15.1-7.5c2.5-2.6,4.5-5.6,6-8.9
			l1.1-2.7l-2.5,1.4c0,0-4.9,2.7-9.4,1.8h-0.1c-1.5-0.2-2.8-0.4-4.1-0.6c-3.3-0.5-6.2-1-9.1,0.1c-2.4,1-4.4,2.6-6,4.6
			c-1.6,1-6.9,3.6-8.8,2.6c-2.2-1.1-3.7-4.3-3.7-4.3l-0.3-0.6l-3.8,0.2c-2.6-3-3.9-6.9-3.3-10c0.3-1.9,0.9-3.8,1.8-5.6
			c0.9-1.8,3.6-3.4,7.2-5.6c1-0.6,2-1.2,3.1-1.9c7.4-4.6,12-7.8,13.8-10.7l0.1-0.1c1.4-2.8,3-4.8,4.5-5.7c0.9-0.5,1.5-0.9,1.8-1.1
			c0.7-0.4,1.5-0.8,2.2-1.1c0.3-0.1,0.7-0.3,1.1-0.5l0.3-0.1c0.7-0.3,1.3-0.5,2-0.8l1.2-0.4l0.2-1.3c0.6-4.7,1.9-9.4,4.1-13.6
			c3,3.5,5.5,7.5,7.2,11.8l0.5,1.3l1.1-0.9c2.1-1.7,4.6-3,7.2-3.6c1.6,3.3,2.2,6.9,1.6,10.5l-0.1,1.2l0.7,0.3c2,0.8,4,1.8,5.9,2.9
			c7.2,4.1,16.3,13.9,19,25.7c1.8,7.8,1.9,17.9,0.2,26.8C150,106.2,144.5,118,140,127l-4.7,9.4l0.9,2.8l5.6-11.3
			c4.5-9.1,10-21,12.4-32.7C156,86,155.9,75.7,154,67.6z"/>
		<path class="st1" d="M73.3,82.4c-0.5-0.3-0.7-0.9-0.4-1.4c0.2-0.3,0.5-0.5,0.8-0.6c2.9-0.3,5.7-1.1,8.3-2.3c0.5-0.2,1.1,0,1.3,0.5
			c0,0,0,0,0,0c0.2,0.5,0,1.1-0.6,1.4c0,0,0,0,0,0c-2.8,1.3-5.8,2.1-8.9,2.5C73.6,82.5,73.4,82.5,73.3,82.4z"/>
		<path class="st1" d="M115.7,78.7c-0.5-0.3-0.7-0.9-0.4-1.4c0.1-0.2,0.2-0.3,0.3-0.4c2.2-1.7,4-3.7,5.4-6.1
			c0.3-0.5,0.9-0.7,1.4-0.4c0,0,0,0,0,0l0,0c0.5,0.3,0.6,0.9,0.3,1.4l0,0c-1.5,2.6-3.6,4.9-6,6.7C116.4,78.8,116,78.8,115.7,78.7z"
			/>
		<path class="st1" d="M73.8,70.2c-0.7-0.3-0.9-1.2-0.6-1.8c0,0,0,0,0,0c0.1-0.2,0.3-0.4,0.5-0.5c1.4-0.9,4.2-2.1,5.6-0.8
			c0.4,0.4,1,1.4,0.1,3.1c-0.3,0.5-0.8,0.8-1.4,0.7l-3.8-0.5C74.1,70.3,73.9,70.3,73.8,70.2z"/>
		<ellipse transform="matrix(0.4465 -0.8948 0.8948 0.4465 12.359 121.3591)" class="st1" cx="104.3" cy="50.7" rx="3.3" ry="3.2"/>
		<path class="st1" d="M114.4,39L114.4,39c-0.5-0.3-0.7-0.9-0.4-1.4c0,0,0,0,0,0c1.1-1.9,2.6-3.6,4.3-4.9c0.4-0.4,1.1-0.4,1.4,0.1
			c0.4,0.4,0.3,1.1-0.1,1.4c0,0-0.1,0.1-0.1,0.1c-1.5,1.2-2.8,2.6-3.8,4.3C115.5,39.1,114.9,39.3,114.4,39
			C114.4,39.1,114.4,39.1,114.4,39L114.4,39z"/>
		<path class="st1" d="M126.9,49.5c-0.4-0.2-0.6-0.7-0.5-1.2c0.7-2.4,1.8-6.1,1.8-6.7c0.1-0.6,0.6-1,1.2-0.9c0.6,0.1,1,0.5,0.9,1.1
			c0,0,0,0,0,0c-0.1,1-1.6,6.1-1.9,7.1c-0.2,0.5-0.7,0.8-1.3,0.7l0,0C127,49.6,126.9,49.6,126.9,49.5z"/>
		<path class="st1" d="M99,52.4c-0.2-0.1-0.3-0.2-0.4-0.3c-0.5-0.6-0.4-1.4,0.2-1.9c3.1-2.6,7.1-3.9,11.2-3.8c0.7,0,1.3,0.6,1.3,1.3
			c0,0,0,0,0,0.1c0,0.8-0.6,1.3-1.4,1.3h-0.1c-3.3,0-6.6,1.1-9.2,3.2C100.1,52.5,99.5,52.6,99,52.4z"/>
		<line class="st3" x1="72.7" y1="106.8" x2="136.2" y2="139.2"/>
	</g>
</g>
</svg>
