<?xml version="1.0" encoding="utf-8"?>
<!-- Generator: Adobe Illustrator 23.1.1, SVG Export Plug-In . SVG Version: 6.00 Build 0)  -->
<svg version="1.1" id="Layer_1" xmlns="http://www.w3.org/2000/svg" xmlns:xlink="http://www.w3.org/1999/xlink" x="0px" y="0px"
	 viewBox="0 0 180 180" style="enable-background:new 0 0 180 180;" xml:space="preserve">
<style type="text/css">
	.st0{fill:#B63C41;}
	.st1{fill:#040000;}
	.st2{fill:#B63C41;stroke:#040000;stroke-width:3;stroke-miterlimit:10;}
	.st3{fill:none;stroke:#040000;stroke-width:6;stroke-miterlimit:10;}
</style>
<title>l</title>
<g id="Layer_2">
	<g id="Layer_1-2">
		<path class="st0" d="M47.4,140.9c-0.7-14.4,3.7-27,14.3-36c6.7-1.9,9.8-4.6,11.8-8.6c1.7-3.7,4-7.2,6.7-10.3
			c-9.2-9.5-18.5-2.3-24.7-0.2c-4,1.6-6.4,2.5-8.5,5.1l-3.3,3.8l-5.9-4.5l6.7-5.6L33.7,75l-5.5,3.5l-1.4-13.4l31.4-20.7
			c2.5-5.8,17.7-14.4,29.1-21.5l4.3-5.9l5.1,11.4c20.5,9.2,28.1,21.8,33.9,36.2c4.5,16.5,3.8,28,2.7,39.2c-1,11.2-2.4,22,1.6,37.2
			L47.4,140.9z"/>
		<path class="st1" d="M36.3,63.7l2.7-0.3l3,2.6l-3.8,4.5l-4.7-2.2L36.3,63.7z M83.1,47.3l-17.4-0.2l9.6-8.2
			C78.5,36.2,86.8,47.3,83.1,47.3z M59.1,44.8l-3.8-4.9c0.3-2.1,3.5-5.1,9.6-8.9c6.1-3.8,12-7.7,18.1-11.8l9.4-12.7l7.9,17.9
			c37.5,18.9,44.1,44.8,39.5,84c-1.6,12,0.2,24.1,5.1,35.1H42.7c-1-19.5,3.5-31.9,18.2-44.4c8.6-1.7,12-9.6,14-12.8
			c-12.9-2.3-21-0.7-24,4.9s-4.6,8.4-4.6,8.4l-17.9-10l9.5-6.7l-4.2-4.1L23.6,86l-1-24.5l32.6-21.7c0,0,3.2-1.1,3.8-0.4
			S59.2,44.8,59.1,44.8L28.9,64.7L29.3,75l5.3-3.4l11.4,11.8l-6.4,5.4l3.8,2.3l3.2-3.7c2.4-2.7,5.5-4.7,8.9-6
			c5.9-2,20.5-5.3,29.3,3.8c-2.9,3.3-5.5,6.9-7.5,10.9c-1.9,3.8-6.1,6.7-12.5,8.5c-10.1,8.6-16.6,19.1-16,32.9h83.8
			c-3.8-14.6-2.6-25-1.6-35.7s1.7-21.7-2.6-37.6c-5.6-13.8-12.9-25.9-32.6-34.7L91,18.5l-4,5.7C76.1,31,61.5,39.2,59.1,44.8
			L59.1,44.8z"/>
		<path class="st1" d="M80.3,82.7c-0.9,1,0.8,3.9,4.4,3.5c1.4-0.2,2.1-1.2,3-1.2c0.9,0.1,1.8,0.1,2.7-0.1
			c8.6-1.2,14.7-10.6,14.9-20.6l-1.6-5.5C100.8,72,95.7,79,88.3,80c-1.2,0.2-2.4,0.3-3.7,0.4C83,80.7,81.5,81.5,80.3,82.7z"/>
		<rect x="28.2" y="141.2" class="st2" width="128.5" height="12"/>
		<polygon class="st2" points="35.6,173.2 43.6,153.8 27.6,153.8 		"/>
		<polygon class="st2" points="51.8,173.2 59.7,153.8 43.8,153.8 		"/>
		<polygon class="st2" points="68.3,173.4 76.3,154 60.4,154 		"/>
		<polygon class="st2" points="84.5,173.4 92.5,154 76.6,154 		"/>
		<polygon class="st2" points="100.6,173.2 108.5,153.8 92.6,153.8 		"/>
		<polygon class="st2" points="116.6,173.2 124.6,153.8 108.7,153.8 		"/>
		<polygon class="st2" points="133.3,173.4 141.3,154 125.3,154 		"/>
		<polygon class="st2" points="149.4,173.4 157.3,154.1 141.4,154.1 		"/>
		<path class="st1" d="M78.8,81.5c-0.9,1,0.9,4,4.5,3.5c1.4-0.2,2.2-1.3,3.1-1.2c0.9,0.1,1.9,0.1,2.8-0.1c8.8-1.3,15-10.9,15.3-21.1
			l-1.6-5.6C99.7,70.4,94.5,77.6,87,78.6c-1.2,0.2-2.4,0.3-3.8,0.4C81.5,79.4,80,80.2,78.8,81.5z"/>
		<path class="st0" d="M66,107.4c4.1-9.8,11.1-16.8,21.2-19.4c5.3,0.9,8.3,0.1,10.9-1.9c2.4-1.9,5.1-3.5,7.9-4.7
			c-3.4-9.4-12.2-7.6-17.1-8.3c-3.3-0.2-5.2-0.4-7.5,0.6l-3.5,1.5l-2.7-4.9l6.4-1.5l-4.5-10l-4.9,0.6l3.2-9.5l28.3-3.5
			c3.6-3.1,16.9-3.8,27-4.9l4.8-2.6l-0.1,9.3C146.9,61,148.3,72,147.8,83.5c-2,12.5-6.2,20-10.4,27.1s-8.6,13.9-10.6,25.4L66,107.4z
			"/>
		<polygon class="st1" points="82.2,52.7 78.9,54.9 81.5,57.9 85.5,56.1 84.2,53.4 		"/>
		<path class="st1" d="M117.2,48.9l-9.3,2.4l12.1,5.8C122.6,58.3,120.3,48.2,117.2,48.9z"/>
		<path class="st1" d="M104.2,47.5c0.4-0.6,1.7-2.8,1.6-3.4c-0.2-0.6-2.8-1-2.8-1l0,0l1.1,4.5C104.1,47.5,104.1,47.5,104.2,47.5z"/>
		<path class="st1" d="M140.2,116.5c15.6-24.7,19.1-44.1-1-69.1l0.1-14.5l-10.6,5.4c-5.5,0.7-10.9,1.4-16.3,1.9
			c-5.4,0.5-8.6,1.5-9.4,2.8l0,0c0,0,2.6,0.3,2.8,1c0.2,0.7-1.2,2.8-1.6,3.4c3.6-2.9,16.2-3.6,25.8-4.6l4.6-2.5l-0.1,8.9
			c11,12.4,12.2,22.8,11.8,33.9c-1.9,12-5.9,19.2-10,26c-4.1,6.8-8.1,13.2-10,23.9l6.1,8.4l0.4,0.2
			C132.8,132.8,135.4,124,140.2,116.5z"/>
		<path class="st1" d="M89.2,89.4c5,0.9,8.8,0.4,11.4-1.6c2.7-2,5.6-3.6,8.6-4.8c-3.3-9-14.4-11.5-19.2-12.2
			c-2.7-0.3-5.5,0.1-8.1,1.1l-3.4,1.4l-1.9-2.8l6.2-1.5l-4.2-11.7l-4.7,0.5l3-7l27.3-3.4c0,0,0.1-0.1,0.1-0.1c0,0-0.1,0.1-0.1,0.1
			l0,0l0,0l0,0L103,43l-29.5,3.8l-7,16.7l9.2-1.4l1.6,4.1l-8.7,1.4l9.3,12.5c0,0,2-1.3,5.8-4.1c3.8-2.8,10-1.2,18.2,4.6
			c-2.4,1.5-7.3,5.6-13.8,4c-14,3.5-20.9,10.1-26.4,23l6.1-1.9C71.9,96.5,79.6,91.8,89.2,89.4z"/>
		<path class="st1" d="M107.2,79.2c-1,0.4-0.7,2.9,2,3.8c1,0.3,1.9-0.1,2.5,0.2c0.6,0.4,1.2,0.6,1.9,0.8c6.4,2,13.5-2.3,16.8-8.9
			l0.6-4.2c-6.2,7.7-12,10.8-17.4,9c-0.9-0.3-1.8-0.6-2.7-1C109.7,78.7,108.4,78.8,107.2,79.2z"/>
		<line class="st3" x1="61.9" y1="106.6" x2="132.3" y2="137.1"/>
	</g>
</g>
</svg>
