<?xml version="1.0" encoding="utf-8"?>
<!-- Generator: Adobe Illustrator 23.1.1, SVG Export Plug-In . SVG Version: 6.00 Build 0)  -->
<svg version="1.1" id="Layer_1" xmlns="http://www.w3.org/2000/svg" xmlns:xlink="http://www.w3.org/1999/xlink" x="0px" y="0px"
	 viewBox="0 0 180 180" style="enable-background:new 0 0 180 180;" xml:space="preserve">
<style type="text/css">
	.st0{fill:#B63C41;}
	.st1{opacity:0.2;fill:#FFFFFF;enable-background:new    ;}
	.st2{opacity:0.2;fill:#040000;enable-background:new    ;}
	.st3{fill:#1A1A1A;}
</style>
<title>t</title>
<g id="Layer_2">
	<g id="Layer_1-2">
		<path class="st0" d="M56.9,44.6c-1,8.6-5.7,48.9-7,58.4C35.4,106.5,35.4,116,35.4,127v3.6H137V127c0-11,0.1-20.5-14.5-23.9
			c-1.2-9.6-5.9-49.9-6.9-58.4"/>
		<path class="st1" d="M86.2,108.6c43.1,0,47.5,4.8,47.5,4.8h0.6c-1.9-10.2-24.4-11.3-24.4-11.3H62.8c0,0-23.4,0.8-24.7,11.3h0.6
			C38.7,113.3,43.2,108.6,86.2,108.6z"/>
		<path class="st2" d="M65,44.6c0,0,21.4-1.3,32.3,12.4s12,43.4,12,43.4c7.2,1.3,12.5,2.8,12.5,2.8L115,45.8"/>
		<path class="st3" d="M136.4,111.5c-2.2-4.7-6.2-7.7-12.5-9.4c-1.3-10.9-5.4-45-6.6-55.5h0.1l-2.9-3.2c-9.5-1.4-19.1-2.3-28.7-2.5
			c-9.6,0.3-19.2,1.1-28.7,2.5l-3.2,3.1l0.2,0.1c-1.2,10.5-5.2,44.7-6.6,55.5c-6.3,1.7-10.3,4.8-12.5,9.4c-2.2,4.7-2.1,9.9-2.1,16.1
			v5.6h105.6v-5.6C138.6,121.5,138.6,116.1,136.4,111.5z M58.2,47.2L58.2,47.2c9.1-1.4,18.4-2.2,27.6-2.4c9.2,0.2,18.5,1.1,27.6,2.4
			c1.2,10.3,4.9,41.9,6.4,54c-0.7-0.1-1.4-0.2-2.1-0.3c-10.6-1.2-21.2-1.8-31.9-1.7c-10.6-0.1-21.3,0.5-31.8,1.7
			c-0.8,0.1-1.5,0.2-2.1,0.3C53.3,89.1,56.9,57.5,58.2,47.2z M134.6,129.2L134.6,129.2H37c0-11.9-0.7-20.3,12.7-23.5l0.3-0.1l1-0.2
			c1-0.2,2.2-0.4,3.4-0.6c10.4-1.2,20.9-1.7,31.4-1.6c10.5-0.1,21,0.5,31.4,1.6c1.2,0.2,2.3,0.3,3.3,0.5l1.1,0.2h0.2
			C135.2,108.9,134.6,117.4,134.6,129.2L134.6,129.2z"/>
		<path class="st0" d="M88.9,76.1c-0.7,6.1-4.1,34.8-5,41.6c-10.3,2.4-10.3,9.2-10.3,17v2.6h72.4v-2.6c0-7.8,0-14.6-10.3-17
			c-0.9-6.8-4.2-35.5-4.9-41.6"/>
		<path class="st1" d="M109.8,121.7c30.7,0,33.9,3.4,33.9,3.4h0.4c-1.4-7.2-17.4-8-17.4-8H93.1c0,0-16.6,0.6-17.6,8h0.4
			C75.9,125,79.1,121.7,109.8,121.7z"/>
		<path class="st2" d="M94.6,76.1c0,0,15.2-0.9,23,8.8s8.6,30.9,8.6,30.9c5.1,0.9,8.9,2,8.9,2l-4.8-40.9"/>
		<path class="st3" d="M145.6,123.8c-1.6-3.3-4.4-5.5-8.9-6.7c-1-7.8-3.8-32.1-4.7-39.6l0,0l-2-2.3c-6.8-1-13.6-1.6-20.5-1.8
			c-6.8,0.2-13.7,0.8-20.4,1.8l-2.2,2.2l0.2,0.1c-0.9,7.5-3.7,31.8-4.7,39.6c-4.5,1.2-7.3,3.4-8.9,6.7c-1.6,3.3-1.5,7.1-1.5,11.5v4
			h75.3v-4C147.1,130.8,147.1,127.1,145.6,123.8z M89.8,77.9L89.8,77.9c6.5-1,13.1-1.5,19.7-1.7c6.6,0.2,13.1,0.8,19.7,1.7
			c0.9,7.3,3.5,29.8,4.6,38.5c-0.5-0.1-1-0.2-1.5-0.2c-7.5-0.9-15.1-1.3-22.7-1.2c-7.6-0.1-15.2,0.3-22.7,1.2
			c-0.5,0.1-1,0.1-1.5,0.2C86.3,107.8,88.9,85.3,89.8,77.9z M144.2,136.4L144.2,136.4H74.7c0-8.5-0.5-14.5,9-16.8l0.2-0.1l0.7-0.2
			c0.7-0.2,1.5-0.3,2.4-0.4c7.4-0.8,14.9-1.2,22.4-1.2c7.5-0.1,14.9,0.3,22.3,1.2c0.8,0.1,1.6,0.2,2.4,0.4l0.8,0.2h0.2
			C144.7,121.9,144.2,127.9,144.2,136.4z"/>
	</g>
</g>
</svg>
