<?xml version="1.0" encoding="utf-8"?>
<!-- Generator: Adobe Illustrator 23.1.1, SVG Export Plug-In . SVG Version: 6.00 Build 0)  -->
<svg version="1.1" id="Layer_1" xmlns="http://www.w3.org/2000/svg" xmlns:xlink="http://www.w3.org/1999/xlink" x="0px" y="0px"
	 viewBox="0 0 180 180" style="enable-background:new 0 0 180 180;" xml:space="preserve">
<style type="text/css">
	.st0{fill:#B63C41;}
	.st1{fill:#040000;}
</style>
<title>t</title>
<g id="Layer_2">
	<g id="Layer_1-2">
		<path class="st0" d="M115.9,43.9l4.5,61l13.8,10.2l1.6,15.9h-100l1.6-15.9l13.8-10.2l4.5-61"/>
		<path class="st1" d="M138.3,111.3l-13.6-10.1l-4.3-56.5l0,0l-6.8-3.1H57.8l-0.1-0.1l-7,2.8l0.6,0.4l-4.3,56.5l-13.6,10.1
			l-2.5,22.6h110L138.3,111.3z M57.3,47.9h57l3.7,50.3H53.6L57.3,47.9z M85.8,127.6H38l1.3-12.8l13.8-10.2h65.4l13.8,10.2l1.3,12.8
			H85.8z"/>
		<path class="st0" d="M133.4,81.4l2.8,38.8l8.8,6.5l1.1,10.1H82.5l1-10.1l8.8-6.5l2.9-38.8"/>
		<path class="st1" d="M147.6,124.2l-8.7-6.4l-2.7-35.9l0,0l-4.3-2H96.5h-0.1L92,81.6l0.3,0.3l-2.7,35.9l-8.7,6.4l-1.6,14.4h69.9
			L147.6,124.2z M96.2,83.9h36.2l2.4,32H93.8L96.2,83.9z M114.3,134.5H83.9l0.8-8.1l8.8-6.5h41.5l8.7,6.5l0.8,8.1L114.3,134.5z"/>
	</g>
</g>
</svg>
