<svg xmlns="http://www.w3.org/2000/svg" viewBox="0 0 180 180"><defs><style>.cls-1{fill:#b63c41;}.cls-2{fill:#040000;}.cls-2,.cls-3{opacity:0.2;isolation:isolate;}.cls-3{fill:#fff;}.cls-4{fill:#1a1a1a;}</style></defs><title>i</title><g id="Layer_2" data-name="Layer 2"><g id="Layer_1-2" data-name="Layer 1"><path class="cls-1" d="M69.43,116c7-5.84,16.42-18.39,16.42-39.19,0-20.46-13.49-35.94-22.13-44.54L61.9,30.42,60.59,32.6c-1.5,2.53-8.82,14.46-9.13,44.61H37.75c.48-45,18-62,18.18-62.16l.65-.65-.07-.91a13,13,0,0,0-12.9-12l0,.05a12.94,12.94,0,0,0-9.5,21.73A107.05,107.05,0,0,0,19.59,37.51C8.75,50.43,3.05,64,3.05,76.78c0,20.8,9.43,33.35,16.42,39.19"/><path class="cls-2" d="M71.43,42.2C94.15,97.33,44.36,114,44.36,114L69.43,116c-2.44,1.85,16-5.24,16-41.36A43.68,43.68,0,0,0,71.43,42.2Z"/><path class="cls-3" d="M37.2,23.37C34.53,22.15,8.59,44,4.3,66.29.3,87.1,7.5,92.85,7.07,92.68c0-.13,2.78-45.8,32.83-68.11C39.9,24.6,38.75,24.07,37.2,23.37Z"/><path class="cls-3" d="M45.4,3.44c-4.34.39-11.78,6.67-12.4,15.35,0,0-6-5.57.06-12.49C37.8.84,45.4,3.44,45.4,3.44Z"/><path class="cls-2" d="M42.48,41.6c1.84-5.06,14.08-29,14.08-29L51,3.41l-2.87.06c9.19,11.26-18,37-18,56.43,0,5.69,1.39,17.22,5.53,19.31C35.75,79.25,38.66,52.14,42.48,41.6Z"/><path class="cls-4" d="M24.32,118C19.32,115.67,4,103.49,4,77.26,4,47.18,36.14,23.85,36.14,23.85a10.94,10.94,0,1,1,17.28-9.7S34.69,31.89,34.69,79.73h17.7c0-29.93,7-42.36,8.86-45.59,9.46,9.42,21.54,24,21.54,43.12,0,26.08-15.13,38.26-20.24,40.71l10.61-3.35c6.61-7,13.63-19.2,13.63-37.36,0-15.71-7.43-30.74-22.72-46l-3.65-3.63-2.61,4.45c-5.76,9.76-9,24.78-9.38,43.63H38.69c.5-21.46,5-36,8.75-44.55,4.32-9.79,8.7-14.09,8.74-14.13l1.35-1.3-.12-1.88A15,15,0,0,0,42.51,0V0A14.93,14.93,0,0,0,30.23,23.45,109,109,0,0,0,17,36.71C5.87,50,0,64,0,77.26c0,17.82,6.76,29.85,13.26,36.95l11,3.81Z"/><path class="cls-4" d="M43.37,118.59c9,0,17.15.28,24.57.93l1.91-3.84c-7.68-.73-16.4-1.09-26.48-1.09h0c-10.19,0-19,.36-26.73,1.11l1.18,3.91C25.5,118.9,34,118.59,43.37,118.59Z"/><rect class="cls-4" x="11.17" y="113.08" width="9.67" height="3.52" transform="translate(-59.61 202.73) rotate(-131.36)"/><rect class="cls-4" x="65.3" y="113.24" width="9.67" height="3.52" transform="translate(201.04 146.72) rotate(135)"/></g></g></svg>