<svg xmlns="http://www.w3.org/2000/svg" viewBox="0 0 180 180"><defs><style>.cls-1,.cls-2,.cls-4{fill:#040000;}.cls-1,.cls-2{stroke:#040000;stroke-miterlimit:10;}.cls-2{stroke-width:4px;}.cls-3{fill:#b63c41;}</style></defs><title>i</title><g id="Layer_2" data-name="Layer 2"><g id="Layer_1-2" data-name="Layer 1"><path class="cls-1" d="M41.82,121.19c-3.42,0-7.62-.11-12.47-.41l.23-3.67a150.75,150.75,0,0,0,22.49,0l.39,3.67C52.23,120.8,48.45,121.19,41.82,121.19Z"/><path class="cls-2" d="M28.56,116.21h0a73.88,73.88,0,0,1-14.38-3.31l8.91-22.12-2.24-1.29c-8.79-5-10.94-7.2-12.75-10.81A24.53,24.53,0,0,1,5,65.64,25.76,25.76,0,0,1,15.37,45C22.68,39.43,29.85,33.74,37,25.49l1.29-1.44.82-1.12-2.4-1.76-.75,1-1.23,1.39c-7,8-14,13.62-21.19,19.09A28.72,28.72,0,0,0,2,65.6,27.26,27.26,0,0,0,5.49,80.09c2.05,4.13,4.45,6.56,13.86,12L10.23,114.7l1.47.51A79,79,0,0,0,28,119.15l.52-2.88Z"/><path class="cls-2" d="M68.71,115.17l1.48-.5L61.07,92.06c9-5.26,11.47-7.69,13.86-11.94a29.91,29.91,0,0,0,3.39-14.6c-.26-6.66-2.45-16-11.5-22.91-8-5.89-14.67-11.38-21.18-19.08l-1.15-1.37-.72-1-2.43,1.71L42.1,24l1.26,1.51C50.08,33.39,56.89,39,65,45c8.11,6.16,10.08,14.65,10.31,20.59a27,27,0,0,1-3,13.09c-2.09,3.71-4.33,5.86-12.75,10.81l-2.22,1.28,8.91,22.08a81.37,81.37,0,0,1-14.29,3.3l.4,2.66L53,119A87.06,87.06,0,0,0,68.71,115.17Z"/><path class="cls-3" d="M50.07,118.09H50l2.6-.31a85.86,85.86,0,0,0,16.34-3.92l-9.1-22.5,1.12-.65c8.81-5.13,11.17-7.47,13.43-11.47a28.74,28.74,0,0,0,3.26-14c-.24-6.37-2.35-15.42-11-22-8.17-6-15-11.63-21.66-19.53l-1.2-1.42L43,21.21H38.31l-.8,1.09-1.26,1.45C29.11,32,21.94,37.66,14.61,43.25a27.43,27.43,0,0,0-11.09,22A25.88,25.88,0,0,0,6.86,79.17c2,3.9,4.26,6.2,13.43,11.49l1.13.65-9.11,22.6a78,78,0,0,0,16.38,3.91l2.66.3H50.09Z"/><path class="cls-4" d="M68.38,115.36a84.51,84.51,0,0,0-15.93-4.24l-2.59-.36a122.5,122.5,0,0,0-18.37-.42l-2.6.23A76.23,76.23,0,0,0,12.79,114l-.93-2.85a78.72,78.72,0,0,1,16.76-3.58l2.67-.24a124.31,124.31,0,0,1,19,.44l2.61.37a87.7,87.7,0,0,1,16.54,4.39Z"/><path class="cls-4" d="M60.9,93.77A80.09,80.09,0,0,0,40.55,91.6,80.14,80.14,0,0,0,20.2,93.77l-.83-3.14a84.82,84.82,0,0,1,21.18-2.32,85,85,0,0,1,21.19,2.32Z"/><circle class="cls-3" cx="40.69" cy="11.5" r="10"/><path class="cls-4" d="M40.69,23a11.5,11.5,0,1,1,11.5-11.5A11.5,11.5,0,0,1,40.69,23Zm0-20a8.5,8.5,0,1,0,8.5,8.5h0A8.52,8.52,0,0,0,40.69,3Z"/><path class="cls-4" d="M37.46,71.5V64.36l-7.35-.09a2.65,2.65,0,0,1-3-3,2.65,2.65,0,0,1,3-3h7.35V50.61c0-2,1.06-3.1,3.19-3.1a2.76,2.76,0,0,1,3.09,2.38,2.89,2.89,0,0,1,0,.72v7.61h7.61c2,0,2.93,1,2.93,3s-1,3-2.93,3H43.74v7.26c0,2.12-1.06,3.18-3.09,3.18A2.84,2.84,0,0,1,37.46,71.5Z"/></g></g></svg>