<svg xmlns="http://www.w3.org/2000/svg" viewBox="0 0 88.36 116.76"><defs><style>.cls-1{fill:#b63c41;}.cls-2{fill:#040000;}</style></defs><title>资源 15</title><g id="图层_2" data-name="图层 2"><g id="图层_1-2" data-name="图层 1"><path class="cls-1" d="M18.4,93.19l.88.84,1.15-.4a70.34,70.34,0,0,1,23.78-3.49A71.16,71.16,0,0,1,68,93.63l1.15.4.89-.84c11.3-10.77,15.58-21.42,12.71-31.72-3.59-11.58-15.84-24-37.44-38l-1.07-.75-1.09.71C21.4,37.52,9.21,50,5.68,61.49h0C2.71,71.76,7,82.42,18.4,93.19Z"/><path class="cls-1" d="M68,96.38l-1.33-.45a64.85,64.85,0,0,0-22.42-3.35,65,65,0,0,0-22.47,3.36l-1.32.46v1.39A43.92,43.92,0,0,1,18,110.43l-.81,2.6H71.29l-.9-2.64A43,43,0,0,1,68,97.78Z"/><path class="cls-1" d="M44.21,7.18c3.68,0,5.57,1.55,5.49,4.72.08,3.77-1.72,5.68-5.49,5.68s-5.66-1.89-5.49-5.66C38.64,8.73,40.44,7.18,44.21,7.18Z"/><polygon class="cls-2" points="48.24 78.96 48.24 64.81 56.39 64.81 56.39 57.18 48.24 57.18 48.24 48.26 40.18 48.26 40.18 57.18 32.03 57.18 32.03 64.81 40.18 64.81 40.18 78.96 48.24 78.96"/><path class="cls-2" d="M76.49,42.45C71.6,37.13,62.77,30.1,49.82,21.35c1.8-1.29,6.43-3.68,6.43-9.86C56.25,4.89,50.76,0,44.16,0c-6.78,0-12.1,4.89-12.1,11.49,0,6.18,4.47,8.57,6.44,9.86Q19.08,34.48,11.74,42.45A47.79,47.79,0,0,0,1.62,58.74C-3.18,72.38,3,83.44,16,97.08a42.34,42.34,0,0,1-6.17,19.63H27.57v0H34.1l0,0h5v0h10.1v0h5l0,.05h6.5l0-.05H78.46a42.07,42.07,0,0,1-6.17-19.63C78.8,90.3,83.44,83.87,86.18,77.87,91.67,66,86.18,53.17,76.49,42.45Zm-56.6,68h0a46.78,46.78,0,0,0,2.49-13.2A62.71,62.71,0,0,1,44.16,94a63.15,63.15,0,0,1,21.78,3.26,44.07,44.07,0,0,0,2.49,13.2ZM68.6,91.2a72.16,72.16,0,0,0-24.44-3.64,71.68,71.68,0,0,0-24.44,3.6C8.82,80.87,4.79,71,7.54,61.49c3.34-11.07,15.62-23.33,36.62-37,21,13.63,33.19,25.89,36.62,37Q84.79,75.8,68.6,91.2Z"/></g></g></svg>