<?xml version="1.0" encoding="utf-8"?>
<!-- Generator: Adobe Illustrator 23.1.1, SVG Export Plug-In . SVG Version: 6.00 Build 0)  -->
<svg version="1.1" id="Layer_1" xmlns="http://www.w3.org/2000/svg" xmlns:xlink="http://www.w3.org/1999/xlink" x="0px" y="0px"
	 viewBox="0 0 180 180" style="enable-background:new 0 0 180 180;" xml:space="preserve">
<style type="text/css">
	.st0{fill:#B63C41;}
	.st1{opacity:0.2;}
	.st2{fill:#FFFFFF;}
	.st3{fill:#1A1A1A;}
	.st4{opacity:0.2;fill:#040000;enable-background:new    ;}
	.st5{opacity:0.2;fill:#FFFFFF;enable-background:new    ;}
</style>
<title>o</title>
<g id="Layer_2">
	<g id="Layer_1-2">
		<path class="st0" d="M130.1,82.6c0.9-0.5,2-1.1,3.3-1.8c5.2-2.7,12.3-6.4,16-9.9c8.6-8.2,13.3-17.8,13.5-27.8
			c0.1-8.4-2.8-16.6-8.1-23.2l0.3-10.7V8.9l-0.4-0.4c-1.4-1.2-3.4-1.3-5-0.3l-3.6,2.2c-1.9,0.7-3.8,0.7-6.7,0.3
			c-2.2-0.3-4.4,0.1-6.4,1l-0.2,0.1c-1.4,0.6-2.6,1.1-3.6,1.6c-2.6,1.3-5.4,2.2-8.2,2.7l-12.2,1.6c-3.4,0.2-6,3-5.9,6.4
			c0.2,3.3,3.2,9,4.7,10.6c0.3,0.4,0.8,0.7,1.4,0.7c1.2,0,2.5-0.1,3.7-0.4c2.6-0.5,4.4-0.8,6.9,1.8c3.7,3.9,10.3,3.9,13.5,3.9l0,0
			l2-0.1c-0.4,2.1-1.8,4-3.6,5.1c-1,0.5-2,0.8-3.1,1c-2.3,0.3-4.6,0.2-6.9-0.2h-0.2c-5.8-0.8-15.5-2.1-22.6,2.9"/>
		<g class="st1">
			<path class="st2" d="M144.9,15.7c5.6,1.5,9.1-6.4,9.1-6.4c-1-1.1-2.6-1.3-3.9-0.5l-3.7,2.2c-2.1,0.8-4.1,0.8-7,0.4
				c-2.1-0.3-4.2,0-6.1,0.9l-0.2,0.1c-1.4,0.6-2.5,1.1-3.6,1.6c-2.6,1.4-5.5,2.3-8.4,2.7L109,18.5h-0.4c-1.8-0.1-3.4,1.1-3.8,2.8
				c0,0,18.3-1.4,20.8-1.7C130.1,19.1,134.1,12.9,144.9,15.7z"/>
		</g>
		<path class="st3" d="M141.1,20.2c-3.1-1.4-7.7,1.7-7.7,1.7c4.1,0.4,2.9,3.6,6.8,4.2C143.5,26.6,144.2,21.6,141.1,20.2z"/>
		<path class="st4" d="M144,37.7c-2.3,0.7-7.3,1.6-7.3,1.6s-0.8,0.4-2,1c0,0,1,0.8-1.8,3.8c-0.7,0.8-3,3.7-1.5,3.1
			c4.6-1.8,9.4-4.6,10.8-5.9S146.3,37,144,37.7z"/>
		<path class="st4" d="M153.6,20.5c0,0,14.9,20.2-2.4,36.5c-11.6,10.9-22.1,6.3-31.8,11.6c0,0,8,8.6,9.8,14.1
			c0,0,14.8-6.3,21.3-12.5C157.2,63.9,172.8,39.7,153.6,20.5z"/>
		<path class="st4" d="M122.1,37.7c-1.8-5.9-0.4-9.1-6.6-6.3c-5.9,2.8-8.9,1.2-7.9,3.2s7.9-0.9,9.2,0.3
			C118.2,36.1,122.8,39.9,122.1,37.7z"/>
		<path class="st3" d="M120.4,48.6c2.4,0.4,4.8,0.5,7.2,0.2c1.2-0.2,2.4-0.6,3.4-1.1c3.6-1.9,4.4-6.1,4.6-7.5l-3.6,0.2
			c-3.4,0-9.4-0.1-12.7-3.5c-4.2-4.4-7.4-1.6-11.4-1.8c-0.2-0.1-0.4-0.2-0.5-0.4c-1.4-1.4-4.2-6.8-4.4-9.8c-0.1-2.7,2.1-5,4.8-5.1
			l12.2-1.7c5.6-0.9,7.4-2.5,12.1-4.3c1.9-0.9,3.9-1.3,6-1c3,0.4,5.1,0.4,7.4-0.4l3.8-2.2c1.1-0.7,2.5-0.6,3.6,0.1l0,0l0,0
			l-0.3,11.1c9.8,11.9,13.5,32.1-5,49.6c-4.8,4.5-16.2,9.8-19.8,11.9l3.1,1.2v-0.1l2.2-1.2c5.3-2.7,12.4-6.5,16.2-10.1
			c18.6-17.6,16.4-38.8,5.8-52.2l0.3-10.2v-1l-0.7-0.7c-1.8-1.7-4.5-1.9-6.6-0.6l0,0l-3.6,2.1c-1.7,0.6-3.4,0.5-6,0.2
			c-2.4-0.3-4.8,0-7,1l-0.2,0.1c-1.4,0.7-2.6,1.2-3.6,1.7c-2.5,1.3-5.2,2.2-7.9,2.6l-12.1,1.7c-4,0.2-7.1,3.6-7,7.6
			c0.2,3.7,3.4,9.6,5,11.3c0.5,0.6,1.3,1,2.2,1.1c1.3,0,2.7-0.1,4-0.4c2.4-0.5,3.8-0.7,5.8,1.4c4,4.2,11,4.3,14.4,4.3h0.4
			c-0.5,1.2-1.4,2.1-2.4,2.7c-0.8,0.4-1.8,0.7-2.7,0.9c-2.2,0.2-4.4,0.1-6.6-0.2h-0.2c-5.8-0.8-15.3-2-22.7,2.6v3
			C104.8,46.5,114.8,47.9,120.4,48.6z"/>
		<path class="st0" d="M62.9,30.6h-0.8c-2.7,0-5.4,2.5-6.2,5.6l-1.4,6.9c-1.3,3.1-3.5,5.4-7.1,8.3c-2.8,2.3-4.9,5.3-6.1,8.7
			l-0.2,0.4c-0.9,2.3-1.6,4.3-2.2,6.1c-1.3,4.6-3.4,8.9-6.1,12.8L21.2,95.9c-3.6,4.5-3.2,10.8,0.9,14.3s14.4,6.3,17.9,6.3
			c0.9,0.1,1.7-0.2,2.4-0.8c1.4-1.5,2.7-3.1,3.7-4.8c2.3-3.6,4-6.2,9.9-6.2c8.7,0,16.3-8,19.9-11.8l0,0l2.2-2.5
			c1.5,2.3,3.1,6.1,2,10.1c-0.5,1.7-1.3,3.3-2.3,4.7c-2.3,3-5,5.7-8,8l-0.2,0.2c-7.5,6.1-20,16.2-22.1,30.3
			c-13.3,3.6-13.3,12.9-13.3,23.6v3.6H136v-3.6c0-10.7,0.1-20-13.3-23.6c0.4-1.6,1-3.6,1.6-5.9c2.6-9.2,6.2-21.9,6.2-30.2
			c0-19.6-6.2-36-17.9-47.5c-9.9-9.6-23-15.5-36.8-16.5L63.5,31.2L62.9,30.6z"/>
		<path class="st5" d="M85.6,148.8c43.1,0,47.5,4.8,47.5,4.8h0.6c-2-10.2-24.5-11.3-24.5-11.3H62.1c0,0-23.4,0.8-24.7,11.3H38
			C38,153.5,42.5,148.8,85.6,148.8z"/>
		<g class="st1">
			<path class="st2" d="M59.5,50.6c8.1-5,2.6-18,2.6-18c-2.4,0-4.5,1.6-5,4l-1.5,6.9c-1.4,3.4-3.7,5.7-7.5,8.8
				c-2.7,2.2-4.7,5-5.8,8.3L42.3,61c-0.9,2.3-1.5,4.2-2.1,6c-1.3,4.7-3.4,9.1-6.2,13.1L22.3,96.5c-0.2,0.2-0.3,0.3-0.4,0.5
				c-2.2,2-2.6,5.3-1,7.7c0,0,19-23.4,21.5-26.7C46.9,72,44,60.2,59.5,50.6z"/>
		</g>
		<path class="st3" d="M60.6,60.2c-5.2,2.1-6.6,11-6.6,11c5.1-4.4,7.5,0.7,12.6-3.4C70.9,64.5,65.8,58,60.6,60.2z"/>
		<path class="st4" d="M84.8,76.4C82.9,79.9,78.4,87,78.4,87s-0.5,1.4-1,3.5c0,0,2.1-0.2,2.5,6.4c0.1,1.7,0.9,7.8,2,5.2
			c3-7.4,5.2-16.4,5.1-19.5S86.5,72.9,84.8,76.4z"/>
		<path class="st4" d="M75,45.5c0,0,40.8,5.1,40.8,44.1c0,26.1-17.4,33.4-22,51c0,0,19.3,0.1,27.9,4.2c0,0,9.2-24.8,9.2-39.6
			C130.9,90.2,119.5,44.4,75,45.5z"/>
		<path class="st4" d="M60,102.6c-9.1-4.5-11.4-9.8-14.9,0.7c-3.4,10.2-8.5,11.9-5.1,13s7.8-10.4,10.8-10.6S63.4,104.2,60,102.6z"/>
		<path class="st3" d="M62.1,32.6L75,45.5c25.3,1.7,53.5,20.1,53.5,62c0,11.1-7,31.5-8.3,37.6c14.4,3,13.7,11.6,13.7,23.8H36.4
			c0-12-0.7-20.5,13.1-23.6c1.4-14.2,14.4-24.5,21.7-30.5c3.2-2.4,6-5.2,8.4-8.4c1.1-1.6,2-3.5,2.6-5.4c1.8-6.4-2.3-12.1-3.8-13.9
			l-3.8,4.4c-3.8,4.1-10.7,11.1-18.5,11.1c-10,0-10.3,7.1-15,11.7c-0.3,0.2-0.7,0.2-1,0.2c-3.3,0-12.9-2.7-16.6-5.8
			c-3.2-2.7-3.6-7.8-0.6-11.5l11.7-16.5C39.8,73,40,69,43,61.3c1-3.3,3-6.1,5.6-8.3c3.8-3.2,6.3-5.6,7.8-9.3l1.5-7
			C58.4,34.6,60.3,32.6,62.1,32.6 M63.8,28.6h-1.7c-3.7,0-7.2,3.1-8.1,7.2v0.1l-1.4,6.6c-1.2,2.6-3.1,4.6-6.5,7.4
			c-3.1,2.5-5.4,5.8-6.7,9.5l-0.2,0.4c-0.9,2.3-1.6,4.4-2.2,6.2c-1.3,4.4-3.2,8.6-5.9,12.3L19.6,94.7c-4.2,5.3-3.8,12.8,1.2,17
			c4.6,3.9,15.4,6.8,19.2,6.8c1.4,0.1,2.8-0.4,3.8-1.3c1.5-1.6,2.9-3.3,4-5.2c2.2-3.4,3.4-5.3,8.2-5.3c9.6,0,17.5-8.4,21.3-12.4
			l0.1-0.1l0.1-0.1l0.3-0.3c0.8,1.9,1,4,0.5,6c-0.4,1.5-1.1,2.9-2,4.2c-2.2,2.9-4.7,5.4-7.6,7.6l-0.2,0.2
			C61,117.8,48.8,127.8,46,142c-5.8,1.8-9.6,5-11.6,9.5c-2,4.5-2,9.7-1.9,15.7v5.6H138v-5.6c0-6.1,0-11.3-2-15.9
			c-2-4.3-5.4-7.3-10.8-9.1c0.3-1.2,0.7-2.6,1.1-4c2.7-9.4,6.3-22.2,6.3-30.7c0-42.1-27.7-63.3-55.7-65.8L64.9,29.8L63.8,28.6
			L63.8,28.6z"/>
		<path class="st3" d="M85.6,142.8c10.5-0.1,21,0.5,31.4,1.6c1.7,0.2,3.5,0.6,5.2,1l0.7-4c-1.8-0.4-3.5-0.8-5.3-1
			c-10.6-1.2-21.2-1.8-31.9-1.7l0,0c-10.6-0.1-21.3,0.5-31.8,1.7c-1.9,0.2-3.7,0.6-5.6,1l0.8,3.9c1.7-0.4,3.5-0.8,5.3-1
			C64.6,143.2,75.1,142.6,85.6,142.8z"/>
	</g>
</g>
</svg>
