<?xml version="1.0" encoding="utf-8"?>
<!-- Generator: Adobe Illustrator 23.1.1, SVG Export Plug-In . SVG Version: 6.00 Build 0)  -->
<svg version="1.1" id="Layer_1" xmlns="http://www.w3.org/2000/svg" xmlns:xlink="http://www.w3.org/1999/xlink" x="0px" y="0px"
	 viewBox="0 0 180 180" style="enable-background:new 0 0 180 180;" xml:space="preserve">
<style type="text/css">
	.st0{fill:#B63C41;}
	.st1{fill:#040000;}
</style>
<title>o</title>
<g id="Layer_2">
	<g id="Layer_1-2">
		<path class="st0" d="M61.7,39.5c-5.9-5.1-12.6-9.1-19.9-11.9c-0.3,7.9,1,15.7,3.7,23.2l0.3,0.9l-0.7,0.7c-0.8,0.8-1.6,1.6-2.3,2.4
			l-0.3,0.3c-0.4,0.4-0.7,0.9-1.1,1.3c-0.9,1-1.7,2.1-2.4,3.2c-0.2,0.4-0.8,1.3-1.6,2.5c-1.6,2.5-2.5,6.4-2.5,11.2v0.1
			c-0.5,5-5,12.7-11,22.2c-5.1,8-9,13-9,17.4c0,3,0.4,6.1,1.3,9c1.6,5.3,6.7,9.9,12.6,12.1l4.7-2.6c0,0,4.4,3.6,8.7,3.6
			s10.2-8,11.3-10.2c0,0,1-5.8,4.5-9.4c4-4.1,9.7-4.8,17.3-7.5c7.1-1.9,12.1-9.1,12.1-9.1c0.2,5-0.4,10.1-1.9,14.9
			c-2.5,7-8.8,13.2-14.8,19.2c-1.2,1.2-2.3,2.3-3.5,3.5c-4.2,4.3-5.7,6.7-6.3,7.7c-4.2,7.5-5.4,12.3-5.8,14.5
			c-0.5,3-0.7,6.1-0.4,9.2h102.9v-17.2c0-14.7-0.6-33.8-5.2-50.3c-3.7-13-10.6-26.3-18.4-35.5c-10.9-13-29.4-20.9-43.4-21.7
			c-3.3-0.2-6.7-0.2-10,0c-1.1-2.8-3.1-9.4-10.8-14.6C66.5,31.7,63.6,35.4,61.7,39.5z"/>
		<path class="st1" d="M159.5,169.6H53.7l-0.2-1.3c-0.3-3.3-0.1-6.5,0.4-9.7c0.3-2.2,1.6-7.2,5.9-15c0.7-1.3,2.4-3.8,6.5-8
			c1.1-1.2,2.3-2.3,3.5-3.5c5.9-5.9,12-12,14.4-18.6c1-3.3,1.7-6.8,1.8-10.3c-2.8,3-6.2,5.2-10.1,6.4c-2.1,0.8-4.1,1.4-5.9,1.9
			c-4.6,1.4-8.1,2.5-10.8,5.2c-3.2,3.2-4.1,8.5-4.1,8.6v0.2l-0.1,0.2c-0.8,1.4-7.1,11-12.6,11c-3.7,0-7.3-2.2-8.8-3.3l-4.5,2.5
			l-0.6-0.2c-6.7-2.6-11.9-7.6-13.5-13.1c-0.9-3-1.4-6.2-1.4-9.4c0-4,2.7-8,6.4-13.7c0.9-1.4,1.9-2.9,2.9-4.5
			c5.2-8.2,10.3-16.7,10.7-21.6v-0.1c0-5,0.9-9.2,2.7-12c0.8-1.2,1.3-2,1.5-2.4c0.8-1.2,1.8-2.3,2.8-3.4c0.4-0.3,0.7-0.8,1.1-1.2
			l0.3-0.3c0.7-0.9,1.5-1.7,2.3-2.5l0,0c-2.8-7.6-4.1-15.7-3.8-23.7l0.1-2.1l2,0.7c6.8,2.6,13.2,6.3,18.8,10.9
			c2-3.7,4.7-6.9,8.1-9.5l0.9-0.7l0.9,0.6c5.1,3.5,9,8.5,11,14.3c3-0.1,6-0.1,9,0.1c13,0.7,32.4,7.9,44.5,22.2
			c7.9,9.3,14.9,22.8,18.7,36c4.6,16.7,5.2,35.9,5.2,50.7L159.5,169.6z M56.5,166.6h100v-15.7c0-14.7-0.6-33.6-5.1-49.9
			c-3.7-12.8-10.4-25.9-18.1-34.9c-11.5-13.6-30-20.5-42.3-21.1c-3.3-0.2-6.5-0.2-9.8,0L80,45.1l-0.6-1.7c-1.7-5.1-4.8-9.5-9.1-12.7
			c-3.1,2.6-5.5,5.8-7.2,9.4L62.3,42l-1.5-1.3c-5.2-4.5-11.1-8.2-17.4-10.8c0,7,1.3,13.9,3.6,20.4l0.7,1.8l-1.3,1.3
			c-0.8,0.7-1.5,1.5-2.1,2.3l-0.3,0.4c-0.5,0.5-0.9,1-1.2,1.4c-0.8,0.9-1.5,1.9-2.2,2.9c-0.3,0.4-0.8,1.4-1.6,2.6
			c-1.4,2.2-2.2,5.9-2.2,10.4v0.2c-0.5,5.1-4.5,12.2-11.2,23c-1,1.6-2,3.1-2.9,4.5c-3.4,5.2-5.9,9-5.9,12c0,2.9,0.4,5.7,1.2,8.5
			c1.3,4.4,5.6,8.7,11.1,10.9l5-2.7l0.8,0.6c0,0,4.1,3.3,7.8,3.3c3.2,0,8.5-6.7,9.9-9.2c0.2-1.2,1.5-6.4,4.9-9.9
			c3.2-3.2,7.3-4.5,12.1-6c1.8-0.6,3.7-1.1,5.8-1.9h0.1c6.6-1.8,11.2-8.5,11.3-8.5l2.4-3.4l0.3,4.2c0.2,5.3-0.4,10.5-2,15.6
			c-2.7,7.3-9,13.6-15.1,19.7c-1.2,1.2-2.3,2.3-3.4,3.5c-4.2,4.3-5.6,6.6-6,7.4c-4.1,7.4-5.3,12-5.6,14.1
			C56.5,161.7,56.3,164.2,56.5,166.6L56.5,166.6z"/>
		<path class="st1" d="M33.6,133.1c-0.8,0-1.5-0.7-1.5-1.5c0-0.5,0.3-1,0.7-1.3c3.6-2.3,6.8-5.1,9.5-8.4c0.5-0.6,1.5-0.7,2.1-0.2
			c0.6,0.5,0.7,1.5,0.2,2.1l0,0c-2.9,3.5-6.4,6.6-10.2,9.1C34.1,133.1,33.9,133.1,33.6,133.1z"/>
		<path class="st1" d="M87.5,100.6c-0.8,0-1.5-0.7-1.5-1.5c0-0.3,0.1-0.5,0.2-0.7c1.8-3.6,2.8-7.5,3.1-11.4c0-0.8,0.7-1.4,1.6-1.4
			h0.1c0.8,0.1,1.4,0.8,1.4,1.6l0,0c-0.3,4.4-1.5,8.7-3.5,12.7C88.6,100.3,88.1,100.6,87.5,100.6z"/>
		<path class="st1" d="M26.2,116.8c-1.1,0-2-0.9-2-2c0-0.4,0.1-0.7,0.3-1c1.3-2.1,4.2-5.5,7-4.6c0.9,0.3,2.3,1.2,2.1,4
			c0,0.8-0.6,1.5-1.4,1.8l-5.4,1.8C26.6,116.8,26.4,116.9,26.2,116.8z"/>
		<circle class="st1" cx="53.8" cy="71.5" r="4.8"/>
		<path class="st1" d="M59.5,49.7L59.5,49.7c-0.8,0-1.5-0.7-1.5-1.5c0.2-3.2,1.1-6.4,2.5-9.3c0.3-0.8,1.1-1.2,1.9-0.9
			c0.8,0.3,1.2,1.1,0.9,1.9c0,0,0,0.1,0,0.1c0,0.1,0,0.1-0.1,0.2c-1.2,2.5-2,5.2-2.2,8C61,49,60.3,49.7,59.5,49.7
			C59.5,49.7,59.5,49.7,59.5,49.7z"/>
		<path class="st1" d="M83.1,55.3c-0.7,0-1.4-0.5-1.5-1.2c-0.6-3.6-1.7-9.1-2-10c-0.3-0.8,0.1-1.7,0.9-2c0.8-0.3,1.7,0.1,2,0.9
			c0.5,1.4,1.9,9,2.1,10.5c0.2,0.8-0.4,1.6-1.2,1.8c0,0,0,0-0.1,0l0,0C83.3,55.3,83.2,55.3,83.1,55.3z"/>
		<path class="st1" d="M47.9,77.1c-0.3,0-0.6-0.1-0.8-0.2c-1-0.5-1.5-1.6-1-2.6c2.5-5.4,6.9-9.8,12.3-12.3c1-0.5,2.2,0,2.7,1
			s0,2.2-1,2.7l0,0l-0.2,0.1c-4.5,2.1-8.1,5.7-10.2,10.2C49.4,76.6,48.7,77.1,47.9,77.1z"/>
		<path class="st0" d="M154.5,19.4c-0.1-2.8-0.7-5.6-1.8-8.2c-2.2,1.9-4,4.3-5.3,6.9l-0.2,0.3H147c-0.4,0-0.8,0-1.2,0h-0.2
			c-0.2,0-0.4,0-0.6,0c-0.5,0-1,0.1-1.5,0.2c-0.2,0-0.5,0.1-1.1,0.2c-1.4,0.4-2.6,1.2-3.6,2.2l0,0c-1.4,1.2-4.6,1.9-8.7,2.8
			c-3.4,0.7-5.7,1-6.9,2.1c-0.8,0.8-1.5,1.6-2.1,2.6c-1,2-1,4.3-0.1,6.4l1.9,0.6c0.1,1.2,0.5,2.3,1.2,3.2c1.1,1.1,4.7,0.6,5.5,0.4
			c1.1-0.7,2.3-1.1,3.6-1.2c2.1,0,3.7,1.3,6.3,2.6c1.7,0.8,3.6,1.1,5.4,0.8c-1.3,1.3-2.8,2.5-4.4,3.3c-2.5,1.1-5.7,1.1-8.8,1h-1.8
			c-1.2-0.1-2.4,0.1-3.6,0.3c-1.9,0.4-3.7,1.2-5.3,2.2c-0.9,0.6-1.8,1.4-2.6,2.2l25.7,27l4.6-4.4c3.9-3.8,8.8-8.8,12.1-14.2
			c2.5-4.2,4.2-8.9,4.9-13.8c0.5-6.1-1.3-12.1-5.1-16.9c-0.8-0.9-1.6-1.8-2.5-2.6c1.1-2,1.5-4.3,1.2-6.5
			C157.8,18.7,156.1,18.8,154.5,19.4z"/>
		<path class="st1" d="M144.4,78l-26.4-27.6l0.3-0.4c0.8-0.9,1.7-1.7,2.7-2.4c1.7-1.1,3.5-1.8,5.5-2.3c1.2-0.3,2.5-0.4,3.8-0.3h1.8
			c3,0,6.2,0.1,8.6-1c1.2-0.6,2.2-1.3,3.2-2.2c-1.5,0-2.9-0.3-4.2-1c-0.7-0.4-1.4-0.7-2-1c-1.2-0.8-2.6-1.4-4.1-1.5
			c-1.2,0.1-2.3,0.5-3.3,1.1l-0.1,0.1h-0.1c-0.6,0.2-4.7,1-6.1-0.5c-0.7-0.9-1.2-2-1.3-3.2l-1.8-0.5l-0.1-0.2c-1-2.2-1-4.7,0.1-6.9
			c0.6-1,1.3-2,2.2-2.8c1.1-1,2.8-1.3,5.2-1.8c0.6-0.1,1.2-0.2,1.9-0.4c3.5-0.7,7-1.6,8.4-2.7l0,0c1.1-1.1,2.4-1.9,3.9-2.3
			c0.5-0.1,0.9-0.2,1-0.2c0.5-0.1,1.1-0.1,1.6-0.2c0.2,0,0.4,0,0.6,0h0.1c0.4,0,0.8,0,1.2,0l0,0c1.3-2.6,3.2-5,5.4-7l0.6-0.5
			l0.3,0.7c1,2.4,1.6,5,1.8,7.7c1.5-0.4,3-0.5,4.6-0.3l0.4,0.1l0.1,0.4c0.4,2.2,0,4.5-1.1,6.5c0.8,0.7,1.5,1.5,2.2,2.4
			c3.9,4.8,5.8,11,5.3,17.2c-0.7,4.9-2.4,9.7-4.9,14c-3.3,5.5-8.2,10.5-12.2,14.3L144.4,78z M119.4,50.4l25,26.1l4.2-4
			c3.9-3.7,8.8-8.7,12-14c2.5-4.2,4.1-8.8,4.8-13.6c0.5-5.9-1.3-11.8-5-16.4c-0.8-0.9-1.6-1.8-2.4-2.6l-0.3-0.3l0.3-0.6
			c0.9-1.7,1.3-3.7,1.1-5.6c-1.5-0.1-2.9,0-4.3,0.5l-0.7,0.2v-0.7c-0.1-2.5-0.6-5-1.5-7.3c-1.8,1.8-3.4,3.8-4.5,6.1l-0.3,0.6H147
			c-0.4,0-0.8,0-1.1,0h-0.2H145c-0.4,0-0.9,0.1-1.3,0.2c-0.2,0-0.6,0.1-1.1,0.2c-1.3,0.4-2.4,1.1-3.3,2.1h-0.1
			c-1.5,1.2-4.4,2-8.9,2.9c-0.7,0.2-1.3,0.3-1.9,0.4c-2.2,0.4-3.9,0.8-4.7,1.5c-0.8,0.7-1.5,1.6-2,2.5c-0.9,1.8-0.9,3.8-0.1,5.7
			l2,0.6v0.4c0.1,1.1,0.5,2.1,1.1,2.9c0.8,0.8,3.9,0.5,4.9,0.2c1.2-0.7,2.5-1.2,3.9-1.2c1.7,0.1,3.2,0.7,4.6,1.6
			c0.6,0.3,1.2,0.7,1.9,1l0,0c1.6,0.8,3.3,1,5.1,0.8l1.5-0.2l-1,1.2c-1.3,1.4-2.9,2.6-4.6,3.4c-2.6,1.2-5.9,1.1-9,1.1h-1.8
			c-1.2-0.1-2.3,0-3.5,0.3c-1.9,0.4-3.6,1.2-5.2,2.2C120.7,49.1,120,49.7,119.4,50.4L119.4,50.4z"/>
		<path class="st1" d="M122.6,35.9c-0.2-0.2-0.2-0.6,0-0.8c0,0,0,0,0,0c0.1-0.1,0.3-0.2,0.5-0.1c1.5,0.3,3.1,0.5,4.6,0.3
			c0.3,0,0.6,0.2,0.6,0.5c0,0,0,0,0,0c0,0.3-0.2,0.6-0.5,0.6c-1.7,0.1-3.4,0-5-0.4C122.7,36,122.7,35.9,122.6,35.9z"/>
		<path class="st1" d="M144.7,41.7c-0.2-0.2-0.2-0.5,0-0.8c0,0,0,0,0,0c0.1-0.1,0.1-0.1,0.2-0.1c1.4-0.4,2.7-1.2,3.8-2.1
			c0.2-0.2,0.6-0.2,0.7,0c0,0,0,0,0,0l0,0c0.2,0.2,0.2,0.6-0.1,0.7c0,0,0,0,0,0l0,0c-1.2,1.1-2.7,1.8-4.2,2.3
			C145.1,41.8,144.9,41.8,144.7,41.7z"/>
		<path class="st1" d="M125.1,29.8c-0.3-0.3-0.3-0.7,0-1c0.1-0.1,0.2-0.2,0.3-0.2c0.9-0.2,2.5-0.3,3,0.6c0.1,0.3,0.3,0.9-0.5,1.6
			c-0.2,0.2-0.6,0.2-0.8,0.1l-1.8-1C125.2,29.9,125.1,29.8,125.1,29.8z"/>
		<ellipse transform="matrix(0.7226 -0.6913 0.6913 0.7226 22.3675 106.6341)" class="st1" cx="144" cy="25.4" rx="1.8" ry="1.7"/>
		<path class="st1" d="M151.3,21.4L151.3,21.4c-0.2-0.2-0.2-0.6,0-0.8c0,0,0,0,0,0c0.9-0.8,2-1.3,3.1-1.7c0.3-0.1,0.6,0,0.7,0.3
			c0,0,0,0,0,0c0.1,0.3,0,0.6-0.3,0.7h-0.1c-1,0.3-1.9,0.8-2.7,1.5C151.8,21.6,151.4,21.6,151.3,21.4L151.3,21.4z"/>
		<path class="st1" d="M155.7,29c-0.2-0.2-0.2-0.5,0-0.7c0.8-1.1,2-2.8,2.1-3c0.1-0.3,0.5-0.4,0.8-0.3c0.3,0.1,0.4,0.5,0.3,0.7
			c0,0,0,0,0,0c-0.2,0.5-1.9,2.8-2.3,3.2c-0.2,0.2-0.5,0.3-0.8,0.1l0,0L155.7,29z"/>
		<path class="st1" d="M141.1,25.3c-0.1-0.1-0.1-0.2-0.1-0.2c-0.1-0.4,0.1-0.8,0.4-0.9c0,0,0,0,0,0c2.1-0.7,4.3-0.7,6.3,0.1
			c0.4,0.1,0.6,0.5,0.4,0.9c0,0,0,0,0,0c-0.2,0.4-0.6,0.6-0.9,0.4h-0.1c-1.7-0.6-3.5-0.7-5.2-0.1C141.6,25.6,141.3,25.6,141.1,25.3z
			"/>
	</g>
</g>
</svg>
