<svg xmlns="http://www.w3.org/2000/svg" viewBox="0 0 180 180"><defs><style>.cls-1{fill:#b63c41;}.cls-2{fill:#040000;}</style></defs><title>o</title><g id="Layer_2" data-name="Layer 2"><g id="Layer_1-2" data-name="Layer 1"><path class="cls-1" d="M48.27,29.28A65.77,65.77,0,0,0,28.4,17.42a61.71,61.71,0,0,0,3.7,23.16l.33.9-.68.67a30.64,30.64,0,0,0-2.27,2.43l-.28.33a13.76,13.76,0,0,1-1.13,1.27,33.11,33.11,0,0,0-2.43,3.22c-.23.39-.78,1.3-1.59,2.48-1.61,2.51-2.48,6.41-2.48,11.22v.14c-.46,5-5,12.73-11,22.23-5.08,8-9,13-9,17.37a29.18,29.18,0,0,0,1.3,9c1.56,5.3,6.67,9.85,12.61,12.13l4.71-2.58S24.6,125,28.9,125s10.18-8,11.32-10.18c0,0,1-5.75,4.53-9.36,4-4.11,9.69-4.76,17.28-7.51,7.11-1.94,12.08-9.08,12.08-9.08a44.36,44.36,0,0,1-1.89,14.93c-2.54,7-8.77,13.17-14.78,19.16-1.17,1.16-2.33,2.32-3.45,3.47-4.17,4.28-5.71,6.66-6.26,7.7-4.21,7.53-5.41,12.33-5.75,14.52a36.6,36.6,0,0,0-.4,9.23H144.47V140.68c0-14.74-.59-33.78-5.17-50.3-3.74-13-10.61-26.3-18.37-35.48C110,41.9,91.48,34,77.53,33.24a75.84,75.84,0,0,0-10,0c-1.07-2.78-3.1-9.37-10.79-14.65A28.34,28.34,0,0,0,48.27,29.28Z"/><path class="cls-2" d="M146,159.35H40.24l-.19-1.28a37.85,37.85,0,0,1,.42-9.74c.34-2.23,1.59-7.23,5.91-15,.7-1.33,2.4-3.83,6.49-8,1.13-1.15,2.3-2.32,3.47-3.48,5.91-5.89,12-12,14.43-18.62A39.83,39.83,0,0,0,72.56,92.9a23.61,23.61,0,0,1-10.12,6.43c-2.11.76-4.1,1.38-5.86,1.92-4.56,1.4-8.15,2.51-10.8,5.21-3.15,3.22-4.11,8.51-4.12,8.56v.24l-.11.21c-.76,1.44-7.08,11-12.65,11-3.66,0-7.26-2.23-8.84-3.35l-4.51,2.46-.64-.25c-6.72-2.57-11.9-7.6-13.52-13.11A30.83,30.83,0,0,1,0,102.83c0-4,2.67-8,6.37-13.68.9-1.39,1.88-2.88,2.9-4.49C14.48,76.41,19.6,68,20,63.09V63c0-5,.93-9.19,2.7-12,.8-1.15,1.31-2,1.55-2.41A35.94,35.94,0,0,1,27,45.17c.35-.35.7-.76,1.11-1.25l.27-.32a32.09,32.09,0,0,1,2.33-2.48h0A63.21,63.21,0,0,1,26.9,17.37l.1-2.11L29,16A66.72,66.72,0,0,1,47.78,26.91a29.91,29.91,0,0,1,8.07-9.51l.87-.66.89.62a28.52,28.52,0,0,1,11,14.31,84.44,84.44,0,0,1,9,.07c13,.68,32.41,7.92,44.46,22.19,7.9,9.33,14.88,22.81,18.67,36,4.63,16.7,5.23,35.87,5.23,50.71Zm-103-3H143V140.68c0-14.65-.58-33.56-5.12-49.89C134.2,78,127.45,64.89,119.81,55.87c-11.47-13.59-30-20.48-42.33-21.13a76,76,0,0,0-9.78,0l-1.12.09-.64-1.68a25.76,25.76,0,0,0-9.1-12.67,27.15,27.15,0,0,0-7.18,9.44l-.83,1.83-1.52-1.33A63.26,63.26,0,0,0,29.87,19.58,60.4,60.4,0,0,0,33.51,40l.65,1.79-1.35,1.34c-.75.73-1.47,1.5-2.15,2.3l-.31.37c-.46.53-.86,1-1.21,1.36a31.64,31.64,0,0,0-2.21,2.93c-.27.44-.83,1.38-1.65,2.56-1.41,2.21-2.21,5.91-2.21,10.37v.21c-.46,5.07-4.46,12.25-11.23,23-1,1.63-2,3.13-2.92,4.53C5.51,96,3,99.79,3,102.79a27.81,27.81,0,0,0,1.23,8.5c1.3,4.43,5.61,8.65,11.08,10.93l5-2.72.79.64s4.06,3.29,7.76,3.29c3.17,0,8.48-6.69,9.89-9.2.25-1.22,1.47-6.4,4.88-9.89,3.19-3.25,7.3-4.51,12.07-6,1.83-.56,3.72-1.14,5.78-1.89h.11C68.15,94.68,72.83,88,72.87,88l2.36-3.38.33,4.19a46,46,0,0,1-2,15.56c-2.66,7.28-9,13.6-15.12,19.7-1.17,1.17-2.33,2.32-3.45,3.47-4.19,4.29-5.59,6.57-6,7.35-4.11,7.36-5.27,12-5.6,14.05a38.71,38.71,0,0,0-.47,7.45Z"/><path class="cls-2" d="M20.15,122.84a1.5,1.5,0,0,1-1.5-1.5,1.52,1.52,0,0,1,.72-1.28,41.2,41.2,0,0,0,9.45-8.42,1.51,1.51,0,0,1,2.32,1.94,43.81,43.81,0,0,1-10.22,9.08A1.46,1.46,0,0,1,20.15,122.84Z"/><path class="cls-2" d="M74.07,90.34a1.51,1.51,0,0,1-1.31-2.24,30.39,30.39,0,0,0,3.09-11.44,1.47,1.47,0,0,1,1.55-1.38h.06a1.49,1.49,0,0,1,1.38,1.59v0a32.86,32.86,0,0,1-3.47,12.69A1.48,1.48,0,0,1,74.07,90.34Z"/><path class="cls-2" d="M12.73,106.58a2,2,0,0,1-2-2,2.08,2.08,0,0,1,.27-1c1.31-2.13,4.25-5.5,7-4.64.87.27,2.29,1.16,2.12,4a2,2,0,0,1-1.38,1.79l-5.37,1.75A1.87,1.87,0,0,1,12.73,106.58Z"/><circle class="cls-2" cx="40.32" cy="61.21" r="4.75"/><path class="cls-2" d="M46,39.44h0a1.51,1.51,0,0,1-1.49-1.52A24.87,24.87,0,0,1,47,28.66a1.5,1.5,0,1,1,2.8,1.07,1.42,1.42,0,0,1-.08.18,22.32,22.32,0,0,0-2.18,8A1.52,1.52,0,0,1,46,39.44Z"/><path class="cls-2" d="M69.59,45a1.48,1.48,0,0,1-1.47-1.24c-.63-3.64-1.65-9.13-2-9.95A1.54,1.54,0,0,1,69,32.7c.54,1.4,1.86,9,2.13,10.52A1.5,1.5,0,0,1,69.9,45h0A1.08,1.08,0,0,1,69.59,45Z"/><path class="cls-2" d="M34.44,66.8a2.06,2.06,0,0,1-.81-.17,2,2,0,0,1-1-2.64,24.88,24.88,0,0,1,12.3-12.28,2,2,0,0,1,1.67,3.64l-.16.06A21.29,21.29,0,0,0,36.27,65.58,2,2,0,0,1,34.44,66.8Z"/><path class="cls-1" d="M141.08,9.13A23.83,23.83,0,0,0,139.26.92,22.79,22.79,0,0,0,134,7.78l-.16.31h-.35a9.77,9.77,0,0,0-1.21,0h-.16a5,5,0,0,1-.62,0,10.56,10.56,0,0,0-1.47.19c-.16,0-.54.12-1.05.21a8,8,0,0,0-3.61,2.21l0,0c-1.44,1.16-4.63,1.94-8.66,2.79-3.4.71-5.71,1-6.87,2.07a10.55,10.55,0,0,0-2.07,2.63,7.47,7.47,0,0,0-.08,6.38l1.86.58a5.94,5.94,0,0,0,1.22,3.2c1.07,1.12,4.67.62,5.54.36a7.52,7.52,0,0,1,3.62-1.2c2.09,0,3.69,1.33,6.32,2.61a9.21,9.21,0,0,0,5.43.84,16.34,16.34,0,0,1-4.44,3.31c-2.5,1.12-5.7,1.06-8.8,1l-1.78,0a14,14,0,0,0-3.62.32,17.38,17.38,0,0,0-5.3,2.19,13.67,13.67,0,0,0-2.55,2.25L130.9,67l4.58-4.39c3.92-3.75,8.84-8.75,12.09-14.15a37.26,37.26,0,0,0,4.85-13.83,23.65,23.65,0,0,0-5.08-16.86,28,28,0,0,0-2.5-2.61A10.31,10.31,0,0,0,146,8.62,10.33,10.33,0,0,0,141.08,9.13Z"/><path class="cls-2" d="M130.89,67.78,104.46,40.14l.29-.38a14.22,14.22,0,0,1,2.7-2.37,17.8,17.8,0,0,1,5.46-2.27,13.68,13.68,0,0,1,3.76-.34l1.79,0c3,.05,6.19.08,8.56-1a14.75,14.75,0,0,0,3.2-2.16,8.41,8.41,0,0,1-4.24-1c-.73-.36-1.4-.72-2-1a8.68,8.68,0,0,0-4.08-1.5,6.93,6.93,0,0,0-3.31,1.11l-.07.06-.08,0c-.57.17-4.7,1-6.09-.5a6.1,6.1,0,0,1-1.32-3.17l-1.78-.55-.09-.23a7.93,7.93,0,0,1,.11-6.87,11.23,11.23,0,0,1,2.15-2.75c1.06-1,2.79-1.34,5.23-1.82.59-.12,1.24-.24,1.92-.39,3.5-.74,7-1.55,8.43-2.67l0,0A8.6,8.6,0,0,1,128.91,8c.5-.08.86-.17,1-.21a14,14,0,0,1,1.59-.17c.18,0,.38,0,.61,0l.15,0c.42,0,.83,0,1.24,0h0a23.84,23.84,0,0,1,5.37-7l.59-.51.3.72a24,24,0,0,1,1.79,7.68,11.13,11.13,0,0,1,4.55-.32l.39.06.06.39a10.47,10.47,0,0,1-1.06,6.52,29.47,29.47,0,0,1,2.24,2.37A24.23,24.23,0,0,1,153,34.69a37.69,37.69,0,0,1-4.91,14c-3.28,5.46-8.24,10.5-12.18,14.28ZM105.94,40.1l25,26.13,4.17-4c3.9-3.73,8.79-8.69,12-14a36.49,36.49,0,0,0,4.77-13.61,23.07,23.07,0,0,0-5-16.44,26.78,26.78,0,0,0-2.44-2.56l-.3-.26.28-.6a9.45,9.45,0,0,0,1.1-5.6,9.9,9.9,0,0,0-4.31.52l-.69.25,0-.73a23.15,23.15,0,0,0-1.47-7.32A22.55,22.55,0,0,0,134.52,8l-.31.62h-.69c-.39,0-.77,0-1.15,0l-.18,0-.66,0a9.87,9.87,0,0,0-1.33.17c-.19,0-.58.13-1.1.22a7.5,7.5,0,0,0-3.31,2.06l-.06,0c-1.46,1.17-4.37,2-8.92,2.92-.69.16-1.34.28-1.94.39-2.24.44-3.86.76-4.66,1.52a10.08,10.08,0,0,0-2,2.49,6.88,6.88,0,0,0-.14,5.67l2,.62,0,.37A5.38,5.38,0,0,0,111.18,28c.79.83,3.9.51,4.92.24A8,8,0,0,1,120,27a9.74,9.74,0,0,1,4.62,1.63c.6.33,1.23.68,1.94,1l0,0a8.59,8.59,0,0,0,5.07.77l1.49-.24-1,1.15a17.55,17.55,0,0,1-4.64,3.44c-2.61,1.16-5.87,1.11-9,1.06h-1.78a12.93,12.93,0,0,0-3.46.3A17,17,0,0,0,108,38.3a15.45,15.45,0,0,0-2.1,1.78Z"/><path class="cls-2" d="M109.15,25.6a.55.55,0,0,1,0-.78.59.59,0,0,1,.52-.14,14.87,14.87,0,0,0,4.61.33.54.54,0,0,1,.58.51.56.56,0,0,1-.52.59,16,16,0,0,1-5-.36A.55.55,0,0,1,109.15,25.6Z"/><path class="cls-2" d="M131.28,31.41a.54.54,0,0,1,0-.78.51.51,0,0,1,.24-.13,11.38,11.38,0,0,0,3.81-2.1.53.53,0,0,1,.76.05v0a.53.53,0,0,1-.08.76h0a12.17,12.17,0,0,1-4.25,2.32A.53.53,0,0,1,131.28,31.41Z"/><path class="cls-2" d="M111.62,19.52a.73.73,0,0,1,0-1,.68.68,0,0,1,.32-.18c.9-.2,2.53-.29,3,.63.14.3.26.9-.54,1.58a.75.75,0,0,1-.82.09l-1.81-1A.59.59,0,0,1,111.62,19.52Z"/><ellipse class="cls-2" cx="130.59" cy="15.18" rx="1.75" ry="1.72" transform="translate(25.73 94.48) rotate(-43.73)"/><path class="cls-2" d="M137.8,11.12h0a.55.55,0,0,1,0-.78,9.32,9.32,0,0,1,3.08-1.71.53.53,0,0,1,.71.29.55.55,0,0,1-.3.71l-.07,0a8.12,8.12,0,0,0-2.67,1.47.56.56,0,0,1-.78,0Z"/><path class="cls-2" d="M142.23,18.69a.54.54,0,0,1,0-.7c.81-1.09,2-2.75,2.15-3a.57.57,0,0,1,.75-.27.56.56,0,0,1,.26.75c-.24.49-1.93,2.77-2.27,3.23a.56.56,0,0,1-.77.12h0Z"/><path class="cls-2" d="M127.63,15.06a.64.64,0,0,1-.15-.25.73.73,0,0,1,.45-.93,9,9,0,0,1,6.34.08.71.71,0,0,1,.4.95.75.75,0,0,1-.95.42l-.06,0a7.73,7.73,0,0,0-5.24-.07A.72.72,0,0,1,127.63,15.06Z"/></g></g></svg>