<?xml version="1.0" encoding="utf-8"?>
<!-- Generator: Adobe Illustrator 23.1.1, SVG Export Plug-In . SVG Version: 6.00 Build 0)  -->
<svg version="1.1" id="Layer_1" xmlns="http://www.w3.org/2000/svg" xmlns:xlink="http://www.w3.org/1999/xlink" x="0px" y="0px"
	 viewBox="0 0 180 180" style="enable-background:new 0 0 180 180;" xml:space="preserve">
<style type="text/css">
	.st0{fill:#B63C41;}
	.st1{fill:#040000;}
</style>
<title>o</title>
<g id="Layer_2">
	<g id="Layer_1-2">
		<path class="st0" d="M34.5,158.6c-0.7-15,3.9-28.1,14.9-37.5c7-2,10.2-4.8,12.2-9c1.8-3.9,4.2-7.5,7-10.8
			c-9.5-9.9-19.3-2.4-25.7-0.2c-4.2,1.7-6.6,2.6-8.9,5.3l-3.5,4l-6.1-4.7l7-5.8l-11.2-10l-5.7,3.7l-1.4-14l32.7-21.5
			c2.6-6.1,18.5-15,30.3-22.4l4.4-6.2l5.3,11.9C107,50.9,114.9,64,121,79c4.7,17.2,3.9,29.2,2.9,40.8s-2.5,22.9,1.7,38.8L34.5,158.6
			z"/>
		<path class="st1" d="M22.8,78.1l2.9-0.3l3.2,2.7l-4,4.7L20,82.9L22.8,78.1z M71.6,61.1l-18.2-0.2l10-8.6
			C66.8,49.5,75.5,61.1,71.6,61.1z M46.6,58.5l-3.9-5.2c0.3-2.2,3.7-5.3,10-9.3c6.3-4,12.5-8,18.9-12.3l9.8-13.2l8.2,18.6
			c39.1,19.7,46,46.7,41.1,87.6c-1.7,12.5,0.2,25.1,5.3,36.6H29.5c-1-20.3,3.6-33.2,19-46.2c8.9-1.8,12.5-10,14.6-13.4
			c-13.5-2.4-21.9-0.7-25,5.1s-4.8,8.8-4.8,8.8l-18.6-10.4l9.9-7L20.2,94l-10.5,7.4l-1-25.5l34-22.6c0,0,3.4-1.2,4-0.4
			S46.7,58.5,46.6,58.5L15.2,79.2l0.3,10.7l5.5-3.5l11.8,12.3l-6.7,5.6l4,2.4l3.3-3.9c2.5-2.8,5.7-4.9,9.3-6.2
			c6.2-2.1,21.3-5.5,30.5,4c-3.1,3.4-5.7,7.2-7.8,11.3c-2,4-6.3,6.9-13,8.8c-10.5,9-17.3,19.9-16.6,34.3h87.4
			c-4-15.2-2.8-26.1-1.6-37.2s1.8-22.7-2.8-39.2c-5.8-14.4-13.5-27-34-36.2l-5.1-11.4L75.7,37C64.4,44.1,49.1,52.7,46.6,58.5
			L46.6,58.5z"/>
		<path class="st1" d="M68.7,98c-0.9,1,0.9,4.1,4.6,3.6c1.5-0.2,2.2-1.3,3.2-1.2c0.9,0.1,1.9,0.1,2.8-0.1
			c8.9-1.3,15.3-11.1,15.5-21.4l-1.6-5.7c-3.2,13.6-8.5,21-16.1,22c-1.2,0.2-2.5,0.3-3.9,0.4C71.5,95.9,69.9,96.7,68.7,98z"/>
		<path class="st0" d="M107.4,49c5.4-4,11.5-5.6,17.8-3.8c2.5,2.1,4.4,2.6,6.4,2.3c1.9-0.3,3.9-0.3,5.8-0.1c1.3-6.1-3.9-7.8-6.4-9.7
			c-1.7-1.2-2.6-1.8-4.2-2l-2.4-0.3l0.2-3.5l4,1.2l1-6.7l-2.8-1.2l4.8-4.1l16.3,6.9c2.9-0.6,10.3,3.2,16,5.7l3.4,0.1l-3.1,5
			c1.8,10.4-1.1,16.7-5.2,22.7c-4.1,4.7-9,8.6-14.6,11.3c-4.6,2.5-9.2,4.8-14.1,10.4L107.4,49z"/>
		<path class="st1" d="M134.3,24.7l0.8,1l-0.2,1.9l-2.8-0.3l-0.4-2.4L134.3,24.7z M152.9,38.7l-4.5-6.9l5.7,1.6
			C156.1,34,153.9,40.1,152.9,38.7L152.9,38.7z M147.6,28.7l0.9-2.8c0.9-0.4,2.9,0,6,1.4c3.1,1.4,6.1,2.7,9.3,4l7.4,0.4l-4.9,7.8
			c2.4,19.6-5.9,29-22.5,37.4c-5.1,2.5-9.4,6.4-12.4,11.2l-26.8-39.9c7.4-5.5,13.3-7,22.1-4.5c2.9,2.9,6.9,2.2,8.7,2.1
			c-2.5-5.6-5.2-8.4-8.2-8.1c-3,0.3-4.5,0.4-4.5,0.4l-0.8-9.6l5.1,1.9l0.5-2.7l-5.4-2.1l9.3-6.8l17,7.1c0,0,1.3,1,1.1,1.4
			C149.6,27.7,147.7,28.7,147.6,28.7L132,22.1l-3.9,2.8l2.7,1.2l-1.6,7.5l-3.8-1.1l0.1,2.1l2.3,0.3c1.7,0.2,3.3,0.9,4.7,1.9
			c2.3,1.8,7.4,6.6,6.2,12.5c-2.1-0.3-4.1-0.3-6.2-0.1c-2,0.3-4.2-0.6-6.6-2.7c-6-1.7-11.8-1.5-17,2.4l21.9,32.7
			c4.7-5.3,9.1-7.6,13.5-10c5.4-2.6,10.1-6.3,14-10.9c3.9-5.8,6.7-11.8,5-21.8l3-4.8l-3.3-0.1C157.4,31.6,150.4,28.1,147.6,28.7
			L147.6,28.7z"/>
		<path class="st1" d="M138.8,46.6c-0.6-0.1-1.3,1.4-0.2,2.6c0.4,0.5,1,0.5,1.2,0.9c0.2,0.4,0.5,0.7,0.8,1c2.7,3,8,3,11.9,0.4l1.7-2
			c-5.9,2.2-10,2.1-12.3-0.5c-0.4-0.4-0.8-0.9-1.1-1.3C140.2,47.2,139.5,46.8,138.8,46.6z"/>
	</g>
</g>
</svg>
