<svg xmlns="http://www.w3.org/2000/svg" viewBox="0 0 162.61 142.79"><defs><style>.cls-1{fill:#b63c41;}.cls-2{fill:#040000;}</style></defs><title>资源 33</title><g id="图层_2" data-name="图层 2"><g id="图层_1-2" data-name="图层 1"><path class="cls-1" d="M25.79,140c-.71-15,3.89-28.1,14.88-37.48,7-2,10.2-4.8,12.25-9a44.38,44.38,0,0,1,7-10.75c-9.55-9.91-19.32-2.4-25.75-.25-4.2,1.7-6.65,2.63-8.89,5.31l-3.48,4-6.13-4.71,7-5.8-11.23-10L5.72,75,4.27,61,37,39.45c2.59-6.07,18.49-15,30.28-22.42l4.43-6.16,5.27,11.87c21.35,9.56,29.29,22.69,35.37,37.7,4.73,17.23,3.92,29.2,2.86,40.82s-2.5,22.95,1.69,38.76Z"/><path class="cls-2" d="M14.15,59.52,17,59.17l3.17,2.67L16.2,66.55l-4.88-2.26ZM62.94,42.45l-18.18-.16,10-8.57C58.14,30.88,66.8,42.45,62.94,42.45Zm-25-2.57L34,34.73c.34-2.22,3.69-5.31,10-9.26s12.52-8,18.86-12.26L72.67,0,80.9,18.61c39.07,19.68,46,46.68,41.13,87.56a67.91,67.91,0,0,0,5.32,36.62H20.83c-1-20.32,3.61-33.19,19-46.22,8.91-1.8,12.52-10,14.57-13.38-13.46-2.4-21.87-.69-25,5.14s-4.8,8.75-4.8,8.75L6,86.7l9.86-7-4.37-4.29L1,82.79,0,57.29,34,34.73s3.38-1.15,4-.38,0,5.53,0,5.53L6.52,60.55l.34,10.74,5.49-3.52L24.18,80.1l-6.69,5.58,4,2.4,3.34-3.86A23,23,0,0,1,34.1,78c6.17-2.06,21.35-5.49,30.53,4a53.26,53.26,0,0,0-7.78,11.33q-3,6-13,8.83c-10.55,9-17.32,19.9-16.64,34.3h87.36c-4-15.17-2.75-26.07-1.63-37.21s1.8-22.65-2.75-39.2c-5.83-14.4-13.46-27-34-36.19l-5.06-11.4L67,18.35c-11.3,7.12-26.59,15.7-29.07,21.53Z"/><path class="cls-2" d="M60,79.39c-.91,1,.88,4.11,4.63,3.6,1.46-.2,2.23-1.29,3.17-1.2a11.19,11.19,0,0,0,2.83-.09c8.92-1.28,15.27-11.06,15.52-21.44l-1.63-5.74c-3.17,13.63-8.49,21-16.12,22-1.2.17-2.49.34-3.86.43A8.72,8.72,0,0,0,60,79.39Z"/><path class="cls-1" d="M98.75,30.38c5.44-4,11.51-5.59,17.78-3.83,2.51,2.13,4.36,2.62,6.45,2.34a20,20,0,0,1,5.78-.08c1.32-6.06-3.95-7.84-6.37-9.71-1.69-1.15-2.65-1.83-4.22-2l-2.37-.3.23-3.48L120,14.49l1-6.73-2.82-1.22L123,2.48l16.26,6.85c2.93-.55,10.26,3.16,16,5.72l3.42.11-3.12,5c1.77,10.4-1.15,16.67-5.25,22.71a46.65,46.65,0,0,1-14.58,11.32c-4.62,2.52-9.23,4.82-14.1,10.36Z"/><path class="cls-2" d="M125.62,6.07l.84,1-.2,1.86-2.76-.3-.38-2.39Zm18.64,14-4.5-6.85,5.72,1.59C147.39,15.37,145.23,21.52,144.26,20.07Zm-5.31-10,.94-2.77c.92-.43,2.92,0,6,1.4s6.14,2.69,9.33,4l7.42.38-4.91,7.76c2.44,19.58-5.94,29-22.48,37.38a30.61,30.61,0,0,0-12.39,11.19L96.09,29.47c7.37-5.47,13.35-7,22.09-4.48,2.91,2.89,6.89,2.18,8.67,2.1-2.48-5.64-5.23-8.36-8.2-8.07s-4.48.39-4.48.39l-.78-9.57,5.1,1.94L119,9.06,113.61,7l9.3-6.78,17,7.08s1.28,1,1.15,1.4S139,10.08,139,10.08L123.32,3.47l-3.94,2.82,2.7,1.18L120.43,15l-3.77-1.1.1,2.1,2.29.28a10.36,10.36,0,0,1,4.67,1.9c2.32,1.8,7.41,6.63,6.16,12.45a23.83,23.83,0,0,0-6.2-.07q-3,.38-6.57-2.66c-6-1.69-11.8-1.49-17,2.37L122,63c4.68-5.31,9.08-7.57,13.53-10a43.91,43.91,0,0,0,14-10.87c3.93-5.8,6.74-11.82,5-21.82l3-4.76-3.26-.07c-5.51-2.45-12.56-6-15.37-5.49Z"/><path class="cls-2" d="M130.07,28c-.61-.09-1.32,1.36-.19,2.64.44.49,1,.51,1.24.88a5.2,5.2,0,0,0,.75,1c2.72,3,8,2.95,11.93.44L145.54,31c-5.9,2.23-10,2.08-12.29-.52-.37-.41-.75-.85-1.13-1.34A4,4,0,0,0,130.07,28Z"/></g></g></svg>