<?xml version="1.0" encoding="utf-8"?>
<!-- Generator: Adobe Illustrator 23.1.1, SVG Export Plug-In . SVG Version: 6.00 Build 0)  -->
<svg version="1.1" id="Layer_1" xmlns="http://www.w3.org/2000/svg" xmlns:xlink="http://www.w3.org/1999/xlink" x="0px" y="0px"
	 viewBox="0 0 180 180" style="enable-background:new 0 0 180 180;" xml:space="preserve">
<style type="text/css">
	.st0{opacity:0.2;fill:#040000;enable-background:new    ;}
	.st1{opacity:0.2;fill:#FFFFFF;enable-background:new    ;}
	.st2{fill:#B63C41;}
	.st3{fill:#1A1A1A;}
	.st4{fill:#231815;}
</style>
<title>g</title>
<g>
	<path class="st0" d="M56.9,43.3c3.2,4.1-2.4,7.8,0.8,11.2l14.2,13.1L61.2,53.6c0,0,1.3-3.4,0.5-6C59.8,41.9,56.9,43.3,56.9,43.3z"
		/>
	<path class="st1" d="M55.8,42.7c-2.9,0.3-7.5,3.6-8.5,10.3c-0.1,0.5-3.4-3.1,1-8.1C51.7,41,55.8,42.7,55.8,42.7z"/>
	<path class="st1" d="M76.6,25.2c-3.1,0.3-8.1,4.1-8.6,11.9c0,0-3.2-4.5,1.1-9.6C72.5,23.6,76.6,25.2,76.6,25.2z"/>
	<g>
		<polygon class="st2" points="42,156.5 41.8,153.4 115.1,148.6 41.8,143.7 41.8,140.7 113.9,135.8 43.4,131.3 43.4,128.3 
			112,123.4 43.4,118.6 43.6,115.5 133.8,121.9 133.8,124.9 66.4,129.7 137.4,134.2 137.4,137.2 64.7,142.2 138.3,147.1 
			138.3,150.1 		"/>
		<path class="st3" d="M41.3,157.3l-0.3-4.6l0.8-0.1l61.8-4.1L41,144.4l0-4.5l61.2-4.2L42.6,132l0-4.5l58.5-4.1l-58.6-4.1l0.3-4.6
			l91.6,6.5v4.5l-56.7,4l60.2,3.8l0,4.5l-62.1,4.2l63,4.2v4.5L41.3,157.3z M42.6,154.1l0.1,1.5l94.8-6.3v-1.6l-72.9-4.8l0-1.5
			l72-4.9l0-1.6l-70.2-4.4l0-1.5l66.7-4.7v-1.6l-88.7-6.3l-0.1,1.5l67.8,4.8v1.5L44.2,129l0,1.6l69.8,4.4l0,1.5l-71.4,4.9l0,1.6
			l72.6,4.8v1.5L42.6,154.1z"/>
	</g>
	<path class="st2" d="M100.2,23.9c-4.9,0-8.9,4-9,8.9c0,0,0,0,0,0c0,2.6,1.2,5.1,3.3,6.7l-7,20.1l-7-20.1c2.1-1.6,3.3-4.1,3.3-6.7
		c0-4.9-4-8.9-8.9-8.9c-4.9-0.1-8.9,3.8-9,8.7c0,0,0,0,0,0v0.2c-0.1,3.6,2.2,6.9,5.6,8l-1.1,23.7L61,54.3c0.8-1.3,1.3-2.7,1.4-4.2
		c-0.1-4.6-3.8-8.4-8.4-8.5c-4.7,0-8.5,3.8-8.5,8.5c0,0,0,0,0,0v0c0,4,3.3,7.9,7.1,8.4l14.1,33.9c-10.1,1.9-10,7.9-10,14.9v2.2h62.1
		v-2.2c0-6.9,0-13-10-14.9l14.1-33.9c3.7-0.5,7.1-4.3,7.1-8.4c0-4.7-3.8-8.5-8.5-8.5c-4.6,0.1-8.3,3.9-8.4,8.5
		c0.1,1.5,0.6,3,1.4,4.2l-9.7,10.3l-1.1-23.7c3.4-1.2,5.7-4.4,5.6-8c0.1-4.9-3.8-8.9-8.7-8.9c0,0,0,0,0,0H100.2z"/>
	<path class="st1" d="M123.3,42.7c-2.9,0.3-7.5,3.6-8.5,10.3c-0.1,0.5-3.3-3.1,1-8.1C119.2,41,123.3,42.7,123.3,42.7z"/>
	<path class="st1" d="M101.6,25.2c-3.1,0.3-8.1,4.1-8.6,11.9c0,0-3.2-4.5,1.1-9.6C97.5,23.6,101.6,25.2,101.6,25.2z"/>
	<path class="st1" d="M88,95.9c26.3,0,29,2.9,29,2.9h0.4c-1.2-6.2-15-6.9-15-6.9H73.7c0,0-14.3,0.5-15.1,6.9H59
		C59,98.8,61.7,95.9,88,95.9z"/>
	<path class="st0" d="M103.3,80.3c-9.6,10.4-19.2,10.1-19.2,10.1l24.3,1.9l14.2-33.7c0,0,3.3-0.4,5.8-4.5c3.7-6.1-3.4-10.4-3.4-10.4
		c2.2,2.6,1.9,6.8,0,8.6s-4.8,2-5.9,4.6C119.2,56.8,112.5,70.4,103.3,80.3z"/>
	<path class="st0" d="M103.7,25.6c4.7,6.4-4.2,8.6-3.7,14.4l3.5,27.5V41.2c0,0,6.2-3.7,5.6-8.2C108.3,26,103.7,25.6,103.7,25.6z"/>
	<path class="st0" d="M76.7,39.1l10.9,24.2l-7-23.6c0,0,2.7-3.9,2.7-7.2c0-6.1-5.2-7.3-5.2-7.3C83.1,31.9,74.8,33.3,76.7,39.1z"/>
	<path class="st3" d="M121.3,40.3c-5.1,0-9.6,4.6-9.6,9.7c0,1.4,0.4,2.8,1.1,4.1l-7,7.5l-0.9-19.9c3.4-1.6,5.6-5.1,5.6-8.8
		c0.1-5.5-4.4-10.1-9.9-10.1c0,0,0,0,0,0h-0.2c-5.6,0-10.2,4.5-10.2,10.1c0,0,0,0,0,0c0,2.7,1.1,5.2,3.1,7.1l-5.5,15.9l-5.6-15.9
		c2-1.8,3.1-4.4,3.1-7.1c0-5.6-4.5-10.1-10.1-10.2c-5.6-0.1-10.1,4.4-10.2,9.9c0,0,0,0,0,0v0.2c0,3.8,2.1,7.3,5.6,8.9l-0.9,19.9
		l-7.1-7.5c0.7-1.2,1.1-2.6,1.1-4.1c0-5.2-4.5-9.7-9.6-9.7c-5.4,0-9.7,4.4-9.7,9.8c0.1,4.4,3.1,8.3,7.4,9.4l13.3,31.9
		c-9.6,2.4-9.6,8.9-9.5,15.7v3.4h64.5v-3.4c0-6.9,0-13.4-9.5-15.7l13.3-31.9c4.3-1.1,7.3-5,7.4-9.5C131,44.7,126.7,40.3,121.3,40.3z
		 M117.5,108.2H57.8c0-7.9-0.5-13.4,10.5-14.9l0.4-0.1c6.4-0.7,12.9-1,19.3-1c6.3-0.1,12.7,0.3,18.9,1
		C118,94.7,117.5,100.2,117.5,108.2L117.5,108.2z M121.9,57.3l-14,33.6l-0.5-0.1c-6.5-0.7-12.9-1.1-19.4-1c-6.6-0.1-13.1,0.3-19.6,1
		c-0.3,0-0.7,0.1-1,0.1l-14-33.7c-3.3,0-6.7-3.5-6.7-7.2c0-4,3.2-7.3,7.2-7.3c0,0,0,0,0,0H54c4,0.1,7.1,3.3,7.2,7.3
		c0,2.3-1.7,4.4-1.7,4.4l12.3,13.1L73,40c-3.4-0.7-5.8-3.7-5.7-7.1c-0.1-4.2,3.3-7.6,7.5-7.7c0,0,0,0,0,0h0.3c4.3,0,7.7,3.4,7.7,7.7
		l0,0l0,0c0,2.5-1.4,4.9-3.5,6.2l8.4,24.3l8.4-24.3c-2.2-1.3-3.5-3.6-3.6-6.2c0-4.3,3.4-7.7,7.7-7.7c0,0,0,0,0,0l0,0
		c4.2-0.1,7.6,3.3,7.7,7.4c0,0,0,0,0,0c0,0.1,0,0.2,0,0.3c0,3.4-2.3,6.4-5.7,7.1l1.3,27.5l12.2-13.1c0,0-1.7-2.1-1.7-4.4
		c0.1-4,3.2-7.2,7.2-7.3c4,0,7.3,3.2,7.3,7.2c0,0,0,0,0,0v0.1C128.6,53.8,125.3,57.3,121.9,57.3L121.9,57.3z"/>
	<g>
		<rect x="43.5" y="108.9" class="st2" width="89" height="7.6"/>
		<path class="st4" d="M133.4,117.4H42.6V108h90.8V117.4z M44.4,115.5h87.2v-5.7H44.4V115.5z"/>
	</g>
</g>
</svg>
