<?xml version="1.0" encoding="utf-8"?>
<!-- Generator: Adobe Illustrator 23.1.1, SVG Export Plug-In . SVG Version: 6.00 Build 0)  -->
<svg version="1.1" id="Layer_1" xmlns="http://www.w3.org/2000/svg" xmlns:xlink="http://www.w3.org/1999/xlink" x="0px" y="0px"
	 viewBox="0 0 180 180" style="enable-background:new 0 0 180 180;" xml:space="preserve">
<style type="text/css">
	.st0{fill:#B63C41;}
	.st1{fill:#040000;}
	.st2{fill:#1A1A1A;}
	.st3{fill:#231815;}
</style>
<title>g</title>
<g>
	<path class="st0" d="M117.8,87.2l-2.4-0.9c-9.6-3.7-18.1-5.5-25.8-5.5s-16.1,1.8-25.8,5.5l-2.4,0.9L61,84.7
		c-1.3-7.5-4.5-15.8-9.7-24.7l-4.8-8.2l18.3,12.9l8-38.9l16.8,34.8l16.7-34.8l8,38.9l18.5-13l-5,8.4c-5.1,8.7-8.4,17-9.7,24.7
		L117.8,87.2z"/>
	<path class="st0" d="M121.3,107.7H57.9l1.2-2.9c2-5,2.8-10.4,2.4-15.8l-0.1-1.5l1.4-0.6C72.7,83,81.7,81,89.6,81
		c9.7,0,19.9,3.2,26.8,5.9l1.4,0.6l-0.1,1.5c-0.4,5.4,0.4,10.8,2.5,15.8L121.3,107.7z"/>
	<path class="st1" d="M134.3,40.4c-4.3,0-7.8,3.5-7.8,7.8c-0.1,1.5,0.4,3,1.2,4.3L116,60.7l-6-29.1c5-2.5,5.2-7.8,2.6-11.6
		c-2.4-3.4-7.1-4.2-10.5-1.8c-0.2,0.1-0.3,0.2-0.5,0.4c-3.4,2.7-3.9,7.6-1.2,10.9c0.3,0.4,0.7,0.8,1.1,1.2L89.6,55.3L77.7,30.7
		c3.3-2.8,3.7-7.7,1-11c0,0,0,0,0,0c-0.3-0.4-0.7-0.8-1.1-1.1c-3.2-2.7-8-2.2-10.6,0.9c-0.1,0.2-0.3,0.3-0.4,0.5
		c-2.7,3.8-2.5,9.1,2.6,11.6l-6,29.1l-11.7-8.3c0.8-1.3,1.3-2.7,1.2-4.2c0-4.3-3.5-7.8-7.8-7.8s-7.8,3.5-7.8,7.8
		c0,4.3,3.5,7.8,7.8,7.8c0,0,0,0,0,0c0.3,0,0.7-0.1,1.1-0.1c11.7,17.9,17.7,35.7,8.7,54.1h69.7c-9.1-18.4-3.1-36.2,8.7-54.1
		c0.5,0.1,0.8,0.1,1.1,0.1c4.3,0.1,7.9-3.3,8.1-7.6c0.1-4.3-3.3-7.9-7.6-8.1c0,0,0,0,0,0L134.3,40.4z M89.6,105.6H61
		c0.7-1.8,1.3-3.7,1.8-5.7v0.2l8-5.2l-7.1-4.3c0-0.6,0-1.2-0.1-1.8c7.9-3.1,17.2-5.7,26-5.7c8.7,0,18.1,2.6,26,5.7
		c0,0.6-0.1,1.2-0.1,1.8l0,0l-7.1,4.3l8,5.1l0,0c0.4,1.9,1,3.7,1.7,5.5L89.6,105.6z M116.1,84.4c-8.6-3.3-17.7-5.6-26.5-5.6
		s-17.9,2.3-26.5,5.6C61.6,76,58,67.3,53.1,59l13.1,9.3l7.3-35.9l16,33.2l16-33.2l7.3,35.9L126,59C121.1,67.3,117.5,76,116.1,84.4z"
		/>
	<polygon class="st1" points="81.3,93.5 89.6,98.7 97.9,93.7 89.6,88.5 	"/>
	<path class="st0" d="M134.3,44.5c-2.5,0-3.8,1.3-3.8,3.7c0,2.5,1.3,3.7,3.8,3.7c2.5,0,3.7-1.3,3.7-3.7
		C138,45.7,136.8,44.5,134.3,44.5z"/>
	<path class="st0" d="M106.4,20.9c-2.5,0-3.7,1.3-3.7,3.7s1.2,3.7,3.7,3.7c2.5,0,3.7-1.3,3.7-3.7S108.9,20.9,106.4,20.9z"/>
	<path class="st0" d="M72.7,20.9c-2.4,0-3.7,1.3-3.7,3.7s1.3,3.7,3.7,3.7c2.4,0,3.7-1.3,3.7-3.7S75.2,20.9,72.7,20.9z"/>
	<path class="st0" d="M44.9,44.5c-2.4,0-3.7,1.3-3.7,3.7c0,2.5,1.3,3.7,3.7,3.7s3.8-1.3,3.8-3.7C48.6,45.7,47.4,44.5,44.9,44.5z"/>
	<g>
		<polygon class="st0" points="35.2,162 35,158.5 118.6,153.2 35,147.4 35,143.9 117.3,138.5 36.9,133.3 36.9,129.8 115.2,124.5 
			36.9,118.7 37.2,115.3 140,122.8 140,126.3 63.2,131.5 144.1,136.8 144.1,140.3 61.1,145.7 145.1,151.5 145,155 		"/>
		<path class="st2" d="M34.2,163.1l-0.4-5.6l68.9-4.4L34,148.4l0-5.4l67.3-4.4l-65.4-4.3l0-5.4l1-0.1l63.5-4.3l-64.5-4.7l0.4-5.6
			l104.8,7.7l0,5.4l-62.2,4.2l66.3,4.3v5.4l-68.4,4.5l69.4,4.8l0,5.4L34.2,163.1z M36.1,159.5l0.1,1.4L144,154l0-1.5l-82.9-5.7
			l0-2.1l81.9-5.4v-1.5l-79.9-5.2l0-2.1l75.9-5.2l0-1.5l-100.8-7.4l-0.1,1.4l77.2,5.7l0,2.1L38,130.8l0,1.5l79.4,5.2l0,2.1
			l-81.3,5.3l0,1.5l82.6,5.7l0,2.1L36.1,159.5z"/>
	</g>
	<g>
		
			<rect x="83.5" y="61.4" transform="matrix(2.443451e-03 -1 1 2.443451e-03 -24.5127 199.6959)" class="st0" width="8.6" height="101.5"/>
		<path class="st3" d="M140,118l-104.3-0.3l0-11.4l104.3,0.3L140,118z M38.5,114.9l98.7,0.2l0-5.8l-98.7-0.2L38.5,114.9z"/>
	</g>
</g>
</svg>
