<svg xmlns="http://www.w3.org/2000/svg" viewBox="0 0 142.06 116.4"><defs><style>.cls-1{fill:#b63c41;}.cls-2{fill:#040000;}.cls-2,.cls-3{opacity:0.2;isolation:isolate;}.cls-3{fill:#fff;}.cls-4{fill:#1a1a1a;}</style></defs><title>资源 25</title><g id="图层_2" data-name="图层 2"><g id="图层_1-2" data-name="图层 1"><path class="cls-1" d="M105.2,113.31l23.07-55.46c6.13-.83,11.58-7.09,11.58-13.69A14,14,0,0,0,125.9,30.22a14.21,14.21,0,0,0-13.78,13.94,13.53,13.53,0,0,0,2.26,7L98.62,67.9,96.79,29.17A13.9,13.9,0,0,0,106,16,14.45,14.45,0,0,0,91.71,1.41a1.71,1.71,0,0,0-.32,0A14.62,14.62,0,0,0,76.78,16,13.9,13.9,0,0,0,82.19,27L70.81,59.79,59.42,27A14,14,0,0,0,64.83,16,14.63,14.63,0,0,0,50.27,1.41,14.45,14.45,0,0,0,35.61,15.66a2.16,2.16,0,0,0,0,.36,13.66,13.66,0,0,0,9.22,13.16L43,67.9,27.27,51.11a13.83,13.83,0,0,0,2.25-7,14.22,14.22,0,0,0-13.8-13.94A13.89,13.89,0,0,0,1.78,44.07v.09c0,6.6,5.45,12.86,11.57,13.69l23.06,55.46"/><path class="cls-2" d="M20.51,33.13c5.31,6.79-3.85,12.82,1.26,18.34L45,73,27.59,50s2.2-5.64.81-9.8C25.27,30.79,20.51,33.13,20.51,33.13Z"/><path class="cls-3" d="M18.69,32.12C13.88,32.57,6.47,38,4.77,49c-.13.79-5.49-5,1.6-13.2C12,29.26,18.69,32.12,18.69,32.12Z"/><path class="cls-3" d="M129.11,32.12c-4.8.45-12.22,5.85-13.92,16.84-.12.79-5.48-5,1.61-13.2C122.38,29.26,129.11,32.12,129.11,32.12Z"/><path class="cls-3" d="M52.81,3.54c-5.14.53-13.22,6.79-14,19.44,0,0-5.29-7.36,1.72-15.68C46.05.79,52.81,3.54,52.81,3.54Z"/><path class="cls-3" d="M93.71,3.54c-5.14.53-13.22,6.79-14,19.44,0,0-5.28-7.36,1.72-15.68C87,.79,93.71,3.54,93.71,3.54Z"/><path class="cls-2" d="M96.47,93.62c-15.74,17-31.38,16.5-31.38,16.5l39.74,3.1,23.31-55.11s5.42-.62,9.46-7.34c6-9.94-5.53-17.09-5.53-17.09,3.61,4.19,3.08,11.15,0,14s-7.86,3.31-9.69,7.48C122.42,55.15,111.49,77.37,96.47,93.62Z"/><path class="cls-2" d="M97.1,4.15c7.64,10.53-6.88,14-6,23.56l5.75,45v-43S106.93,23.6,106,16.29C104.64,4.79,97.1,4.15,97.1,4.15Z"/><path class="cls-2" d="M53,26.24,70.81,65.89,59.43,27.28s4.35-6.34,4.35-11.81c0-10.06-8.45-12-8.45-12C63.46,14.36,49.78,16.7,53,26.24Z"/><path class="cls-4" d="M126.12,28.84c-8.41,0-15.79,7.45-15.79,15.94a14.66,14.66,0,0,0,1.78,6.63l-11.5,12.26L99.07,31.09a16,16,0,0,0,9.15-14.48A16.43,16.43,0,0,0,92,0h-.36A16.63,16.63,0,0,0,75,16.64a16,16,0,0,0,5.07,11.57l-9,26.09L62,28.21a16,16,0,0,0,5.07-11.57A16.63,16.63,0,0,0,50.49,0,16.44,16.44,0,0,0,33.83,16.25v.39A15.75,15.75,0,0,0,43,31.15L41.49,63.7,29.94,51.41a14.78,14.78,0,0,0,1.78-6.66c0-8.49-7.37-15.94-15.78-15.94A16,16,0,0,0,0,44.78,16.34,16.34,0,0,0,12.14,60.25l21.72,52.23-.37.1L35,116.3a39.65,39.65,0,0,1,4.45-.81l.58-.09a258.23,258.23,0,0,1,31.58-1.6,245.15,245.15,0,0,1,31,1.69,41.54,41.54,0,0,1,4.84.91l1.17-3.8-.43-.12,21.72-52.23a16.33,16.33,0,0,0,12.15-15.47A16,16,0,0,0,126.12,28.84Zm1,27.73v0l-22.89,55-.75-.1a254.91,254.91,0,0,0-31.86-1.69,261.1,261.1,0,0,0-32.12,1.65c-.57.07-1.12.15-1.66.24L15,56.57C9.47,56.57,4,50.92,4,44.78A11.89,11.89,0,0,1,15.84,32.84h.1A12.2,12.2,0,0,1,27.72,44.78c0,3.72-2.82,7.14-2.82,7.14L45,73.33l2.14-45.07a11.61,11.61,0,0,1-9.3-11.62A12.41,12.41,0,0,1,50,4h.45a12.6,12.6,0,0,1,12.6,12.6h0a11.84,11.84,0,0,1-5.8,10.12L71,66.51,84.81,26.76A11.85,11.85,0,0,1,79,16.64,12.62,12.62,0,0,1,91.61,4a12.4,12.4,0,0,1,12.61,12.19v.42a11.72,11.72,0,0,1-9.29,11.62l2.14,45.07,20.08-21.41s-2.82-3.4-2.82-7.14a12.2,12.2,0,0,1,11.79-11.94,11.89,11.89,0,0,1,11.94,11.84v.1C138.06,50.92,132.59,56.57,127.11,56.57Z"/></g></g></svg>