<?xml version="1.0" encoding="utf-8"?>
<!-- Generator: Adobe Illustrator 23.1.1, SVG Export Plug-In . SVG Version: 6.00 Build 0)  -->
<svg version="1.1" id="Layer_1" xmlns="http://www.w3.org/2000/svg" xmlns:xlink="http://www.w3.org/1999/xlink" x="0px" y="0px"
	 viewBox="0 0 180 180" style="enable-background:new 0 0 180 180;" xml:space="preserve">
<style type="text/css">
	.st0{fill:#B63C41;}
	.st1{opacity:0.2;fill:#040000;enable-background:new    ;}
	.st2{opacity:0.2;fill:#FFFFFF;enable-background:new    ;}
	.st3{fill:#1A1A1A;}
</style>
<title>f</title>
<g id="Layer_2">
	<g id="Layer_1-2">
		<path class="st0" d="M124.2,145.1l23.1-55.5c6.1-0.8,11.6-7.1,11.6-13.7c0-7.7-6.3-13.9-13.9-13.9c-7.6,0.2-13.6,6.4-13.8,13.9
			c0.1,2.5,0.9,4.9,2.3,7l-15.8,16.7L115.8,61c5.6-2,9.2-7.3,9.2-13.2c0.1-8-6.3-14.5-14.3-14.6c-0.1,0-0.2,0-0.3,0
			c-8.1,0-14.6,6.5-14.6,14.6c0,4.3,2,8.4,5.4,11L89.8,91.6L78.4,58.8c3.4-2.6,5.4-6.7,5.4-11c0-8-6.5-14.6-14.6-14.6
			c-8-0.1-14.5,6.3-14.7,14.2c0,0,0,0,0,0c0,0.1,0,0.2,0,0.4c-0.1,5.9,3.6,11.2,9.2,13.2L62,99.7L46.2,82.9c1.4-2.1,2.1-4.5,2.2-7
			c-0.1-7.6-6.2-13.7-13.8-13.9c-7.7,0-13.9,6.2-13.9,13.8c0,0,0,0,0,0.1V76c0,6.6,5.4,12.9,11.6,13.7l23.1,55.5"/>
		<path class="st1" d="M39.5,64.9c5.3,6.8-3.9,12.8,1.3,18.3L64,104.8l-17.4-23c0,0,2.2-5.6,0.8-9.8C44.2,62.6,39.5,64.9,39.5,64.9z
			"/>
		<path class="st2" d="M37.7,63.9c-4.8,0.5-12.2,5.9-13.9,16.9c-0.1,0.8-5.5-5,1.6-13.2C31,61.1,37.7,63.9,37.7,63.9z"/>
		<path class="st2" d="M148.1,63.9c-4.8,0.5-12.2,5.8-13.9,16.8c-0.1,0.8-5.5-5,1.6-13.2C141.4,61.1,148.1,63.9,148.1,63.9z"/>
		<path class="st2" d="M71.8,35.3c-5.1,0.5-13.2,6.8-14,19.4c0,0-5.3-7.4,1.7-15.7C65,32.6,71.8,35.3,71.8,35.3z"/>
		<path class="st2" d="M112.7,35.3c-5.1,0.5-13.2,6.8-14,19.4c0,0-5.3-7.4,1.7-15.7C106,32.6,112.7,35.3,112.7,35.3z"/>
		<path class="st1" d="M115.4,125.4c-15.7,17-31.4,16.5-31.4,16.5l39.7,3.1l23.3-55.1c0,0,5.4-0.6,9.5-7.3c6-9.9-5.5-17.1-5.5-17.1
			c3.6,4.2,3.1,11.2,0,14c-3.1,2.8-7.9,3.3-9.7,7.5C141.4,87,130.5,109.2,115.4,125.4z"/>
		<path class="st1" d="M116.1,36c7.6,10.5-6.9,14-6,23.6l5.8,45v-43c0,0,10.1-6.1,9.2-13.4C123.6,36.6,116.1,36,116.1,36z"/>
		<path class="st1" d="M72,58l17.8,39.7L78.4,59.1c0,0,4.3-6.3,4.3-11.8c0-10.1-8.5-12-8.5-12C82.4,46.2,68.8,48.5,72,58z"/>
		<path class="st3" d="M145.1,60.6c-8.4,0-15.8,7.5-15.8,15.9c0.1,2.3,0.7,4.6,1.8,6.6l-11.5,12.3L118,62.9
			c5.6-2.7,9.2-8.3,9.2-14.5c0.1-9.1-7.2-16.5-16.2-16.6h-0.4c-9.2,0-16.6,7.4-16.6,16.6c0,0,0,0,0,0C94,52.8,95.8,57,99,60l-9,26.1
			L81,60c3.2-3,5-7.2,5.1-11.6c0-9.2-7.4-16.6-16.6-16.6c-9.1-0.1-16.5,7.1-16.7,16.2c0,0,0,0,0,0v0.4C52.7,54.7,56.3,60.4,62,63
			l-1.5,32.5L48.9,83.2c1.1-2,1.7-4.3,1.8-6.7c0-8.5-7.4-15.9-15.8-15.9c-8.8,0-15.9,7.2-15.9,16c0.1,7.3,5.1,13.6,12.1,15.5
			l21.7,52.2l-0.4,0.1l1.5,3.7c1.5-0.4,3-0.6,4.5-0.8l0.6-0.1c10.5-1.2,21-1.7,31.6-1.6c10.4-0.1,20.7,0.5,31,1.7
			c1.6,0.2,3.2,0.5,4.8,0.9l1.2-3.8l-0.4-0.1l21.7-52.2c7-1.9,12-8.2,12.1-15.5C161,67.8,153.9,60.7,145.1,60.6z M146.1,88.4
			L146.1,88.4l-22.9,55l-0.8-0.1c-10.6-1.2-21.2-1.8-31.9-1.7c-10.7-0.1-21.5,0.4-32.1,1.6c-0.6,0.1-1.1,0.2-1.7,0.2L34,88.4
			c-5.5,0-11-5.7-11-11.8c0-6.6,5.3-11.9,11.8-11.9c0,0,0,0,0,0h0.1c6.5,0.2,11.6,5.5,11.8,11.9c0,3.7-2.8,7.1-2.8,7.1L64,105.1
			l2.1-45.1c-5.5-1.1-9.4-6-9.3-11.6c-0.1-6.8,5.3-12.5,12.2-12.6h0.5c7,0,12.6,5.6,12.6,12.6l0,0l0,0c0,4.2-2.2,8-5.8,10.1L90,98.3
			l13.8-39.8c-3.6-2.1-5.8-6-5.8-10.1c0-7,5.6-12.6,12.6-12.6c0,0,0,0,0,0c6.8-0.1,12.5,5.3,12.6,12.2c0,0,0,0,0,0v0.4
			c0.1,5.6-3.8,10.5-9.3,11.6l2.1,45.1l20.1-21.4c0,0-2.8-3.4-2.8-7.1c0.1-6.5,5.3-11.7,11.8-11.9c6.6,0,11.9,5.3,11.9,11.8
			c0,0,0,0,0,0v0.1C157,82.7,151.6,88.4,146.1,88.4L146.1,88.4z"/>
	</g>
</g>
</svg>
