<svg xmlns="http://www.w3.org/2000/svg" viewBox="0 0 155.76 136.53"><defs><style>.cls-1{fill:#b63c41;}.cls-2{fill:#040000;}</style></defs><title>资源 26</title><g id="图层_2" data-name="图层 2"><g id="图层_1-2" data-name="图层 1"><rect class="cls-1" x="51.31" y="84.54" width="6.19" height="3.71"/><rect class="cls-1" x="97.34" y="84.76" width="7.06" height="5.29"/><path class="cls-1" d="M142.54,37.46l-12,59-6.16,10.66L123.16,118l6.18,17.36c-2.63,2.1-12-8-20.84-6.5-11.31,1.86-18.65-1.38-30.11-1.51-11.46.14-16,3.12-27.35,1.26-8.82-1.5-22,8.86-24.61,6.76L32.6,118l-1.22-10.88L25.19,96.43l-12-59,3-1L42.88,79.59l5.23,7.72,16.14-2,1.63-8.65,10.6-55.29h2.88L89.88,76.67l1.91,9.87,15.75,1.74,5.34-8.69,26.58-43.18Z"/><circle class="cls-1" cx="11.5" cy="27.62" r="10"/><path class="cls-2" d="M11.5,39.12A11.5,11.5,0,1,1,23,27.62,11.5,11.5,0,0,1,11.5,39.12Zm0-20a8.5,8.5,0,1,0,8.5,8.5A8.51,8.51,0,0,0,11.5,19.12Z"/><circle class="cls-1" cx="77.88" cy="11.5" r="10"/><path class="cls-2" d="M77.88,23a11.5,11.5,0,1,1,11.5-11.5A11.5,11.5,0,0,1,77.88,23Zm0-20a8.5,8.5,0,1,0,8.5,8.5A8.51,8.51,0,0,0,77.88,3Z"/><circle class="cls-1" cx="144.26" cy="27.62" r="10"/><path class="cls-2" d="M144.26,39.12a11.5,11.5,0,1,1,11.5-11.5A11.5,11.5,0,0,1,144.26,39.12Zm0-20a8.5,8.5,0,1,0,8.5,8.5A8.51,8.51,0,0,0,144.26,19.12Z"/><path class="cls-2" d="M32.1,108.44l-1.45-2.63c.62-.34,15.58-8.43,47.23-8.43s46.61,8.09,47.23,8.43l-1.45,2.63c-.15-.08-15-8.06-45.78-8.06S32.25,108.36,32.1,108.44Z"/><path class="cls-2" d="M26.36,98.39a3.36,3.36,0,0,1-2.08-.76l1.82-2.38a.6.6,0,0,0,.26.14c.72-.12,2.18-3.25,2.85-6.73l.37-1.87,1.73.79C32.77,88.24,37,90,39.13,90c6.75,0,8.68-2.44,13.33-8.35l1.06-1.34,1.19,1a15.62,15.62,0,0,0,22-1.63l0,0L78,78.3l1.08,1.43a13.93,13.93,0,0,0,11.81,5.76,16,16,0,0,0,10.39-3.9l1.23-1,.94,1.29c4.29,5.91,6.25,8.61,13.15,8.61,1.76,0,5.74-1.76,7.83-2.86l1.89-1,.3,2.12c.29,2.09,1.29,5.39,2.6,6.2a1,1,0,0,0,.94.08l.95,2.84a4,4,0,0,1-3.47-.37c-2-1.25-3.09-4.28-3.6-6.33-2,1-5.32,2.32-7.44,2.32-7.85,0-10.72-3.21-14.67-8.6a18.74,18.74,0,0,1-11,3.61,16.85,16.85,0,0,1-13-5.62,18.22,18.22,0,0,1-12.86,5.19,18.4,18.4,0,0,1-10.92-3.56C49.93,89.82,47,93,39.26,93c-2.16,0-5.4-1.15-7.38-2-.66,2.52-2,6.29-4.31,7.17A3,3,0,0,1,26.36,98.39Z"/><path class="cls-2" d="M122.64,119.41a144.67,144.67,0,0,0-44.76-6.94,144.38,144.38,0,0,0-44.76,6.94l-1-2.82a148.06,148.06,0,0,1,45.76-7.12,148,148,0,0,1,45.79,7.12Z"/><path class="cls-2" d="M128.4,136.53c-1.67-1.33-5.89-3.31-16.55-5.13a195.55,195.55,0,0,0-34-2.58A195,195,0,0,0,43.9,131.4c-10.68,1.82-14.9,3.8-16.57,5.13l-1.87-2.34c2.86-2.3,8.72-4.17,17.92-5.75a199.34,199.34,0,0,1,34.5-2.62,198.06,198.06,0,0,1,34.48,2.63c9.18,1.56,15,3.44,17.91,5.74Z"/><polygon class="cls-2" points="34.44 117.76 33.13 106.23 26.86 95.48 15.21 38.03 15.88 37.8 44.45 84.23 44.45 84.01 41.52 73.74 17.14 34.19 11.74 36.05 23.98 96.56 30.14 107.19 31.32 117.44 24.99 135.22 28.51 134.26 34.44 117.76"/><polygon class="cls-2" points="126.14 107.19 132.28 96.56 144.56 36.05 139.13 34.19 114.53 74.1 114.53 74.04 111.89 83.85 111.91 84.23 140.47 37.8 141.13 38.03 129.49 95.48 123.27 106.23 121.97 117.76 127.81 134.18 131.38 135.31 124.98 117.4 126.14 107.19"/><polygon class="cls-2" points="80.81 19.42 75.44 19.42 65.66 70.49 65.43 69.86 66.56 81.78 77.94 22.46 78.33 22.46 89.66 81.67 90.5 70 80.81 19.42"/><rect class="cls-2" x="42.64" y="73.1" width="2.72" height="15.4" transform="translate(-34.51 32.83) rotate(-30)"/><rect class="cls-2" x="110.47" y="73.27" width="3.14" height="15.4" transform="translate(59.45 -46.88) rotate(31.79)"/><rect class="cls-2" x="88.87" y="69.8" width="3.14" height="15.4" transform="translate(-13.57 19.47) rotate(-11.43)"/><rect class="cls-2" x="64.13" y="70.76" width="3.14" height="15.4" transform="translate(14.57 -10.19) rotate(9.97)"/></g></g></svg>