<?xml version="1.0" encoding="utf-8"?>
<!-- Generator: Adobe Illustrator 23.1.1, SVG Export Plug-In . SVG Version: 6.00 Build 0)  -->
<svg version="1.1" id="Layer_1" xmlns="http://www.w3.org/2000/svg" xmlns:xlink="http://www.w3.org/1999/xlink" x="0px" y="0px"
	 viewBox="0 0 180 180" style="enable-background:new 0 0 180 180;" xml:space="preserve">
<style type="text/css">
	.st0{fill:#B63C41;}
	.st1{fill:#040000;}
</style>
<title>f</title>
<g id="Layer_2">
	<g id="Layer_1-2">
		<rect x="63.4" y="106.3" class="st0" width="6.2" height="3.7"/>
		<rect x="109.5" y="106.5" class="st0" width="7.1" height="5.3"/>
		<path class="st0" d="M154.7,59.2l-12,59l-6.2,10.7l-1.2,10.9l6.2,17.4c-2.6,2.1-12-8-20.8-6.5c-11.3,1.9-18.7-1.4-30.1-1.5
			c-11.5,0.1-16,3.1-27.3,1.3c-8.8-1.5-22,8.9-24.6,6.8l6.2-17.4l-1.2-10.9l-6.2-10.7l-12-59l3-1L55,101.3l5.2,7.7l16.1-2l1.6-8.7
			l10.6-55.3h2.9L102,98.4l1.9,9.9l15.8,1.7l5.3-8.7l26.6-43.2L154.7,59.2z"/>
		<circle class="st0" cx="23.6" cy="49.4" r="10"/>
		<path class="st1" d="M23.6,60.9c-6.4,0-11.5-5.1-11.5-11.5s5.1-11.5,11.5-11.5S35.1,43,35.1,49.4v0C35.1,55.7,30,60.9,23.6,60.9z
			 M23.6,40.9c-4.7,0-8.5,3.8-8.5,8.5s3.8,8.5,8.5,8.5s8.5-3.8,8.5-8.5C32.1,44.7,28.3,40.9,23.6,40.9z"/>
		<circle class="st0" cx="90" cy="33.2" r="10"/>
		<path class="st1" d="M90,44.7c-6.4,0-11.5-5.1-11.5-11.5S83.6,21.7,90,21.7s11.5,5.1,11.5,11.5S96.4,44.7,90,44.7z M90,24.7
			c-4.7,0-8.5,3.8-8.5,8.5s3.8,8.5,8.5,8.5s8.5-3.8,8.5-8.5C98.5,28.5,94.7,24.7,90,24.7z"/>
		<circle class="st0" cx="156.4" cy="49.4" r="10"/>
		<path class="st1" d="M156.4,60.9c-6.4,0-11.5-5.1-11.5-11.5s5.1-11.5,11.5-11.5c6.4,0,11.5,5.1,11.5,11.5S162.7,60.9,156.4,60.9z
			 M156.4,40.9c-4.7,0-8.5,3.8-8.5,8.5s3.8,8.5,8.5,8.5s8.5-3.8,8.5-8.5C164.9,44.7,161.1,40.9,156.4,40.9z"/>
		<path class="st1" d="M44.2,130.2l-1.5-2.6c0.6-0.3,15.6-8.4,47.2-8.4s46.6,8.1,47.2,8.4l-1.5,2.6c-0.1-0.1-15-8.1-45.8-8.1
			S44.4,130.1,44.2,130.2z"/>
		<path class="st1" d="M38.5,120.1c-0.8,0-1.5-0.3-2.1-0.8l1.8-2.4c0.1,0.1,0.2,0.1,0.3,0.1c0.7-0.1,2.2-3.2,2.8-6.7l0.4-1.9
			l1.7,0.8c1.5,0.7,5.7,2.4,7.8,2.4c6.8,0,8.7-2.4,13.3-8.3l1.1-1.3l1.2,1c6.5,5.6,16.4,4.9,22-1.6l0,0l1.3-1.4l1.1,1.4
			c2.7,3.8,7.2,5.9,11.8,5.8c3.8,0,7.5-1.4,10.4-3.9l1.2-1l0.9,1.3c4.3,5.9,6.2,8.6,13.1,8.6c1.8,0,5.7-1.8,7.8-2.9l1.9-1l0.3,2.1
			c0.3,2.1,1.3,5.4,2.6,6.2c0.3,0.2,0.6,0.2,0.9,0.1l0.9,2.8c-1.2,0.4-2.4,0.3-3.5-0.4c-2-1.2-3.1-4.3-3.6-6.3c-2,1-5.3,2.3-7.4,2.3
			c-7.8,0-10.7-3.2-14.7-8.6c-3.2,2.3-7,3.6-11,3.6c-4.9,0.1-9.7-1.9-13-5.6c-3.4,3.4-8.1,5.2-12.9,5.2c-3.9,0-7.8-1.2-10.9-3.6
			c-4.2,5.3-7.2,8.5-14.9,8.5c-2.2,0-5.4-1.2-7.4-2c-0.7,2.5-2,6.3-4.3,7.2C39.3,120.1,38.9,120.1,38.5,120.1z"/>
		<path class="st1" d="M134.8,141.1c-14.5-4.6-29.6-7-44.8-6.9c-15.2-0.1-30.3,2.3-44.8,6.9l-1-2.8c14.8-4.8,30.2-7.2,45.8-7.1
			c15.5,0,31,2.4,45.8,7.1L134.8,141.1z"/>
		<path class="st1" d="M140.5,158.3c-1.7-1.3-5.9-3.3-16.5-5.1c-11.2-1.8-22.6-2.7-34-2.6c-11.4-0.1-22.7,0.7-33.9,2.6
			c-10.7,1.8-14.9,3.8-16.6,5.1l-1.9-2.3c2.9-2.3,8.7-4.2,17.9-5.8c11.4-1.9,22.9-2.7,34.5-2.6c11.5-0.1,23.1,0.7,34.5,2.6
			c9.2,1.6,15,3.4,17.9,5.7L140.5,158.3z"/>
		<polygon class="st1" points="46.6,139.5 45.3,128 39,117.2 27.3,59.8 28,59.5 56.6,106 56.6,105.7 53.6,95.5 29.3,55.9 23.9,57.8 
			36.1,118.3 42.3,128.9 43.4,139.2 37.1,157 40.6,156 		"/>
		<polygon class="st1" points="138.3,128.9 144.4,118.3 156.7,57.8 151.2,55.9 126.7,95.8 126.7,95.8 124,105.6 124,106 152.6,59.5 
			153.2,59.8 141.6,117.2 135.4,128 134.1,139.5 139.9,155.9 143.5,157 137.1,139.1 		"/>
		<polygon class="st1" points="92.9,41.2 87.6,41.2 77.8,92.2 77.6,91.6 78.7,103.5 90.1,44.2 90.5,44.2 101.8,103.4 102.6,91.7 		
			"/>
		<rect x="54.8" y="94.8" transform="matrix(0.866 -0.5 0.5 0.866 -43.7519 41.7953)" class="st1" width="2.7" height="15.4"/>
		
			<rect x="116.4" y="101.1" transform="matrix(0.5268 -0.85 0.85 0.5268 -28.5496 154.1205)" class="st1" width="15.4" height="3.1"/>
		
			<rect x="101" y="91.5" transform="matrix(0.9802 -0.1982 0.1982 0.9802 -17.6336 22.2916)" class="st1" width="3.1" height="15.4"/>
		
			<rect x="70.1" y="98.6" transform="matrix(0.1731 -0.9849 0.9849 0.1731 -34.3401 159.4867)" class="st1" width="15.4" height="3.1"/>
	</g>
</g>
</svg>
