<?xml version="1.0" encoding="utf-8"?>
<!-- Generator: Adobe Illustrator 23.1.1, SVG Export Plug-In . SVG Version: 6.00 Build 0)  -->
<svg version="1.1" id="Layer_1" xmlns="http://www.w3.org/2000/svg" xmlns:xlink="http://www.w3.org/1999/xlink" x="0px" y="0px"
	 viewBox="0 0 180 180" style="enable-background:new 0 0 180 180;" xml:space="preserve">
<style type="text/css">
	.st0{fill:#B63C41;}
	.st1{fill:#040000;}
</style>
<title>f</title>
<g id="Layer_2">
	<g id="Layer_1-2">
		<path class="st0" d="M130.3,137l-3.4-1.3c-13.8-5.3-25.9-7.9-37-7.9s-23.2,2.6-37,7.9l-3.4,1.3l-0.6-3.6
			c-1.9-10.8-6.5-22.7-13.9-35.4l-6.8-11.9l26.3,18.5l11.4-55.8l24.1,50l24-50l11.5,55.8l26.6-18.7l-7.1,12
			c-7.4,12.4-12,24.4-13.8,35.4L130.3,137z"/>
		<path class="st1" d="M154.3,70.6h-0.7c-6.2,0-11.2,5-11.2,11.2c-0.1,2.2,0.6,4.3,1.9,6.1l-16.8,11.9l-8.6-41.7
			c7.2-3.5,7.5-11.2,3.7-16.6c-3.5-4.9-10.2-6-15.1-2.6c-0.2,0.2-0.5,0.3-0.7,0.5c-4.8,3.8-5.6,10.9-1.8,15.7c0,0,0,0,0,0
			c0.5,0.6,1,1.2,1.6,1.7l-17,35.3l-17-35.3c4.7-4,5.4-11,1.4-15.8c0,0,0,0,0,0c-0.5-0.6-1-1.1-1.6-1.5c-4.6-3.8-11.4-3.2-15.2,1.3
			c-0.2,0.2-0.4,0.5-0.5,0.7C52.8,47,53,54.7,60.3,58.2l-8.6,41.7L34.9,88c1.2-1.8,1.8-3.9,1.8-6.1c0-6.2-5-11.2-11.2-11.2
			c-6.2,0-11.2,5-11.2,11.2c0,6.2,5,11.2,11.2,11.2c0,0,0,0,0,0c0.4,0,0.9-0.1,1.6-0.2c10.7,16.5,18.2,32.9,18.7,49.6l6.5-2
			c0-0.1,0-0.2,0-0.3c11.3-4.5,24.7-8.2,37.3-8.2c12.4,0,25.9,3.8,37.3,8.2c0,0.1,0,0.3,0,0.4l6.4,2.3c0.4-16.8,7.8-33.4,18.7-50.1
			c0.7,0.1,1.2,0.2,1.6,0.2c6.2,0.5,11.6-4.1,12.1-10.3s-4.1-11.6-10.3-12.1C155,70.6,154.6,70.6,154.3,70.6z M127.6,133.8
			c-12.4-4.7-25.4-8.1-38.1-8.1s-25.7,3.3-38.1,8.1c-2-12-7.3-24.4-14.2-36.4l18.9,13.3l10.5-51.5l22.9,47.6l22.9-47.6l10.5,51.5
			l18.9-13.3C134.8,109.3,129.6,121.8,127.6,133.8z"/>
		<path class="st0" d="M153.9,75.7c-3.6,0-5.4,1.8-5.4,5.3c0,3.5,1.8,5.3,5.4,5.3s5.3-1.8,5.3-5.3S157.5,75.7,153.9,75.7z"/>
		<path class="st0" d="M114,41.9c-3.5,0-5.3,1.8-5.3,5.3c0,3.5,1.8,5.3,5.3,5.3s5.3-1.8,5.3-5.3S117.5,41.9,114,41.9z"/>
		<path class="st0" d="M65.6,41.9c-3.5,0-5.3,1.8-5.3,5.3c0,3.5,1.8,5.3,5.3,5.3c3.5,0,5.3-1.8,5.3-5.3S69.1,41.9,65.6,41.9z"/>
		<path class="st0" d="M25.6,75.7c-3.5,0-5.3,1.8-5.3,5.3c0,3.5,1.8,5.3,5.3,5.3S31,84.5,31,81C31,77.5,29.3,75.7,25.6,75.7z"/>
	</g>
</g>
</svg>
