<svg xmlns="http://www.w3.org/2000/svg" viewBox="0 0 150.95 106.03"><defs><style>.cls-1{fill:#b63c41;}.cls-2{fill:#040000;}</style></defs><title>资源 27</title><g id="图层_2" data-name="图层 2"><g id="图层_1-2" data-name="图层 1"><path class="cls-1" d="M116,100l-3.44-1.31c-13.84-5.29-25.95-7.87-37-7.87s-23.16,2.58-37,7.87L35.13,100l-.61-3.6C32.66,85.59,28,73.66,20.64,61L13.8,49.13,40.07,67.65,51.48,11.88l24.06,50,24-50L111,67.64l26.59-18.71-7.15,12c-7.38,12.45-12,24.36-13.85,35.4Z"/><path class="cls-2" d="M140,33.65h-.67a11.27,11.27,0,0,0-11.24,11.23A10,10,0,0,0,129.94,51L113.13,62.89l-8.58-41.68C111.76,17.69,112,10,108.24,4.57A10.82,10.82,0,0,0,93.16,2c-.24.17-.47.35-.7.53a11.15,11.15,0,0,0-1.77,15.67,10.53,10.53,0,0,0,1.62,1.65l-17,35.3-17-35.3a11.19,11.19,0,0,0,1.4-15.77,11.5,11.5,0,0,0-1.57-1.55A10.82,10.82,0,0,0,42.9,3.88q-.28.33-.54.69C38.5,10,38.76,17.69,46.05,21.21L37.49,62.89,20.69,51a10.7,10.7,0,0,0,1.79-6.09A11.24,11.24,0,1,0,11.25,56.14c.43,0,.94-.09,1.63-.17C23.62,72.43,31.05,88.9,31.54,105.58l6.49-2c0-.09,0-.18,0-.27,11.3-4.46,24.7-8.23,37.3-8.23,12.43,0,25.9,3.77,37.3,8.23,0,.13,0,.26,0,.38L119,106c.36-16.81,7.8-33.42,18.7-50.08.69.08,1.2.17,1.63.17A11.24,11.24,0,1,0,140,33.65ZM113.39,96.77C101,92.05,88,88.7,75.31,88.7s-25.73,3.35-38.08,8.07c-2-12-7.29-24.45-14.23-36.45L41.86,73.61,52.41,22.07l22.9,47.59,22.9-47.59,10.54,51.54,18.87-13.29C120.51,72.32,115.36,84.76,113.39,96.77Z"/><path class="cls-1" d="M139.68,38.69c-3.59,0-5.39,1.8-5.39,5.32s1.8,5.32,5.39,5.32S145,47.53,145,44,143.2,38.69,139.68,38.69Z"/><path class="cls-1" d="M99.72,4.9c-3.52,0-5.31,1.81-5.31,5.32s1.79,5.32,5.31,5.32,5.32-1.8,5.32-5.32S103.24,4.9,99.72,4.9Z"/><path class="cls-1" d="M51.35,4.9C47.84,4.9,46,6.71,46,10.22s1.8,5.32,5.31,5.32,5.33-1.8,5.33-5.32S54.87,4.9,51.35,4.9Z"/><path class="cls-1" d="M11.39,38.69c-3.51,0-5.31,1.8-5.31,5.32s1.8,5.32,5.31,5.32,5.4-1.8,5.4-5.32S15,38.69,11.39,38.69Z"/></g></g></svg>