<?xml version="1.0" encoding="utf-8"?>
<!-- Generator: Adobe Illustrator 23.1.1, SVG Export Plug-In . SVG Version: 6.00 Build 0)  -->
<svg version="1.1" id="Layer_1" xmlns="http://www.w3.org/2000/svg" xmlns:xlink="http://www.w3.org/1999/xlink" x="0px" y="0px"
	 viewBox="0 0 180 180" style="enable-background:new 0 0 180 180;" xml:space="preserve">
<style type="text/css">
	.st0{fill:#B63C41;}
	.st1{opacity:0.2;fill:#FFFFFF;enable-background:new    ;}
	.st2{opacity:0.2;fill:#040000;enable-background:new    ;}
	.st3{fill:#1A1A1A;}
</style>
<title>beta</title>
<g id="Layer_2">
	<g id="Layer_1-2">
		<path class="st0" d="M63,100c-0.7,6.3-4.2,35.8-5.1,42.8c-10.6,2.5-10.6,9.5-10.6,17.5v2.7h74.4v-2.7c0-8.1,0-15-10.6-17.5
			c-0.9-7-4.4-36.5-5.1-42.8"/>
		<path class="st1" d="M84.5,146.8c31.5,0,34.8,3.5,34.8,3.5h0.4c-1.4-7.5-17.9-8.3-17.9-8.3H67.4c0,0-17.1,0.6-18.1,8.2h0.4
			C49.7,150.2,53,146.8,84.5,146.8z"/>
		<path class="st2" d="M69,99.9c0,0,15.7-1,23.7,9.1s8.8,31.8,8.8,31.8c5.2,1,9.1,2.1,9.1,2.1l-4.9-42.1"/>
		<path class="st3" d="M121.3,149c-1.6-3.4-4.5-5.6-9.2-6.9c-1-8-3.9-33-4.8-40.7h0l-2.1-2.4c-7-1.1-14-1.7-21-1.9
			c-7,0.2-14,0.8-21,1.9l-2.3,2.3l0.2,0.1c-0.9,7.7-3.8,32.7-4.8,40.7c-4.6,1.3-7.6,3.5-9.2,6.9c-1.6,3.4-1.6,7.3-1.6,11.8v4.2h77.4
			v-4.1C122.9,156.2,122.9,152.3,121.3,149z M64,101.8L64,101.8c6.7-1,13.5-1.6,20.2-1.8c6.8,0.2,13.5,0.8,20.2,1.8
			c0.9,7.6,3.6,30.7,4.7,39.5c-0.5-0.1-1-0.2-1.6-0.2c-7.7-0.9-15.5-1.3-23.3-1.2c-7.8-0.1-15.6,0.3-23.3,1.2
			c-0.5,0.1-1.1,0.1-1.6,0.2C60.4,132.5,63.1,109.4,64,101.8z M119.9,161.9L119.9,161.9H48.5c0-8.7-0.5-14.9,9.3-17.2l0.2-0.1
			l0.7-0.2c0.7-0.2,1.6-0.3,2.5-0.4c7.6-0.9,15.3-1.3,23-1.2c7.7-0.1,15.3,0.3,23,1.2c0.9,0.1,1.7,0.2,2.4,0.4l0.8,0.2h0.2
			C120.4,147,119.9,153.2,119.9,161.9L119.9,161.9z"/>
		<path class="st0" d="M104.5,96.8c5.1-4.3,12-13.5,12-28.7c0-15-9.9-26.3-16.2-32.6L99,34.1l-1,1.6c-1.1,1.9-6.5,10.6-6.7,32.7h-10
			c0.4-33,13.2-45.4,13.3-45.5l0.5-0.5L95,21.7c-0.4-4.9-4.5-8.8-9.4-8.8v0c-5.2,0-9.5,4.2-9.5,9.5c0,2.4,0.9,4.7,2.5,6.4
			C74.7,32,71.2,35.5,68,39.3C60,48.7,55.8,58.7,55.8,68c0,15.2,6.9,24.4,12,28.7"/>
		<path class="st2" d="M105.9,42.7c16.6,40.4-19.8,52.6-19.8,52.6l18.4,1.5c-1.8,1.4,11.7-3.8,11.7-30.3
			C116.2,57.5,112.5,48.8,105.9,42.7z"/>
		<path class="st1" d="M80.9,28.9c-2-0.9-21,15.1-24.1,31.4c-2.9,15.2,2.3,19.5,2,19.3c0-0.1,2-33.5,24-49.9
			C82.9,29.8,82,29.4,80.9,28.9z"/>
		<path class="st1" d="M86.9,14.3c-3.2,0.3-8.6,4.9-9.1,11.2c0,0-4.4-4.1,0-9.1C81.3,12.4,86.9,14.3,86.9,14.3z"/>
		<path class="st2" d="M84.7,42.3C86.1,38.6,95,21,95,21L91,14.3l-2.1,0c6.7,8.2-13.2,27.1-13.2,41.3c0,4.2,1,12.6,4.1,14.1
			C79.8,69.8,81.9,50,84.7,42.3z"/>
		<path class="st3" d="M71.4,98.2c-3.7-1.7-14.9-10.6-14.9-29.9c0-22,23.5-39.1,23.5-39.1c-3.6-2.6-4.4-7.6-1.8-11.2
			c2.6-3.6,7.6-4.4,11.2-1.8c1.9,1.4,3.2,3.6,3.3,5.9c0,0-13.7,13-13.7,48h13c0-21.9,5.1-31,6.5-33.4c6.9,6.9,15.8,17.6,15.8,31.6
			c0,19.1-11.1,28-14.8,29.8l7.8-2.5c4.8-5.1,10-14.1,10-27.4c0-11.5-5.4-22.5-16.6-33.7L97.9,32l-1.9,3.3c-4.2,7.1-6.6,18.1-6.9,32
			h-7.1c0.4-15.7,3.7-26.4,6.4-32.6c3.2-7.2,6.4-10.3,6.4-10.3l1-1l-0.1-1.4c-0.4-5.7-5.2-10.1-10.9-10.1l0,0
			c-6,0-10.9,4.9-10.9,10.9c0,2.2,0.7,4.4,2,6.3c-3.5,3-6.7,6.2-9.7,9.7c-8.2,9.7-12.5,20-12.5,29.7c0,13.1,5,21.9,9.7,27.1
			L71.4,98.2L71.4,98.2z"/>
		<path class="st3" d="M85.4,98.7c6.6,0,12.6,0.2,18,0.7l1.4-2.8c-5.6-0.5-12-0.8-19.4-0.8l0,0c-7.5,0-13.9,0.3-19.6,0.8l0.9,2.9
			C72.3,98.9,78.5,98.7,85.4,98.7z"/>
		<rect x="64" y="92.4" transform="matrix(0.7506 -0.6608 0.6608 0.7506 -47.0807 67.0951)" class="st3" width="2.6" height="7.1"/>
		
			<rect x="101.4" y="94.7" transform="matrix(0.7071 -0.7071 0.7071 0.7071 -37.1527 102.351)" class="st3" width="7.1" height="2.6"/>
		<path class="st0" d="M98.5,129.1c-0.4,3.8-2.5,21.6-3.1,25.8c-6.4,1.5-6.4,5.7-6.4,10.6v1.6h44.8v-1.6c0-4.9,0-9-6.4-10.6
			c-0.5-4.2-2.6-22-3.1-25.8"/>
		<path class="st1" d="M111.4,157.3c19,0,21,2.1,21,2.1h0.2c-0.8-4.5-10.8-5-10.8-5h-20.8c0,0-10.3,0.4-10.9,5h0.3
			C90.4,159.4,92.4,157.3,111.4,157.3z"/>
		<path class="st2" d="M102,129.1c0,0,9.4-0.6,14.3,5.5s5.3,19.1,5.3,19.1c3.2,0.6,5.5,1.2,5.5,1.2l-3-25.4"/>
		<path class="st3" d="M133.6,158.6c-1-2.1-2.7-3.4-5.5-4.2c-0.6-4.8-2.4-19.9-2.9-24.5l0,0l-1.3-1.4c-4.2-0.6-8.4-1-12.7-1.1
			c-4.2,0.1-8.5,0.5-12.7,1.1l-1.4,1.4l0.1,0c-0.5,4.7-2.3,19.7-2.9,24.5c-2.8,0.8-4.6,2.1-5.5,4.2c-1,2.1-1,4.4-0.9,7.1v2.5h46.6
			v-2.5C134.5,163,134.5,160.6,133.6,158.6z M99,130.2L99,130.2c4-0.6,8.1-1,12.2-1.1c4.1,0.1,8.1,0.5,12.2,1.1
			c0.5,4.5,2.2,18.5,2.8,23.8c-0.3-0.1-0.6-0.1-0.9-0.1c-4.7-0.5-9.4-0.8-14.1-0.7c-4.7,0-9.4,0.2-14.1,0.7l-0.9,0.1
			C96.9,148.7,98.5,134.8,99,130.2z M132.7,166.4L132.7,166.4H89.7c0-5.2-0.3-9,5.6-10.4l0.2,0l0.4-0.1c0.4-0.1,1-0.2,1.5-0.2
			c4.6-0.5,9.2-0.8,13.9-0.7c4.6,0,9.2,0.2,13.8,0.7c0.5,0.1,1,0.1,1.5,0.2l0.5,0.1h0.1C133.1,157.4,132.8,161.2,132.7,166.4
			L132.7,166.4z"/>
		<path class="st0" d="M123.4,127.1c3.1-2.6,7.3-8.1,7.3-17.3c0-9-6-15.9-9.8-19.7l-0.8-0.8l-0.6,1c-0.7,1.1-3.9,6.4-4,19.7h-6
			c0.2-19.9,7.9-27.4,8.1-27.4l0.3-0.3v-0.4c-0.2-3-2.7-5.3-5.7-5.3l0,0c-3.2,0-5.7,2.6-5.7,5.7c0,1.4,0.5,2.8,1.5,3.9
			c-2.3,1.9-4.5,4-6.4,6.3c-4.8,5.7-7.3,11.7-7.3,17.3c0,9.2,4.2,14.7,7.3,17.3"/>
		<path class="st2" d="M124.3,94.6c10,24.3-12,31.7-12,31.7l11.1,0.9c-1.1,0.8,7.1-2.3,7.1-18.3C130.5,103.4,128.3,98.3,124.3,94.6z
			"/>
		<path class="st1" d="M109.2,86.3c-1.2-0.5-12.6,9.1-14.5,18.9c-1.8,9.2,1.4,11.7,1.2,11.7c0-0.1,1.2-20.2,14.5-30.1
			C110.4,86.8,109.9,86.6,109.2,86.3z"/>
		<path class="st1" d="M112.8,77.5c-1.9,0.2-5.2,2.9-5.5,6.8c0,0-2.6-2.5,0-5.5C109.5,76.3,112.8,77.5,112.8,77.5z"/>
		<path class="st2" d="M111.5,94.3c0.8-2.2,6.2-12.8,6.2-12.8l-2.4-4.1H114c4.1,5-8,16.3-8,24.9c0,2.5,0.6,7.6,2.4,8.5
			C108.6,110.9,109.8,99,111.5,94.3z"/>
		<path class="st3" d="M103.5,128c-2.2-1-8.9-6.4-8.9-18c0-13.3,14.2-23.5,14.2-23.5c-2.2-1.6-2.7-4.6-1.1-6.7
			c1.6-2.2,4.6-2.7,6.7-1.1c1.1,0.8,1.9,2.1,2,3.5c0,0-8.3,7.8-8.3,29h7.8c0-13.2,3.1-18.7,3.9-20.1c4.2,4.2,9.5,10.6,9.5,19
			c0,11.5-6.7,16.9-8.9,18l4.7-1.5c2.9-3.1,6-8.5,6-16.5c0-6.9-3.3-13.6-10-20.3l-1.6-1.6l-1.1,2c-2.5,4.3-4,10.9-4.1,19.3h-4.3
			c0.2-9.5,2.2-15.9,3.9-19.7c1.9-4.3,3.8-6.2,3.9-6.2l0.6-0.6l-0.1-0.8c-0.3-3.4-3.1-6.1-6.6-6.1l0,0c-3.6,0-6.6,2.9-6.6,6.6
			c0,1.3,0.4,2.7,1.2,3.8c-2.1,1.8-4.1,3.7-5.9,5.9c-4.9,5.9-7.5,12.1-7.5,17.9c0,7.9,3,13.2,5.9,16.3L103.5,128L103.5,128z"/>
		<path class="st3" d="M111.9,128.3c4,0,7.6,0.1,10.8,0.4l0.8-1.7c-3.4-0.3-7.2-0.5-11.7-0.5l0,0c-4.5,0-8.4,0.2-11.8,0.5l0.5,1.7
			C104,128.4,107.8,128.3,111.9,128.3z"/>
		
			<rect x="99.1" y="124.5" transform="matrix(0.7506 -0.6608 0.6608 0.7506 -58.7778 97.5718)" class="st3" width="1.6" height="4.3"/>
		
			<rect x="121.6" y="125.9" transform="matrix(0.7071 -0.7071 0.7071 0.7071 -53.3518 124.6111)" class="st3" width="4.3" height="1.6"/>
	</g>
</g>
</svg>
