<?xml version="1.0" encoding="utf-8"?>
<!-- Generator: Adobe Illustrator 23.1.1, SVG Export Plug-In . SVG Version: 6.00 Build 0)  -->
<svg version="1.1" id="Layer_1" xmlns="http://www.w3.org/2000/svg" xmlns:xlink="http://www.w3.org/1999/xlink" x="0px" y="0px"
	 viewBox="0 0 180 180" style="enable-background:new 0 0 180 180;" xml:space="preserve">
<style type="text/css">
	.st0{fill:#B63C41;}
	.st1{fill:#040000;}
	.st2{fill:#040000;stroke:#040000;stroke-width:4;stroke-miterlimit:10;}
</style>
<title>beta</title>
<g id="Layer_2">
	<g id="Layer_1-2">
		<polyline class="st0" points="63.2,95.6 63.2,124.8 53,134.9 53,147.7 44,147.7 44,159.7 122.6,159.7 122.6,147.7 113.6,147.7 
			113.6,134.9 103.5,124.8 103.5,95.6 		"/>
		<polygon class="st1" points="114.8,146.9 114.8,134.7 104.7,124.6 104.7,96.5 102.6,95.2 102.5,95.2 102.5,125.4 112.6,135.6 
			112.6,149 121.6,149 121.6,158.8 45.2,158.8 45.2,149 54.2,149 54.2,135.6 64.4,125.5 64.4,95.2 64.2,95.1 62.1,96.2 62.2,96.2 
			62.2,124.5 52.1,134.7 52.1,146.8 43,146.8 43,160.9 123.8,160.9 123.8,146.9 		"/>
		<rect x="63.2" y="94.5" class="st1" width="40.3" height="2.2"/>
		<rect x="63.2" y="123.7" class="st1" width="40.3" height="2.2"/>
		<rect x="53" y="133.8" class="st1" width="60.5" height="2.2"/>
		<rect x="53" y="146.6" class="st1" width="60.5" height="2.2"/>
		<path class="st2" d="M81.1,29.4l-0.5,0.7l-0.9,1C74.6,37,69.5,41,64.3,45C59,48.9,55.9,55.1,56,61.7c-0.2,3.7,0.7,7.3,2.5,10.5
			c1.5,3,3.2,4.8,10,8.7L62,97l2.8-1l-0.1-0.1l6.5-16l-1.6-0.9c-6.4-3.6-7.9-5.2-9.2-7.8c-1.6-2.9-2.4-6.1-2.2-9.4
			c0-5.9,2.8-11.5,7.5-15c5.3-4,10.5-8.2,15.7-14.2l0.9-1l0.6-0.8L81.1,29.4z"/>
		<path class="st2" d="M108.8,72.2c1.7-3.3,2.5-6.9,2.5-10.6c-0.2-4.8-1.8-11.6-8.3-16.6c-5.8-4.3-10.6-8.2-15.4-13.8l-0.8-1
			l-0.5-0.7l-1.8,1.2l0.5,0.8l0.9,1.1c4.9,5.7,9.8,9.8,15.7,14.1c5.9,4.5,7.3,10.6,7.5,14.9c0.1,3.3-0.7,6.6-2.2,9.5
			c-1.5,2.7-3.2,4.2-9.3,7.8L96,79.9l6.5,15.9l2.7,1.4l0.2-0.1l-6.6-16.4C105.3,77,107.1,75.2,108.8,72.2z"/>
		<path class="st0" d="M90.2,99.6h-0.1l1.9-0.2c4-0.6,8-1.5,11.9-2.8l-6.6-16.3l0.8-0.5c6.4-3.7,8.1-5.4,9.7-8.3
			c1.6-3.1,2.5-6.6,2.4-10.1c-0.2-4.6-1.7-11.2-8-15.9c-5.9-4.3-10.9-8.4-15.7-14.2l-0.9-1l-0.6-0.8h-3.4l-0.6,0.8l-0.9,1.1
			c-5.2,6-10.4,10.1-15.7,14.1c-5,3.7-8,9.7-8,15.9c-0.2,3.5,0.7,7,2.4,10.1c1.4,2.8,3.1,4.5,9.7,8.3l0.8,0.5l-6.6,16.4
			c3.8,1.4,7.8,2.3,11.9,2.8l1.9,0.2L90.2,99.6L90.2,99.6z"/>
		<path class="st1" d="M103.5,97.6c-3.7-1.4-7.6-2.4-11.5-3.1l-1.9-0.3c-4.4-0.4-8.9-0.5-13.3-0.3l-1.9,0.2c-4,0.4-7.9,1.2-11.7,2.5
			l-0.7-2.1c3.9-1.3,8-2.2,12.1-2.6l1.9-0.2c4.6-0.2,9.2-0.1,13.8,0.3l1.9,0.3c4.1,0.7,8.1,1.7,12,3.2L103.5,97.6z"/>
		<path class="st1" d="M98.1,82c-4.8-1.2-9.8-1.7-14.8-1.6c-5-0.1-9.9,0.4-14.7,1.6L68,79.7c5-1.2,10.2-1.8,15.4-1.7
			c5.2-0.1,10.3,0.5,15.4,1.7L98.1,82z"/>
		<circle class="st0" cx="83.4" cy="22.3" r="7.2"/>
		<path class="st1" d="M83.4,30.7c-4.6,0-8.3-3.7-8.3-8.3c0-4.6,3.7-8.3,8.3-8.3c4.6,0,8.3,3.7,8.3,8.3S88,30.7,83.4,30.7L83.4,30.7
			z M83.4,16.2c-3.4,0-6.2,2.8-6.2,6.2c0,3.4,2.8,6.2,6.2,6.2c3.4,0,6.2-2.8,6.2-6.2l0,0C89.6,18.9,86.8,16.2,83.4,16.2z"/>
		<path class="st1" d="M81.1,65.8v-5.2l-5.3-0.1c-1.1,0.2-2-0.6-2.2-1.6c0-0.2,0-0.4,0-0.5c-0.2-1.1,0.6-2,1.6-2.2
			c0.2,0,0.4,0,0.5,0h5.3v-5.6c0-1.4,0.8-2.2,2.3-2.2c1.1-0.1,2.1,0.6,2.2,1.7c0,0,0,0,0,0c0,0.2,0,0.3,0,0.5v5.5h5.5
			c1.4,0,2.1,0.7,2.1,2.2c0,1.4-0.7,2.2-2.1,2.2h-5.5v5.3c0,1.5-0.8,2.3-2.2,2.3c-1.1,0.1-2.2-0.6-2.3-1.8
			C81.1,66.2,81.1,66,81.1,65.8z"/>
		<polyline class="st0" points="99.3,125.3 99.3,143.5 93,149.8 93,157.8 87.4,157.8 87.4,165.2 136.3,165.2 136.3,157.8 
			130.6,157.8 130.6,149.8 124.4,143.5 124.4,125.3 		"/>
		<polygon class="st1" points="131.4,157.2 131.4,149.7 125.1,143.4 125.1,125.9 123.8,125.1 123.8,125.1 123.8,143.9 130,150.2 
			130,158.5 135.7,158.5 135.7,164.6 88.1,164.6 88.1,158.6 93.7,158.6 93.7,150.2 100,143.9 100,125.1 99.9,125.1 98.6,125.7 
			98.7,125.8 98.7,143.3 92.4,149.6 92.4,157.2 86.7,157.2 86.7,166 137,166 137,157.2 		"/>
		<rect x="99.3" y="124.7" class="st1" width="25.1" height="1.4"/>
		<rect x="99.3" y="142.8" class="st1" width="25.1" height="1.4"/>
		<rect x="93" y="149.1" class="st1" width="37.6" height="1.4"/>
		<rect x="93" y="157.1" class="st1" width="37.6" height="1.4"/>
		<path class="st2" d="M110.4,84.2l-0.3,0.4l-0.6,0.6c-2.9,3.2-6,6.1-9.5,8.6c-3.3,2.4-5.2,6.3-5.2,10.4c-0.1,2.3,0.4,4.5,1.6,6.5
			c0.9,1.9,2,3,6.2,5.4l-4,10l1.8-0.6h-0.1l4-10l-1-0.6c-4-2.3-4.9-3.2-5.7-4.9c-1-1.8-1.5-3.8-1.4-5.9c0-3.7,1.7-7.1,4.7-9.3
			c3.6-2.6,6.8-5.5,9.8-8.8l0.6-0.6l0.4-0.5L110.4,84.2z"/>
		<path class="st2" d="M127.7,110.8c1.1-2,1.6-4.3,1.5-6.6c-0.1-4.1-2-7.9-5.2-10.3c-3.5-2.5-6.7-5.4-9.5-8.6l-0.5-0.6l-0.3-0.4
			l-1.1,0.8l0.3,0.5l0.6,0.7c2.9,3.3,6.1,6.3,9.7,8.8c2.9,2.2,4.6,5.6,4.6,9.3c0,2.1-0.4,4.1-1.4,5.9c-0.9,1.7-1.9,2.6-5.7,4.9
			l-1,0.6l4,9.9l1.7,0.9l0.1,0l-4.1-10.2C125.5,113.8,126.6,112.7,127.7,110.8z"/>
		<path class="st0" d="M116.1,127.8L116.1,127.8l1.1-0.1c2.5-0.3,5-0.9,7.4-1.8l-4.1-10.1l0.5-0.3c4-2.3,5-3.4,6.1-5.2
			c1-1.9,1.5-4.1,1.4-6.3c0-3.9-1.9-7.5-5-9.9c-3.6-2.5-6.9-5.5-9.7-8.8l-0.5-0.6l-0.3-0.5h-2.1l-0.4,0.5l-0.6,0.7
			c-2.9,3.3-6.2,6.2-9.8,8.8c-3.1,2.3-5,6-5,9.9c-0.1,2.2,0.4,4.4,1.5,6.3c0.9,1.8,1.9,2.8,6.1,5.2l0.5,0.3L99.1,126
			c2.4,0.8,4.9,1.4,7.4,1.8l1.2,0.1L116.1,127.8L116.1,127.8z"/>
		<path class="st1" d="M124.4,126.6c-2.3-0.9-4.7-1.5-7.2-1.9l-1.2-0.2c-2.8-0.3-5.5-0.3-8.3-0.2l-1.2,0.1c-2.5,0.3-4.9,0.8-7.2,1.6
			l-0.4-1.3c2.5-0.8,5-1.4,7.6-1.6l1.2-0.1c2.9-0.2,5.7-0.1,8.6,0.2l1.2,0.2c2.5,0.4,5,1.1,7.5,2L124.4,126.6z"/>
		<path class="st1" d="M121,116.9c-3-0.7-6.1-1-9.1-1c-3.1-0.1-6.2,0.3-9.2,1l-0.4-1.4c3.1-0.7,6.3-1.1,9.6-1
			c3.2-0.1,6.4,0.3,9.5,1.1L121,116.9z"/>
		<circle class="st0" cx="111.9" cy="79.8" r="4.5"/>
		<path class="st1" d="M111.9,85c-2.9,0-5.2-2.3-5.2-5.2c0-2.9,2.3-5.2,5.2-5.2c2.9,0,5.2,2.3,5.2,5.2C117,82.6,114.7,85,111.9,85
			C111.9,85,111.9,85,111.9,85z M111.9,76c-2.1,0-3.8,1.7-3.8,3.8c0,2.1,1.7,3.8,3.8,3.8c2.1,0,3.8-1.7,3.8-3.8l0,0
			C115.7,77.7,114,76,111.9,76z"/>
		<path class="st1" d="M110.4,106.8v-3.2l-3.3,0c-0.7-0.1-1.3-0.7-1.3-1.5c0-0.7,0.6-1.2,1.3-1.3h3.3v-3.5c-0.1-0.7,0.4-1.3,1.1-1.4
			c0.1,0,0.2,0,0.3,0c0.7-0.1,1.3,0.4,1.4,1.1c0,0,0,0,0,0c0,0.1,0,0.2,0,0.3v3.4h3.4c0.6-0.1,1.2,0.4,1.3,1c0,0.1,0,0.2,0,0.4
			c0.1,0.6-0.3,1.3-1,1.4c-0.1,0-0.2,0-0.3,0h-3.4v3.3c0.1,0.7-0.4,1.3-1.1,1.4c-0.1,0-0.2,0-0.3,0c-0.7,0.1-1.3-0.4-1.4-1.1
			C110.4,107,110.4,106.9,110.4,106.8z"/>
	</g>
</g>
</svg>
