<?xml version="1.0" encoding="utf-8"?>
<!-- Generator: Adobe Illustrator 23.1.1, SVG Export Plug-In . SVG Version: 6.00 Build 0)  -->
<svg version="1.1" id="Layer_1" xmlns="http://www.w3.org/2000/svg" xmlns:xlink="http://www.w3.org/1999/xlink" x="0px" y="0px"
	 viewBox="0 0 180 180" style="enable-background:new 0 0 180 180;" xml:space="preserve">
<style type="text/css">
	.st0{fill:#B63C41;}
	.st1{fill:#040000;}
</style>
<title>beta</title>
<g id="Layer_2">
	<g id="Layer_1-2">
		<path class="st0" d="M108.8,97.3l3.5,47.3l10.7,7.9l1.3,12.3H46.6l1.2-12.3l10.7-7.9l3.5-47.3"/>
		<path class="st1" d="M126.1,149.6l-10.6-7.9l-3.3-43.8l0,0l-5.3-2.4H63.7l-0.1-0.1l-5.4,2.1l0.4,0.3l-3.3,43.8l-10.6,7.8
			l-1.9,17.6h85.3L126.1,149.6z M63.3,100.4h44.2l2.9,39.1H60.4L63.3,100.4z M85.4,162.2H48.4l1-9.9l10.7-7.9h50.7l10.7,7.9l1,9.9
			H85.4z"/>
		<path class="st0" d="M64.9,80.1l0.7,0.7l0.9-0.3c5.9-2,12.2-2.9,18.4-2.7c6.3-0.1,12.5,0.8,18.4,2.7l0.9,0.3l0.7-0.7
			c8.8-8.4,12.1-16.6,9.9-24.6c-2.8-9-12.3-18.6-29-29.5L85,25.4l-0.8,0.6c-16.8,10.9-26.3,20.6-29,29.5l0,0
			C52.8,63.4,56.1,71.7,64.9,80.1z"/>
		<path class="st0" d="M103.4,82.5l-1-0.3c-5.6-1.9-11.5-2.8-17.4-2.6c-5.9-0.2-11.8,0.7-17.4,2.6l-1,0.4v1.1
			c-0.1,3.3-0.8,6.6-1.9,9.8l-0.6,2H106l-0.7-2c-1.1-3.1-1.7-6.4-1.8-9.8L103.4,82.5z"/>
		<path class="st0" d="M85,13.3c2.9,0,4.3,1.2,4.3,3.7c0.1,2.9-1.3,4.4-4.3,4.4c-2.9,0-4.4-1.5-4.3-4.4C80.6,14.5,82,13.3,85,13.3z"
			/>
		<polygon class="st1" points="88.1,69 88.1,58 94.4,58 94.4,52.1 88.1,52.1 88.1,45.2 81.8,45.2 81.8,52.1 75.5,52.1 75.5,58 
			81.8,58 81.8,69 		"/>
		<path class="st1" d="M110,40.7c-3.8-4.1-10.6-9.6-20.7-16.4c1.4-1,5-2.9,5-7.6c0-5.1-4.2-8.9-9.4-8.9c-5.3,0-9.4,3.8-9.4,8.9
			c0,4.8,3.5,6.6,5,7.6c-10,6.8-17,12.2-20.8,16.4c-3.4,3.6-6.1,7.9-7.9,12.6C48.2,63.9,53,72.5,63.1,83.1c-0.3,5.4-2,10.6-4.8,15.2
			H72l0,0h5.1l0,0H81l0,0h7.8l0,0h3.9v0h5v0h13.8c-2.8-4.6-4.5-9.8-4.8-15.2c5.1-5.3,8.6-10.2,10.8-14.9C121.8,59,117.5,49,110,40.7
			z M66.1,93.5L66.1,93.5c1.1-3.3,1.8-6.8,1.9-10.2c5.4-1.8,11.2-2.7,16.9-2.5c5.7-0.2,11.5,0.7,16.9,2.5c0.1,3.5,0.8,6.9,1.9,10.2
			L66.1,93.5z M103.9,78.5c-6.1-2-12.5-3-19-2.8c-6.4-0.2-12.8,0.8-19,2.8c-8.5-8-11.6-15.6-9.4-23c2.6-8.6,12.1-18.1,28.4-28.7
			c16.3,10.6,25.7,20.1,28.4,28.7C115.4,62.9,112.3,70.6,103.9,78.5z"/>
		<path class="st0" d="M127.3,136.1l1.8,24.5l5.5,4.1l0.7,6.4H95.1l0.6-6.4l5.5-4.1l1.8-24.5"/>
		<path class="st1" d="M136.2,163.1l-5.4-4.1l-1.7-22.7l0,0l-2.7-1.2h-22.4h0l-2.8,1.1l0.2,0.2l-1.7,22.7l-5.5,4.1l-1,9h44.1
			L136.2,163.1z M103.7,137.7h22.9l1.5,20.2h-25.8L103.7,137.7z M115.2,169.7H96l0.5-5.1l5.5-4.1h26.2l5.5,4.1l0.5,5.1H115.2z"/>
		<path class="st0" d="M104.6,127.2l0.4,0.3l0.5-0.2c3.1-1,6.3-1.5,9.5-1.4c3.2-0.1,6.5,0.4,9.5,1.4l0.5,0.2l0.4-0.3
			c4.5-4.3,6.3-8.6,5.1-12.7c-1.4-4.7-6.4-9.6-15-15.3l-0.4-0.3l-0.4,0.3c-8.7,5.7-13.6,10.7-15,15.3l0,0
			C98.3,118.6,100,122.9,104.6,127.2z"/>
		<path class="st0" d="M124.5,128.5l-0.5-0.2c-2.9-1-5.9-1.4-9-1.3c-3.1-0.1-6.1,0.4-9,1.3l-0.5,0.2v0.6c-0.1,1.7-0.4,3.4-1,5.1
			l-0.3,1h21.7l-0.4-1.1c-0.6-1.6-0.9-3.3-1-5.1L124.5,128.5z"/>
		<path class="st0" d="M114.9,92.7c1.5,0,2.2,0.6,2.2,1.9c0,1.6-0.7,2.3-2.2,2.3s-2.3-0.8-2.2-2.3C112.7,93.3,113.4,92.7,114.9,92.7
			z"/>
		<polygon class="st1" points="116.6,121.5 116.6,115.8 119.8,115.8 119.8,112.7 116.6,112.7 116.6,109.2 113.3,109.2 113.3,112.7 
			110.1,112.7 110.1,115.8 113.3,115.8 113.3,121.5 		"/>
		<path class="st1" d="M127.9,106.8c-2-2.1-5.5-5-10.7-8.5c0.7-0.5,2.6-1.5,2.6-4c-0.1-2.7-2.4-4.8-5-4.7c-2.5,0.1-4.6,2.1-4.7,4.7
			c0,2.5,1.8,3.4,2.6,4c-5.2,3.5-8.8,6.3-10.7,8.5c-1.8,1.9-3.2,4.1-4.1,6.5c-1.9,5.4,0.6,9.9,5.8,15.4c-0.2,2.8-1,5.5-2.4,7.9h9.7
			l0,0h2l0,0h6.1l0,0h2.6l0,0h7.1c-1.5-2.4-2.3-5.1-2.5-7.8c2.3-2.2,4.2-4.9,5.6-7.7C134,116.3,131.8,111.1,127.9,106.8z
			 M105.2,134.1L105.2,134.1c0.6-1.7,0.9-3.5,1-5.3c2.8-1,5.8-1.4,8.7-1.3c3-0.1,5.9,0.4,8.7,1.3c0.1,1.8,0.4,3.6,1,5.3L105.2,134.1
			z M124.7,126.4c-3.2-1-6.5-1.5-9.8-1.5c-3.3-0.1-6.7,0.4-9.8,1.5c-4.4-4.1-6-8.1-4.9-11.9c1.3-4.4,6.3-9.4,14.7-14.8
			c8.4,5.4,13.3,10.4,14.7,14.8C130.7,118.3,129.1,122.3,124.7,126.4L124.7,126.4z"/>
	</g>
</g>
</svg>
